<svg xmlns="http://www.w3.org/2000/svg" version="1.1" viewBox="106.57 85 286.66 330"><path d="M 230.744 122.503 L 212 160.007 212 160.503 L 212 161 250 161 L 288 161 288 160.503 L 288 160.007 269.256 122.503 L 250.512 85 250 85 L 249.488 85 230.744 122.503 M 108.091 168.096 L 109.613 170.500 131.510 204.262 L 153.407 238.025 154.149 236.762 L 154.891 235.500 173.415 204 L 191.939 172.500 189.220 171.800 L 186.500 171.099 152.500 169.008 L 118.500 166.917 112.534 166.305 L 106.569 165.693 108.091 168.096 M 347.784 168.928 L 309.068 171.599 308.584 172.082 L 308.100 172.566 327.148 205.033 L 346.196 237.500 346.422 237.741 L 346.648 237.981 368.503 204.241 L 390.359 170.500 391.795 168.250 L 393.230 166 389.865 166.129 L 386.500 166.258 347.784 168.928 M 193.609 218 L 175.004 250 193.609 282 L 212.213 314 250 314 L 287.787 314 306.391 282 L 324.996 250 306.391 218 L 287.787 186 250 186 L 212.213 186 193.609 218 M 144.116 276.611 L 135.111 290.500 121.191 312 L 107.270 333.500 109.256 333.835 L 111.241 334.171 151.371 331.484 L 191.500 328.798 191.795 328.520 L 192.091 328.242 173.458 296.371 L 154.825 264.500 153.973 263.611 L 153.121 262.721 144.116 276.611 M 340.742 272.161 L 335.262 281.500 321.582 304.868 L 307.903 328.236 308.201 328.517 L 308.500 328.798 348.629 331.484 L 388.759 334.171 390.742 333.835 L 392.726 333.500 370.554 299.241 L 348.383 264.983 347.302 263.902 L 346.222 262.822 340.742 272.161 M 212 340.657 L 212 341.314 230.728 378.157 L 249.456 415 249.978 414.998 L 250.500 414.997 269.250 378.155 L 288 341.314 288 340.657 L 288 340 250 340 L 212 340 212 340.657" stroke="none" fill="#fcdc5c" fill-rule="evenodd"/></svg>