<svg xmlns="http://www.w3.org/2000/svg" enable-background="new 0 0 5000 4000" viewBox="0 0 5000 4000"><path fill="#d9eafc" d="M1671.11 3093.375s-529.04-225.843-591.216-833.235c-130.85-1278.277 604.8-1932.555 1955.82-1550.547 291.985 82.56 700.776 385.305 584.188 1066.16-68.542 400.275 80.61 472.007 257.953 457.974 177.343-14.033 456.792 21.589 499.784 277.853s2.089 581.795-714.022 581.795H1671.11z"/><path fill="#c7e2fc" d="M1114.773 1707.894c-3.544-6.846-4.565-10.2-7.584-17.101-14.988 33.364-59.236 58.34-92.259 41.953-22.454-10.693-35.172-42.972-27.691-66.315 11.609-36.323 50.181-58.602 84.106-72.564-6.086-15.937-10.438-40.731-28.286-46.834-14.275-4.386-34.057 7.579-40.49 21.182 10.489 7.002 12.823 18.647 8.926 30.991-3.291 12.906-26.04 20.71-37.237 12.568-14.953-9.48-18.174-30.744-10.535-46.287 18.361-37.707 81.799-65.685 120.003-48.478 22.277 7.173 38.053 45.857 45.354 71.602 7.804 24.056 17.085 49.152 23.605 74.997 6.58-3.277 18.29-7.552 24.514-9.7l9.998 29.123-72.424 24.863zm-34.472-86.689c-80.886 34.439-23.988 108.376 14.733 42.918l-14.733-42.918zM1125.017 2189.081c-43.865 16.563-80.881-24.318-73.782-66.946 5.108-40.606 59.138-60.802 89.116-33.355 30.417 27.583 28.645 87.397-15.334 100.301zm-4.199-14.917c29.613-8.208-2.568-91.411-29.518-79.951-30.688 9.865.693 91.566 29.518 79.951zM3733.893 2865.679c-43.863 16.565-80.881-24.318-73.781-66.945 5.107-40.605 59.138-60.802 89.115-33.355 30.416 27.583 28.645 87.395-15.334 100.3zm-4.2-14.917c29.613-8.208-2.566-91.408-29.518-79.95-30.687 9.864.694 91.565 29.518 79.95zM2197.282 1468.874l3.334-13.766c11.705 3.635 15.075-6.38 17.273-15.771 3.615-13.722 21.87-93.604 26.397-105.264-3.727-.605-11.504-2.453-14.979-2.955l3.899-16.096c12.052 2.617 23.75 5.113 33.941 1.495l11.648 2.822-23.394 96.574 10.166 2.462c7.025-4.852 22.927-16.713 29.921-20.779l-11.225-2.719 3.899-16.096 47.652 11.543-3.283 13.555c-19.873-3.677-36.456 11.259-51.375 21.411 15.037 12.245 17.339 50.606 36.153 58.085l-3.334 13.766c-8.605-3.111-30.346-4.039-35.06-13.538-8.6-13.723-16.069-36.218-22.233-51.687l-4.922-.967c-2.385 9.948-5.376 22.71-8.8 32.621 3.876.385 10.424 1.86 13.92 2.7l-3.899 16.096-55.699-13.492zM3356.629 983.737c-47.019-9.662-19.62-66.344-12.819-97.948-3.725-.605-11.504-2.453-14.979-2.956l3.898-16.095c12.259 3.008 25.198 5.277 34.154 1.546l11.648 2.822c-2.222 14.608-21.121 72.885-17.051 86.116 3.674 14.301 23.432 10.843 32.617 4.201 3.405-13.308 10.827-47.193 15.365-59.73-3.725-.606-11.504-2.454-14.978-2.956l3.898-16.096c10.28 2.937 25.421 4.966 33.941 1.496l11.648 2.822c-3.718 14.348-18.562 79.597-23.266 92.345 3.717.359 10.624 1.907 13.919 2.7l-3.898 16.096-40.239-9.748c.608-3.75 1.072-7.525 1.397-11.321-11.18 5.251-22.228 10.226-35.255 6.706zM4201.732 1716.802c-39.612 13.484-60.427-48.583-21.956-62.713 37.234-13.112 60.202 50.067 21.956 62.713zm59.485 347.967c-29.167 12.92-62.239-6.75-52.351-37.075 9.427-23.959 45.953-20.369 47.597 7.008 20.698 2.129 18.243-22.051 13.269-34.969-8.054-24.689-65.704-182.386-69.731-204.375-6.441 2.779-20.482 7.667-26.429 10.358l-9.997-29.123c22.021-8.059 42.243-15.781 55.065-31.754l20.692-7.104c11.428 44.302 83.678 213.674 76.42 256.912-2.904 34.577-22.842 59.129-54.535 70.122zM2280.055 654.984l13.994-22.309c18.457 13.282 29.991-2.842 39.41-17.844l30.7-48.176c-35.812 8.667-74.051-11.15-88.267-43.414-13.421-31.693-4.628-66.207 14.676-96.968 30.219-51.514 94.038-76.303 145.87-41.93 12.811 8.035 22.146 15.647 28.005 22.828 10.066 11.607 16.676 19.91 30.764 16.907l18.534 11.626c-13.048 19.808-139.036 224.402-150.357 236.64 6.349 2.815 17.607 9.621 22.954 12.964l-16.362 26.084-89.921-56.408zm62.595-118.083c11.12 7.178 26.878 7.616 38.605 1.739l50.379-80.311c8.795-13.921 10.925-25.506 2.961-37.121-18.363-24.253-48.958-18.035-67.773 2.444-23.945 23.86-62.654 87.821-24.172 113.249zM4047.092 2638.781c3.464-9.752 8.284-23.001 12.872-32.836-6.776-1.821-20.816-6.706-27.148-8.288l10.243-29.037c22.266 7.354 42.913 13.853 62.881 9.294l20.633 7.277-39.491 111.947c82.054-29.699 131.834 46.352 101.934 121.45-18.166 55.82-72.077 96.471-130.446 73.846-17.68-6.715-39.141-21.212-47.312-42.467l-17.393 12.768-22.924-8.086 76.151-215.868zm-2.062 177.563c-14.445 32.461 17.37 58.412 45.798 44.939 8.92-4.586 16.717-12.073 23.389-22.466 16.957-27.63 32.31-67.757 19.728-99.155-8.794-21.095-39.917-25.309-57.512-12.341l-31.403 89.023zM4395.861 2519.18c-102.109 54.388-193.075-83.072-127.067-167.098 28.293-36.675 101.643-61.485 128.527-13.383 20.656 46.968-51.026 62.681-50.641 10.42-22.771-13.236-50.185 8.375-52.063 33.444-4.1 23.804 15.337 64.35 34.548 84.037 38.307 43.103 93.259 8.536 101.734-40.867l24.894 7.748c-5.122 39.347-26.685 68.987-59.932 85.699zM1219.589 2628.16c-71.066-33.484-43.107-135.821 8.518-174.924 39.06-32.271 99.064-26.078 132.188 11.951 8.221-16.858 18.821-38.997 28.896-55.322-6.434-2.663-20.554-8.699-26.37-11.559l13.542-27.654c21.264 9.888 41.017 18.736 61.381 16.525l19.648 9.621c-11.035 21.331-112.745 233.581-122.975 247.442 6.969 2.34 18.268 7.604 24.187 10.489l-13.542 27.654-69.134-33.854c2.107-5.539 4.405-12.08 6.013-17.807-22.394 8.169-42.062 7.137-62.352-2.562zm35.135-23.847c12.191 6.208 27.513 4.42 38.754-2.677l53.454-109.159c-20.192-30.592-57.17-31.818-79.746-2.509-22.189 26.539-54.213 92.239-12.462 114.345zM3255.682 1377.482c-66.979 24.339-101.926-111.188-14.572-114.884-3.785-9.35-8.829-21.552-11.734-31.453-3.379 1.615-10.87 5.091-14.105 6.389l-6.189-15.361c11.602-4.948 22.246-9.666 28.684-18.605l10.915-4.397c4.563 12.087 52.866 129.092 54.731 138.173 3.443-1.947 9.611-4.57 12.894-5.9l6.189 15.361-38.403 15.474c-1.457-2.834-3.246-6.107-4.959-8.809-4.789 11.892-12.276 19.387-23.451 24.012zm3.098-22.628c6.868-2.642 11.662-9.413 12.868-16.46l-24.432-60.638c-56.071-6.828-21.839 91.007 11.564 77.098z"/><circle cx="4215.084" cy="3249.6" r="102.753" fill="#d9eafc"/><path fill="#fff" d="M4214.98 3329.564c-10.168 0-20.493-1.95-30.458-6.071a4.502 4.502 0 1 1 3.442-8.322c17.516 7.244 36.804 7.233 54.31-.028 17.508-7.263 31.139-20.908 38.383-38.423a4.504 4.504 0 0 1 8.322 3.442c-12.731 30.779-42.591 49.402-73.999 49.402z"/><path fill="#c7e2fc" d="m4038.245 3188.352 8.4-20.311c6.031-14.582 22.742-21.514 37.324-15.483l62.515 25.856-30.664 72.943-62.093-25.681c-14.582-6.031-21.514-22.742-15.482-37.324z"/><path fill="#b3d4f5" d="m4100.442 3244.997 30.242-73.118 30.501-9.761-45.871 110.908zM4106.311 3161.798c-6.203 25.758-16.408 50.518-30.241 73.118 6.172-25.768 16.437-50.503 30.241-73.118zM4083.631 3152.418c-6.202 25.758-16.409 50.518-30.241 73.118 6.171-25.768 16.437-50.504 30.241-73.118z"/><path fill="#d9eafc" d="M4365.613 3316.113c-.573 0-1.156-.11-1.719-.343l-31.438-13.003a4.502 4.502 0 1 1 3.442-8.322l31.438 13.003a4.502 4.502 0 0 1-1.723 8.665zM4264.391 3134.887a4.502 4.502 0 0 1-4.159-6.225l13.003-31.438a4.502 4.502 0 1 1 8.322 3.442l-13.003 31.438a4.506 4.506 0 0 1-4.163 2.783zM4152.948 3404.334a4.502 4.502 0 0 1-4.159-6.225l13.003-31.438a4.502 4.502 0 1 1 8.322 3.442l-13.003 31.438a4.504 4.504 0 0 1-4.163 2.783zM4277.556 3404.268a4.504 4.504 0 0 1-4.161-2.778l-13.036-31.425a4.503 4.503 0 0 1 8.319-3.451l13.036 31.425a4.503 4.503 0 0 1-4.158 6.229zM4334.127 3204.546a4.504 4.504 0 0 1-1.727-8.663l31.425-13.036a4.503 4.503 0 0 1 3.451 8.319l-31.425 13.036a4.497 4.497 0 0 1-1.724.344zM4377.972 3255.079l-34.055-.249a4.503 4.503 0 0 1 .032-9.006l34.055.249a4.504 4.504 0 0 1-.032 9.006zM4216.114 3125.112c-2.521-.019-4.521-2.049-4.504-4.536l.248-34.021c.019-2.487 2.022-4.452 4.536-4.47a4.505 4.505 0 0 1 4.47 4.536l-.248 34.021a4.503 4.503 0 0 1-4.502 4.47zM4213.984 3416.688c-2.521-.019-4.521-2.049-4.504-4.536l.248-34.021a4.503 4.503 0 0 1 4.502-4.47c2.521.019 4.521 2.049 4.504 4.536l-.248 34.021a4.503 4.503 0 0 1-4.502 4.47zM4329.447 3369.847a4.486 4.486 0 0 1-3.207-1.343l-23.88-24.232a4.5 4.5 0 0 1 .047-6.367 4.5 4.5 0 0 1 6.367.047l23.88 24.232a4.5 4.5 0 0 1-3.207 7.663zM4099.216 3368.165a4.503 4.503 0 0 1-3.161-7.71l24.231-23.881a4.504 4.504 0 0 1 6.322 6.414l-24.231 23.881a4.494 4.494 0 0 1-3.161 1.296zM4306.897 3163.495a4.5 4.5 0 0 1-3.16-7.71l24.231-23.88a4.502 4.502 0 1 1 6.32 6.414l-24.231 23.88a4.486 4.486 0 0 1-3.16 1.296z"/><circle cx="3206.367" cy="625.988" r="102.753" fill="#d9eafc"/><path fill="#fff" d="M3267.498 674.729a4.503 4.503 0 0 1-3.644-7.143c11.111-15.355 15.577-34.119 12.576-52.833-3.001-18.714-13.11-35.14-28.466-46.251a4.504 4.504 0 0 1 5.279-7.296c17.305 12.521 28.696 31.032 32.079 52.122 3.382 21.09-1.651 42.234-14.174 59.539a4.493 4.493 0 0 1-3.65 1.862z"/><path fill="#c7e2fc" d="m3105.75 783.785-17.806-12.885c-12.785-9.251-15.649-27.114-6.398-39.898l40.174-55.52 63.13 47.73-39.201 54.175c-9.251 12.785-27.114 15.649-39.899 6.398z"/><path fill="#b3d4f5" d="m3175.283 736.432-64.103-46.385-2.415-31.934 97.234 70.359zM3095.719 711.415c23.615 12.011 45.33 27.685 64.103 46.385-23.632-11.984-45.311-27.709-64.103-46.385zM3081.331 731.299c23.615 12.011 45.33 27.685 64.103 46.385-23.632-11.984-45.31-27.709-64.103-46.385z"/><path fill="#d9eafc" d="M3281.671 526.024a4.504 4.504 0 0 1-3.645-7.143l19.944-27.563a4.503 4.503 0 1 1 7.297 5.28l-19.944 27.563a4.498 4.498 0 0 1-3.652 1.863zM3101.845 554.862a4.484 4.484 0 0 1-2.636-.855l-27.563-19.944a4.504 4.504 0 0 1 5.279-7.296l27.563 19.944a4.504 4.504 0 0 1-2.643 8.151zM3338.071 725.795a4.484 4.484 0 0 1-2.636-.855l-27.563-19.944a4.504 4.504 0 0 1 5.279-7.296l27.563 19.944a4.504 4.504 0 0 1-2.643 8.151zM3333.331 609.965a4.504 4.504 0 0 1-.707-8.95l33.593-5.387a4.504 4.504 0 0 1 1.426 8.892l-33.593 5.387c-.241.04-.482.058-.719.058zM3185.783 503.2a4.504 4.504 0 0 1-4.44-3.791l-5.387-33.592a4.503 4.503 0 0 1 8.892-1.426l5.387 33.592a4.503 4.503 0 0 1-4.452 5.217zM3236.986 505.314a4.503 4.503 0 0 1-4.376-5.581l8.137-33.034a4.503 4.503 0 0 1 8.744 2.154l-8.137 33.034a4.503 4.503 0 0 1-4.368 3.427zM3081.141 599.556c-.357 0-.719-.042-1.081-.132l-33.033-8.137a4.503 4.503 0 0 1 2.154-8.744l33.033 8.137a4.503 4.503 0 0 1-1.073 8.876zM3364.262 669.296c-.357 0-.719-.042-1.081-.132l-33.034-8.137a4.503 4.503 0 0 1 2.154-8.744l33.034 8.137a4.503 4.503 0 0 1-1.073 8.876zM3316.384 563.718a4.504 4.504 0 0 1-2.334-8.356l29.112-17.604a4.504 4.504 0 0 1 4.661 7.706l-29.112 17.604c-.73.44-1.533.65-2.327.65zM3290.428 769.668a4.501 4.501 0 0 1-3.857-2.173l-17.604-29.112a4.504 4.504 0 0 1 7.707-4.66l17.604 29.112a4.504 4.504 0 0 1-3.85 6.833zM3139.546 520.158a4.501 4.501 0 0 1-3.857-2.173l-17.605-29.112a4.504 4.504 0 0 1 7.707-4.66l17.605 29.112a4.504 4.504 0 0 1-3.85 6.833z"/><circle cx="888.63" cy="2361.798" r="102.753" fill="#d9eafc"/><path fill="#fff" d="M813.354 2361.063a4.504 4.504 0 0 1-4.497-4.816c3.061-43.987 41.343-77.287 85.322-74.222a4.504 4.504 0 0 1-.625 8.985c-39.031-2.716-72.998 26.831-75.713 65.862a4.502 4.502 0 0 1-4.487 4.191z"/><path fill="#c7e2fc" d="m1075.765 2363.802-1.526 21.926c-1.095 15.742-14.745 27.616-30.487 26.521l-67.571-4.701 3.491-79.073 69.572 4.841c15.742 1.094 27.616 14.744 26.521 30.486z"/><path fill="#b3d4f5" d="m998.814 2329.806-5.492 78.934-25.831 18.93 8.33-119.73zM1019.633 2410.571c-2.287-26.395-.459-53.114 5.492-78.934 2.318 26.395.428 53.109-5.492 78.934zM1044.118 2412.274c-2.286-26.396-.459-53.114 5.492-78.934 2.318 26.396.427 53.11-5.492 78.934z"/><path fill="#d9eafc" d="M760.147 2357.593c-.105 0-.21-.004-.317-.011l-33.939-2.361a4.504 4.504 0 0 1-4.18-4.805c.173-2.479 2.321-4.333 4.805-4.18l33.939 2.361a4.504 4.504 0 0 1-.308 8.996zM877.318 2528.94a4.504 4.504 0 0 1-4.497-4.816l2.361-33.939c.173-2.48 2.327-4.344 4.805-4.18a4.504 4.504 0 0 1 4.18 4.805l-2.361 33.939a4.503 4.503 0 0 1-4.488 4.191zM897.556 2238.061a4.504 4.504 0 0 1-4.497-4.816l2.361-33.939c.173-2.48 2.324-4.329 4.805-4.18a4.504 4.504 0 0 1 4.18 4.805l-2.361 33.939a4.505 4.505 0 0 1-4.488 4.191zM804.093 2269.368a4.49 4.49 0 0 1-3.399-1.548l-22.329-25.669a4.504 4.504 0 0 1 6.795-5.911l22.329 25.669a4.504 4.504 0 0 1-3.396 7.459zM765.784 2473.382a4.504 4.504 0 0 1-2.957-7.901l25.668-22.329a4.504 4.504 0 0 1 5.911 6.795l-25.668 22.329a4.487 4.487 0 0 1-2.954 1.106zM733.841 2417.033a4.503 4.503 0 0 1-1.396-8.784l32.343-10.553a4.502 4.502 0 1 1 2.793 8.561l-32.343 10.553a4.506 4.506 0 0 1-1.397.223zM939.114 2521.304a4.505 4.505 0 0 1-4.28-3.107l-10.553-32.344a4.503 4.503 0 0 1 8.562-2.793l10.553 32.344a4.503 4.503 0 0 1-4.282 5.9zM848.664 2244.104a4.505 4.505 0 0 1-4.28-3.107l-10.553-32.344a4.503 4.503 0 0 1 8.562-2.793l10.553 32.344a4.503 4.503 0 0 1-4.282 5.9zM773.792 2308.209a4.486 4.486 0 0 1-2.036-.489l-30.333-15.407a4.504 4.504 0 0 1 4.078-8.03l30.333 15.407a4.504 4.504 0 0 1-2.042 8.519zM946.933 2251.714a4.504 4.504 0 0 1-4.012-6.543l15.407-30.332a4.504 4.504 0 0 1 8.03 4.078l-15.407 30.332a4.504 4.504 0 0 1-4.018 2.465zM814.88 2511.682a4.504 4.504 0 0 1-4.012-6.543l15.407-30.332a4.503 4.503 0 1 1 8.03 4.078l-15.407 30.332a4.504 4.504 0 0 1-4.018 2.465z"/><path fill="#a4cf8a" d="M2257.534 2663.086s-347.38-245.519-537.27-407.222-535.56-550.604-405.474-667.095 390.008 158.852 513.809 368.625c105.919 179.471 518.744 609.24 694.888 787.923 29.739 30.168 26.515 52.91 41.943 66.369 0-.001-237.534-98.27-307.896-148.6z"/><path fill="#9cc483" d="M1314.79 1588.768c105.146 73.301 195.04 167.447 278.138 264.463 26.002 30.717 52.746 64.734 77.332 96.625 214.261 272.734 460.52 521.427 728.371 741.64 53.313 42.481 109.043 83.899 166.8 120.19-134.417-78.671-254.838-179.438-370.758-282.835-115.45-104.133-226.056-214.729-330.712-329.693-61.258-67.429-121.818-137.765-177.498-209.87-43.819-57.767-88.277-117.342-135.9-172.075-71.598-82.43-148.201-162.816-235.773-228.445z"/><path fill="#afd996" d="M2575.51 2846.504s-180.389-11.878-357.833-114.979-285.573-128.713-484.851-200.73-235.641-113.569-225.674-200.726c9.967-87.157 211.533-103.191 337.083-36.512 125.55 66.679 267.354 197.575 426.52 321.807s329.706 215.975 329.706 215.975l-24.951 15.165z"/><path fill="#a4cf8a" d="M1507.153 2330.068c125.58 14.666 248.165 54.369 360.924 111.181 242.275 132.297 465.033 309.494 732.385 390.088-197.376-47.748-371.546-159.282-543.742-262.775-167.376-111.115-348.783-207.685-549.567-238.494z"/><path fill="#afd996" d="M1826.534 1448.407s-149.52 22.028-57.734 313.14 263.797 718.609 780.219 997.855l48.482 36.801s-204.046-397.946-315.159-641.666c-111.113-243.719-170.771-764.413-455.808-706.13z"/><path fill="#a4cf8a" d="M1805.323 1454.926c15.611 12.529 28.801 29.601 40.916 45.452 150.219 210.329 223.731 462.34 341.135 690.431 108.946 218.975 249.393 421.308 410.127 605.394-128.878-136.453-243.683-287.132-339.279-448.91-87.869-147.605-157.035-305.311-222.256-463.918-53.469-127.276-109.292-255.544-184.709-371.549-13.692-19.802-27.854-40.802-45.934-56.9z"/><path fill="#afd996" d="M1502.964 2191.515c-20.744 37.398-275.55 18.859-278.171-71.205-2.621-90.064 75.727-155.458 170.6-86.007 89.661 65.635 128.315 119.814 107.571 157.212z"/><path fill="#a4cf8a" d="M3088.339 2843.432s689.176-1293.181 970.773-1131.065-584.975 1102.375-857.204 1326.513l-113.569-195.448z"/><path fill="#9cc483" d="M4059.112 1712.367c-70.724 64.042-131.18 139.322-191.992 212.563-259.611 322.209-491.758 667.834-726.778 1007.998 242.847-383.152 496.101-764.704 798.702-1103.832 37.802-40.44 76.712-82.156 120.068-116.729z"/><path fill="#afd996" d="M2889.579 2828.189S3639.153 327.751 4134.17 606.143c164.458 137.535 69.508 450.094-144.236 833.954s-856.269 1399.682-944.342 1557.976l-156.013-169.884z"/><path fill="#a4cf8a" d="M4134.17 606.144c-165.177 186.47-309.618 391.702-431.955 608.622-49.261 87.586-94.591 178.858-134.164 271.209-200.225 471.702-406.333 941.178-618.349 1407.683 183.319-433.76 419.384-978.009 605.414-1413.243 31.99-74.199 68.341-147.601 106.747-218.605 130.074-236.353 287.936-458.555 472.307-655.666z"/><path fill="#afd996" d="M4066.09 1527.958c-32.323-35.645 79.735-300.358 176.624-270.522 96.889 29.836 138.167 136.985 29.814 212.888-102.399 71.732-174.115 93.28-206.438 57.634z"/><path fill="#8c5353" d="M1527.101 3165.865c30.103 11.187-18.878-79.558 85.825-85.116 120.159-6.506 402.12 71.458 561.57 54.989 129.974-13.347 262.369-27.688 379.927-38.898 2.306-.181 4.517-.445 6.735-.619l.532-.042c112.938-10.937 209.398-23.7 272.582-37.417 208.242-45.208 262.54-264.937 276.675-374.581.473-3.072.775-6.041 1.179-8.84 3.758-32.784 3.893-53.769 3.893-53.769s-20.583-97.197-20.945-97.257c-3.583-.539-222.623 26.332-422.116 23.619-147.468-2.005-253.445-28.441-284.748-31.833l-27.686 53.957a46.776 46.776 0 0 1-40.677 25.416c-131.551 2.641-692.05 16.933-895.422 71.687-205.301 55.273-218.06 379.512 102.676 498.704z"/><path fill="#824949" d="M1739.072 3173.737c120.159-6.507 329.084-27.019 488.533-43.488-73.097-68.063-363.067-319.446-555.365-304.141-151.944 12.04-42.321 250.092 66.832 347.629z"/><path fill="#8c5353" d="M2118.266 2793.055c38.339 51.697 101.797 165.144 180.884 224.257 30.634 22.939 135.978 49.372 254.102 77.121 2.628.507 5.27 1.192 7.906 1.788.177-.014.273.068.457.142 72.647 16.957 149.52 34.294 216.469 51.431 34.895 9.037 67.1 17.927 94.659 26.738 37.172 11.892 65.848 23.56 81.011 34.774 128.421 95.128 243.73 165.405 346.196 215.36 159.831 78.02 288.288 106.652 385.747 103.181 169.547-6.107 245.597-109.285 230.832-218.709-18.518-136.707-92.034-233.924-196.634-303.079-140.66-93.005-285.452-211.302-472.75-284.484-22.843-9.003-46.34-17.24-70.49-24.712-.273-.068-.642-.218-1.003-.279-8.501-2.544-27.993-7.526-30.817-10.517-.007-.089-4.11-9.137-4.11-9.137l-24.704-55.358s-.178.014-.539-.046c-47.563-2.15-94.906-3.781-141.757-4.826l-26.821-.568c-133.448-2.445-261.633-.395-375.867 6.537a1786.237 1786.237 0 0 0-43.241 2.866c-290.192 21.218-477.632 75.59-409.53 167.52z"/><path fill="#824949" d="M2778.083 3147.794c34.895 9.037 67.1 17.927 94.659 26.738 37.172 11.892 65.848 23.56 81.011 34.774 128.421 95.128 243.73 165.405 346.196 215.36 330.812-26.735 411.057-186.652 185.774-287.728-192.624-86.42-542.267-25.626-707.64 10.856zM2695.521 2759.698c11.928-.403 370.085-19.917 551.622-38.123-22.843-9.003-46.34-17.24-70.49-24.712-.273-.068-.642-.218-1.003-.279-38.833-9.173-466.202 62.019-480.129 63.114zM2625.777 2668.582c3.653-4.423 10.415 1.36 6.766 5.779-95.289 115.377-122.651 277.887-70.518 418.129 1.999 5.377-6.374 8.398-8.368 3.031-53.223-143.173-25.134-309.184 72.12-426.939z"/><path fill="#d0d6dd" d="M2389.812 2859.485s45.236 5.609 128.575-10.781c132.827-26.122 295.992-44.87 403.031 4.142 269.198 123.262 175.368 352.115 74.516 443.474-100.852 91.359-750.236-8.966-841.665-78.636s-88.003-343.856 235.543-358.199z"/><path fill="#eaeaea" d="M2921.418 2852.846c-107.04-49.012-270.205-30.264-403.031-4.142a709.97 709.97 0 0 1-33.96 5.844 15312.737 15312.737 0 0 0 56.228 28.121c41.02 20.414 77.695 33.582 92.937 62.552s32.361 43.028 49.479 22.173c17.119-20.856 15.55-67.358 64.399-73.736 48.849-6.378 81.77 36.014 110.741 17.452 27.042-17.327 89.409-7.25 101.988-38.384-12.001-6.884-24.901-13.524-38.781-19.88z"/><path fill="#c3cdd9" d="M2775.506 2959.552c-2.262-2.736-6.591-.09-5.229 3.189 5.038 12.132 8.823 29.586 2.339 49.2-12.052 36.455-21.801 26.939-49.351 74.748-23.74 41.198-36.244 115.033 107.731 184.308l58.584-15.002s-129.986-48.981-149.3-94.429 2.926-85.246 24.581-106.315c18.999-18.487 39.83-60.4 10.645-95.699zM2507.095 3308.848c1.844-4.796 2.591-7.691 2.591-7.691s-2.634-75.568-12.291-103.821-34.874-70.576-42.457-90.675l-124.64 5.461s3.274 36.42-18.406 61.615-64.516 39.324-75.141 42.794c-6.64 2.169-25.008 7.439-33.961 24.802 66.621 24.534 181.656 49.77 304.305 67.515z"/><path fill="#c3cdd9" d="M2103.552 3074.48c70.127 35 163.417 55.009 210.657 45.148 65.855-13.746 109.094-38.461 136.064-59.535 26.97-21.074 12.16-81.542-1.162-128.376-9.775-34.367 8.958-57.041 16.076-74.649-49.201 5.658-75.377 2.416-75.377 2.416-200.145 8.873-277.786 117.179-286.258 214.996z"/><path fill="#d0d6dd" d="M2461.841 3137.479c-11.852-32.921-13.237-115.506-13.237-115.506l-107.407 71.401s-3.139 79.659-15.704 95.337c-12.565 15.678-50.956 42.542-50.956 42.542 7.315 15.802 23.559 30.642 43.906 42.884 42.096 9.708 89.316 18.906 138.79 27.019 45.204-20.871 16.06-131.867 4.608-163.677z"/><path fill="#c3cdd9" d="m2448.604 3021.974-107.407 71.401s-.335 8.5-1.224 20.492c46.982-11.236 85.414-38.426 110.3-53.773-2.249-27.405-1.669-38.12-1.669-38.12z"/><path fill="#de9681" d="M2572.588 3369.485c-9.593-59.575-105.142-71.929-158.064-64.818-52.922 7.111-107.384-13.569-107.384-13.569-4.405-17.486-10.718-33.5-20.852-47.077-25.249-33.828-70.348-41.36-155.952 5.68-85.603 47.04-168.03 13.656-223.814 35.109-55.784 21.455-177.919 115.508-171.062 139.856 10.293 36.551 25.607 46.39 103.601 29.343 18.888-4.128 38.273-5.057 69.491-6.989 48.513-3.003 109.864.98 164.335 12.969 0 0 10.299 2.829 29.995 4.166.009.001 250.098 27.669 323.506 28.073 73.409.403 155.793-63.168 146.2-122.743z"/><path fill="#c7a5a5" d="M2274.538 3225.01s-32.178-36.038-58.833-36.297c-16.656-.162-130.262 34.78-185.61 42.128s-180.399 44.198-253.213 108.143c-72.815 63.945-46.904 92.156-40.874 101.693l538.53-215.667z"/><path fill="#e5dcdc" d="M2323.152 3296.176s6.959-7.948-3.117-19.351c0 0-27.267-37.638-45.497-51.815 0 0-38.914-20.343-109.294 6.769s-127.121 31.868-194.587 46.534c-58.056 12.621-149.09 52.619-208.082 111.597-18.873 19.667-28.793 35.019-26.568 50.767 1.731 12.249 14.719 28.351 38.005 39.628 96.553 46.759 211.207 6.925 280.183 11.189 68.977 4.265 163.231 2.506 171.522-3.919s1.897-67.281-13.006-90.66c-14.903-23.379-22.711-9.212-22.667-36.438.027-16.955 2.275-28.597 57.988-51.629 21.156-8.746 39.568-9.698 75.12-12.672z"/><path fill="#8c5353" d="M2300.048 3498.495c4.984.947 9.878 1.901 14.766 2.766 59.33 11.042 117.299 20.674 173.907 28.895 742.397 108.776 1246.41-5.841 1246.41-5.841 303.762-121.001-34.565-479.16-274.808-426.615-524.431 114.885-1061.375 163.724-1116.083 166.064l-20.388 108.44-18.895 100.2-4.909 26.091z"/><path fill="#824949" d="M2403.191 3265.72c.89-5.654 9.631-3.977 8.739 1.686-13.21 83.871-10.766 168.821 7.469 251.749 1.214 5.522-7.142 8.609-8.368 3.031-18.591-84.549-21.308-170.95-7.84-256.466z"/><path fill="#824949" d="M2304.957 3472.404c3.184 9.835 6.537 19.568 9.856 28.857 59.33 11.042 117.299 20.674 173.907 28.895-1.851-8.78-23.664-10.304-20.481-24.361 43.096-190.354-80.149-196.301-124-242.031l-39.282 208.64z"/><path fill="#d0d6dd" d="M3044.347 3009.467s22.023 46.131 60.111 62.166 177.747 79.97 200.572 200.164-13.581 231.473-125.78 291.263c-91.363 48.687-255.199 85.692-306.117 152.681-50.918 66.989-121.402 37.14-125.665-8.51s32.133-127.655 146.497-177.075c114.364-49.421 257.233-84.536 301.68-147.745 44.447-63.208-28.732-224.711-115.238-211.963.001 0-79.052-59.863-36.06-160.981z"/><path fill="#eaeaea" d="M2747.469 3707.231c4.263 45.65 74.747 75.499 125.665 8.51 15.701-20.657 42.147-38.46 73.886-54.636-5.555-5.353-11.483-10.067-10.678-22.349 1.902-29.003-3.511-40.383-25.487-47.894s6.173-25.849 18.464-39.895c7.91-9.041-15.452-17.144-33.111-21.772-.747.321-1.498.639-2.243.961-114.363 49.421-150.759 131.425-146.496 177.075z"/><path fill="#de9681" d="M2181.593 3338.568c37.515-47.263 126.89-11.286 169.566 20.809 42.676 32.096 100.291 40.708 100.291 40.708 12.397-13.094 25.739-23.972 41.22-30.854 38.572-17.148 81.589-1.65 133.23 81.259 51.64 82.91 139.861 94.124 178.014 140.129 38.153 46.005 104.96 193.065 87.067 210.945-26.86 26.841-51.341 22.654-111.02-30.375-14.453-12.842-30.904-23.137-57.185-40.096-40.84-26.355-96.294-52.9-149.666-69.097 0 0-10.366-2.573-28.198-11.043-.008-.003-231.655-98.239-295.872-133.804-64.219-35.566-104.963-131.317-67.447-178.581z"/><path fill="#c7a5a5" d="M2518.386 3357.45s45.65-15.818 69.061-3.07c14.629 7.966 96.861 93.786 141.633 127.146s136.073 126.417 168.555 217.717-3.883 103.332-13.793 108.729l-365.456-450.522z"/><path fill="#e5dcdc" d="M2440.015 3396.96s-.945-11.336 13.407-16.392c0 0 42.139-19.606 64.964-23.118 0 0 43.895 1.171 92.179 59.112s95.534 89.713 147.33 135.364c44.571 39.283 104.625 118.534 127.45 198.768 6.914 26.367 8.107 44.606-1.502 57.279-7.474 9.857-26.657 17.601-52.488 16.118-107.103-6.151-187.869-96.755-250.199-126.603-62.33-29.848-143.81-77.262-147.925-86.911-4.115-9.649 31.092-59.697 55.49-72.865 24.398-13.168 29.666-13.391 41.88-17.636 1.158-.403 25.242 1.515-12.214-45.722-14.224-17.939-48.763-57.491-78.372-77.394z"/><path fill="#8c5353" d="M1662.578 2791.22c-26.695-13.011-250.032-142.644-342.352-58.247-58.282 53.28-70.773 286.703 71.698 388.734 346.398 248.074 878.93 487.457 910.938 481.594 32.008-5.862 154.412-238.005 135.099-246.329-19.313-8.325-487.501-425.444-775.383-565.752z"/><path fill="#824949" d="M2276.082 3502.658c15.127-17.704 26.89-32.932 38.009-54.298 20.315-39.035 33.363-82.316 43.385-125.012 1.305-5.562 9.663-2.493 8.366 3.033-10.108 43.064-23.325 86.695-43.813 126.074-21.422 41.173-56.55 74.418-87.197 108.719-1.301 1.456-3.15 2.199-4.855 1.76-.001 0-1.301-.294-2.18-1.386-3.034-3.772 30.79-38.415 48.285-58.89z"/><path fill="#de9681" d="M2083.205 2336.032c-.027-.014 131.801-532.384 184.186-655.508 21.591-58.772 77.982-100.769 144.259-100.935 85.08-.213 154.224 68.586 154.436 153.666.044 17.682-2.901 34.672-8.345 50.501a152.969 152.969 0 0 1-4.261 10.988c-27.248 70.035-150.32 397.686-271.137 631.459-15.565 41.258-55.342 70.669-102.057 70.785-60.38.151-103.702-39.476-103.853-99.855-.059-23.626-.318-33.216 6.772-61.101z"/><path fill="#d38475" d="m2155.712 2054.185 262.756 77.556c-36.843 86.728-77.878 178.448-119.186 261.116l-189.42-47.154c28.907-54.702 81.023-135.705 81.023-135.705-14.459-8.133-48.131-32.783-64.299-44.777a17331.193 17331.193 0 0 1 29.126-111.036z"/><path fill="#fff" d="M2452.068 1551.841s-154.033 4.112-217.759 144.274-97.893 337.564-137.637 479.406c-39.745 141.842-72.914 273.147 13.19 326.682 86.105 53.535 176.611-19.874 207.581-91.784 30.969-71.91 97.905-231.885 141.679-319.613 43.775-87.729 280.984-502.094-7.054-538.965z"/><path fill="#e5dcdc" d="M2459.122 2090.806c11.526-23.099 36.462-68.848 61.689-124.383l-215.888-242.347s-17.246 110.988-24.421 149.952c0 0-54.831 11.353-59.315 28.063-4.484 16.71 52.14 188.716 52.14 188.716s-76.819 58.378-100.79 84.715c-23.971 26.337-88.057 168.938-88.057 168.938l172.754 143.626c26.675-20.927 48.039-49.409 60.208-77.665 30.971-71.912 97.906-231.886 141.68-319.615z"/><path fill="#de9681" d="M2935.469 1467.549c-132.076-22.16-237.461-4.052-361.815 32.371-83.165 24.359-172.302 47.827-212.582 104.136-70.708 98.848-38.456 342.993-20.388 456.001 18.068 113.008 31.766 349.328 41.662 410.026 9.895 60.697 279.22 156.009 444.093 131.189 126.416-19.03 242.087-80.975 258.536-196.734 19.403-136.549 52.417-332.273 90.72-451.202 38.303-118.929 98.477-366.564-91.309-449.445-35.584-15.539-114.136-30.506-148.917-36.342z"/><path fill="#de9681" d="m2624.233 1534.711-29.582-274.8c-7.064-54.251 21.821-108.913 74.391-132.186 63.995-28.331 138.84.58 167.171 64.575a127.183 127.183 0 0 1 8.434 26.585c.003-.001 72.095 288.351 72.095 288.351.548 2.002 2.596 11.183 2.596 11.183 15.463 68.11-19.835 134.978-86.105 164.317-75.288 33.331-160.084 2.644-193.415-72.644-10.385-23.46-12.992-49.028-15.585-75.381z"/><path fill="#d38475" d="m2852.174 1248.984-7.527-30.099a127.102 127.102 0 0 0-8.434-26.585c-28.331-63.995-103.176-92.906-167.171-64.575-52.57 23.274-81.455 77.936-74.391 132.186l29.063 269.978c168.809-26.597 206.92-133.84 228.46-280.905z"/><path fill="#fff" d="M3253.055 1733.125c6.584-40.822 4.594-124.11.98-144.357s-162.723-120.857-240.645-121.038c-77.922-.181-90.447-12.805-90.447-12.805s-5.503-15.939-26.662-29.524c0 0-39.708 54.452-73.45 84.3-33.742 29.848-74.566 48.474-80.491 69.887-5.925 21.414-51.575 97.948-63.866 118.717 0 0-35.527-110.911-44.884-137.253-9.357-26.342-14.466-73.795-14.466-73.795s-38.974 4.886-69.407 14.25-169.341 45.923-199.738 77.415c-30.397 31.491-53.889 152.886-51.444 260.866 2.446 107.981 18.82 237.726 26.372 329.933 7.551 92.207 10.238 151.455 3.727 179.845-6.511 28.389-5.267 47.245 3.95 60.414 0 0-18.433 23.703-15.142 52.674 0 0-21.353 34.238-18.907 63.208 2.446 28.97-21.153 37.556-26.525 39.03-5.372 1.474-36.732 16.432-43.386 32.815 0 0 75.017 43.558 111.348 98.061 31.903 47.86 57.353 139.574 120.27 161.849 16.612-1.767 36.037-4.566 58.144-8.914 104.327-20.517 227.365-36.477 327.228-18.637 5.147-1.493 9.741-3.036 13.706-4.63 63.237-25.413 238.348-99.416 375.299-108.634 0 0-2.85-21.246-27.104-48.811 0 0-18.743-87.418-62.834-103.101 0 0 1.514-124.085-12.108-172.035-13.623-47.95 37.521-247.243 50.69-302.051 13.169-54.806 63.208-316.856 69.792-357.679z"/><path fill="#e5dcdc" d="M2922.944 1454.926s-5.503-15.939-26.662-29.524c0 0-39.708 54.452-73.45 84.3-33.742 29.848-74.566 48.474-80.491 69.887-5.925 21.414-51.575 97.947-63.866 118.717 0 0-35.527-110.911-44.884-137.253-9.357-26.342-14.466-73.795-14.466-73.795s-12.222 1.532-28.322 4.525c.194 22.072 1.26 68.359 6.698 82.882 7.231 19.314 54.501 132.562 57.642 158.021 2.954 23.944-4.756 153.497-.88 242.593.399 9.163 7.934 16.386 17.105 16.386h17.204c9.454 0 17.119-7.664 17.119-17.119v-217.278c0-34.238 51.446-104.469 64.789-135.195 13.344-30.726 36.169-57.063 57.238-70.231 21.068-13.17 81.595-61.269 95.226-96.916z"/><path fill="#e5dcdc" d="M2996.181 1633.796s-29.757 188.436-35.637 317.486c-5.442 119.435-20.457 254.785-20.457 254.785s-68.948-52.338-120.946-44.703c-51.999 7.635-128.512-54.853-163.998-53.896-35.486.957-77.134-119.658-134.331-141.045l-39.126-92.396h-181.958c4.562 100.258 18.411 213.05 25.18 295.695 7.551 92.207 10.238 151.455 3.727 179.845-6.511 28.389-5.267 47.245 3.95 60.414 0 0-18.433 23.703-15.142 52.674 0 0-17.081 27.409-18.928 53.93 41.225-18.74 85.2-42.084 96.248-60.515 22.1-36.871 35.509-116.888 64.359-124.286 28.85-7.398 76.031 1.606 86.678 14.223 10.648 12.617 12.284 99.975 64.139 149.791s270.98 121.945 385.994 155.164c59.208 17.101 139.368 4.496 203.22-11.761-9.393-26.968-27.018-64.544-54.472-74.309 0 0 1.514-124.085-12.108-172.035-13.623-47.95 37.521-247.243 50.69-302.051 13.169-54.808 63.208-316.858 69.792-357.68 3.739-23.181 4.712-60.053 4.194-91.301-114.489-48.74-261.068-8.029-261.068-8.029zM3207.551 2668.732c-77.002 7.027-154.831 14.912-228.873 37.919-82.758 32.266-162.682 73.237-249.885 93.005-42.298 8.302-46.23 8.141-1.912-6.492 93.811-34.339 184.246-80.313 281.226-105.156 43.726-9.145 88.231-13.875 132.698-17.271 22.202-1.656 44.42-2.885 66.677-3.484.899-.054 1.021 1.447.069 1.479zM2422.716 2629.307c-40.76-45.873-129.364-79.831-129.364-79.831-6.756 10.519-17.864 14.462-21.341 15.416-1.994.547-7.572 2.955-14.135 6.602 69.174 9.077 129.254 56.404 174.274 114.178 71.917 92.292 148.188 97.504 148.188 97.504-64.174-42.001-114.979-105.878-157.622-153.869z"/><path fill="#2c3e6b" d="M2390.74 1150.484s-16.059 13.427-8.946 51.978c4.952 26.838 27.388 126.447 62.174 121.397 34.786-5.049-53.228-173.375-53.228-173.375z"/><path fill="#de9681" d="M2559.25 711.22s236.605-66.869 320.862 211.32c80.938 267.23-71.873 556.682-281.049 562.726-67.727-1.995-152.484-127.397-221.859-334.644-69.373-207.248-26.6-379.965 182.046-439.402z"/><path fill="#8c4949" d="M2732.864 1087.164s4.434 114.408 10.138 159.614-64.163 56.644-95.73 58.826c-31.567 2.182-79.856 3.938-107.504 13.027-12.214 4.015-78.821 21.138-82.409 23.479-3.588 2.341 42.465 139.06 80.773 159.417 66.306 35.236 152.633 4.663 193.602-38.062 31.285-32.626 61.16-62.33 68.703-87.441 6.33-21.072 19.671-60.045-3.739-115.06-11.588-27.232-32.976-91.898-33.753-112.376l-30.081-61.424z"/><path fill="#de9681" d="M2556.741 1335.294s-49.747 12.291-55.014 19.899 4.097 32.775 33.36 43.309c29.263 10.535 34.226-7.023 32.33-16.387l15.076-4.682s11.374 23.411 39.047 8.194c27.673-15.217 40.119-46.821 33.604-57.356-6.517-10.535-77.249 1.244-98.403 7.023z"/><path fill="#8c4949" d="M2350.347 1005.473s48.216 10.38 80.855 3.795c32.64-6.586 96.05-42.882 114.599-37.225s89.521 4.878 109.342 0 37.379-17.168 37.379-17.168 1.756 32.176 17.558 52.959c7.901 10.392 30.735 123.807 43.456 143.688 12.721 19.882 15.329-53.769 24.412-34.676 18.166 38.187 46.259 72.712 55.037 101.978 8.779 29.266 38.63 108.909 41.298 119.579 2.667 10.67 16.283-80.662 27.876-103.923 11.593-23.261 43.197-131.391 39.685-201.109s-22.825-207.115-103.591-278.879-207.04-87.566-300.168-66.497-144.257 89.545-166.977 105.347c-22.719 15.802-53.051 28.495-62.466 59.02-9.415 30.525-26.348 186.691 65.291 288.242 0 0-11.384-35.705-19.373-76.128-7.99-40.423-4.213-59.003-4.213-59.003z"/><path fill="#7a3d3d" d="M2302.043 954.88c4.212 58.648 21.887 130.315 71.889 185.725 0 0-11.384-35.705-19.373-76.128-7.989-40.423-4.212-59.003-4.212-59.003s-37.878-24.26-48.304-50.594zM2348.212 808.037c70.978-30.49 130.488-13.418 180.107 45.09 5.102 5.279 13.749 5.64 20.875 7.036 16.224 2.385 32.419 3.464 48.753 7.887 12.248 3.617 29.074 9.893 33.091 22.77-19.649-18.148-48.161-15.161-73.493-17.589-44.375-1.709-36.29-18.559-66.033-42.298-52.012-41.688-86.326-36.016-143.3-22.896zM2692.521 954.874s128.758-62.038 166.744-178.718c0 0-45.836 55.38-83.372 95.611-37.535 40.231-83.372 83.107-83.372 83.107z"/><path fill="#d38475" d="M2416.04 1254.476c9.599 22.922 19.358 44.342 29.209 64.155 24.407-11.833 51.687-28.84 52.186-44.355-1.929-31.49-46.192-24.719-81.395-19.8zM2582.168 1238.246s5.593-25.315 60.355-33.664c30.474-4.646 63.595-10.75 68.516 16.869 9.837 35.19-141.548 76.371-128.871 16.795z"/><ellipse cx="2606.372" cy="1171.478" fill="#121d3f" rx="20.694" ry="26.61" transform="rotate(-10.965 2606.1 1171.399)"/><ellipse cx="2466.349" cy="1198.368" fill="#121d3f" rx="19.098" ry="24.678" transform="rotate(-10.965 2466.091 1198.284)"/><path fill="#c97565" d="M2535.635 1302.809c-2.359 0-4.604-.173-6.641-.574-12.767-2.511-12.127-13.2-11.509-23.537.12-2.005.256-4.277.349-6.731 2.484-66.227.857-98.137.841-98.451a7.005 7.005 0 0 1 6.621-7.367c3.875-.213 7.16 2.757 7.367 6.619.07 1.306 1.683 32.745-.831 99.724a303.69 303.69 0 0 1-.363 7.042c-.194 3.259-.432 7.23-.144 8.872.104.026.227.055.372.083 7.805 1.534 24.647-2.702 33.432-5.732a7.004 7.004 0 0 1 4.577 13.24c-2.298.795-20.158 6.812-34.071 6.812z"/><path fill="#fff" d="M2643.065 1338.295c-59.337 82.34-112.399 44.078-127.928 29.646-2.104-1.956-1.17-5.464 1.624-6.128l122.563-29.136c3.249-.772 5.693 2.91 3.741 5.618z"/><path fill="#8c4949" d="M2550.003 1099.01s-13.251 2.89-11.81 12.542c1.598 10.708 1.495 16.099 8.233 16.902s46.044-11.15 78.817-18.742c33.155-7.681 48.127-9.125 49.383-12.998 1.255-3.873-31.023-13.029-65.071-8.154-35.927 5.143-29.546 3.706-59.552 10.45zM2462.863 1118.899s13.202-3.105 16.063 6.225c3.175 10.351 5.592 15.171-.142 18.8-5.734 3.629-34.72 4.565-67.564 11.843-33.228 7.363-36.722 8.474-39.525 5.521-2.802-2.953 3.625-16.968 36.447-27.249 34.634-10.847 24.739-8.289 54.721-15.14z"/><path fill="#de9681" d="M2818.361 1026.238s39.91.755 44.526 63.266c4.434 60.049-27.5 131.458-71.802 122.869-14.158-3.612-29.389-55.454-34.218-102.335-4.828-46.882 14.786-81.129 61.494-83.8z"/><path fill="#c97565" d="M2795.45 1167.151c-22.481-80.213 17.792-105.82 19.518-106.871 2.083-1.281 4.775-.608 6.053 1.461 1.278 2.071.633 4.791-1.43 6.081-1.16.726-22.535 14.704-22.103 55.655 11.417-15.153 30.819-18.876 31.874-19.065a4.419 4.419 0 0 1 5.135 3.555 4.425 4.425 0 0 1-3.549 5.148c-1.117.208-27.188 5.313-32.012 28.157 1.036 7.188 2.649 14.985 5.033 23.492a4.424 4.424 0 0 1-8.519 2.387z"/><path fill="#2c3e6b" d="M2752.327 1114.197c7.39 59.387 44.917 103.605 83.82 98.764 1.079-.134 22.135-.398 22.135-.398s42.109-58.157 34.924-115.897c-6.847-55.025-55.141-99.461-55.141-99.461s-25.822.341-28.679.696c-38.902 4.842-64.448 56.909-57.059 116.296z"/><path fill="#3a4b82" d="M2774.463 1113.799c7.39 59.387 44.917 103.605 83.82 98.764 38.903-4.841 59.322-58.339 51.932-117.726-7.39-59.387-39.79-102.174-78.693-97.333-38.903 4.842-64.449 56.908-57.059 116.295z"/><path fill="#354578" d="M2831.522 997.505c-12.105 1.506-22.916 7.587-31.844 17.036 10.033 18.253 28.923 53.615 35.71 73.097l27.397-5.667s-2.951-52.414-6.99-81.182c-7.657-3.134-15.811-4.337-24.273-3.284z"/><path fill="#3a4b82" d="M2864.24 1097.903s-13.175-211.788-122.501-318.472c-121.041-118.116-279.518-65.685-279.518-65.685s-70.817 24.581-88.996 78.036c0 0 62.439-42.729 198.669-17.494 120.986 22.411 225.18 146.772 266.068 324.087l26.278-.472z"/><path fill="#2c3e6b" d="M2809.726 1007.396c-37.304-133.591-120.716-214.054-242.31-244.781-98.902-24.992-166.787 4.61-188.681 16.53-2.146 4.019-4.01 8.228-5.51 12.637 0 0 62.439-42.729 198.669-17.494 99.04 18.346 186.817 105.02 237.836 233.125l-.004-.017z"/><path fill="#de9681" d="M2423.442 2265.11c-.006.008-102.271 165.334-145.923 208.938-33.177 26.637-76.192 38.493-116.03 17.159-53.227-28.505-61.141-77.987-32.636-131.214a109.181 109.181 0 0 1 20.797-27.385c-.014-.015 184.911-150.627 184.911-150.627a60.447 60.447 0 0 1 4.766-4.847c18.599-16.805 46.347-21.021 69.625-8.554 29.638 15.872 40.798 52.765 24.925 82.404a60.817 60.817 0 0 1-10.435 14.126z"/><path fill="#fff" d="M2076.416 2362.574s-11.891 108.48 54.763 150.335c66.654 41.855 191.357-23.919 240.08-106.879 48.723-82.961 62.468-126.417 75.348-142.219 0 0-104.638-130.418-127.854-143.764-.001 0-188.436 106.933-242.337 242.527z"/><path fill="#de9681" d="M3023.806 1657.807a154.13 154.13 0 0 1 13.708-41.174c37.921-76.162 100.42-103.265 176.582-65.344 63.203 31.469 95.301 100.511 82.725 166.621l-49.745 749.714a109.281 109.281 0 0 1-11.364 43.702c-26.912 54.051-92.544 76.051-146.595 49.139-45.539-22.674-68.323-72.834-58.275-120.396-.003 0-27.235-560.851-9.374-761.199.289-7.018 2.338-21.063 2.338-21.063z"/><path fill="#d38475" d="m3134.85 2342-108.009 6.743c-.862-21.141-1.806-45.236-2.77-71.502 24.655 9.508 71.501 30.454 110.779 64.759z"/><path fill="#fff" d="M3109.346 1495.436s195.551 28.641 209.377 186.662c13.827 158.021-2.67 531.931-19.208 700.757-16.539 168.826-96.271 232.127-193.589 218.512-97.318-13.614-104.437-149.313-117.591-232.775s6.064-489.298 0-589.378 5.788-272.585 121.011-283.778z"/><path fill="#e5dcdc" d="M2983.643 2233.523c-.117 42.21.375 78.932 1.907 105.492 75.966 10.927 215.643 25.321 163.96-26.022-50.797-50.463-127.74-71.665-165.867-79.47z"/><path fill="#c7a5a5" d="M2689.933 2154.514s-30.287 18.436-42.139 86.911-15.802 152.753 5.267 179.09c21.069 26.337 86.796-10.758 97.388-47.518s6.643-201.364-60.516-218.483z"/><path fill="#de9681" d="M2637.544 2181.244c.009.003 31.385 10.463 179.225 54.392 168.959 50.204 287.986 92.924 353.116 120.827a108.555 108.555 0 0 1 25.508 11.394c36.273 22.238 57.703 64.624 51.068 109.324-8.865 59.725-64.468 100.956-124.193 92.092a109.18 109.18 0 0 1-32.798-10.332c-.01.018-500.173-265.973-500.173-265.973a60.576 60.576 0 0 1-6.172-2.85c-22.097-11.835-35.432-36.531-31.555-62.651 4.936-33.256 35.896-56.214 69.153-51.278a60.834 60.834 0 0 1 16.821 5.055z"/><path fill="#5569bd" d="M2412.364 2257.72h179.742c8.534 0 14.434-8.533 11.42-16.517l-125.001-331.217a12.205 12.205 0 0 0-11.42-7.896h-179.742c-16.318 0-27.435 13.164-24.422 21.148l138.002 326.585a12.208 12.208 0 0 0 11.421 7.897z"/><path fill="#3a4b82" d="M2398.81 2268.621h179.742c8.533 0 14.433-8.533 11.42-16.517l-125-331.217a12.206 12.206 0 0 0-11.42-7.896H2273.81c-8.533 0-14.433 8.533-11.42 16.516l125 331.217a12.206 12.206 0 0 0 11.42 7.897z"/><path fill="#de9681" d="M2743.329 2213.703s-75.498-31.43-95.206-55.568c-19.707-24.138-46.247-68.73-54.32-78.023-3.99-4.594-21.349-34.606-34.567-48.394-13.52-14.103-43.456-22.715-43.456-22.715s33.421 81.314 30.616 104.689c-1.243 10.358-75.573 27.59-104.012 31.665-28.439 4.076-56.829 5.407-60.472 4.428-3.643-.979-49.67-37.476-58.834-36.722-9.164.754-1.615 33.525-1.615 33.525s-22.104-.302-8.271 34.104c0 0-8.514 6.26.902 30.21 3.509 9.819 8.226 14.701 8.226 14.701s-6.955 13.909 5.039 25.711c11.993 11.802 39.855 36.137 54.93 46.163 9.683 4.44 151.672.171 179.126.043 27.454-.127 98.893 42.48 126.678 47.37 46.21 8.133 73.671-29.725 80.396-62.642 10.682-52.277-25.16-68.545-25.16-68.545z"/><path fill="#d38475" d="M2321.464 2146.588c54.382 51.45 43.607 37.7 113.037 43.847 23.287 2.028 23.853 2.986-.083 4.433-22.269.733-45.592 1.01-67.034-5.933-17.208-10.511-34.86-27.737-45.92-42.347zM2313.194 2180.692c17.945 13.337 35.487 27.661 54.799 38.927 18.36 5.352 38.216 4.041 57.096 7.133 5.98.694 11.966 1.462 17.959 2.489.336.041.352.601-.011.63-26.195 2.119-54.732 3.511-79.265-7.14-17.247-12.423-37.224-27.791-50.578-42.039zM2322.322 2225.604c18.142 13.073 36.448 27.602 57.659 35.145 14.353 2.466 28.983 3.186 43.371 5.774 5.315.828 10.633 1.735 15.948 2.916.331.058.325.605-.031.629-21.563 1.677-44.274 1.649-64.803-5.831-18.882-9.766-38.955-24.465-52.144-38.633z"/><path fill="#fff" d="M2689.933 2154.514s39.505 25.997 18.436 97.935c-21.069 71.938-18.378 107.484-30.258 140.409-11.88 32.925-25.049 27.658-25.049 27.658s34.698 37.068 141.79 76.475c107.092 39.407 249.086 103.133 321.625 106.166 72.538 3.033 151.549-65.442 151.549-144.452s-76.376-122.865-118.515-145.71c-42.139-22.845-172.506-53.463-205.427-55.273s-76.377-58.238-109.298-51.654c-32.921 6.583-76.377-39.703-144.853-51.554z"/><path fill="#eaeaea" d="M2405.218 3259.012s-44.343-42.563-97.283-35c-52.941 7.563-79.805 23.808-90.393 78.261-10.588 54.453-31.306 182.292 29.197 171.704 0 0 31.764 22.689 52.941-4.538 0 0 31.764 4.538 37.815-30.252s-1.917-78.862 5.646-121.215c7.562-42.351 30.231-51.73 62.077-58.96z"/><path fill="#d0d6dd" d="M2246.313 3474.136c-4.291-6.765-6.362-14.714-8.332-22.41-1.109-5.05.676-10.287 4.271-14.097 2.981.696 3.712 6.58 4.6 9.186.469 5.833-.973 11.841-.312 17.823-.491 1.552 1.718 10.422-.227 9.498zM2299.241 3469.561c-3.715-7.64-8.07-15.691-8.813-24.226.355-2.765 1.842-8.727 5.112-8.633 3.596 4.877 4.955 9.893 4.091 15.88-.321.849 1.531 19.733-.39 16.979z"/><path fill="#eaeaea" d="M2183.07 3149.089s-3.034-44.161-33.799-71.021c-24.739-21.598-43.438-29.945-73.543-35.504-30.106-5.56-58.751-.336-75.16 17.53-23.335 25.407-22.679 32.381-38.878 75.035-19.587 51.574-26.295 84.019 3.413 90.974 0 0 7.002 33.685 43.673 21.498 0 0 23.33 8.156 38.262-17.77 14.932-25.926 13.385-20.797 31.897-59.285s21.07-55.015 49.885-49.616c23.356 4.377 54.25 28.159 54.25 28.159z"/><path fill="#eaeaea" d="M2149.271 3078.069s46.13 56.192 59.006 70.238c12.876 14.046 24.013 40.406 24.013 40.406l-49.22-39.623c0-.001-43.749-42.929-33.799-71.021z"/><path fill="#d0d6dd" d="M1964.667 3226.092c-1.238-7.568-2.155-16.154.663-23.423 2.781-3.851 8.933-9.188 8.315-.463.49 6.213-4.252 10.845-5.687 16.783-.938 1.179-1.775 8.351-3.291 7.103zM2006.219 3244.397c.083-8.361-.26-17.259 2.322-25.232 5.887-9.029 9.281-8.365 8.276 2.708-1.248 5.161-4.551 9.903-6.315 15.041-1.041 1.26-2.808 8.915-4.283 7.483zM2276.784 2711.883s-107.821-25.8-162.94 47.387c-40.405 53.65-49.806 83.93-74.617 125.604-17.49 29.377-35.872 140.757 17.81 156.2 72.097 20.74 69.858 55.357 115.691 61.741s78.268 3.878 115.993 2.356c93.37-3.767 151.845-29.469 149.081-99.938-2.764-70.468-3.62-100.499-2.072-136.107 2.387-54.869-35.549-140.055-158.946-157.243z"/><path fill="#d0d6dd" d="M2351.156 2756.293s80.631-38.144 149.1-32.092c8.781.776 14.686 9.335 12.39 17.846-9.407 34.876-36.153 118.498-81.801 143.565.001.001-59.309-93.261-79.689-129.319z"/><path fill="#ebab98" d="M2407.129 2785.828s52.813-42.472 89.756-44.654c2.793 6.251-42.871 97.349-55.773 105.811 0 0 4.96-19.827 6.68-26.915 1.72-7.088-7.27 4.849-12.402 4.867-5.132.018.064-10.983 1.684-17.352 1.62-6.369-4.631-3.576-11.92-3.859s-3.129-14.359-.673-16.215c2.457-1.855-10.564 2.194-17.352-1.683z"/><path fill="#d0d6dd" d="M2081.242 2815.713s-30.876-64.062-35.427-132.646c-.584-8.795 6.965-15.947 15.728-14.988 35.908 3.931 90.753 15.389 122.543 56.638 0 0-70.35 65.312-102.844 90.996z"/><path fill="#ebab98" d="M2054.66 2691.68c3.572 19.169 14.554 72.135 31.435 99.992 0 0-2.01-17.134 1.867-23.921 3.876-6.788 7.288.282 13.157 5.497 5.869 5.214 4.141-19.208 1.666-22.484-2.475-3.276 11.701.164 15.514 4.359 3.813 4.195 2.803-20.127.029-21.246-2.775-1.119 14.058-.973 20.445 5.779 0 0-13.998-41.508-78.152-53.89-3.511-.677-6.616 2.4-5.961 5.914z"/><path fill="#eaeaea" d="M2276.784 2711.883s-47.607-11.382-95.725 2.447c-2.51 14.6-11.78 38.377-17.177 63.074-7.248 33.164 2.684 62.746 2.684 62.746 26.081 41.032-8.397 119.813-8.397 119.813l70.466 13.101c-2.371-72.621 36.286-100.095 50.64-115.545s24.625-52.069 38.923-69.793c10.916-13.531 27.287-41.341 33.774-53.059-20.964-11.533-46.846-18.836-75.188-22.784z"/><path fill="#eaeaea" d="M2158.168 2959.963s-72.477-1.969-41.894 57.703c0 0 29.407 28.497 66.396-14.896 0 0 13.569 60.742 72.099 52.083 58.531-8.659 10.758-87.165-35.496-82.217s-61.105-12.673-61.105-12.673z"/><path fill="#afbbc6" d="M2183.516 3001.355c-7.981 18.89-29.461 35.733-50.782 29.842-4.744-1.285-17.641-8.97-16.502-13.534 36.107 6.722 41.533 7.771 67.284-16.308z"/><path fill="#afbbc6" d="M2183.417 3001.667c9.931 27.021 32.321 43.24 59.583 49.734 1.659 1.091 13.136 2.396 11.833 4.518-25.7 11.221-52.512-8.178-64.142-30.587-1.761-2.868-10.939-24.229-7.274-23.665z"/><path fill="#ebab98" d="M2185.444 3000.778c-1.538 1.733-2.62 3.096-3.851 1.133-2.32-3.697-7.144-11.534-11.833-16.216-6.114-6.103-19.383-24.264-9.326-27.655 10.056-3.391 55.107 4.048 64.473 10.178 9.881 6.468 6.833 16.526-6.749 19.426-11.645 2.486-26.365 5.979-32.714 13.134z"/><path fill="#121d3f" d="M2286.193 2943.507c-21.556 0-39.667-14.885-39.91-15.088a2.724 2.724 0 0 1 3.496-4.18c.297.249 30.002 24.58 56.512 8.093a2.724 2.724 0 0 1 2.877 4.627c-7.671 4.77-15.53 6.548-22.975 6.548zM2139.426 2918.736c-19.952 0-31.208-12.753-31.356-12.925a2.725 2.725 0 0 1 4.129-3.556c.718.826 17.583 19.65 47.647 6.366a2.726 2.726 0 0 1 2.202 4.985c-8.435 3.728-16.008 5.13-22.622 5.13z"/><path fill="#afbbc6" d="M2135.776 2842.593a5.34 5.34 0 0 1 .491-10.622c3.393-.161 20.651-.839 27.017 1.378a5.34 5.34 0 1 1-3.52 10.084c-2.923-1.021-14.213-1.208-22.996-.795-.338.015-.669 0-.992-.045zM2307.721 2872.532a5.325 5.325 0 0 1-3.8-2.469c-2.351-3.778-13.159-6.283-19.737-6.81-2.939-.241-5.138-2.795-4.911-5.734a5.338 5.338 0 0 1 5.727-4.914c3.614.278 21.974 2.139 27.989 11.818a5.34 5.34 0 0 1-5.268 8.109z"/><path fill="#5569bd" d="M2222.351 1875.631c-89.829-70.639-237.148-164.381-307.518-301.974-22.046-43.105-35.464-94.898-43.492-145.77-4.164-26.388 14.915-50.791 41.511-53.295 85.774-8.074 145.596-15.179 165.597-19.224 97.773-24.405 141.876-130.143 136.04-250.777.068 1.593-4.03-400.812-93.578-544.161-172.555-153.711-1102.096-208.005-1603.96-106.755-38.712 7.81-73.148 29.82-96.315 61.803-112.291 155.025-108.383 417.82-73.442 612.527 15.999 79.916 40.334 150.8 71.387 201.722 59.411 97.425 536.716 101.083 965.463 81.348 46.501-2.14 91.427 16.982 122.199 51.91 64.059 72.713 147.849 159.994 225.988 217.235 200.231 146.679 394.938 202.648 476.01 223.86 17.002 4.448 27.925-17.585 14.11-28.449z"/><path fill="#fff" d="M476.556 467.735c-21.984 11.183-41.222 27.453-55.92 47.744-12.768 17.627-24.019 36.661-33.907 56.817l1692.189 782.949c50.911-12.867 87.215-47.839 109.451-95.481L476.556 467.735z"/><path fill="#e36868" d="M444.813 489.099a156.27 156.27 0 0 0-24.176 26.379c-6.498 8.97-12.589 18.316-18.325 27.974l1717.914 794.852c20.821-12.346 38.139-29.373 52.034-49.943L444.813 489.099z"/><path fill="#fff" d="M2120.91 560.43c-21.811-19.429-55.721-37.268-99.328-53.407l-1635.32 756.799c9.75 24.437 20.551 46.606 32.319 65.904 9.282 15.221 28.765 28.154 56.671 39.066l1665.142-770.285c-5.998-14.065-12.479-26.864-19.484-38.077z"/><path fill="#e36868" d="M2120.91 560.43c-14.469-12.888-34.266-25.077-58.68-36.534L399.307 1293.812c6.097 12.839 12.527 24.849 19.275 35.915 4.385 7.192 11.065 13.868 19.817 20.066L2126.037 569.1a222.044 222.044 0 0 0-5.127-8.67z"/><path fill="#fff" d="M328.002 816.334c-5.055 72.575-2.188 147.041 5.52 217.036h1878.644c-2.603-55.159-8.05-135.655-19.339-217.036H328.002z"/><path fill="#fff" d="M1407.586 409.367c-75.643-4.213-153.29-6.627-230.977-7.145v1016.235c69.116-1.672 138.895-4.227 207.435-7.382a153.15 153.15 0 0 1 23.542.743V409.367z"/><path fill="#e36868" d="M1219.607 1417.308c48.412-1.415 96.955-3.233 144.981-5.355V407.176a4751.738 4751.738 0 0 0-144.981-4.473v1014.605z"/><path fill="#e36868" d="M326.142 852.362c-1.68 48.581-.082 97.528 3.892 144.981h1880.199c-2.516-41.91-6.494-92.486-12.763-144.981H326.142z"/><path fill="#a9d1fc" d="M2226.319 1870.585c-14.84-11.669-31.206-23.939-48.533-36.93-88.715-66.513-199.124-149.291-257.238-262.92-19.353-37.839-33.775-86.236-42.867-143.847-1.727-10.948 1.075-21.812 7.89-30.59 6.854-8.828 16.756-14.266 27.882-15.313 82.846-7.798 145.002-15.022 166.268-19.324a7.13 7.13 0 0 0 .282-.063c48.092-12.004 86.492-44.037 111.048-92.636 22.578-44.683 32.899-101.628 29.849-164.68a5.012 5.012 0 0 0-.014-.214c.013-1.01-.009-2.333-.04-4.13a1561.32 1561.32 0 0 0-.282-13.038 2486.28 2486.28 0 0 0-1.696-47.528c-1.635-36.409-4.914-92.664-11.253-153.898-7.126-68.842-16.584-129.767-28.113-181.083-14.498-64.535-32.379-114.115-53.148-147.361a6.423 6.423 0 0 0-1.174-1.393c-42.308-37.688-128.367-70.409-255.786-97.253-116.653-24.577-264.156-43.024-426.564-53.348-160.731-10.217-329.504-12.093-488.071-5.425-167.193 7.032-319.023 23.551-439.077 47.771-40.515 8.174-76.116 31.02-100.244 64.33-51.967 71.744-83.301 170.875-93.133 294.641-9.98 125.636 4.591 244.878 18.571 322.786l.024.126c16.653 83.18 41.62 153.654 72.201 203.804 15.277 25.052 54.421 44.516 119.668 59.501 56.898 13.068 134.169 22.547 229.665 28.173 160.402 9.451 369.641 8.354 621.906-3.256 44.75-2.063 87.423 16.07 117.086 49.741 58.785 66.728 145.888 158.743 227.012 218.17 86.766 63.561 182.321 117.3 284.011 159.726 82.757 34.527 150.449 53.727 194.167 65.166 2.028.531 4.049.788 6.026.788 8.394 0 15.989-4.633 19.953-12.611 4.904-9.869 2.382-21.073-6.276-27.882zm-5.222 22.168c-1.711 3.446-5.563 6.598-11.231 5.116-175.128-45.821-334.551-120.792-473.841-222.828-80.194-58.746-166.6-150.05-224.965-216.3-30.598-34.731-73.926-54.251-119.839-54.251-2.481 0-4.977.057-7.472.172-248.271 11.428-462.857 12.557-620.561 3.266-94.785-5.585-171.342-14.962-227.545-27.871-60.844-13.974-98.385-32.032-111.581-53.672-29.801-48.87-54.2-117.878-70.561-199.575-17.142-95.558-62.504-421.414 72.333-607.566 22.231-30.69 55.041-51.742 92.385-59.276 234.446-47.298 588.422-63.438 923.794-42.119 161.802 10.285 308.672 28.646 424.732 53.097 122.737 25.858 208.867 58.236 249.206 93.669 35.629 57.638 62.83 168.317 78.687 320.205 12.298 117.8 13.407 216.692 13.43 219.673-.002.124 0 .248.005.373 6.234 128.862-43.979 222.418-131.042 244.239-20.687 4.16-83.778 11.472-164.782 19.096-14.479 1.363-27.899 8.734-36.82 20.222-9.013 11.607-12.717 25.978-10.431 40.465 9.304 58.953 24.147 108.644 44.119 147.692 59.467 116.273 171.193 200.039 260.967 267.346 17.267 12.945 33.575 25.172 48.298 36.75 4.621 3.635 4.432 8.622 2.715 12.077z"/></svg>