<svg xmlns="http://www.w3.org/2000/svg" viewBox="0 0 900 600"><g data-name="Layer 1"><path fill="#e6e4cf" d="M142.49 537.67C29.11 471.93 79.61 350 170.12 329s64.79-150.53 154.34-198.17 285.83-101.95 404 41.92 80 333.46 48.59 364Z"/><path fill="#e6e4cf" d="M146.3 176.58c-125.1 55.6-23.82 163.87 41 127.67s70.47-177.25-41-127.67Z"/><path fill="#bbbe84" d="M661.26 209.45c18.58-38.59 28.58-32.39 37.16-30.49s20.48-18.58 37.16-14.29-11.91 49.07-8.1 55.26 8.57 17.63-6.19 35.73-20.49 25.25-14.77 41.92-48.59 65.74-37.16 78.13-45.73 63.35-35.73 70-42.39 58.6-47.16 58.6C557.89 492.89 548.84 397.62 561.7 400s3.33-76.7 20-82.41 19.53-11 24.77-35.25S609.81 238 632.68 229s28.58-19.55 28.58-19.55Z"/><path fill="#97996a" d="M588.38 490.3a.68.68 0 0 1-.2 0 1.21 1.21 0 0 1-1-1.39C609.38 351.23 660.6 237.63 731.4 169a1.22 1.22 0 0 1 1.72 0 1.24 1.24 0 0 1 0 1.73C662.66 239 611.7 352.13 589.58 489.28a1.22 1.22 0 0 1-1.2 1.02Z"/><path fill="#96a765" d="M748 279.33c21.47-22.11 26.89-15.6 32.31-12.35s18.22-8 28.62-1.29-19.3 30.78-18.11 35.88 1.84 14-12.36 23-19.73 12.57-19.63 25.25-48.14 33.82-43.15 44.88-45.68 32.81-40.38 39.65-42.3 30.34-45.54 29.26c-16.91-14.32-1.39-81.42 6.85-76.86S656.35 335.15 669 335s15.83-3 24.94-18.42 12.36-29.49 30-30.46 24.06-6.79 24.06-6.79Z"/><path fill="#73814f" d="m634.26 454.47-.13-.06a.87.87 0 0 1-.37-1.18c46.5-88.92 107.33-154.81 171.24-185.52a.88.88 0 0 1 1.17.42.86.86 0 0 1-.41 1.16C742.19 299.84 681.64 365.45 635.31 454a.87.87 0 0 1-1.05.47Z"/><path fill="#bbbe84" d="M133.77 319c-16.41-26.72-23.24-21.46-29.34-19.43s-16.31-12-28.14-7.64 12.35 34.85 10 39.65S81.4 345 93.51 357.1s16.8 16.86 13.89 29.43 40.3 44.26 32.9 54.14 38 42.73 31.26 48.33 35.26 39.52 38.73 39.16c20-10.46 19.44-80.54 10.25-77.84s-8.16-55.62-20.74-58.54-15-6.52-20.67-23.83-5.74-32-23.08-36.9S133.77 319 133.77 319Z"/><path fill="#97996a" d="M207.85 518.09h.14a.89.89 0 0 0 .63-1.09c-26.46-98.62-72.25-177.53-128.95-222.21a.89.89 0 0 0-1.11 1.4c56.4 44.44 102 123 128.34 221.27a.9.9 0 0 0 .95.63Z"/><path fill="#96a765" d="M121.76 427.48c-19.21-11.85-21.89-6.26-25.15-3s-14.37-2.43-20.55 4.21 19.22 18.4 19.29 22.23 1.2 10.26 12.89 14.1 16.27 5.39 18.47 14.41 40.24 15.38 38.68 24.12 38.3 15.13 35.75 20.93 35.46 14 37.58 12.61c9.43-13.19-13.61-58.05-18.64-53.34s-23.27-33.09-32.29-30.89-11.78.68-21-8.61S152.71 425.55 140 428s-18.24-.52-18.24-.52Z"/><path fill="#73814f" d="m233.89 531.43.08-.06a.66.66 0 0 0 .05-.91c-49-54.79-104-90.66-154.87-101a.64.64 0 0 0-.25 1.26c50.64 10.28 105.39 46 154.16 100.6a.65.65 0 0 0 .83.11Z"/><path fill="#bbbe84" d="M408.2 160.41c-15-40.46-25.59-35.2-34.37-34.1s-18.78-20.57-35.91-17.85 7.3 50.33 2.89 56.18-10.27 16.86 2.82 36.42 18.15 27.26 10.84 43.43S397 315 384.32 326.36s39.86 67.88 29.2 73.62 37 62.77 41.74 63.23C485 454.45 503.11 359.76 490 360.93s3.92-77.23-12.26-84.54-18.54-12.84-21.5-37.7.86-44.74-21.21-56-26.83-22.28-26.83-22.28Z"/><path fill="#97996a" d="M454.67 449a1.34 1.34 0 0 0 .2 0 1.21 1.21 0 0 0 1.14-1.3C446.8 307.5 406.2 188.73 341.7 113.23a1.22 1.22 0 1 0-1.86 1.59c64.16 75.11 104.54 193.37 113.73 333a1.22 1.22 0 0 0 1.1 1.18Z"/><path fill="#d7d4b5" d="M101.59 528.78h674.73a24.52 24.52 0 0 1 24.52 24.52v5.33H77.07v-5.33a24.52 24.52 0 0 1 24.52-24.52Z"/><path fill="#3f6c7a" d="M577.38 417.81H748.3v111.13H577.38z"/><path fill="#508ea3" d="m641.25 348.58-160.92 57.94 182.4 51.95 160.92-57.94-182.4-51.95z"/><path fill="#64b2cc" d="M662.73 463.88v-5.41l160.92-57.94v5.41l-160.92 57.94z"/><path fill="#89cee5" d="M480.33 406.52v5.41l182.4 51.95v-5.41l-182.4-51.95z"/><rect width="17.73" height="17.73" x="720.26" y="444.54" rx="6.55" style="mix-blend-mode:screen" fill="#415258"/><rect width="17.73" height="55.12" x="720.25" y="464.82" rx="6.55" style="mix-blend-mode:screen" fill="#415258"/><path fill="#e38b78" d="M492.18 125.18h76.2v45.86h-76.2z"/><path fill="#c47968" d="M568.38 125.18h-76.2l27.05-15.87h22.11l27.04 15.87z"/><path fill="#e3a598" d="M530.34 62.38h-.12l-11.64 46.93h23.41l-11.65-46.93zM456.73 198.74h147.11v330.2H456.73z"/><path fill="#c47968" d="M576.79 170.69h-93.02l-27.04 28.05h147.11l-27.05-28.05z"/><rect width="12.35" height="197.91" x="580.32" y="323.44" fill="#c47968" rx="4.57"/><rect width="12.35" height="191.91" x="551.92" y="329.44" fill="#c47968" rx="4.57"/><rect width="12.35" height="183.09" x="523.52" y="338.26" fill="#c47968" rx="4.57"/><rect width="12.35" height="191.91" x="495.12" y="329.44" fill="#c47968" rx="4.57"/><rect width="12.35" height="197.91" x="468.07" y="323.44" fill="#c47968" rx="4.57"/><circle cx="529.59" cy="277.9" r="50.8" fill="#c47968"/><circle cx="526.58" cy="275.99" r="50.8" fill="#f8d2c1" transform="rotate(-80.78 526.596 275.988)"/><circle cx="526.58" cy="275.99" r="43.92" fill="#fed8b4" transform="rotate(-22.5 526.572 276.006)"/><path fill="#c47968" d="M485.4 277a43.95 43.95 0 0 1 56.86-42 43.93 43.93 0 1 0-28.62 83 43.94 43.94 0 0 1-28.24-41Z"/><path fill="#cf897b" d="M526.58 277.35a1.36 1.36 0 0 1-1.32-1l-8.64-35.63a1.35 1.35 0 0 1 1-1.63 1.12 1.12 0 0 1 .32 0 1.36 1.36 0 0 1 1.31 1l8.34 34.41 20.1-3.49a.93.93 0 0 1 .23 0 1.35 1.35 0 0 1 .23 2.68l-21.34 3.71Z"/><path fill="#d93c43" d="M479.29 411.64 231.64 409a4.08 4.08 0 0 0-1.61.34c-21.8 9.43-30.88 40.52-28.59 66.36 2.49 28.1 16.79 47.9 38.27 53a3.64 3.64 0 0 0 .93.11h233.84a4.06 4.06 0 1 0 0-8.11l4.72-100.9h.05a4.06 4.06 0 0 0 0-8.11Z"/><path fill="#fed8b4" d="M572.09 417.28c-25.05 24-9.18 99.14-5.3 106.19H336.08l-15.53-3.88-15.87-25.4-4.24-34.93 9.18-27.16 18-18.34Z"/><path fill="#ed555c" d="M570.5 528.76H336.6a3.69 3.69 0 0 1-.93-.11c-21.47-5.06-35.78-24.86-38.27-53-2.29-25.84 6.8-56.93 28.6-66.36a4 4 0 0 1 1.61-.34l247.66 2.65a4.06 4.06 0 0 1 0 8.11l-246.76-2.63c-15.43 7.32-25.27 32-23 57.86 2.15 24.23 13.95 41.27 31.61 45.67H570.5a4.06 4.06 0 1 1 0 8.11Z"/><path d="M552 439.39h-88.9a2.71 2.71 0 1 1 0-5.41H552a2.71 2.71 0 0 1 0 5.41ZM383 463.73h-42a2.71 2.71 0 0 1 0-5.41h42a2.71 2.71 0 0 1 0 5.41ZM482.13 463.38h-82.91a2.71 2.71 0 0 1 0-5.41h82.91a2.71 2.71 0 0 1 0 5.41ZM512.47 482.08h-66a2.71 2.71 0 1 1 0-5.41h66a2.71 2.71 0 0 1 0 5.41ZM506.47 504.66H380.53a2.71 2.71 0 1 1 0-5.41h125.94a2.71 2.71 0 0 1 0 5.41Z" style="mix-blend-mode:multiply" fill="#dedede"/><path fill="#fed8b4" d="M289.51 424.34h-16.23c-16.23 27.66-13.7 76.54 3.59 92.08h17.58c-17.29-15.54-21.17-64.42-4.94-92.08Z"/><path fill="#64b2cc" d="M242.76 94.73H249a8.8 8.8 0 0 1 8.8 8.8V127H234v-23.47a8.8 8.8 0 0 1 8.76-8.8Z"/><rect width="39.69" height="269.35" x="226.02" y="177.81" fill="#344978" rx="8.61"/><rect width="56.62" height="91.55" x="217.55" y="121.19" fill="#508ea3" rx="8.61"/><path fill="#64b2cc" d="M195.85 240.9a5.42 5.42 0 0 1-5.41-5.41v-77a26.34 26.34 0 0 1 26.32-26.31h6.08a5.41 5.41 0 0 1 0 10.82h-6.08a15.51 15.51 0 0 0-15.5 15.49v77a5.41 5.41 0 0 1-5.41 5.41Z"/><rect width="48.68" height="83.08" x="221.52" y="407.47" fill="#508ea3" rx="7.04"/><path fill="#344978" d="M261.47 490.55h-31.22l12.33 36.34a2.76 2.76 0 0 0 5.2.08Z"/><path fill="#6db5cd" d="M289.21 375.61a89.93 89.93 0 0 1-46.7-12.79c-15.31-9.34-26.58-23.19-30.93-38-2.73-9.31.35-15.31 3.41-18.7 9.24-10.22 32.65-11.91 69.58-5a6.76 6.76 0 1 1-2.47 13.29c-35.6-6.63-53-3.72-57.07.8-.49.54-1.65 1.82-.47 5.82 6.7 22.85 35.68 44.31 72.58 40.68a6.76 6.76 0 0 1 1.32 13.46c-3.09.29-6.18.44-9.25.44Z"/><path fill="#89cee5" d="M443.36 268.59H257.58c-11.64 59.62 30 110.42 52.57 126.29h80.65c22.58-15.88 64.2-66.67 52.56-126.29Z"/><path fill="#6db5cd" d="M242.29 384.83c13.05 16.93 40.57 24.34 40.57 24.34h135.23s27.52-7.41 40.57-24.34Z"/><path d="M380.34 381.83a8.11 8.11 0 0 1-7.16-11.91 260.12 260.12 0 0 0 19.08-50.34 8.11 8.11 0 0 1 15.72 4 272.13 272.13 0 0 1-20.46 53.9 8.12 8.12 0 0 1-7.18 4.35ZM407.64 308.71a8.86 8.86 0 0 1-1.25-.09 8.13 8.13 0 0 1-6.78-9.27 123 123 0 0 0 1.55-18.77 8.12 8.12 0 0 1 16.23 0 139 139 0 0 1-1.74 21.26 8.11 8.11 0 0 1-8.01 6.87Z" style="mix-blend-mode:screen" fill="#415258"/><path fill="#adb990" d="M768.13 219.77h-11.56l-.16-.11a16.39 16.39 0 0 1-2.76-2.56 13.06 13.06 0 0 1-6.57-1.86 10.13 10.13 0 0 1-4.55-5.61 3.2 3.2 0 0 1 .6-3.17c1-1.07 2.76-1.55 5.47-1.46a15.92 15.92 0 0 1 .28-3.45l.1-.49h26.74l.09.49c1.61 8.21-3.76 15.47-7.52 18.11ZM757 218.56h10.78c2.94-2.17 8.18-8.7 7-16.28H750a14.71 14.71 0 0 0-.14 3.32v.7l-.7-.05c-2.62-.17-4.4.18-5.17 1a2 2 0 0 0-.34 2 8.94 8.94 0 0 0 4 4.91 11.81 11.81 0 0 0 6.15 1.69h.29l.25.21a15.71 15.71 0 0 0 2.66 2.5Zm-3.26-3.25-1.32-.17c-3.84-.48-7.16-3-8.06-6a1.37 1.37 0 0 1 .2-1.39c.83-.91 3.19-.92 5-.77h.46l.09.45a18.75 18.75 0 0 0 2.89 6.77Zm-8.26-6.79v.24a7.94 7.94 0 0 0 5.71 4.92 19.81 19.81 0 0 1-2.21-5.56c-2.4-.12-3.35.22-3.54.4Z"/><path fill="#f58765" d="M193.05 528.12c-4-4-21.55-11.77-23.72-13.94s7-69.32 10.11-77 3.13-12 3.13-12-25.52-5.78-27-6.26-19.74-6-19.74-6l3.53 16s1.45 1.61-1.44 6.26-6.9 11.39-6.9 37.23 2.57 42 .64 44.77-4 7.22-3.37 10.91H159v.06Zm-53.49-13.06c-1.28-2.72 13-59.53 16.69-64.5-1.12 27.6 6.26 67.23 6.26 67.23a15 15 0 0 0-3.36 8.33c-5.47-3.87-18.5-8.74-19.59-11.06Z"/><path fill="#f8ae5c" d="M134.11 352.51c-7.87 17.33.32 78 .32 78a53.89 53.89 0 0 0 6.42.8l-.16-11.72s3.69 11.56 4.81 11.56c23.43-1.45 38.67-1.77 38.67-1.77 3.53-20.7 7.55-65 .81-77.18s-14.93-17.65-14.93-17.65-14.12 3.21-15.08 4.17-20.86 13.79-20.86 13.79Z"/><path fill="#2c1913" d="M132.5 281.74c7.38-9.63 7.87-27.12 11.88-35.46s9.3-10.43 16.21-9.95 8.18-1.44 10.91-.32 4.17 10.75 1.92 14.92a139.09 139.09 0 0 0 .48 32.26Z"/><path fill="#ed555c" d="M224.18 300.09s-20.64 7-24.39 5.67-16-21.61-21.29-24.29a52 52 0 0 0-9.3-3.74 35.54 35.54 0 0 0-8.13-3.74l-7.87-2.52c-9.06 3.29-11.23 4.74-11.63 5.38-3.53 1.28-12.68 4.41-16.53 10.75s-14.2 49.9-11.79 54 24.17 17 24.17 17l.82-.73 5.82-6.55s9.62.75 10.48.75c7.49-3.53 10-8.88 10-8.88 1.28 3.85 11 15.19 11 15.19 2.14-1.28 9.09-9.41 9.09-9.41-2.89-2.14-7.27-10.91-7.91-14.34s3.42-18.5 3.42-18.5 18.4 13.37 21.18 11.76S225 315.82 225 315.82Zm-83.12 44.29s-9.41-10.49-9.63-11.23 4.28-16.91 4.28-16.91 8.13 11.56 9.42 18.3a28.64 28.64 0 0 1-4.07 9.84Z"/><path fill="#f8ae5c" d="M152.48 287.84a244.59 244.59 0 0 1 10.91 22.79 203.92 203.92 0 0 0 1.93-23l-5.06-2.41Z"/><path fill="#f58765" d="M226.11 309.24c5.78-.81 8.18-4 9.2-7.65s4.76-8.35 4-8.62-2.67.49-3.85 2.52-1.6 2.51-2.09 1.18 3.75-10.81 4.77-12.68-.43-2.14-.86-1.77c-2 .06-6.69 9.2-7.7 12.68s-4.07 7.22-4.6 7.44 1.13 6.9 1.13 6.9ZM140.29 357.52c.52-.84 3.53-7.9 3.53-7.9a10.56 10.56 0 0 0 5.89-1.89c2-1.24 3.37-2.2 4.26-2.2a27.37 27.37 0 0 1 6.05 1.52 51.16 51.16 0 0 1 4.3 4.26c-1.09.72-3-.33-3.65-1.05a7.11 7.11 0 0 0-3.62-1.64 3.4 3.4 0 0 0-1.24.16 21 21 0 0 1 3.65 2.85c.6.88 2.65 5.13 2.49 5.33s-1.45-.12-1.45-.12c-.4 1.21-1.16.48-1.16.48-.52.56-1.68-.4-3.29-.8a5.38 5.38 0 0 0-5.05 1.24c-1.29 1.37-3.13 2.09-5.86 1.33s-4.85-1.57-4.85-1.57ZM163.27 240.06c-1.72 4.93-5.77 7.34-8.42 8.83S151.6 255 151.6 255c-1.33-2.6-4.45-2.36-5.22.16a4.13 4.13 0 0 0 5 5c.92 6.14 1.4 11.19.2 13a11.56 11.56 0 0 1-4 3.05c.24 1.36 4.89 11.71 4.89 11.71 8.51 1.28 12.84-.24 12.84-.24.72-3.77 0-9.31-.88-10.51s-1.21-.08-1.77-1.53-.16-5.29-.16-5.29a5.74 5.74 0 0 0 4.81-.88c2.17-1.69 4.5-13 3.94-18.3s-5.25-10.27-7.98-11.11Z"/><path d="M160.93 260.86a28.2 28.2 0 0 1 7.52.66c-.68 2.81-4.39 3.61-7.52-.66Z" style="mix-blend-mode:multiply" fill="#e0b3a8"/><path fill="#2c1913" d="M166.36 259.43a.14.14 0 0 1-.12-.09.12.12 0 0 1 .08-.15 11.6 11.6 0 0 0 3-1.38c-1.87-1.64-3-4.57-.83-8a.13.13 0 0 1 .17 0 .12.12 0 0 1 0 .17c-2.17 3.32-1 6.17.88 7.73a.11.11 0 0 1 .05.09.12.12 0 0 1 0 .09 10.35 10.35 0 0 1-3.15 1.53Z"/><path d="M149.91 259a1.23 1.23 0 0 1-1.16-.89c-.05-.35.1-1 1.61-1.69-.36-.34-1.81-1.37-2.84-.85a.13.13 0 0 1-.17-.06.12.12 0 0 1 .06-.16c1.13-.57 2.6.42 3.07.84.17.16.22.24.19.32a.18.18 0 0 1-.08.07c-1.08.46-1.66 1-1.59 1.49s.43.63.94.69a.12.12 0 1 1 0 .24Z" style="mix-blend-mode:multiply" fill="#e0b3a8"/><path fill="#2c1913" d="M166.18 262a13.69 13.69 0 0 1-5.51-1.18.12.12 0 0 1-.06-.16.12.12 0 0 1 .16-.06c3.36 1.5 6.85 1.31 7.78.78a.12.12 0 0 1 .17 0 .13.13 0 0 1-.05.17 5.73 5.73 0 0 1-2.49.45Z"/><path d="M166.15 266.12a4.64 4.64 0 0 1-1.79-.39.12.12 0 0 1-.06-.16.12.12 0 0 1 .16-.07 3.19 3.19 0 0 0 3 0 .13.13 0 0 1 .17 0 .12.12 0 0 1 0 .17 2.47 2.47 0 0 1-1.48.45ZM162.06 270c-3.21-.93-7.85-4.59-10.11-9.53a.14.14 0 0 1 .07-.17.13.13 0 0 1 .16.07c2.22 4.87 6.79 8.48 10 9.4a.11.11 0 0 1 .08.15.12.12 0 0 1-.2.08Z" style="mix-blend-mode:multiply" fill="#e0b3a8"/><path d="M154.33 294.65c-.43-.12-10.62-3-12.53-3.85s-.17-11.93 0-13.19a.12.12 0 0 1 .14-.1.13.13 0 0 1 .1.14c-.56 3.37-1.69 12.25-.18 12.92 1.9.84 12.39 3.82 12.5 3.85a.13.13 0 0 1 .09.15.14.14 0 0 1-.12.08ZM164.06 313.37h-.07l-15.62-11.77c-1.76-1.32-.12-8.08-.05-8.37a.14.14 0 0 1 .15-.09.12.12 0 0 1 .09.15c0 .07-1.67 6.89 0 8.11l15.62 11.77a.12.12 0 0 1 0 .17.12.12 0 0 1-.12.03ZM167 293.26a.12.12 0 0 1-.1-.05.12.12 0 0 1 0-.17c.06-.05 5.76-4.18 6.48-5.73.59-1.27-3.11-6.83-4.58-8.87a.12.12 0 0 1 0-.17.13.13 0 0 1 .18 0c.22.3 5.38 7.46 4.61 9.11s-6.33 5.65-6.57 5.83ZM164.28 310.8h-.08a.14.14 0 0 1 0-.18c.09-.1 8.56-10.6 9.4-12.38s-4.09-5.91-4.14-6a.14.14 0 0 1 0-.18.13.13 0 0 1 .18 0c.21.18 5.09 4.36 4.2 6.24s-9.08 12-9.43 12.44a.11.11 0 0 1-.13.06ZM164.06 341.83a.12.12 0 0 1-.12-.12c0-.14-.75-14.54-.64-23a.12.12 0 0 1 .24 0c-.1 8.46.64 22.85.64 23a.12.12 0 0 1-.11.13ZM180.11 315.08a.13.13 0 0 1-.08-.16 23.19 23.19 0 0 0 .85-5.74 20.92 20.92 0 0 0-1.59-5.16c-1.76-4.67-4.18-11-3.76-17a.13.13 0 0 1 .13-.12.14.14 0 0 1 .12.14c-.42 5.88 2 12.24 3.74 16.88a20.87 20.87 0 0 1 1.61 5.25 23.43 23.43 0 0 1-.86 5.81.13.13 0 0 1-.16.1ZM199.47 310.48a.12.12 0 0 1-.1-.14l.05-.33c.37-2.61.56-3.68.92-3.73.2 0 .3.21.33.28s.15.34.24.55a9.9 9.9 0 0 0 1.21 2.36.41.41 0 0 0 0-.1 4.79 4.79 0 0 0-.73-2.48.12.12 0 0 1 0-.17.13.13 0 0 1 .17 0 4.74 4.74 0 0 1 .76 2.65q-.06.29-.24.3c-.34 0-.72-.75-1.47-2.52l-.23-.54a.49.49 0 0 0-.08-.13 15.13 15.13 0 0 0-.71 3.52v.33a.11.11 0 0 1-.12.15Z" style="mix-blend-mode:multiply" fill="#bfbfbf"/><path d="M232.21 292.51a.12.12 0 0 1-.09-.15 27.47 27.47 0 0 1 4.73-9.68.12.12 0 0 1 .17 0 .13.13 0 0 1 0 .18 27.29 27.29 0 0 0-4.68 9.58.14.14 0 0 1-.13.07Z" style="mix-blend-mode:multiply" fill="#e0b3a8"/><path d="M137.53 295.61a.12.12 0 0 1-.12-.12c0-.06-.41-6.62-7.65-11.34a.13.13 0 0 1 0-.18.12.12 0 0 1 .17 0c7.34 4.79 7.75 11.48 7.75 11.54a.12.12 0 0 1-.11.13ZM135.71 314.76a.14.14 0 0 1-.09-.15s1-3.89 1.61-7.06a.11.11 0 0 1 .14-.09.12.12 0 0 1 .1.14c-.64 3.18-1.6 7-1.61 7.07a.12.12 0 0 1-.15.09ZM129.4 336.05a.13.13 0 0 1-.09-.16 7.35 7.35 0 0 1 1.09-2.18l.09-.12c-.18.07-.49.22-.78.36a13.19 13.19 0 0 1-1.85.81c-.34.11-.53.12-.63 0a.25.25 0 0 1 0-.23c.13-.49 1.87-1.76 3.19-2.07a.12.12 0 0 1 .14.09.12.12 0 0 1-.09.15 6.06 6.06 0 0 0-3 1.88 1.29 1.29 0 0 0 .37-.08 15.9 15.9 0 0 0 1.81-.8c.8-.39 1-.5 1.16-.35s0 .26-.16.48a6.64 6.64 0 0 0-1 2.1.14.14 0 0 1-.25.12Z" style="mix-blend-mode:multiply" fill="#bfbfbf"/><path d="M160.32 356.7a.13.13 0 0 1-.09 0 12.45 12.45 0 0 1-1.41-2.06 7.59 7.59 0 0 0-3.53-2.61.12.12 0 0 1-.12-.12.12.12 0 0 1 .12-.13 7.79 7.79 0 0 1 3.74 2.74 12.48 12.48 0 0 0 1.38 2 .14.14 0 0 1 0 .18.11.11 0 0 1-.09 0ZM159.14 357.12a.11.11 0 0 1-.09 0s-1.92-2.11-3.37-2.53a.12.12 0 0 1-.08-.15.12.12 0 0 1 .15-.08c1.52.43 3.4 2.51 3.48 2.6a.12.12 0 0 1 0 .17.11.11 0 0 1-.09-.01ZM156.68 449.45a.12.12 0 0 1-.08-.15 73.87 73.87 0 0 1 4.29-10.72c1.94-3.49 1.93-4.66 1.92-6.79v-.64a.12.12 0 0 1 .13-.12.12.12 0 0 1 .12.12v.63c0 2.18 0 3.37-1.94 6.92a73 73 0 0 0-4.27 10.67.14.14 0 0 1-.17.08Z" style="mix-blend-mode:multiply" fill="#e0b3a8"/><path fill="#2c1913" d="M142.77 516.93a.14.14 0 0 1-.12-.1.13.13 0 0 1 .1-.15s2-.44 2.5-1.23a.61.61 0 0 0 .08-.49c-.08-.29-.21-.32-.26-.33s-.73.07-2 1.45c-.09.1-.17.12-.24.09s-.12-.28 0-1.11c.19-1 .51-2.78 0-3.43-.13-.16-.32-.34-.53-.23-.53.28-.86 2.06.1 5a.12.12 0 0 1-.08.15.11.11 0 0 1-.15-.07c-1-2.92-.71-4.91 0-5.29.27-.14.58 0 .83.31.56.73.24 2.46 0 3.61-.05.26-.1.53-.12.71 1-1.07 1.69-1.53 2.14-1.42a.62.62 0 0 1 .44.51.87.87 0 0 1-.11.68c-.55.88-2.58 1.32-2.66 1.34ZM175 516.85a.13.13 0 0 1 0-.25s2-.44 2.5-1.23a.58.58 0 0 0 .08-.49c-.07-.29-.21-.32-.25-.33-.21 0-.74.07-2 1.45a.2.2 0 0 1-.24.09c-.15-.08-.12-.28 0-1.11.19-1 .51-2.78 0-3.43-.12-.16-.32-.34-.53-.23-.52.28-.86 2.06.11 5a.12.12 0 0 1-.08.15.12.12 0 0 1-.16-.07c-1-2.92-.71-4.91 0-5.29.28-.14.58 0 .84.31.56.73.24 2.46 0 3.61 0 .26-.1.53-.12.71 1-1.07 1.69-1.53 2.14-1.42a.61.61 0 0 1 .43.51.87.87 0 0 1-.11.68c-.55.88-2.57 1.32-2.66 1.34ZM162.31 253.78c0 .93-.47 1.69-1.05 1.69s-1.06-.76-1.06-1.69.48-1.68 1.06-1.68 1.05.75 1.05 1.68Z"/><ellipse cx="169.04" cy="253.62" fill="#2c1913" rx="1.05" ry="1.68"/><path fill="#2c1913" d="M155.85 250.49c2.85-1.36 7.74-.8 7.74-.8-3-2.29-5.77-.84-7.74.8ZM169 249.57a2.08 2.08 0 0 1 2.29.92c-.23-1.97-2-1.6-2.29-.92Z"/><path fill="#f8ae5c" d="m225.36 300.25 1.34 14.01-2.03.43-.86-13.91 1.55-.53zM144.54 348.06l-4.5 10.47-1.8-.65 5.1-10.47 1.2.65z"/><ellipse cx="160.96" cy="334.86" fill="#2c1913" rx="16.69" ry=".96"/><path fill="#2c1913" d="M167.16 320.2a1.28 1.28 0 1 1-1.28-1.28 1.28 1.28 0 0 1 1.28 1.28ZM167.06 326.73a1.29 1.29 0 1 1-1.29-1.29 1.28 1.28 0 0 1 1.29 1.29ZM173.41 516.72c-1.6.36-2.71.91-5 2.84-2.05 1.69-5.75 1.22-7.61.83a16.88 16.88 0 0 0-1.61 5.73c-4.62-3.27-14.63-7.25-18.29-9.81-2.19.86-2.16 2.51-5.79 3.65a15.78 15.78 0 0 1-5.33.59 13.35 13.35 0 0 0-1.41 7.51H159v.06h34c-2.91-3.01-13.54-8.12-19.59-11.4Z"/><path fill="#adb990" d="M465.26 160.57a4.14 4.14 0 0 0 2.63-3.75 3.75 3.75 0 0 0-1.48-3.13c-1.1-.89-2.53-1.27-4.77-1.27a21.5 21.5 0 0 0-4.05.35h-.13v17h.14a24.62 24.62 0 0 0 3.43.21c2.83 0 4.79-.54 6-1.64a4.75 4.75 0 0 0 1.49-3.53 4.5 4.5 0 0 0-3.26-4.24Zm-3.45-.83H460v-5.19a10.55 10.55 0 0 1 1.78-.12c2.38 0 3.58.88 3.58 2.62s-1.36 2.69-3.55 2.69Zm4.06 5.12c0 2.74-2.64 3.15-4.21 3.15a13.48 13.48 0 0 1-1.68-.08v-6.2h1.66c1.27 0 4.23.27 4.23 3.13ZM213.74 364.45a4.12 4.12 0 0 0 2.62-3.74 3.74 3.74 0 0 0-1.47-3.13c-1.11-.89-2.54-1.27-4.78-1.27a21.66 21.66 0 0 0-4.05.35h-.13v17h.14a25.17 25.17 0 0 0 3.43.2c2.84 0 4.8-.53 6-1.63a4.75 4.75 0 0 0 1.49-3.53 4.52 4.52 0 0 0-3.25-4.25Zm-3.45-.82h-1.84v-5.19a10.68 10.68 0 0 1 1.79-.12c2.37 0 3.57.88 3.57 2.62s-1.38 2.69-3.52 2.69Zm4.05 5.12c0 2.74-2.63 3.14-4.21 3.14a13.93 13.93 0 0 1-1.68-.07v-6.2h1.66c1.27 0 4.23.31 4.23 3.13ZM791.1 363.5a4.13 4.13 0 0 0 2.63-3.74 3.71 3.71 0 0 0-1.48-3.13c-1.1-.9-2.53-1.28-4.77-1.28a21.43 21.43 0 0 0-4.05.36h-.13v17h.14a27 27 0 0 0 3.43.2c2.83 0 4.79-.53 6-1.64a4.73 4.73 0 0 0 1.49-3.52 4.51 4.51 0 0 0-3.26-4.25Zm-3.45-.82h-1.83v-5.19a10.63 10.63 0 0 1 1.78-.12c2.38 0 3.58.88 3.58 2.62s-1.38 2.69-3.53 2.69Zm4.06 5.11c0 2.74-2.64 3.15-4.21 3.15a11.76 11.76 0 0 1-1.68-.08v-6.19h1.66c1.27 0 4.23.33 4.23 3.12ZM758.13 250.9a8.79 8.79 0 0 1-3.52.69c-4 0-6.38-2.5-6.38-6.69s2.48-6.86 6.48-6.86a7.85 7.85 0 0 1 3.37.69l.17.08.62-2.1-.12-.06a9.08 9.08 0 0 0-4.11-.78c-5.42 0-9.06 3.66-9.06 9.11s3.37 8.77 8.58 8.77a10.93 10.93 0 0 0 4.56-.82l.12-.06-.54-2.06ZM89.3 387.14a8.62 8.62 0 0 1-3.52.69c-4 0-6.38-2.5-6.38-6.69s2.48-6.86 6.48-6.86a8 8 0 0 1 3.37.69l.17.09L90 373l-.12-.06a9.17 9.17 0 0 0-4.12-.77c-5.41 0-9 3.65-9 9.1s3.36 8.73 8.56 8.73a10.92 10.92 0 0 0 4.57-.83l.12-.06-.54-2.06ZM640.94 152.89c-15.84 0-28.72-7.89-28.72-17.6s12.88-17.6 28.72-17.6 28.71 7.9 28.71 17.6c0 3.56-1.7 7-4.92 9.88l5.63 7.32-13.18-2.67a42.4 42.4 0 0 1-16.24 3.07Zm0-34c-15.16 0-27.5 7.35-27.5 16.38s12.34 16.39 27.5 16.39a41.08 41.08 0 0 0 15.93-3.05l.18-.08 10.36 2.1-4.34-5.63.44-.38c3.22-2.76 4.92-6 4.92-9.33 0-9.03-12.33-16.38-27.49-16.38ZM444.51 145.11a24.75 24.75 0 1 1 24.75-24.74 24.77 24.77 0 0 1-24.75 24.74Zm0-48.27A23.53 23.53 0 1 0 468 120.37a23.56 23.56 0 0 0-23.49-23.53Z"/><path fill="#adb990" d="M444.51 145.11c-6.73 0-12-10.87-12-24.74s5.27-24.75 12-24.75 12 10.87 12 24.75-5.27 24.74-12 24.74Zm0-48.27c-5.94 0-10.78 10.55-10.78 23.53s4.84 23.53 10.78 23.53 10.79-10.56 10.79-23.53-4.84-23.53-10.79-23.53Z"/><path fill="#adb990" d="m427.12 137.49-.54-1.08c4.7-2.38 11.07-3.7 17.93-3.7s13.15 1.3 17.85 3.65l-.55 1.09c-4.46-2.24-10.77-3.52-17.3-3.52s-12.92 1.3-17.39 3.56ZM444.51 106.8a42.09 42.09 0 0 1-17.1-3.28l.51-1.11a44.88 44.88 0 0 0 33.16 0l.51 1.1a42 42 0 0 1-17.08 3.29Z"/><path fill="#adb990" d="M443.9 96.23h1.22v48.27h-1.22z"/><path fill="#adb990" d="M420.06 120.32h48.59v1.22h-48.59zM510.57 62.17a10.33 10.33 0 0 1-5.08-1.29l-1-.54c-5-2.8-9.72-5.44-16-3.93l-.75.18V42l.46-.11c6.73-1.63 11.89 1.26 16.88 4l.95.53c5 2.77 10.41-.43 10.47-.46l.92-.56v14.81l-.3.18a14 14 0 0 1-6.55 1.78Zm-18.45-7.41c4.92 0 9 2.29 13 4.52l.95.53c4.31 2.4 9 .32 10.17-.3v-12c-1.9.87-6.4 2.43-10.76 0l-1-.54c-4.87-2.73-9.48-5.31-15.53-4v12.09a16.29 16.29 0 0 1 3.17-.3Z"/><path fill="#adb990" d="M487.79 55.82h1.22v15.91h-1.22zM302.55 114.1l-22.91-11.23 22.91-11.68L325.46 103Zm-20.18-11.25 20.18 9.9 20.19-9.75-20.19-10.44Z"/><path fill="#adb990" d="M319.29 117.85h-33.58V105.5h1.22v11.14h31.15V105.5h1.21v12.35zM326.36 249.42h-23.23c-.12 0-2.71-.79-2.71-4.83a.61.61 0 0 1 .58-.59h23.1a.61.61 0 0 1 .61.61c0 3.07 1.74 3.63 1.82 3.66a.61.61 0 0 1-.17 1.19Zm-23-1.22h21.17a5.39 5.39 0 0 1-1.05-3h-21.82c.19 2.25 1.42 2.88 1.73 3Z"/><path fill="#adb990" d="M326.36 249.42a.61.61 0 0 1 0-1.22 3.77 3.77 0 0 0 3.77-3.77v-28.94h-21.86v28.94a.61.61 0 0 1-.61.61.61.61 0 0 1-.61-.61v-29.54a.61.61 0 0 1 .61-.61h23.08a.6.6 0 0 1 .6.61v29.54a5 5 0 0 1-4.98 4.99Z"/><path fill="#adb990" d="M319 220.32h-8.82a.61.61 0 0 1-.61-.61.61.61 0 0 1 .61-.61H319a.61.61 0 0 1 .61.61.61.61 0 0 1-.61.61ZM327.36 224.51h-17.21a.61.61 0 0 1-.61-.61.61.61 0 0 1 .61-.61h17.21a.61.61 0 0 1 .61.61.61.61 0 0 1-.61.61ZM327.36 228.71h-17.21a.61.61 0 0 1-.61-.61.61.61 0 0 1 .61-.61h17.21a.61.61 0 0 1 .61.61.61.61 0 0 1-.61.61ZM327.36 232.9h-17.21a.61.61 0 0 1-.61-.61.61.61 0 0 1 .61-.61h17.21a.61.61 0 0 1 .61.61.61.61 0 0 1-.61.61ZM327.36 237.1h-17.21a.61.61 0 0 1-.61-.61.61.61 0 0 1 .61-.61h17.21a.61.61 0 0 1 .61.61.61.61 0 0 1-.61.61ZM155.09 209.42a.61.61 0 0 1-.45-.2c-1.08-1.2-7.59-4.65-15.08-1.66a.56.56 0 0 1-.56-.06.6.6 0 0 1-.27-.5v-23.52a.6.6 0 0 1 .38-.56c8.2-3.28 15.19.58 16.43 2a.59.59 0 0 1 .16.4v23.52a.62.62 0 0 1-.39.57.54.54 0 0 1-.22.01Zm-9.4-4.27a16.81 16.81 0 0 1 8.79 2.41v-22c-1.42-1.29-7.51-4.27-14.53-1.65v22.22a17.46 17.46 0 0 1 5.74-.98Z"/><path fill="#adb990" d="M136.25 210.7a.59.59 0 0 1-.23 0 .62.62 0 0 1-.38-.56l-.28-23.42a.59.59 0 0 1 .18-.45l3.24-3.13a.61.61 0 0 1 .85.87l-3 3 .26 21.75 2.23-2.16a.61.61 0 0 1 .85.88l-3.24 3.13a.63.63 0 0 1-.48.09Z"/><path fill="#adb990" d="m176.18 210.7-18.84-1.28h-2.21l-18.8 1.28a.61.61 0 1 1-.08-1.21l18.84-1.29h2.29l18.89 1.29a.61.61 0 0 1 0 1.21Z"/><path fill="#adb990" d="M157.34 209.42a.52.52 0 0 1-.21 0 .61.61 0 0 1-.39-.57v-23.56a.59.59 0 0 1 .15-.4c1.25-1.39 8.23-5.25 16.43-2a.59.59 0 0 1 .39.56V207a.6.6 0 0 1-.27.5.58.58 0 0 1-.57.06c-7.49-3-14 .46-15.07 1.66a.63.63 0 0 1-.46.2Zm.61-23.87v22a17.28 17.28 0 0 1 14.54-1.44V183.9c-7.03-2.62-13.12.36-14.49 1.65Z"/><path fill="#adb990" d="M176.18 210.7a.63.63 0 0 1-.42-.17l-3.24-3.13a.63.63 0 0 1 0-.87.61.61 0 0 1 .86 0l2.23 2.16.27-21.75-3.05-3a.6.6 0 1 1 .84-.87l3.24 3.13a.64.64 0 0 1 .19.45l-.29 23.42a.61.61 0 0 1-.37.56.67.67 0 0 1-.26.07ZM157.34 185.9h-2.25a.61.61 0 1 1 0-1.21h2.25a.61.61 0 1 1 0 1.21ZM662 201.07h-18a3.47 3.47 0 0 1 0-6.94h18a.46.46 0 0 1 .42.28.45.45 0 0 1-.11.5c-2.45 2.37-.07 5.29 0 5.41a.46.46 0 0 1-.35.75Zm-18-6a2.56 2.56 0 1 0 0 5.12h17.1a4.75 4.75 0 0 1-.1-5.19Z"/><path fill="#adb990" d="M639.94 195.62a.45.45 0 0 1-.45-.45v-23a.45.45 0 0 1 .45-.45h22a.45.45 0 0 1 .45.45V192a.45.45 0 0 1-.45.46h-18.82a2.72 2.72 0 0 0-2.72 2.72.45.45 0 0 1-.46.44Zm.46-23v20.11a3.64 3.64 0 0 1 2.72-1.22h18.4v-18.86Z"/><path fill="#adb990" d="M643.4 192.34a.46.46 0 0 1-.46-.45v-19.7a.46.46 0 0 1 .46-.45.45.45 0 0 1 .45.45v19.7a.45.45 0 0 1-.45.45ZM657 197.68h-12.47a.46.46 0 1 1 0-.91H657a.46.46 0 0 1 0 .91ZM658.88 199.11h-5a.47.47 0 0 1-.46-.46.46.46 0 0 1 .46-.45h5a.46.46 0 0 1 .46.45.47.47 0 0 1-.46.46ZM588.87 102.66H586L580.09 120h2.62l1.77-5.36h5.8l1.82 5.36h2.69Zm-1.5 2.65c.21.83.44 1.69.75 2.61l1.6 4.69H585l1.6-4.72c.28-.76.51-1.6.77-2.58ZM772.36 458.17h-2.88l-5.89 17.35h2.61l1.77-5.36h5.8l1.82 5.36h2.69Zm-1.5 2.65c.21.83.44 1.69.76 2.61l1.59 4.69h-4.68l1.6-4.72c.24-.76.48-1.59.73-2.58ZM297.42 176.38h-2.89l-5.89 17.35h2.61l1.77-5.36h5.81l1.82 5.36h2.69Zm-1.51 2.62c.21.82.44 1.68.76 2.61l1.59 4.68h-4.68l1.6-4.71c.24-.73.48-1.58.73-2.58ZM611.57 98.17h.55v2.32h-.55zM611.57 102.36h.55v2.32h-.55z"/><path fill="#adb990" d="M613.66 100.26h.55v2.32h-.55z" transform="rotate(90 613.935 101.425)"/><path fill="#adb990" d="M609.47 100.26h.55v2.32h-.55z" transform="rotate(90 609.745 101.425)"/><path fill="#adb990" d="M630.64 155.9h.55v2.32h-.55zM630.64 160.09h.55v2.32h-.55z"/><path fill="#adb990" d="M632.73 158h.55v2.32h-.55z" transform="rotate(90 633.01 159.16)"/><path fill="#adb990" d="M628.55 158h.55v2.32h-.55z" transform="rotate(90 628.82 159.16)"/><path fill="#adb990" d="M738.72 219.02h.55v2.32h-.55zM738.72 223.21h.55v2.32h-.55z"/><path fill="#adb990" d="M740.81 221.12h.55v2.32h-.55z" transform="rotate(90 741.085 222.275)"/><path fill="#adb990" d="M736.62 221.12h.55v2.32h-.55z" transform="rotate(90 736.895 222.275)"/><path fill="#adb990" d="M803.41 240.7h.55v2.32h-.55zM803.41 244.89h.55v2.32h-.55z"/><path fill="#adb990" d="M805.5 242.79h.55v2.32h-.55z" transform="rotate(90 805.775 243.955)"/><path fill="#adb990" d="M801.31 242.79h.55v2.32h-.55z" transform="rotate(90 801.585 243.955)"/><path fill="#adb990" d="M278.48 218.31h.55v2.32h-.55zM278.48 222.5h.55v2.32h-.55z"/><path fill="#adb990" d="M280.57 220.4h.55v2.32h-.55z" transform="rotate(90 280.845 221.565)"/><path fill="#adb990" d="M276.38 220.4h.55v2.32h-.55z" transform="rotate(90 276.66 221.56)"/><path fill="#adb990" d="M200.31 251.65h.55v2.32h-.55zM200.31 255.84h.55v2.32h-.55z"/><path fill="#adb990" d="M202.41 253.75h.55v2.32h-.55z" transform="rotate(90 202.68 254.91)"/><path fill="#adb990" d="M198.22 253.75h.55v2.32h-.55z" transform="rotate(90 198.49 254.91)"/><path fill="#adb990" d="M109.07 224.85h.55v2.32h-.55zM109.07 229.04h.55v2.32h-.55z"/><path fill="#adb990" d="M111.17 226.95h.55v2.32h-.55z" transform="rotate(90 111.44 228.11)"/><path fill="#adb990" d="M106.98 226.95h.55v2.32h-.55z" transform="rotate(90 107.25 228.11)"/><path fill="#adb990" d="M125.52 269.28h.55v2.32h-.55zM125.52 273.47h.55v2.32h-.55z"/><path fill="#adb990" d="M127.62 271.37h.55v2.32h-.55z" transform="rotate(90 127.895 272.535)"/><path fill="#adb990" d="M123.43 271.37h.55v2.32h-.55z" transform="rotate(90 123.705 272.535)"/><path fill="#adb990" d="M78.36 352.65h.55v2.32h-.55zM78.36 356.83h.55v2.32h-.55z"/><path fill="#adb990" d="M80.46 354.74h.55v2.32h-.55z" transform="rotate(90 80.73 355.9)"/><path fill="#adb990" d="M76.27 354.74h.55v2.32h-.55z" transform="rotate(90 76.54 355.9)"/><path fill="#adb990" d="M112.22 472.69h.55v2.32h-.55zM112.22 476.88h.55v2.32h-.55z"/><path fill="#adb990" d="M114.32 474.79h.55v2.32h-.55z" transform="rotate(90 114.59 475.95)"/><path fill="#adb990" d="M110.13 474.79h.55v2.32h-.55z" transform="rotate(90 110.405 475.945)"/><path fill="#adb990" d="M784.35 336.92h.55v2.32h-.55zM784.35 341.11h.55v2.32h-.55z"/><path fill="#adb990" d="M786.45 339.02h.55v2.32h-.55z" transform="rotate(90 786.72 340.18)"/><path fill="#adb990" d="M782.26 339.02h.55v2.32h-.55z" transform="rotate(90 782.53 340.18)"/><path fill="#adb990" d="M823.45 374.56h.55v2.32h-.55zM823.45 378.75h.55v2.32h-.55z"/><path fill="#adb990" d="M825.55 376.65h.55v2.32h-.55z" transform="rotate(90 825.82 377.81)"/><path fill="#adb990" d="M821.36 376.65h.55v2.32h-.55z" transform="rotate(90 821.635 377.815)"/><path fill="#adb990" d="M782.01 439.42h.55v2.32h-.55zM782.01 443.6h.55v2.32h-.55z"/><path fill="#adb990" d="M784.1 441.51h.55v2.32h-.55z" transform="rotate(90 784.375 442.675)"/><path fill="#adb990" d="M779.91 441.51h.55v2.32h-.55z" transform="rotate(90 780.19 442.67)"/><path fill="#adb990" d="M499.69 102.82h.55v2.32h-.55zM499.69 107.01h.55v2.32h-.55z"/><path fill="#adb990" d="M501.78 104.92h.55v2.32h-.55z" transform="rotate(90 502.055 106.075)"/><path fill="#adb990" d="M497.59 104.92h.55v2.32h-.55z" transform="rotate(90 497.865 106.075)"/><path fill="#adb990" d="M474.71 92.61h.55v2.32h-.55zM474.71 96.8h.55v2.32h-.55z"/><path fill="#adb990" d="M476.8 94.71h.55v2.32h-.55z" transform="rotate(90 477.07 95.87)"/><path fill="#adb990" d="M472.61 94.71h.55v2.32h-.55z" transform="rotate(90 472.89 95.87)"/><path fill="#adb990" d="M431.2 154h.55v2.32h-.55zM431.2 158.19h.55v2.32h-.55z"/><path fill="#adb990" d="M433.29 156.09h.55v2.32h-.55z" transform="rotate(90 433.565 157.255)"/><path fill="#adb990" d="M429.1 156.09h.55v2.32h-.55z" transform="rotate(90 429.375 157.255)"/><path fill="#adb990" d="M311.51 151.37h.55v2.32h-.55zM311.51 155.56h.55v2.32h-.55z"/><path fill="#adb990" d="M313.6 153.46h.55v2.32h-.55z" transform="rotate(90 313.875 154.625)"/><path fill="#adb990" d="M309.41 153.46h.55v2.32h-.55z" transform="rotate(90 309.685 154.625)"/><path fill="#adb990" d="M343.9 233.94h.55v2.32h-.55zM343.9 238.13h.55v2.32h-.55z"/><path fill="#adb990" d="M346 236.03h.55v2.32H346z" transform="rotate(90 346.265 237.195)"/><path fill="#adb990" d="M341.81 236.03h.55v2.32h-.55z" transform="rotate(90 342.08 237.19)"/><path fill="#f58765" d="M627.1 311.34c-.3-.49-.1-2.15-.23-3.6a5.85 5.85 0 0 0-1.55-3.37c-.88-1.11-1.15-3.3-1.28-3.33-.71-.07-1 1.15-.84 2s.84 1.95-.34 2.46-3.5-1.75-4.51-3.1-2-2.83-2.52-2.62.4 2.45 1.34 3.66 1.55 1.92.84 1.72-3.4-4.54-3.93-4.44-.48 1.51.2 2.59c-1.25-1.14-1.11 1.41-.31 2.66s2.29 2.09 1.92 2.19-1.51-1.21-1.88-1.62-.57.91.84 2.83 3.94 2.36 5.62 2.73 3.33 2.52 3.33 2.52l3-2.15.51-1.11Z"/><path fill="#2c1913" d="M668.84 270.79c-3.7-1-4.42.26-4.55 1.17s-.95.63-3.06 1.52-2 1.83-1.69 2.57-.44 1-1.82 2.1-.23 1.74-.1 2.7-2 .68-1.43 2.47.44 1.43-.63 2.67.72 2.47.38 3.44-2.56 2.7-1.53 3.82.21 1.74-1.17 2.89-.48 2.38.14 3.38-2.16 3.11-1.76 4.09 2.07.45.58 2.8-1.85 3.28-.87 4.25-1.9 4.56.87 4.58 43.86 2.38 44.64 2.18c4.35-1.85 2.34-5.86 1.4-7s-.78-1.19-.49-2.32-.73-1.16-.93-1.95 1.32-3.19-.4-4.13-2.42-.95-2.57-2.53-.63-2.39-2.12-2.41a2 2 0 0 1-1.88-2.6c.33-1.18-.53-1.42-.82-2.17s.27-.84 0-1.84-1.43-1.58-1.73-2 1.4-1.89-.32-2.87-1.56-1.16-1.53-2.18 1-.79-.51-1.67-.53-.93-1.28-3.27-.1-1.95-1.1-2.34a2.45 2.45 0 0 1-1.29-2.45c.05-.83-1.62-1.24-2.66-1.14s-1.22-1.23-2.72-1.25-2.94 0-2.81-.92-2.69-.38-4.24.41Z"/><path fill="#f8ae5c" d="M651.07 310c-2.09 3.16-8 12.52-9.56 12.12s-13-10.17-13.33-10.3a5.61 5.61 0 0 1-1.08-1c-3.63 2-3.7 3.77-3.7 3.77l.61 1.22c-.48 3.36 4.1 13 12.25 16.49s17-1.48 17.64-3.23l5.57-24.95c-4.97.32-6.31 2.74-8.4 5.88Z"/><path d="M617.93 309.42a2.62 2.62 0 0 1-1.61-.61.08.08 0 0 1 0-.11.07.07 0 0 1 .1 0 2.41 2.41 0 0 0 1.88.54 4.61 4.61 0 0 0 .93-.31 2.84 2.84 0 0 1 2.94 0c.05-.51.34-2.25 1.57-2.76a.08.08 0 0 1 .06.14c-1.33.56-1.49 2.74-1.49 2.76v.07a.08.08 0 0 1-.08 0c-1-.8-2-.43-2.89-.07a5.62 5.62 0 0 1-1 .31 1.87 1.87 0 0 1-.41.04ZM618 307.14a6.82 6.82 0 0 1-3.12-3 .08.08 0 0 1 0-.11.09.09 0 0 1 .1 0 6.68 6.68 0 0 0 3 2.92.07.07 0 0 1 0 .1.08.08 0 0 1 .02.09ZM618 307.84a.07.07 0 0 1 0-.1 4.12 4.12 0 0 1 .75-1 .08.08 0 0 1 .11.11 4 4 0 0 0-.72 1 .07.07 0 0 1-.14-.01Z" style="mix-blend-mode:multiply" fill="#e0b3a8"/><path d="M624.63 315.77a.08.08 0 0 1 0-.1 9.29 9.29 0 0 1 3.13-3.47.08.08 0 0 1 .11 0 .08.08 0 0 1 0 .11 9.07 9.07 0 0 0-3.07 3.4.1.1 0 0 1-.17.06Z" style="mix-blend-mode:multiply" fill="#bfbfbf"/><path fill="#f58765" d="M642.15 395.8c-.37 1.51-.51 4.31 0 4.91 1.65 2.2 1.28 6 1.28 6l-20.54 3.9c.83-4.12 7.06-7.33 9.45-10s2.7-3.44 2.7-4.72 7.11-.09 7.11-.09Z"/><path fill="#2c1913" d="M642.65 401.55c-1.31.94-4.87 3.18-7.2 1.45a4.22 4.22 0 0 0-2.36-3.28l-.75.85c-2.39 2.66-8.62 5.87-9.45 10l20.54-3.9a11.18 11.18 0 0 0-.78-5.12Z"/><path fill="#f8ae5c" d="M669.76 347.15c.55 0 11.85-3.37 11.85-3.37a6.91 6.91 0 0 0 2.93-1.58l1-10.73a26.71 26.71 0 0 1 2 6.46c.82 4.2 2.34 17.81 2.34 17.81s5.08 1 9.07-.48c.07-.48.69-8.94.69-16.23s-6.12-25.09-10.59-31.14-13.2-6.14-13.2-6.14l-11.08-.53a30.82 30.82 0 0 0-8 3.39l-2.88 24.54a23.69 23.69 0 0 1-.16 10.5s10.63 7.89 16.03 7.5Z"/><path fill="#ef5651" d="M653.74 339.65c7.7 2.3 6.24 2.3 13 4.31s14.57-.18 14.85-.18c.55 1.65 2.11 11.09-1.1 14.21s-26.13 11.18-26.31 11.91c-.46 2.76-10.45 27.41-10.91 27.87-7.42 1.1-11.37-2-11.37-2l1.65-14.4s-6.41-27.13-5.13-31.53 25.32-10.19 25.32-10.19Z"/><path fill="#f58765" d="M691.59 356.64c-2.82 2.33.17 5.22 1.1 6.56s1.44 2.27 1.82 1.27-2.37-4 .9-3.54 6.32 6.05 6.84 3.47c1.13-.27.89-1.68.89-1.78.48-2.17-1-4.16-3.4-5.3s-2.41-1-2.51-2-5.23-2.5-5.64 1.32Z"/><path d="M681 314.11a.1.1 0 0 1-.1-.07 9.21 9.21 0 0 1 2.71-8.91.1.1 0 0 1 .15 0 .11.11 0 0 1 0 .15 9 9 0 0 0-2.65 8.69.11.11 0 0 1-.07.13ZM685 330.68a.09.09 0 0 1-.08 0s-1.82-2.6-4.41-6.95a.11.11 0 0 1 0-.15.1.1 0 0 1 .14 0c2.58 4.35 4.38 6.91 4.4 6.94a.1.1 0 0 1 0 .14s0 .02-.05.02ZM654.06 328.39a.08.08 0 0 1 0-.08s-.28-3.16-.35-8.22a.11.11 0 0 1 .11-.11.12.12 0 0 1 .11.11c.06 5.05.34 8.17.34 8.2a.11.11 0 0 1-.1.12ZM634.22 380.6a.12.12 0 0 1-.1-.11c0-.15 1-15 2.69-19.22s20.09-13 21.63-13.77a9.18 9.18 0 0 1 .3-5 .12.12 0 0 1 .14-.06.12.12 0 0 1 .06.14 8.91 8.91 0 0 0-.27 4.95.12.12 0 0 1-.06.13c-.2.09-19.92 9.51-21.6 13.69s-2.67 19-2.68 19.15a.1.1 0 0 1-.11.1ZM653.53 369.77a.45.45 0 0 1-.18 0 9.82 9.82 0 0 1-2.09-1.89.1.1 0 0 1 0-.15.12.12 0 0 1 .15 0 9.67 9.67 0 0 0 2 1.83h.1c.1-.08 0-.71-.14-1.21a10.72 10.72 0 0 1-.31-2.44.1.1 0 0 1 .11-.1.11.11 0 0 1 .1.11 10.2 10.2 0 0 0 .3 2.38c.18.85.26 1.27.07 1.42a.22.22 0 0 1-.11.05Z" style="mix-blend-mode:multiply" fill="#bfbfbf"/><path d="M702.1 364.05a.1.1 0 0 1-.1-.07 8.92 8.92 0 0 0-3.49-4 .11.11 0 0 1 .12-.18 9.11 9.11 0 0 1 3.57 4.11.11.11 0 0 1-.07.14ZM702.79 362.54a.12.12 0 0 1-.11-.08 7.44 7.44 0 0 0-1.91-3.4.12.12 0 0 1 0-.15.1.1 0 0 1 .15 0 7.6 7.6 0 0 1 2 3.52.11.11 0 0 1-.08.13Z" style="mix-blend-mode:multiply" fill="#e0b3a8"/><path fill="#f58765" d="M666.62 275.43c-4.36 5.51 4.36 10.4 6.13 10.67l1.77.27a12.11 12.11 0 0 1 .73 4c1.58-3.4 3.6-3.58 5.1-2.07s-.79 6.55-4.57 4.42A13.44 13.44 0 0 0 675 302s-2.91 4.09-7.71 3.08-2.46-4-2.46-4c1-.18 1-1.41 1-1.41-3-.76-6.16-4.14-6.79-8.8s-.38-9.56 2.8-12c.45-2.87 4.78-3.44 4.78-3.44Z"/><path fill="#2c1913" d="M662.89 290.53a.28.28 0 0 1-.12-.08c-.13-.13 0-.32.39-.76.85-1 2.61-3.2 1-5.3a.1.1 0 0 1 0-.15.11.11 0 0 1 .15 0c1.76 2.23-.07 4.48-.95 5.56a2.79 2.79 0 0 0-.38.51 9.4 9.4 0 0 0 2.36.39.09.09 0 0 1 .09.11.1.1 0 0 1-.11.1 10.91 10.91 0 0 1-2.43-.38Z"/><path d="M664.92 296.58a3.79 3.79 0 0 1-.34-.2.12.12 0 0 1 0-.15.1.1 0 0 1 .15 0 2.6 2.6 0 0 0 1.85.36 1.73 1.73 0 0 0 1-.43.11.11 0 0 1 .15 0 .1.1 0 0 1 0 .15 1.84 1.84 0 0 1-1.15.52 3 3 0 0 1-1.66-.25ZM666.72 299.64a.12.12 0 0 1-.06-.08.1.1 0 0 1 .08-.12 10.54 10.54 0 0 0 7.73-6.62.12.12 0 0 1 .13-.07.11.11 0 0 1 .07.14 10.72 10.72 0 0 1-7.89 6.75ZM676.76 291.61a.1.1 0 0 1-.06-.09.1.1 0 0 1 .1-.11c.81 0 1.07-.38 1.15-.61a.82.82 0 0 0-.21-.9.7.7 0 0 0-.85-.06.09.09 0 0 1-.1 0 .1.1 0 0 1 0-.14c.4-.61 1.19-1.65 2-1.7a1.13 1.13 0 0 1 1 .48.1.1 0 0 1 0 .14.11.11 0 0 1-.15 0 .93.93 0 0 0-.77-.4c-.67 0-1.34.85-1.71 1.37a.85.85 0 0 1 .77.2 1 1 0 0 1 .27 1.14 1.32 1.32 0 0 1-1.35.74Z" style="mix-blend-mode:multiply" fill="#e0b3a8"/><path fill="#2c1913" d="M662.65 291.71c2.76 1.38 7.44 0 7.42.34s-1.84 3.77-4.64 3.48-3.43-4.2-2.78-3.82Z"/><path fill="#fff" d="M662.67 291.72a3.4 3.4 0 0 0 3.88 2.47 4.83 4.83 0 0 0 2.93-2.17c-1.33.14-4.64.77-6.81-.3Z"/><path fill="#2c1913" d="M670.15 287.51c0 .7-.33 1.27-.75 1.27s-.77-.55-.78-1.25.33-1.26.75-1.27.78.56.78 1.25ZM663.47 286.73c0 .7-.33 1.27-.75 1.27s-.77-.56-.78-1.25.33-1.27.75-1.27.78.52.78 1.25ZM667.33 285.09c1.87-.41 4.54.78 4.54.78-2.2-1.95-4.11-1.53-4.54-.78ZM659.79 284.22a5.26 5.26 0 0 1 3.85-.42 2.47 2.47 0 0 0-3.85.42Z"/><path fill="#f58765" d="M712.79 423.92c-1.29 1.65-3.13 5-2.74 5.52 1.37 1.8.67 6.61.67 6.61l-22-.63c2.74-3.87 10.17-6.73 12.17-8.29a11.48 11.48 0 0 0 3.09-4.22c.02-.12 8.81 1.01 8.81 1.01Z"/><path fill="#2c1913" d="M710.43 430.13c.84 2.1.29 5.92.29 5.92l-22-.63c2.63-3.72 9.6-6.5 11.91-8.1a7.43 7.43 0 0 1 3 3.29 9 9 0 0 0 6.8-.48Z"/><path fill="#f8ae5c" d="M760.75 382.34c-.63 10-2.66 14.4-10.8 15.65s-24.41.78-24.57 1.56c-1.25 6.1-11.26 29.42-11.26 29.42-6.73-.78-13.3-4.7-13.3-4.7l2.82-19.87s-4.86-16.27-4.39-23 34.9-12.67 34.9-12.67Z"/><path fill="#f58765" d="M766.22 387.66c-2.81.7-7 1.33-8.37 2.27a5.14 5.14 0 0 0-1.8 2.74c1.29.23 2.47-1.29 3.13-1.41s2.54-.35 2.54-.35-2.3 2.46-2.66 3.6-1.56 5.75-.47 5.16 2.19-3.05 2.63-3.76a22.12 22.12 0 0 1 2.07-2.34s-2.94 6.1-2 6.8 3.29-5.51 3.76-5.82-2.15 6-.9 5.43 2.38-4.81 3.64-5.55 5.67-1.49 5-6.14-6.57-.63-6.57-.63Z"/><path fill="#445f9d" d="M758.92 328.36c10.33 2.5 18.25 9.6 21.28 23.47s-2.71 34.74-6.05 36.93a12 12 0 0 1-9.28-1.36c0-.52-.73-4.28-.73-4.28l-2.51.84c-12.1-2.61-29.52-14.81-29.52-14.81 2.92-7.93 1.57-19.72 1.57-19.72s-20.34-4.59-21.6-7.61-5.63-26.29-5.63-26.29a14.89 14.89 0 0 1 8.45-3.44s7.82 18.36 8.87 18.77 24.72-3 24.72-3Z"/><path fill="#2c1913" d="M764.24 319.81c7.09-7.1 1.25-14.09.63-13.88 1.46-4-15.65-8.34-18-7.72s-.83 3.13-.83 3.13c-3.34 3.55-3.13 8-2.3 9.6s14.19 10 14.19 10Z"/><path fill="#f58765" d="M760.17 305.46a6.5 6.5 0 0 0 1.51 8.71c-1.61 3.55-.83 5.38-.67 5.32 3-1.77 5.68.52 4.43 2.82s-5.16 2.35-6 1.41a6.85 6.85 0 0 0-.52 4.64c-6 6.62-13 4.85-10.43-.47l-.63-1.41c-1.61-.42-5.53-1.25-6.41-6.93s1.88-14.4 6.88-18.26c.73 1.77 3.18.94 3 1.2.34 3.34 8.84 2.97 8.84 2.97ZM714.2 312.63c-.51-4.14.15-11.57.35-13.33s-2 2.23-2.5 3.28-3.33-10.56-4.27-10.29.82 6.3-.39 3.68-2.15-2.78-2 1.45c-1.69-2.19-2.23 2.62-1.22 7s3.05 11 3.05 11Z"/><path d="M761.55 323.23a1.15 1.15 0 0 0 .76-.23.7.7 0 0 0 .23-.7 2 2 0 0 0-1.44-1.24 3.42 3.42 0 0 1 2-.7 1.41 1.41 0 0 1 1 .61.11.11 0 0 0 .16 0 .12.12 0 0 0 0-.17c-.61-.86-1.68-.94-2.95-.22-.69.4-.65.49-.62.55a.14.14 0 0 0 .08.07c1 .27 1.41.77 1.48 1.12a.43.43 0 0 1-.15.47c-.32.27-1 .22-1.83-.13a.12.12 0 0 0-.15.07.12.12 0 0 0 .06.16 3.51 3.51 0 0 0 1.37.34Z" style="mix-blend-mode:multiply" fill="#e0b3a8"/><path fill="#2c1913" d="M746.78 317.45a.12.12 0 0 0 .11-.08.11.11 0 0 0-.06-.15 5.43 5.43 0 0 1-2-1.73 4.63 4.63 0 0 0 2.93-1.66 3 3 0 0 0 .35-2.84.12.12 0 0 0-.15-.07.11.11 0 0 0-.08.15 2.76 2.76 0 0 1-.32 2.62 4.38 4.38 0 0 1-2.74 1.56.22.22 0 0 0-.23.17c-.08.42 1.45 1.76 2.11 2Z"/><path d="M747.24 323.09a.11.11 0 0 0 .13-.1.11.11 0 0 0-.11-.13 4.62 4.62 0 0 1-2.8-1.17.12.12 0 0 0-.17 0 .12.12 0 0 0 0 .16 4.7 4.7 0 0 0 3 1.28ZM750 326.81c2.77 0 6.91-1.1 9.23-3.33a.12.12 0 0 0 0-.17.12.12 0 0 0-.17 0c-3 2.83-8.77 3.67-10.8 3.06a.12.12 0 0 0-.15.08.12.12 0 0 0 .08.15 6.59 6.59 0 0 0 1.81.21Z" style="mix-blend-mode:multiply" fill="#e0b3a8"/><path d="M752.05 338.6h.18c1.46-.16 7.13-2.61 9-6.77a.13.13 0 0 0-.06-.16.13.13 0 0 0-.16.06c-1.6 3.52-6.25 6-8.39 6.55-.5.13-.69.1-.72.08s-.36-.65-.66-1.25c-1-2-2-3.84-2.57-4a.27.27 0 0 0-.25 0c-1.08.65-4 2.18-4.29 2.08a7.9 7.9 0 0 1 .59-3.89.12.12 0 0 0-.06-.16.13.13 0 0 0-.16.07c-.59 1.43-.88 3.8-.52 4.16s4.52-2 4.56-2.06h.07c.53.15 1.76 2.58 2.41 3.89.34.66.58 1.14.69 1.29a.4.4 0 0 0 .34.11ZM762.62 343.89a.12.12 0 0 0 .12-.12c0-.08.07-7.91 5.59-9.55a.11.11 0 0 0 .08-.14.13.13 0 0 0-.15-.09c-5.69 1.69-5.76 9.7-5.76 9.78a.12.12 0 0 0 .12.12ZM764.34 381.68a.13.13 0 0 0 .12-.08c1.73-4.91 2.74-21.49.68-29.18a.12.12 0 1 0-.23.07c2.05 7.64 1.05 24.15-.68 29a.12.12 0 0 0 .07.15ZM734.3 348.82a.12.12 0 0 0 .11-.13 23.53 23.53 0 0 1 2.08-10.16.12.12 0 0 0-.06-.16.12.12 0 0 0-.16.05 23.92 23.92 0 0 0-2.1 10.29.13.13 0 0 0 .13.11ZM721.71 335.05a.13.13 0 0 0 .12-.11 5.56 5.56 0 0 1 1.06-3c.18-.28.28-.42.2-.54s-.23-.1-.39-.07a2.65 2.65 0 0 0-1.48.74.12.12 0 0 0 0 .17.12.12 0 0 0 .17 0 2.33 2.33 0 0 1 1.33-.66h.11l-.16.25a5.83 5.83 0 0 0-1.1 3.08.11.11 0 0 0 .11.13Z" style="mix-blend-mode:multiply" fill="#bfbfbf"/><path d="M710.15 309.08a.12.12 0 0 0 .09-.11 12.28 12.28 0 0 1 1.93-5.23.11.11 0 0 0 0-.17.11.11 0 0 0-.16 0 11.82 11.82 0 0 0-1.94 5c-1-1.36-3.5-1.74-3.61-1.75a.12.12 0 0 0-.14.1.12.12 0 0 0 .1.13s2.87.43 3.62 1.92a.12.12 0 0 0 .11.11ZM708.77 302.35a.12.12 0 0 0 .08-.15 30.07 30.07 0 0 1-1-4.33.12.12 0 0 0-.14-.1.12.12 0 0 0-.1.13 32.23 32.23 0 0 0 1 4.38.11.11 0 0 0 .16.07ZM707.16 303.68a.12.12 0 0 0 .08-.15 32 32 0 0 1-.83-3.94.12.12 0 0 0-.14-.1.12.12 0 0 0-.1.13 33.26 33.26 0 0 0 .84 4 .12.12 0 0 0 .15.06Z" style="mix-blend-mode:multiply" fill="#e0b3a8"/><path d="M704.26 403.11a.11.11 0 0 0 .12-.11c0-.12.18-11.78 2-17.18.76-2.21 6.37-6 28.84-11.79l1.28-.34a.12.12 0 0 0 .08-.15.12.12 0 0 0-.15-.08l-1.27.34c-18.12 4.63-27.88 8.65-29 11.94-1.86 5.44-2 17.14-2 17.25a.12.12 0 0 0 .12.12ZM723.72 399.83a.13.13 0 0 0 .11-.08.12.12 0 0 0-.07-.15s-1.75-.71-1.7-1.71c0-.12 0-.2.08-.22s.65.3 1 .58a3.25 3.25 0 0 0 1.07.64.36.36 0 0 0 .32-.08c.13-.15.06-.43-.08-.95a11.88 11.88 0 0 1-.42-2.54.11.11 0 0 0-.12-.11.12.12 0 0 0-.12.12 11.6 11.6 0 0 0 .43 2.59 1.85 1.85 0 0 1 .13.73.31.31 0 0 1-.11 0 3.11 3.11 0 0 1-1-.59c-.53-.4-1-.74-1.27-.61a.45.45 0 0 0-.21.43c-.05 1.16 1.77 1.91 1.85 1.94Z" style="mix-blend-mode:multiply" fill="#bfbfbf"/><path fill="#2c1913" d="M750.31 321c-.75-.91-6-3.44-6.25-3a3.09 3.09 0 0 0 1.25 3.19c2.32 1.3 5.84.81 5-.19Z"/><path fill="#fff" d="M744.61 318a22.35 22.35 0 0 1 5.38 2.68c-2.75.44-5.56-1.11-5.38-2.68Z"/><path fill="#2c1913" d="M752.66 315.07a1.21 1.21 0 0 0 .36 1.62c.5.22 1.14-.16 1.44-.84a1 1 0 1 0-1.8-.78ZM744.22 311.71a1.2 1.2 0 0 0 .36 1.62c.49.22 1.13-.16 1.43-.84a1.21 1.21 0 0 0-.36-1.62c-.5-.22-1.14.13-1.43.84ZM757.67 315.27a10.65 10.65 0 0 0-4.75-3.76 4.09 4.09 0 0 1 4.75 3.76ZM747.5 310.26a4.79 4.79 0 0 0-3.7-.83c1.66-1.05 3.44-.43 3.7.83Z"/></g></svg>