<svg xmlns="http://www.w3.org/2000/svg" enable-background="new 0 0 850 850" viewBox="0 0 850 850"><path fill="#f4f4f4" d="M506.4,495.2H114.3c-11.2,0-20.2-9-20.2-20.2V143.2c0-5.4,4.3-9.7,9.7-9.7h409.5c6.8,0,12.3,5.5,12.3,12.3
			V476C525.6,486.6,517,495.2,506.4,495.2z"/><path fill="#c4c4c4" d="M525.6,203.3v-52.3c0-9.7-7.9-17.5-17.5-17.5H107.8c-7.6,0-13.7,6.1-13.7,13.7v56.1H525.6z"/><path fill="#fff" d="M204.7,167.1c0,5.3-4.3,9.5-9.5,9.5c-5.3,0-9.5-4.3-9.5-9.5s4.3-9.5,9.5-9.5
			C200.4,157.6,204.7,161.8,204.7,167.1z"/><path fill="#fff" d="M133.6,173.8c-3.7,3.7-9.7,3.7-13.5,0c-3.7-3.7-3.7-9.7,0-13.5c3.7-3.7,9.7-3.7,13.5,0
			C137.3,164.1,137.3,170.1,133.6,173.8z"/><path fill="#fff" d="M170.6,167.1c0,5.3-4.3,9.5-9.5,9.5s-9.5-4.3-9.5-9.5s4.3-9.5,9.5-9.5S170.6,161.8,170.6,167.1z"/><path fill="#46c671" d="M455.1,428H154c-0.7,0-1.2-0.5-1.2-1.2V257.7c0-0.7,0.5-1.2,1.2-1.2c0.7,0,1.2,0.5,1.2,1.2v167.9h300
			c0.7,0,1.2,0.5,1.2,1.2S455.8,428,455.1,428z"/><path fill="#46c671" d="M154,428c-0.3,0-0.6-0.1-0.8-0.3c-0.5-0.5-0.5-1.2-0.1-1.7l79.3-84.5c0.4-0.4,1.1-0.5,1.6-0.2l65,44.2
			l46.9-75.6c0.2-0.3,0.5-0.5,0.8-0.6c0.4,0,0.7,0.1,1,0.3l49.1,44l57.4-88.6c0.4-0.6,1.1-0.7,1.7-0.4c0.6,0.4,0.7,1.1,0.4,1.7
			L398,356.1c-0.2,0.3-0.5,0.5-0.8,0.5c-0.3,0-0.7-0.1-1-0.3l-49.1-44l-46.8,75.4c-0.2,0.3-0.5,0.5-0.8,0.5c-0.3,0.1-0.7,0-0.9-0.2
			l-65.2-44.3l-78.6,83.8C154.6,427.8,154.3,428,154,428z"/><path fill="#37b561" d="M245,348.4c0,6.5-5.3,11.7-11.7,11.7s-11.7-5.3-11.7-11.7c0-6.5,5.3-11.7,11.7-11.7S245,342,245,348.4z"/><path fill="#37b561" d="M362.4,308.5c0,6.5-5.3,11.7-11.7,11.7c-6.5,0-11.7-5.3-11.7-11.7c0-6.5,5.3-11.7,11.7-11.7
			C357.2,296.8,362.4,302,362.4,308.5z"/><path fill="#37b561" d="M465.8,263.9c0,6.5-5.3,11.7-11.7,11.7c-6.5,0-11.7-5.3-11.7-11.7c0-6.5,5.3-11.7,11.7-11.7
			C460.5,252.1,465.8,257.4,465.8,263.9z"/><path fill="#46c671" d="M320.6,542.3v124.4c0,6.9,5.6,12.5,12.6,12.5h141.3c7,0,12.6-5.6,12.6-12.5V542.3c0-6.9-5.6-12.5-12.6-12.5
				H333.2C326.2,529.7,320.6,535.3,320.6,542.3z"/><path fill="#37b561" d="M320.6,542.3v3.7h166.5v-3.7c0-6.9-5.6-12.5-12.6-12.5H333.2C326.2,529.7,320.6,535.3,320.6,542.3z"/><path fill="#c4c4c4" d="M413,556.8c-3-0.5-6-0.8-9.1-0.8c-29.1,0-52.6,23.6-52.6,52.6s23.6,52.6,52.6,52.6c6.5,0,12.6-1.2,18.4-3.3
				c20-7.4,34.3-26.7,34.3-49.3C456.5,582.7,437.7,561.1,413,556.8z M416,646.1c-3.8,1.2-7.9,1.9-12.1,1.9
				c-21.7,0-39.4-17.6-39.4-39.4c0-21.7,17.6-39.4,39.4-39.4c2.3,0,4.5,0.2,6.6,0.6c18.6,3.1,32.8,19.3,32.8,38.8
				C443.2,626.1,431.8,641,416,646.1z"/><path fill="#f4f4f4" d="M456.5,608.6c0,22.6-14.2,41.9-34.3,49.3l-6.2-11.9c15.8-5.1,27.2-20,27.2-37.5c0-19.5-14.2-35.7-32.8-38.8
				l2.5-13C437.7,561.1,456.5,582.7,456.5,608.6z"/><path fill="#fcc0a9" d="M596,364.4c-10.7,6.3-21.9-16.8-26.8-28.5c-4.9-11.6-15.8-46.9-15.8-46.9l12.2-6.1c0,0,21.2,26.2,36.4,57.5
			C603.6,343.7,606.8,357.9,596,364.4z"/><path fill="#0a0a0c" d="M709.9,692.6c0,0-7.8,14.4-6.6,17.5c0.7,1.8,6.5,7.4,14.6,6.2c6.1-0.9,14.8-8.6,16.3-9.1
			c3.5-1.1-0.6-20.3-0.6-20.3L709.9,692.6z"/><path fill="#fcc0a9" d="M656.2,295.3c9.1,6.9,6,16.5-1.4,25c-7.4,8.5-54.2,43.9-57.9,43.8c-3.6-0.1-15.3-11.8-13.6-16.7
			c1.7-4.9,36.9-41.2,44.2-47.1C634.9,294.4,645.6,287.1,656.2,295.3z"/><path fill="#77a7ff" d="M646.7,291.7c-4.3-0.3-14.9,0.6-27.3,13.1c-8.3,8.3-23.7,24.6-23.7,24.6s2.8,8.4,10.5,15.4
			c8.9,8.1,17.4,9.3,17.4,9.3s33.1-33.2,35.7-42.4C660,308.9,658.7,292.5,646.7,291.7z"/><path fill="#fcc0a9" d="M677.7,247.8c0,0,1.5,32.9,3.4,34.5c6,5,27.6,9.1,31.7,17.7c4.9,10.5-21.9,57.6-25.3,73.1
			c-3.5,15.6,3.9,39.6,6.2,54.9c2.4,15.2-45.5,33.8-47.3,33.8c-1.8,0-17.2-14.4-20.2-19.4c-2.9-5-0.1-44.1-0.2-54
			c0-10-2.4-44.9-2.9-47.2c-3-15.3,0.9-27.3,1.4-30.5c0.6-3.2,0.4-8.6,2-10.7c3.2-4.1,21.1-9.6,21.4-11.6c0.3-2.1,2.7-30.6,2.7-30.6
			L677.7,247.8z"/><path fill="#77a7ff" d="M681.1,282.4l-28.9,17.3l-4.2-11.3c0,0-18.9,6-21.4,10.1c-2.5,4.1-3.6,14.6-4.4,17.9
			c-0.8,3.3-1.2,18.6,0.1,31.8c0.8,7.7,0.6,18,1.8,31.2c1,11.3-0.1,39.4-0.1,39.4s10.8,0.4,27.5-0.4c19.3-1,38.8-4,39.7-4.7
			c3.7-3.1-1.5-33-0.8-36.3c0.7-3.3,24.3-60.7,24.7-68.3c0.4-7.5-2.5-12.8-8.2-15.6C701.1,290.6,681.1,282.4,681.1,282.4z"/><polygon fill="#fc9a73" points="649.7 270.2 678.9 259.6 679.7 276.9 670.6 282.4"/><path fill="#fcc0a9" d="M643.4,214.6c7.6-6.4,29.5-11.8,39.5,2.9c10,14.6,4.9,28.5-1.2,37c-4.7,6.6-9.2,10.2-18,13.7
			c-1.8,0.7-17.8,2.8-20.9,1.6c-2.1-0.8-3.2-16.7-3.8-16.7c-0.6,0-2.4-1-2.4-2.3c-0.1-1.9,2.4-13.2,2-14.4S634.7,222,643.4,214.6z"/><path fill="#0a0a0c" d="M638.7,221.5c0,0,12.4-6.4,26.9,8c3.1,3.1-3.5,15.4-2.7,16.6c0.8,1.2,12.3-8.7,11.8-7.3
			c-4.9,14.4-0.5,22.6,0.8,22.7c4,0.4,17.3-19.6,11.7-36.5s-23.3-19.2-27.6-18.5S642.6,207.6,638.7,221.5z"/><path fill="#fcc0a9" d="M667.6,241.7c-1.6,4.6-2.5,10.8,0,11.7c2.5,0.8,5.8-2.2,7.4-6.8c1.6-4.6,0.9-9-1.6-9.8
			C670.8,235.9,669.2,237.1,667.6,241.7z"/><rect width="18.7" height="3.5" x="647.4" y="693.7" fill="#0a0a0c"/><path fill="#0a0a0c" d="M665.4,669.1c2.4,3.4,4.1,10.1,4.3,13.1c0.3,3.7-1.9,11.5-4.3,11.5c-7.1,0-15.5,0.3-22.8,1.3
			c-7.3,1-10,5.2-28.7,5.1c-5.4,0-15-0.3-15-2.6c0-9.7,17.9-6.2,23.6-11.5c14.4-13.2,23.9-16.4,23.9-16.4S664.9,668.4,665.4,669.1z"/><path fill="#262d62" d="M622.1,465.3c1.7,39,7.4,86.9,8.1,93.8c1.1,10.7,6.8,112.8,6.8,112.8s7.8,6.4,16.8,6.4
			c14,0.1,19.4-4.2,19.4-4.2s-1.1-41.6-0.8-61.9c0.3-17.4-7.1-43.5-8-50c-0.7-4.5,0.3-8.6,2.2-20.3c0.8-4.8,1.8-11,2.9-19
			c3.7-27.3,14.2-62.1,13.1-72.9c-1.1-10.9-26.1-35.8-26.1-35.8l-18-1.5l-14.1-1.2C624.4,416.8,621.6,452.7,622.1,465.3z"/><path fill="#262d62" d="M695.3,412.5c0,0,10,24.4,13.9,40.7c4,16.3,8.7,100.8,10.1,108.7c1.4,7.9,6.4,32.2,10.2,56.2
			c3.8,24,6.1,72.2,6.1,72.2l-30.7,4.8c0,0-18.3-101.1-21.2-116.9c-2.9-15.9-33.3-128.5-33.3-128.5l-3.8-36.3L695.3,412.5z"/><path fill="#46c671" d="M696,412.5c0,0-47.3,0.8-50.1,0.9c-2.8,0.1-21.4-1.8-21.4-1.8l-0.4,7.5c0,0,18,1.5,26.7,1.5c8.6,0,47-2,47-2
			L696,412.5z"/><path fill="#37b561" d="M639.7,421.5h10.8c0.3,0,0.6-0.3,0.6-0.6v-7.4c0-0.3-0.3-0.6-0.6-0.6h-10.8c-0.3,0-0.6,0.3-0.6,0.6v7.4
			C639.1,421.3,639.4,421.5,639.7,421.5z"/><path fill="#fcc0a9" d="M693.8,297.4c8.3-7.8,17.2-3.5,24.1,4.9c7,8.4,38.4,66.4,37.6,69.8c-0.8,3.5-14.1,13.1-18.7,10.8
			c-4.5-2.4-38.7-49.1-43.2-57.1C689.2,317.9,684,306.5,693.8,297.4z"/><path fill="#77a7ff" d="M688.1,305.4c-1,4.2-1.7,14.5,3.6,20.8c7.5,9,25.4,34.1,25.4,34.1s8.8-1.4,16.9-7.9c9.4-7.5,12-15.6,12-15.6
			s-27.8-37.2-36.1-42.1C703.4,290.8,690.9,293.6,688.1,305.4z"/><path fill="#fcc0a9" d="M753.4,369.1c9.2,8.3-9.7,25.9-19.3,34c-9.7,8.1-40.1,28.8-40.1,28.8l-9.4-9.9c0,0,18.8-27.9,44.2-51.6
			C731.4,367.9,744.1,360.6,753.4,369.1z"/><path fill="#fcc0a9" d="M678.2,450.4L678.2,450.4c-1.1-0.8-1.3-2.3-0.5-3.4l6.1-8.3c0.8-1.1,2.3-1.3,3.4-0.5l0,0
			c1.1,0.8,1.3,2.3,0.5,3.4l-6.1,8.3C680.8,450.9,679.3,451.2,678.2,450.4z"/><path fill="#fcc0a9" d="M674.3,448L674.3,448c-1.1-0.8-1.3-2.3-0.5-3.4l6.1-8.3c0.8-1.1,2.3-1.3,3.4-0.5l0,0c1.1,0.8,1.3,2.3,0.5,3.4
			l-6.1,8.3C676.9,448.6,675.4,448.8,674.3,448z"/><path fill="#fcc0a9" d="M670.7,445.5L670.7,445.5c-1.1-0.8-1.3-2.3-0.5-3.4l6.1-8.3c0.8-1.1,2.3-1.3,3.4-0.5l0,0
			c1.1,0.8,1.3,2.3,0.5,3.4L674,445C673.3,446.1,671.7,446.3,670.7,445.5z"/><g><path fill="#fcc0a9" d="M667.4,442.8L667.4,442.8c-1.1-0.8-1.3-2.3-0.5-3.4l6.1-8.3c0.8-1.1,2.3-1.3,3.4-0.5l0,0
			c1.1,0.8,1.3,2.3,0.5,3.4l-6.1,8.3C670,443.4,668.4,443.6,667.4,442.8z"/></g><g><path fill="#fcc0a9" d="M691.4,415.3c0,0-14.8,8.5-17.1,10.9c-2.3,2.4-7.9,14.2-7.9,14.2s5.8-0.6,8,1.5c2.1,2.1,7.2,8,7.2,8
			s8.8-7.1,11.7-11.5c2.8-4.4,4.6-9.4,4.6-9.4L691.4,415.3z"/></g><g><path fill="#fcc0a9" d="M567.6,292.3l5.9-20.2c0,0-8-30.3-10.1-29.7c-2.4,0.7,1.8,22.1,0.7,22s-6.7,0.5-10.2,2.8
			c-7.2,4.8-0.6,21.9-0.6,21.9L567.6,292.3z"/></g></svg>