<svg xmlns="http://www.w3.org/2000/svg" data-name="Layer 1" viewBox="0 0 2657.95 1463.46"><defs><linearGradient id="a" x1="2936.61" x2="3918.42" y1="2463.64" y2="2463.64" gradientUnits="userSpaceOnUse"><stop offset="0" stop-color="#735cd2"/><stop offset="1" stop-color="#946acc"/></linearGradient><linearGradient id="b" x1="2335.64" x2="2335.64" y1="391.62" y2="1112.92" gradientUnits="userSpaceOnUse"><stop offset="0" stop-color="#fefefc"/><stop offset=".09" stop-color="#fefefc" stop-opacity=".96"/><stop offset=".25" stop-color="#fefefc" stop-opacity=".86"/><stop offset=".44" stop-color="#fefefd" stop-opacity=".7"/><stop offset=".68" stop-color="#fffffe" stop-opacity=".47"/><stop offset=".93" stop-color="#fff" stop-opacity=".18"/><stop offset="1" stop-color="#fff" stop-opacity=".1"/></linearGradient><linearGradient id="c" x1="3303.15" x2="3303.15" y1="2783.13" y2="2246.71" gradientUnits="userSpaceOnUse"><stop offset="0" stop-color="#735cd2"/><stop offset="1" stop-color="#7c56c2"/></linearGradient><linearGradient id="d" x1="3163.9" x2="3163.9" y1="3578.28" y2="2369.66" gradientUnits="userSpaceOnUse"><stop offset="0" stop-color="#2fa2fa"/><stop offset="1" stop-color="#37d3fb"/></linearGradient></defs><path fill="#efefef" d="M3342.72 1555.29v1216.26c0 68-51.66 123.23-115.24 123.23H1395.35c-63.61 0-115.24-55.25-115.24-123.23V1555.29c0-68 51.63-123.19 115.24-123.19h1832.13c63.58-.01 115.24 55.2 115.24 123.19Z" transform="translate(-1280.1 -1432.08)"/><path fill="#d8d8db" d="M3342.71 1547.31v133.88H1280.1v-133.88a115.31 115.31 0 0 1 115.23-115.23h1832.15a115.31 115.31 0 0 1 115.23 115.23Z" opacity=".65" transform="translate(-1280.1 -1432.08)"/><circle cx="1463.98" cy="143.2" r="46.76" fill="#fff"/><circle cx="1666.76" cy="143.2" r="46.76" fill="#fff"/><circle cx="1869.53" cy="143.2" r="46.76" fill="#fff"/><path fill="none" stroke="#d8d8db" stroke-miterlimit="10" stroke-width="24.54" d="M2715.93 2285.48a441.81 441.81 0 0 1-80.4 254.83q-2.22 3.16-4.5 6.29a443.93 443.93 0 0 1-714.65 4.52q-11.89-15.9-22.37-32.87a441.08 441.08 0 0 1-57.18-145 445.64 445.64 0 0 1-8.67-87.72c0-206.54 141.06-380.13 332.09-429.69a444.69 444.69 0 0 1 111.79-14.19q7.14 0 14.23.23 3.13.1 6.25.24h.26a443.87 443.87 0 0 1 404.53 315.81 443.93 443.93 0 0 1 18.62 127.55Z" transform="translate(-1280.1 -1432.08)"/><path fill="#d8d8db" d="M2247.9 1952.49c-36.65 23.29-70.4-14.11-122.74 8-48.57 20.56-46.23 64.09-102.62 159-71.57 120.43-118 122.07-124.74 191.15-3.57 36.59 8.64 44.6 46.27 154.93 30 88 49.85 146.14 53.19 182.2a457.18 457.18 0 0 1-89.53-90.19q-12.18-16.29-22.92-33.67a451.81 451.81 0 0 1-58.57-148.57 456.49 456.49 0 0 1-8.88-89.86c0-211.56 144.49-389.38 340.18-440.15a455.51 455.51 0 0 1 114.51-14.54q7.31 0 14.58.23 3.21.1 6.4.24c1.47 50.62-14.55 101.79-45.13 121.23ZM2726.74 2285.48a452.56 452.56 0 0 1-82.35 261q-2.27 3.24-4.61 6.44a77.38 77.38 0 0 1-19.64-19c-49-69.61 61-206.18 20.13-241.45-19.39-16.75-44.6 13.71-92.56 2-79.25-19.35-100.73-124.6-140.85-116.7-26.67 5.25-37.11 55.7-48.29 52.32-6.48-2-6.12-19.84-6-36.22.58-110.78-11.53-116.7 2-136.82 19.73-29.31 64.62-45.25 84.51-52.31 20.07-7.13 32.54-8.4 36.21-18.11 8.84-23.34-49.65-51.78-44.26-70.42 3.3-11.41 31.24-21.51 69.5-24a455.85 455.85 0 0 1 207.18 262.51 454.74 454.74 0 0 1 19.03 130.76Z" transform="translate(-1280.1 -1432.08)"/><path fill="#d8d8db" d="M2280.09 2220.1c-35.56-7.73-79.5 7.15-100.6 36.22-18.94 26.09-3.49 41.59-20.12 78.47-24.1 53.45-70.27 51.35-76.46 86.52s38.46 47.35 72.44 110.67c44.74 83.37 14.11 149.7 46.28 163 29 12 80.53-31 108.65-74.45 49.09-75.91 23.1-147.66 56.34-161 38-15.21 81.72 74.52 138.83 62.38 40-8.51 75.65-64.77 64.39-102.62-15.65-52.59-108-23-193.16-102.62-49.49-46.2-51.02-86.67-96.59-96.57ZM2457.16 2600.38c-20.06-11.72-56.36 10.51-72.44 38.23-1 1.8-18.87 33.13-8 44.27 15.66 16.11 90.58-10.86 94.57-50.3 1.14-11.74-3.8-26.16-14.13-32.2Z" transform="translate(-1280.1 -1432.08)"/><path fill="#d8d8db" d="M3342.72 1967.48v545.84h-210.66c-59.94 0-108.92-49.09-108.92-108.93V2050.3a107.75 107.75 0 0 1 23.17-67 108.24 108.24 0 0 1 56.42-15.84Z" opacity=".65" transform="translate(-1280.1 -1432.08)"/><path fill="url(#a)" d="m3938.05 2837.92-24.22-34.25-29.69-29.3-141-139.18h-502.32c-59.94 0-108.92-49.09-108.92-108.93v-354.08a107.75 107.75 0 0 1 23.17-67 108.24 108.24 0 0 1 56.42-15.84h617.19a108 108 0 0 1 55.45 15.27 109.08 109.08 0 0 1 53.48 93.66v309.43c.01 25.22.44 330.22.44 330.22Z" transform="translate(-1280.1 -1432.08)"/><path fill="none" stroke="#fff" stroke-miterlimit="10" stroke-width="58.55" d="M2108.48 829.64h334.3M2275.63 714.88v114.76"/><path fill="none" stroke="#fff" stroke-miterlimit="10" stroke-width="58.55" d="M3363.63 2511.2s179.63 0 269.44-249.48" transform="translate(-1280.1 -1432.08)"/><path fill="none" stroke="#fff" stroke-miterlimit="10" stroke-width="58.55" d="M3458.43 2356.52s10 104.78 204.57 154.68" transform="translate(-1280.1 -1432.08)"/><path fill="url(#b)" d="M2416.27 657.27v545.84h-123.61l-17.43-17.19h-20.22V657.27h161.26z" opacity=".22"/><path fill="#d8d8db" d="M3306.14 2635.2v95.8a68.88 68.88 0 0 1-68.87 68.89H2873a68.89 68.89 0 0 1-68.89-68.89v-364.22a68.87 68.87 0 0 1 68.89-68.87h258.88v228.36c0 59.85 49 108.93 108.92 108.93Z" opacity=".65" transform="translate(-1280.1 -1432.08)"/><path fill="url(#c)" d="M3474.39 2416v219.2h-233.57c-59.94 0-108.92-49.09-108.92-108.93v-179.09h273.6a68.88 68.88 0 0 1 68.89 68.82Z" opacity=".45" transform="translate(-1280.1 -1432.08)"/><path fill="url(#d)" d="M3414.9 2462.42v364.24a68.83 68.83 0 0 1-68.89 68.89h-364.22a68.89 68.89 0 0 1-68.89-68.89v-364.24a68.88 68.88 0 0 1 63.18-68.64c1.88-.16 3.79-.24 5.71-.24H3346a68.87 68.87 0 0 1 68.9 68.88Z" transform="translate(-1280.1 -1432.08)"/><path fill="#fff" d="M3291.56 2805.56h-58.9l-24.41-72.78h-117.57l-24 72.78h-47l101.45-305.68H3189Zm-98.09-116.9-44.56-136.38-44.56 136.38Z" transform="translate(-1280.1 -1432.08)"/></svg>