<svg xmlns="http://www.w3.org/2000/svg" xmlns:xlink="http://www.w3.org/1999/xlink" enable-background="new 0 0 2000 2000" viewBox="0 0 2000 2000"><defs><rect id="a" width="2000" height="2000"/></defs><clipPath id="b"><use overflow="visible" xlink:href="#a"/></clipPath><g clip-path="url(#b)"><defs><rect id="c" width="2000" height="2000"/></defs><clipPath id="d"><use overflow="visible" xlink:href="#c"/></clipPath><path fill="#233b49" d="M1285.7,84.2H544.1c-27.3,0-49.6,22.3-49.6,49.6v59.4v25v1127.4v63v58.1c0,27.3,22.3,49.6,49.6,49.6h741.5
			c27.3,0,49.6-22.3,49.6-49.6v-58.1v-63V218.2v-25v-59.4C1335.2,106.5,1312.9,84.2,1285.7,84.2 M1289.6,1345.7H540.2V218.2h749.4
			V1345.7z" clip-path="url(#d)"/><rect width="749.4" height="1127.4" x="540.2" y="218.2" fill="#a5cced" clip-path="url(#d)"/><path fill="#4b87b5" d="M967.4,169.4h-105c-3.2,0-5.8-2.6-5.8-5.8c0-3.2,2.6-5.8,5.8-5.8h105c3.2,0,5.8,2.6,5.8,5.8
			C973.2,166.8,970.6,169.4,967.4,169.4" clip-path="url(#d)"/><path fill="#7fbde0" d="M961,1431c0,25.5-20.6,46.1-46.1,46.1c-25.5,0-46.1-20.6-46.1-46.1s20.6-46.1,46.1-46.1
			C940.4,1384.9,961,1405.6,961,1431" clip-path="url(#d)"/><rect width="630.4" height="67" x="599.7" y="324.3" fill="#7fbde0" clip-path="url(#d)"/><rect width="630.4" height="375" x="599.7" y="391.4" fill="#fff" clip-path="url(#d)"/><rect width="630.4" height="67" x="599.7" y="816.2" fill="#7fbde0" clip-path="url(#d)"/><rect width="630.4" height="462.5" x="599.7" y="883.2" fill="#fff" clip-path="url(#d)"/><path fill="#4b87b5" d="M984.2,964.1H822.4c-2.4,0-4.4-2-4.4-4.4c0-2.4,2-4.4,4.4-4.4h161.9c2.4,0,4.4,2,4.4,4.4
			C988.7,962.1,986.7,964.1,984.2,964.1" clip-path="url(#d)"/><path fill="#4b87b5" d="M1146.1,999.4H822.4c-2.4,0-4.4-2-4.4-4.4c0-2.4,2-4.4,4.4-4.4h323.7c2.4,0,4.4,2,4.4,4.4
			C1150.5,997.4,1148.5,999.4,1146.1,999.4" clip-path="url(#d)"/><path fill="#4b87b5" d="M1146.1,1034.7H822.4c-2.4,0-4.4-2-4.4-4.4c0-2.4,2-4.4,4.4-4.4h323.7c2.4,0,4.4,2,4.4,4.4
			C1150.5,1032.7,1148.5,1034.7,1146.1,1034.7" clip-path="url(#d)"/><path fill="#de6a5b" d="M718.9,1055.8h-1.2c-33.6,0-60.8-27.2-60.8-60.8v-1.2c0-33.6,27.2-60.8,60.8-60.8h1.2
			c33.6,0,60.8,27.2,60.8,60.8v1.2C779.7,1028.6,752.5,1055.8,718.9,1055.8" clip-path="url(#d)"/><rect width="496.9" height="216.6" x="666.4" y="1129.1" fill="#a5cced" clip-path="url(#d)"/><rect width="496.4" height="264.1" x="666.9" y="434.5" fill="#de6a5b" clip-path="url(#d)"/><path fill="#fff" d="M886.2,572.7v-37.6c0-1.6,1.7-2.6,3.1-1.8l32.5,18.8l32.5,18.8c1.4,0.8,1.4,2.8,0,3.6l-32.5,18.8L889.3,612
			c-1.4,0.8-3.1-0.2-3.1-1.8V572.7z" clip-path="url(#d)"/><rect width="496.4" height="24.6" x="666.9" y="698.6" fill="#fff" clip-path="url(#d)"/><rect width="368.8" height="6.2" x="729.2" y="708.5" fill="#9cd1e0" clip-path="url(#d)"/><path fill="#de6a5b" d="M736.8,710.9c0,4.2-3.4,7.6-7.6,7.6c-4.2,0-7.6-3.4-7.6-7.6c0-4.2,3.4-7.6,7.6-7.6
			C733.4,703.3,736.8,706.7,736.8,710.9" clip-path="url(#d)"/><rect width="36.1" height="6.2" x="693.1" y="708.5" fill="#de6a5b" clip-path="url(#d)"/><rect width="28.5" height="15.2" x="1111.9" y="703.3" fill="#9cd1e0" clip-path="url(#d)"/><polygon fill="#f2a7a7" points="1101.8 1757.1 1081.4 1796.4 1036 1780.1 1053.1 1738.1" clip-path="url(#d)"/><path fill="#fbaf2a" d="M898.1,1811.3l171.7,61.9c2.1-1.9,4-4.9,5.7-8.7c6.3-14.1,10-39,13-54.4c0.3-1.8,0.7-3.5,1-5
			c0.6-2.6,1.1-4.7,1.6-6.2c4.3-11.9-7-13.7-7-13.7c-23.5,10.8-34-21.9-48.5-17.6c0,0-6.2,1.8-24.3,9.1c-18,7.3-44.1,7.1-66.9,8.2
			c-29.3,1.5-40.4,9.5-44.4,16.3C896.9,1806.7,898.1,1811.3,898.1,1811.3" clip-path="url(#d)"/><path fill="#dc7f27" d="M898.1,1811.3l171.7,61.9c2.1-1.9,4-4.9,5.7-8.7l-175.3-63.2C896.9,1806.7,898.1,1811.3,898.1,1811.3" clip-path="url(#d)"/><path fill="#dc7f27" d="M1052.3,1866.9l5.1,1.8c-3-7.6-4.5-18.3,0.7-30.8c6.9-16.7,21.2-24.4,30.5-27.8c0.3-1.8,0.7-3.5,1-5
			c-9.7,3.1-27.2,11.2-35.5,31.1C1049.1,1848.3,1049.8,1858.8,1052.3,1866.9" clip-path="url(#d)"/><path fill="#fff" d="M1010.7,1787.9c1.3,0.5,2.7,0,3.5-1.2c0.9-1.4,0.6-3.2-0.8-4.2l-9.8-6.5c-1.4-0.9-3.2-0.6-4.2,0.8
			c-0.9,1.4-0.6,3.2,0.8,4.2l9.8,6.5C1010.3,1787.8,1010.5,1787.9,1010.7,1787.9" clip-path="url(#d)"/><path fill="#fff" d="M1024.6,1782.9c1.3,0.5,2.7,0,3.5-1.2c0.9-1.4,0.6-3.2-0.8-4.2l-9.8-6.5c-1.4-0.9-3.2-0.6-4.2,0.8
			c-0.9,1.4-0.6,3.2,0.8,4.2l9.8,6.5C1024.1,1782.7,1024.3,1782.8,1024.6,1782.9" clip-path="url(#d)"/><path fill="#fff" d="M997.7,1790.3c1.3,0.5,2.7,0,3.5-1.2c0.9-1.4,0.6-3.2-0.8-4.2l-9.8-6.5c-1.4-0.9-3.2-0.6-4.2,0.8
			c-0.9,1.4-0.6,3.2,0.8,4.2l9.8,6.5C997.3,1790.1,997.5,1790.2,997.7,1790.3" clip-path="url(#d)"/><path fill="#fff" d="M984.8,1792.4c1.3,0.5,2.7,0,3.5-1.2c0.9-1.4,0.6-3.2-0.8-4.2l-9.8-6.5c-1.4-0.9-3.2-0.6-4.2,0.8
			c-0.9,1.4-0.6,3.2,0.8,4.2l9.8,6.5C984.4,1792.2,984.6,1792.4,984.8,1792.4" clip-path="url(#d)"/><path fill="#fff" d="M971.1,1793.8c1.3,0.5,2.7,0,3.5-1.2c0.9-1.4,0.6-3.2-0.8-4.2l-9.8-6.5c-1.4-0.9-3.2-0.6-4.2,0.8
			c-0.9,1.4-0.6,3.2,0.8,4.2l9.8,6.5C970.7,1793.6,970.9,1793.7,971.1,1793.8" clip-path="url(#d)"/><path fill="#fff" d="M956.8,1793.9c1.3,0.5,2.7,0,3.5-1.2c0.9-1.4,0.6-3.2-0.8-4.2l-9.8-6.5c-1.4-0.9-3.2-0.6-4.2,0.8
			c-0.9,1.4-0.6,3.2,0.8,4.2l9.8,6.5C956.3,1793.7,956.5,1793.8,956.8,1793.9" clip-path="url(#d)"/><polygon fill="#f2a7a7" points="1315.5 1671.1 1326.8 1714 1282.3 1732.4 1266.7 1689.9" clip-path="url(#d)"/><path fill="#fbaf2a" d="M1201.3,1848.3l168.7-69.7c0.3-2.8-0.3-6.3-1.7-10.3c-4.8-14.7-18.8-35.6-27-49c-1-1.6-1.8-3-2.6-4.4
			c-1.3-2.3-2.3-4.2-2.9-5.7c-4.8-11.7-14.4-5.4-14.4-5.4c-10.2,23.8-39.8,6.7-47.7,19.6c0,0-3.4,5.5-11.8,23.1
			c-8.4,17.6-27.9,34.9-43.9,51.1c-20.7,20.8-23.5,34.2-21.9,42C1197.3,1845.7,1201.3,1848.3,1201.3,1848.3" clip-path="url(#d)"/><path fill="#dc7f27" d="M1201.3,1848.3l168.7-69.7c0.3-2.8-0.3-6.3-1.7-10.3l-172.3,71.2C1197.3,1845.7,1201.3,1848.3,1201.3,1848.3
			" clip-path="url(#d)"/><path fill="#dc7f27" d="M1352.8,1785.7l5-2.1c-7.4-3.6-15.7-10.5-20.2-23.3c-6.1-17-0.7-32.4,3.8-41.1c-1-1.6-1.8-3-2.6-4.4
			c-5.1,8.8-12.6,26.6-5.3,46.9C1337.8,1774.1,1345.4,1781.4,1352.8,1785.7" clip-path="url(#d)"/><path fill="#fff" d="M1268.9,1755.3c1.2-0.5,2-1.8,1.8-3.2c-0.2-1.6-1.8-2.8-3.4-2.5l-11.6,1.7c-1.6,0.2-2.8,1.8-2.5,3.4
			c0.2,1.6,1.8,2.8,3.4,2.5l11.6-1.7C1268.4,1755.4,1268.6,1755.4,1268.9,1755.3" clip-path="url(#d)"/><path fill="#fff" d="M1275.7,1742.2c1.2-0.5,2-1.8,1.8-3.2c-0.2-1.6-1.8-2.8-3.4-2.5l-11.6,1.7c-1.6,0.2-2.8,1.8-2.5,3.4
			c0.2,1.6,1.8,2.8,3.4,2.5l11.6-1.7C1275.2,1742.3,1275.5,1742.3,1275.7,1742.2" clip-path="url(#d)"/><path fill="#fff" d="M1260.9,1765.8c1.2-0.5,2-1.8,1.8-3.2c-0.2-1.6-1.8-2.8-3.4-2.5l-11.6,1.7c-1.6,0.2-2.8,1.8-2.5,3.4
			c0.2,1.6,1.8,2.8,3.4,2.5l11.6-1.7C1260.4,1765.9,1260.6,1765.9,1260.9,1765.8" clip-path="url(#d)"/><path fill="#fff" d="M1252.8,1776c1.2-0.5,2-1.8,1.8-3.2c-0.2-1.6-1.8-2.8-3.4-2.5l-11.6,1.7c-1.6,0.2-2.8,1.8-2.5,3.4
			c0.2,1.6,1.8,2.8,3.4,2.5l11.6-1.7C1252.3,1776.2,1252.5,1776.1,1252.8,1776" clip-path="url(#d)"/><path fill="#fff" d="M1243.5,1786.2c1.2-0.5,2-1.8,1.8-3.2c-0.2-1.6-1.8-2.8-3.4-2.5l-11.6,1.7c-1.6,0.2-2.8,1.8-2.5,3.4
			c0.2,1.6,1.8,2.8,3.4,2.5l11.6-1.7C1243.1,1786.4,1243.3,1786.3,1243.5,1786.2" clip-path="url(#d)"/><path fill="#fff" d="M1233,1796c1.2-0.5,2-1.8,1.8-3.2c-0.2-1.6-1.8-2.8-3.4-2.5l-11.6,1.7c-1.6,0.2-2.8,1.8-2.5,3.4
			c0.2,1.6,1.8,2.8,3.4,2.5l11.6-1.7C1232.5,1796.1,1232.8,1796.1,1233,1796" clip-path="url(#d)"/><path fill="#7d7d7d" d="M1274.8,979.6l78.3-10.6c3.8-0.5,5.8-4.8,3.8-8l-62.4-102.7c-1.8-2.9-5-4.7-8.4-4.7l-71.6-0.4
			c-4,0-6.5,4.2-4.7,7.7L1274.8,979.6z" clip-path="url(#d)"/><path fill="#1b325d" d="M1449.1,1227.2l-335,69.3c0,0-50.8,12-4.5,117c46.3,105.1,133.6,264.5,133.6,264.5s47.2-3.6,72.1-33.8
			c0,0-37.2-198.1-58.2-240.9l384.5-110.3C1641.6,1293,1527.3,1281.5,1449.1,1227.2" clip-path="url(#d)"/><path fill="#79c1eb" d="M1456.7,861.5c0,0-30.9,7.4-65.6,133l-21.4,68.1c0,0,45.9,45.9,75.7,51.7L1456.7,861.5z" clip-path="url(#d)"/><path fill="#f6af9b" d="M1376.8,1070.3c0,0-13.8,40.4-14.8,57.1c0,0-72.5,47.4-111.2,83.9c-38.7,36.5-65.9,54.8-65.9,54.8
			s-31.4,14.2-54.8,20.8c-3.9,1.1-7.5,2.9-10.7,5.4c-10.8,8.2-34.8,27.7-40.5,42c-0.8,2,0.7,4.1,2.8,4.1l0.1,0c0,0-2.7,10,5.6,8.9
			c0,0-0.9,9.8,8.7,9.1c0,0,0.3,1.1,1.4,2.4c2.9,3.4,8.1,3.7,11.6,1l34.2-26.7c1.9-1.5,4-2.8,6.2-3.8c7.3-3.4,24.9-11.4,37.4-12.1
			c2.8-0.2,5.2,2.2,5,5.1c-0.3,5.1-2,13.8-9,24.1c-1.7,2.5-2.4,5.5-1.8,8.4c0.8,3.7,3.9,6.4,14-2.3c8.1-7,14.4-15,18.7-21.6
			c4.7-7.1,7.7-15.2,8.9-23.7l1-7.3c0.7-4.7,3.2-9,7-11.8c13.1-9.8,46-32.9,81.2-47.1l45.4-18.4c0,0,76.5-35.4,90.5-80.1v-53.1
			L1376.8,1070.3z" clip-path="url(#d)"/><path fill="#131c3d" d="M1273.2,984.1l78.3-10.6c3.8-0.5,5.8-4.8,3.8-8l-62.4-102.7c-1.8-2.9-5-4.7-8.4-4.7l-71.6-0.4
			c-4,0-6.5,4.2-4.7,7.7L1273.2,984.1z" clip-path="url(#d)"/><path fill="#243568" d="M1324.4,1837.5c0,17.7,14.3,32,32,32c17.7,0,32-14.3,32-32c0-17.7-14.3-32-32-32c-1.3,0-2.6,0.1-3.9,0.3
			c27-25.9,67.7-33.1,95.2-34.8c7.6,9.9,37.2,17.6,74.6,19.3v61.8c-9.8,5.5-16.4,15.9-16.4,27.9c0,17.7,14.3,32,32,32
			c17.7,0,32-14.3,32-32c0-14-9-26-21.6-30.3v-59.3c40.1-1.2,72.4-9.3,79.9-19.7c27.7,1.8,68,9.3,94.6,35.3
			c-1.9-0.3-3.8-0.5-5.8-0.5c-17.7,0-32,14.3-32,32c0,17.7,14.3,32,32,32c17.7,0,32-14.3,32-32c0-3.2-0.5-6.4-1.4-9.3l1.4,1.2
			c0,0-16.2-75.7-137.9-78.3h0c-9.3-3.3-21.6-5.9-35.8-7.6v-123.1c0.7-0.6,1.1-1.3,1.1-2c0-3.6-9.9-6.6-24.2-7.9v-67.9h16.8
			c10.3,0,18.7-8.4,18.7-18.7c0-5.2-2.1-9.9-5.5-13.2c-3.4-3.4-8.1-5.5-13.2-5.5h-78.8c-10.3,0-18.7,8.4-18.7,18.7
			c0,5.2,2.1,9.8,5.5,13.2c3.4,3.4,8.1,5.5,13.2,5.5h30v67.8c-14.6,1.3-24.8,4.4-24.8,8c0,0.5,0.2,1.1,0.7,1.6V1744
			c-13,1.8-24.1,4.3-32.6,7.4h0c-100.5,2.1-129,54-136,72.1C1325.6,1827.8,1324.4,1832.5,1324.4,1837.5" clip-path="url(#d)"/><path fill="#cd6356" d="M1540.8,1522.2l276.3-56.5l-218-19l-384.2,27.4l223,52.6c12.5,3,25.4,4.4,38.3,4.3
			C1508.6,1530.8,1529.2,1529.5,1540.8,1522.2" clip-path="url(#d)"/><path fill="#cd6356" d="M1617.3,1433.5l203,5.6c16.4-0.7,29.6-13.8,30.5-30.2c7.9-149.4,50.4-493.1,86.5-803.6
			c2.1-18.4-10.6-35.4-29.4-38.9c-68.9-13.1-145.3-20.9-233.6-4.3c-13.9,2.6-25.3,12.2-30,25.1
			C1535.1,886.2,1466.4,1272.6,1617.3,1433.5" clip-path="url(#d)"/><path fill="#de6a5b" d="M1595,1439h232.5c3.5-131.9,47-507.7,85.6-840.6c2.1-18.4-10.6-35.4-29.4-39c-68.9-13.1-145.3-20.9-233.6-4.3
			c-13.9,2.6-25.3,12.2-30,25.1C1510.9,879.8,1444.1,1277.9,1595,1439" clip-path="url(#d)"/><path fill="#224372" d="M1259.6,1711.5c24.5-3.4,46.4-16.3,67-34.4c-0.9-11.6-5.5-24.5-11.9-38c-17.9,22.7-43.1,33.5-73.2,36.5
			C1246.4,1691.8,1259.6,1711.5,1259.6,1711.5" clip-path="url(#d)"/><path fill="#cd6356" d="M1506.3,1529.9l291.5-52c19.9-3.6,34.3-20.9,33.8-40.9l-0.1-4.6l-325.1,62.1L1506.3,1529.9z" clip-path="url(#d)"/><path fill="#de6a5b" d="M1531.5,1489.7l276.9-52.2l-225-4.4l-366.9,29.4l242.2,29.4C1482.9,1494.8,1507.4,1494.1,1531.5,1489.7" clip-path="url(#d)"/><path fill="#224071" d="M1486.4,1249.9c0,0-255.7,65.7-287.8,124.5c-32.1,58.8-144.3,326.8-144.3,326.8s13.4,50.8,75.7,49.9
			c0,0,159.4-184.3,175.4-285.9c0,0,316.1,3.6,377.6-26.7s69.9-98,52.5-162.1C1735.7,1276.4,1618.3,1295.5,1486.4,1249.9" clip-path="url(#d)"/><path fill="#1b325d" d="M1037.5,1737.4c18.3,21.3,42.7,35.1,70.4,44.7c8.9-7.1,16.5-18.5,23.5-31.9c-29.8-4.6-54.6-22.6-76-49.5
			C1045.2,1714.2,1037.5,1737.4,1037.5,1737.4" clip-path="url(#d)"/><path fill="#eea693" d="M1096.6,1356.7c0.3,0,0.6-0.1,0.8-0.4c15.4-20.7,33.7-27.1,33.8-27.2c0.5-0.2,0.8-0.8,0.7-1.3
			c-0.2-0.5-0.8-0.8-1.3-0.7c-0.8,0.3-19.1,6.7-34.8,27.9c-0.3,0.5-0.2,1.1,0.2,1.5C1096.2,1356.6,1096.4,1356.7,1096.6,1356.7" clip-path="url(#d)"/><path fill="#eea693" d="M1088,1348.2c0.3,0,0.6-0.1,0.8-0.3c17.5-19.1,27.8-24.5,27.9-24.6c0.5-0.3,0.7-0.9,0.4-1.4
			c-0.3-0.5-0.9-0.7-1.4-0.4c-0.4,0.2-10.6,5.6-28.4,25c-0.4,0.4-0.4,1.1,0.1,1.5C1087.5,1348.1,1087.8,1348.2,1088,1348.2" clip-path="url(#d)"/><path fill="#eea693" d="M1082.3,1338.8c0.4,0,0.8-0.2,1-0.6c4.5-9.6,20.8-19.7,21-19.8c0.5-0.3,0.7-0.9,0.3-1.4
			c-0.3-0.5-0.9-0.7-1.4-0.3c-0.7,0.4-17,10.5-21.8,20.7c-0.2,0.5,0,1.1,0.5,1.4C1082,1338.8,1082.1,1338.8,1082.3,1338.8" clip-path="url(#d)"/><path fill="#8bd7f8" d="M1590.6,819.6c0,0,101,1.3,118.4,182.9c17.4,181.7,26.7,273.8,26.7,273.8s-122.9,58.8-285.9-49.4
			c0,0-12-159.8-17.6-245.3c-5.6-85.5,8.9-108.6,30.9-126.7c0,0,24.2-19.5,40.1-18.7L1590.6,819.6z" clip-path="url(#d)"/><path fill="#79c1eb" d="M1590.7,890.9c0,0-56.7,71.5-87.5,167c0,0,8.2,3,12.2,7C1515.4,1064.9,1551.2,934.3,1590.7,890.9" clip-path="url(#d)"/><path fill="#f9af9d" d="M1520.2,1050.2c0,0-4.5,8.5-4.9,11.6L1391,994.5c0,0-18.7-22.3-21.4-34.3c-2.7-12-31.8-25.6-34.5-24.5
			c-2.7,1.2,3.7,12.1,10.8,23.9c3.2,5.4-1.5,12.3-7.6,11c-3-0.6-6.9-2.5-11.8-6.1c-14.8-10.9-26.8-26.2-32-33.3
			c-2.5-3.4-7.2-4.5-10.7-2.2c-1.7,1.1-2.9,2.9-2.6,5.9c0,0-13.1-1.8-10.9,7.6c0,0-11.4,2.4-7.6,10.9c0,0-10.9,4.7-2.4,17.6
			l8.5,12.9c0,0,15.1,21.6,26.9,24.7c11.8,3.1,25.8,2,41,6.9c15.1,4.9,40.7,22.3,66.6,49.6c25.8,27.4,99.5,91.7,99.5,91.7
			s28.1,22,52.5,0c24.5-22,45.4-68.8,45.4-68.8L1520.2,1050.2z" clip-path="url(#d)"/><path fill="#f6af9b" d="M1456.2,618.7c0,0-28.6,16.3-23.3,97.3c5.3,81,35.2,113.1,75.7,95.7c0,0-5.3,24.5-16.9,41.9
			c0,0,28.5,37.4,82.4-6.7c0,0,16.7-19.3,16.5-27.3c0,0-15.2-31.9-14.2-72.6C1576.4,747,1546.7,562,1456.2,618.7" clip-path="url(#d)"/><path fill="#eea693" d="M1508.6,811.8c0,0,30.6-22,33.5-30.6c0,0-10.4,31-38,46.2L1508.6,811.8z" clip-path="url(#d)"/><path fill="#79c1eb" d="M1680.2,928.8c0,0-18.1,89.4-71.3,174.5c0,0-7.6-4.3-13.2-4.8C1595.7,1098.4,1672.4,986.9,1680.2,928.8" clip-path="url(#d)"/><path fill="#8bd7f8" d="M1585.6,890.3c0,0-50.8,80.6-71.7,158.5c0,0,38.7,33.4,93.1,51.7c0,0,49-95.4,60.6-127.8
			C1679.1,940.2,1673.8,848,1585.6,890.3" clip-path="url(#d)"/><path fill="#eea693" d="M1315.2,976.2c0.4,0,0.9-0.3,1-0.7c0.2-0.6-0.1-1.1-0.7-1.3c-17.5-5.5-32.8-38.5-33-38.9
			c-0.2-0.5-0.9-0.8-1.4-0.5c-0.5,0.2-0.8,0.9-0.5,1.4c0.6,1.4,15.8,34.3,34.3,40C1315,976.2,1315.1,976.2,1315.2,976.2" clip-path="url(#d)"/><path fill="#eea693" d="M1302.4,981.8c0.4,0,0.8-0.2,0.9-0.6c0.3-0.5,0-1.1-0.5-1.4c-12.7-6.1-30.4-36.8-30.5-37.1
			c-0.3-0.5-0.9-0.7-1.4-0.4c-0.5,0.3-0.7,0.9-0.4,1.4c0.7,1.3,18.1,31.6,31.5,38C1302.1,981.8,1302.2,981.8,1302.4,981.8" clip-path="url(#d)"/><path fill="#eea693" d="M1289.7,989.3c0.4,0,0.8-0.3,1-0.7c0.2-0.5-0.1-1.1-0.6-1.3c-11.5-4.3-26.2-32.5-26.3-32.8
			c-0.3-0.5-0.9-0.7-1.4-0.5c-0.5,0.3-0.7,0.9-0.5,1.4c0.6,1.2,15.2,29.2,27.4,33.8C1289.4,989.3,1289.6,989.3,1289.7,989.3" clip-path="url(#d)"/><path fill="#8e4a4c" d="M1427.8,617.4c0,0,12.4-4.5,18.5-12.6c4.2-5.5,9.1-10.5,15-14c23.3-13.8,76.6-36.2,126.8,8.2
			c0,0,39.9,14.1,35.8,81.4c0,0-4.9,33.8-16,57c-11.1,23.2-26.3,55.3-26.3,55.3s-39.6-26.8-42.2-45.9c0,0,25.4-24.8,14.4-43.2
			c-11-18.4-29.4,9-29.4,9c-5.9-6.2-8.1-15.8-10-25.7c-2.7,3-5.5,5.9-10.7,6.7l-0.4-13.8c-0.4-16.1-1.5-25.7,10-36.8l8-6.4
			c-12.4,4.2-32.1,4.8-53.1,4.7l10.7-11c-15,3-30.7,3.1-47.1,0l11-8.7L1427.8,617.4z" clip-path="url(#d)"/><path fill="#1a382d" d="M329.3,1525.3c0,0-41.9,88.8-29.1,151c0,0-9.6-65.8,42.1-166.7L329.3,1525.3z" clip-path="url(#d)"/><path fill="#1a382d" d="M278,1577.4c0-19.8,0.6-40.4,1.5-61c0,23.4,0.3,44.1,0.8,62.3c0.2,6.1,0.3,11.9,0.6,17.5
			c0.7,18.5,1.5,33.9,2.4,46.5c0.5,7.2,1,13.5,1.5,18.8c0.4,4.3,0.7,8,1.1,11.1c0.3,2.9,0.6,5.3,0.8,7.3c0.5,3.9,0.8,5.9,0.8,6.2
			c-0.5-2-1-4.1-1.4-6.2c-0.5-2.3-1-4.8-1.4-7.3c-0.6-3.6-1.2-7.3-1.8-11.1c-0.6-4.5-1.2-9.2-1.7-14c-1.6-16-2.6-33.5-2.9-52
			C278,1589.6,278,1583.5,278,1577.4" clip-path="url(#d)"/><path fill="#1a382d" d="M286.3,1299.1l11.5,1c-4.8,37.9-14.3,134.4-18,208.2c-0.1,2.7-0.3,5.3-0.4,8c0-2.9,0-5.8,0-8.7
			C279.6,1457.7,282.3,1373,286.3,1299.1" clip-path="url(#d)"/><path fill="#1a382d" d="M300.2,1296.8c0,0-0.2,1.6-0.7,4.7c0,0,0,0.1,0,0.1c-6.2,3.5-10.1,5.4-10.6,5.6l0,0l0,0l-0.1-0.1
			c-0.3-0.5-1.2-2.1-2.6-4.7c0-0.1,0-0.1,0-0.2c0.5-7.9,0.9-16,1.5-24.2L300.2,1296.8z" clip-path="url(#d)"/><path fill="#1a382d" d="M199.6,1326.7c0,0,69.6,117.9,62.2,346c0,0-14.6-287.4-69.9-346H199.6z" clip-path="url(#d)"/><path fill="#3e6449" d="M228,1574c0,0,36.8,68.3,41.2,100.8l32.8-75.5C302,1599.3,276,1557.5,228,1574" clip-path="url(#d)"/><path fill="#578c51" d="M217.9,1370c0,0-80,6.6-129.2-38.9c-49.2-45.5-48.9-125.7-48.9-125.7s80-6.6,129.2,38.9
			S217.9,1370,217.9,1370" clip-path="url(#d)"/><path fill="#578c51" d="M438.1,1148c-16.7,54.3-56.9,95.4-91.4,122.3c-17.6,13.7-33.7,23.7-44.4,29.8c0,0-0.1,0-0.1,0
			c-0.9,0.5-1.9,1.1-2.7,1.5c-6.2,3.5-10.1,5.3-10.6,5.6l0,0l0,0l-0.1-0.1c-0.3-0.5-1.2-2.1-2.6-4.7c-1.2-2.2-2.6-5.1-4.4-8.6
			c-16-32.8-51.8-120.2-26.5-202.1c31.9-103.5,149.1-159.2,149.1-159.2S470,1044.5,438.1,1148" clip-path="url(#d)"/><path fill="#578c51" d="M302,1599.3c0,0-74.6-4.9-120.1-53.9S137,1421.6,137,1421.6s74.6,4.9,120.1,53.9
			C302.7,1524.6,302,1599.3,302,1599.3" clip-path="url(#d)"/><path fill="#578c51" d="M421.8,1394.8c0,0,11,51.7-14.6,87.7c-25.6,36.1-77.9,42.8-77.9,42.8s-11-51.7,14.6-87.7
			C369.5,1401.5,421.8,1394.8,421.8,1394.8" clip-path="url(#d)"/><rect width="247.8" height="18.4" x="150.6" y="1661.5" fill="#949292" clip-path="url(#d)"/><path fill="#5e605f" d="M261.8,1672.7h142.5c0,0,50.1,31.6-14.1,201.1c-2.5,6.7-9,11.2-16.2,11.2H261.8V1672.7z" clip-path="url(#d)"/><path fill="#5e605f" d="M287.8,1672.7H145.3c0,0-50.1,31.6,14.1,201.1c2.5,6.7,9,11.2,16.2,11.2h112.2V1672.7z" clip-path="url(#d)"/><polygon fill="#3e6449" points="217.7 1364 217.9 1370 214.8 1370.2 123.1 1287.2" clip-path="url(#d)"/><polygon fill="#3e6449" points="334 1524.5 329.3 1525.3 328.5 1520.7 356.6 1479.2" clip-path="url(#d)"/><g clip-path="url(#d)" opacity=".46"><defs><rect id="e" width="157.9" height="374.8" x="246.7" y="932.4"/></defs><clipPath id="f"><use overflow="visible" xlink:href="#e"/></clipPath><path fill="#3e6449" d="M346.8,1270.2L346.8,1270.2c-17.6,13.7-33.7,23.7-44.4,29.8c0,0-0.1,0-0.1,0c-0.9,0.5-1.9,1.1-2.7,1.5
					c-6.2,3.5-10.1,5.4-10.6,5.6l0,0l0,0l-0.1-0.1c-0.3-0.5-1.2-2.1-2.6-4.7c-1.2-2.2-2.6-5.1-4.4-8.6
					c-16-32.8-51.8-120.2-26.5-202.1c31.9-103.5,149.1-159.2,149.1-159.2s-140.4,160.2-97.3,280.7c2.3,6.6,5.2,13,8.7,19.3
					C323.4,1245.8,333.5,1258.5,346.8,1270.2" clip-path="url(#f)"/></g><path fill="#3e6449" d="M342.4,1101.1L316,1232.4l-13.6,67.6c0,0-0.1,0-0.1,0l-2.7,1.5l-10.6,5.7l0,0l0,0l-0.1-0.1l-2.5-4.9
			l-4.4-8.4l25.3-80.7L342.4,1101.1z" clip-path="url(#d)"/><g clip-path="url(#d)" opacity=".47"><defs><rect id="g" width="165.1" height="177.7" x="137" y="1421.6"/></defs><clipPath id="h"><use overflow="visible" xlink:href="#g"/></clipPath><path fill="#3e6449" d="M137,1421.6c0,0,35.8,149.8,165.1,177.7c0,0-84-7.6-122.9-57C140.3,1492.9,137,1421.6,137,1421.6" clip-path="url(#h)"/></g><path fill="#3e6449" d="M302,1599.3c0,0-18-47.3-42.1-65.1C260,1534.2,295.8,1579.2,302,1599.3" clip-path="url(#d)"/></g></svg>