<svg xmlns="http://www.w3.org/2000/svg" viewBox="0 0 4680 3120"><g data-name="Layer 10"><rect width="4680" height="3120" fill="#fff" data-name="10" opacity="0"/><path fill="#40947e" d="M1453.14,2700.25c3,0,5.23-2.66,7.4-4.91,9.94-10.29,20.11-20.35,29.62-31.09a656,656,0,0,0,57.1-74.82c49.34-75.09,81.06-153.81,92.76-236.31,3.57-25.13,5.94-50.09,8.75-75.11,3.22-28.68,7.4-57.43,15.76-86.55,6.79-23.68,15.71-47,25-70.34,5.51-13.77,10.68-27.61,16-41.43.6-1.58,1-3.2,1.38-4.52-1.69-2.27-4-.88-6-.39-12.85,3.21-23.94.78-34.72-2.67-1.2-.38-2.55-1.08-1.66-4,4.1-2.25,7.75-.25,11.77-1s7.82-1.29,11.75-2.32a129.09,129.09,0,0,0,12.71-4.07c3.9-1.45,7.76-3.32,12.1-5.21a216.86,216.86,0,0,0,8.13-43.06c-3.91.29-7,2.71-10.18,4.28q-27.81,13.93-54.78,13.09c-4-.13-8-.63-12-1-1.67-.17-3.75-.33-3-3,.59-2.09,2.53-2.13,4-2.16,7.74-.17,15.57-2.76,23.48-5.69,16.58-6.15,32-16.12,47.13-27.63,1.1-.84,2.17-1.78,3.21-2.74,2.27-2.08,3.57-4.43,3.33-7.29-.35-4.36-.51-8.81-1-13.13-2.8-27.09-10.07-51.67-19.4-75.05a578.1,578.1,0,0,0-29.65-63.37,120.33,120.33,0,0,0-9.73-15.51c-2.64-3.43-6.11-6.09-9.54-8.63-3-2.18-6.69-2.29-10.88.29l.28.74c2.71,1.67,2.31,5.24,1.93,8.41-1.92,16.09-3.3,32.11-6.94,48.44-.84,3.78-2,7.79-1.34,11.29,3.32-.27,5.84-4.64,9.28-3.52-2.88,5.48-7.93,5.78-11.58,9.22-.76,4.12-1.51,8.26-2.34,12.81,13.38-5.1,23.85-15.74,36-25.17-10,16.93-22.81,27.19-37.36,33.76-4.6,12.61-10.61,36.26-11,42.86a5.39,5.39,0,0,0,1.74-.3c16.39-8.36,32.35-17.89,47.11-30.9,1-.87,2.49-2.66,3.67-.9-4.85,9-12.58,14.84-19.51,21.16-6.72,6.12-14,12.08-22,15.34-4.72,1.93-9.49,3.31-14.37,5-2.62,8.54-5.3,17.15-7.91,25.78s-5.64,17.28-7.61,25.89-6.56,17-7.18,26.23c9.67-1.38,19-6.41,28.92-8a15.36,15.36,0,0,1-9.88,8c-5.73,1.81-11.47,3.27-17.2,4.71-3.59.9-4.86,1.89-6.1,6-2.9,9.63-5.68,19.27-8.55,28.9-1.77,6-3.76,11.93-5.43,17.91-2.52,9-5,18-7.17,27-.71,2.87-.56,5.74-.82,8.78,5.49,1.45,11.14,1,16.61,1.07A128.41,128.41,0,0,0,1629,2118c6.9-2.5,13.73-6.1,20.62-9,1.53-.66,3.56-2.5,4.6-.22-1.2,3.17-3.85,4.23-6.06,5.46-7.92,4.4-15.87,8.74-23.87,12.72-12.65,6.29-25.24,8.77-37.83,10.35a45.73,45.73,0,0,1-21-2.09c-.4-.14-1.15.44-2.2.87-4.07,10-4.81,20.07-7.51,30.88,9.14-1,17.58-1.29,26.33-3.4,1.25-.3,2.31,0,2.17,2.21-10.08,6.84-19.92,4.77-30.47,7-.25,8.38-5.77,16.89-3.41,24.4a14.1,14.1,0,0,0,2.88.39c14.54-1.41,29-2.29,44-7.79,2.72-1,5.46-1.86,8.19-2.62,1-.28,2.59-1.31,2.49,1.43-6.4,3.12-12.86,6.69-19.41,9.33-6.91,2.78-14,5.18-20.8,5.49-6.38.3-12.67.19-19.45.27-2.22,7-4.39,13.73-2.35,19.28,30.81,1,60.79-9,91.32-29.5-3.28,5.39-3.33,5.32-7.14,8.78a138.58,138.58,0,0,1-40.48,25.23c-15.82,6.62-31.16,8.27-45.87,4.62a47.34,47.34,0,0,0-1.89,6.5c-1.25,9.86-2.43,19.71-3.48,29.54-1.79,16.7-3.47,33.38-5.2,50.07-.71,6.88-1.53,13.77-2.14,20.62-.42,4.77.81,5.74,5.29,5.62a117.28,117.28,0,0,0,39.52-7.4,150.77,150.77,0,0,0,27.55-13.65c2-1.28,4-2.77,6.06-3.84,1.51-.78,3-.91,3,1.41-10.3,9.94-27.77,21-39.37,25.11-13.06,4.61-26.06,9-38.46,7-1.22-.2-2.82.6-4.21.92-2.14,4.56-2.13,8.49-2.63,12.36-2.26,17.43-4.18,34.8-6.53,52.24-1.83,13.52-4.13,27.1-6.18,40.65-.49,3.24-.83,6.45-1.25,9.79,6.8,1.3,13.66.38,20.44-.12,7.22-.54,14.47-3.28,21.73-5.64,7-2.26,13.93-4.17,20.73-8.33s13.49-8.1,20.25-12.14a10,10,0,0,1-2.91,4.89,161.14,161.14,0,0,1-39.23,25.81c-13.79,6.48-26.41,8.44-38.69,5.62a15.56,15.56,0,0,0-3.1.09c-2.59,6.87-4.47,13.54-4,20.33a62.13,62.13,0,0,0,7.3-.46c2.7-.48,5.45-1.53,8.17-2.14,2.4-.55,4.78-.66,7.18-1.26,4.25-1.07,4.26-1.16,7-.46-4.63,4.73-9.92,5.55-15,7.11-5.36,1.65-10.71,2.76-16.57,4.23-1.89,8.19-4,15.83-5.29,23.37s-4.24,15.08-4.4,22.76c6.2-1.37,11.89-2.48,17.6-3.93,10.67-2.72,21.12-7.51,31.4-13.57a30.23,30.23,0,0,1,8.54-3.67c-6.52,7.54-13.28,11.44-19.74,15.86-6.3,4.31-12.85,7.06-19.56,9.54-6.95,2.56-13.64,2.83-20.93,4.2-1.74,7.85-2.89,15.18-5,22.43-6,20.28-9.62,40.56-15.92,60.87-4.22,13.59-8.3,27.21-12.73,40.79C1459.26,2690.49,1457,2695.71,1453.14,2700.25Z"/><path fill="#40947e" d="M1642,1804.9c-4.22,1.49-7.19,5-9.91,8.83-6.85,9.6-13.74,19.17-18.79,29.79a8.89,8.89,0,0,1-.43,2.9c-4.25,8.22-8.73,16.36-12.87,24.62-4.8,9.57-9.49,19.14-16.09,27.83a17.21,17.21,0,0,0-2.8,4.58c-1.6,4.85-4.79,8.79-7.68,12.91-4.36,6.21-8.8,12.37-13.13,18.61-1.18,1.7-2.09,3.59-3.41,5.9,2.09,1.78,3.84,3.37,5.69,4.82s3.57,2.41,5.24,3.77,4.15,2.1,5.24,5.34c-9.37,1.44-14.06-5.07-20.89-7.16-6.5,6.29-10,13.42-12.38,20.84,3.1,4.18,6.93,7.15,8.7,12.62-4,1.67-6.39,1.3-7.84-1.59-1.3-2.61-3.08-4.52-7-4-3,4.29-6.21,8.63-9.22,13.07-1.56,2.3-1.93,4.78-.47,6.33,3.71,3.9,7.3,8,11.55,11.21,9.44,7.13,19.26,13.74,28.89,20.61,1.91,1.36,3.66,3,5.35,4.36-1.56,4-3.5,3.54-5.56,3.36-13.62-1.21-23.5-9.46-35.21-14.26a1.8,1.8,0,0,1-.64-.49c-3.6-4-7.16-8.06-10.8-12a21.26,21.26,0,0,0-3-2.17c-3,8.19-9.37,13.67-11.61,21.22-7.86,12.56-13.21,26-19.5,39.14-1.88,3.94-1.94,6,.69,7.49,7.36,4.13,12.24,11.3,18.86,16.3,1,.75,2.4,1.4,1,4.14-6,1-9.84-2.37-13.84-5.33s-7.86-6.05-12.26-9.46a111,111,0,0,0-6.49,16.11,4.81,4.81,0,0,0,.83,4.18c3.92,4.07,7.8,8.24,12.25,11.63,8.34,6.35,17,12.21,25.64,18.22,1.76,1.23,3.44,2.83,5.56,3.22,5.73,1.06,9.48,5.05,13.84,8.12.67.48.71,1.86,1.35,3.75-3,0-5.13.41-6.88-.09-6.85-2-13.66-4-20.3-6.41a70.24,70.24,0,0,1-11.66-5.5c-3.94-2.32-7.52-5.2-11.25-7.83-4.18-2.94-8.3-6-12.56-8.78-2.36-1.57-4.55-.39-5.65,3.06-4,12.59-7.88,25.19-11.81,37.78,1.19,3.13,3.73,4.59,6.36,6q6.75,3.63,13.35,7.48a18,18,0,0,1,2.72,2.72c-1.81,1.19-3.24,2.71-4.27,2.69a90.44,90.44,0,0,1-11.85-1c-3.3-.5-6.46-1.41-9.68-2.14-1.17,2.53-2.83,5.06-3.43,7.58-2.26,9.53-4.18,19-6.23,28.57a16.6,16.6,0,0,0,2.19,3.5c13.31,12.61,27.29,24.18,46.63,27.38a10,10,0,0,1,2.14.81c.57,2.73-1,3.94-3,4.33-11.77,2.22-23.15,2.66-33.89.54-7-1.38-14-3.08-21-4.64-.83,3.61-2.42,7.34-1.16,11.48,3.93,1.59,8.7,2.93,12.8,5.32,6.94,4,14.43,7,21.87,10.21a181.44,181.44,0,0,0,33.3,11,4.69,4.69,0,0,1,2.12,1.07,1.85,1.85,0,0,1,.28,1.63,3.15,3.15,0,0,1-1.21,1.58,7.57,7.57,0,0,1-2.66.93,107.31,107.31,0,0,1-27.77-.23c-14-2-27.11-5.65-39.15-11.79-1-.52-2.46-.34-4.19-.54-1.13,7.41-2,14-3.18,20.57a5.33,5.33,0,0,0,1.22,5,31.53,31.53,0,0,1,3.32,2.23c1.58,1.35,1,3.33-1.32,4.47-1.47.73-3,1.19-4.48,1.77a18.7,18.7,0,0,0-1.67,3.88q-4.1,24.3-8,48.59a6.42,6.42,0,0,0,2.89,6.81c2.43,1.67,5.23,3.11,6.83,5.6,2.16,3.39,5.2,5.48,8.24,7.65q11.16,8,22.39,15.82a36.41,36.41,0,0,0,5.49,3.37c5.86,2.68,11.81,5.2,17.73,7.78l8.61,3.77c-4.47,3.12-7.73,1.93-10.83,1.65-25-2.28-46.94-10.35-64.61-27a18.46,18.46,0,0,0-1.29,3.27c-1.38,9.56-2.55,19.09-4.07,28.66-.63,4,.48,6.35,3.58,6.8,3.78.55,6.41,2.81,9.34,4.68s6.19,3.77,9.33,5.67c-2.27,3-4.18,1.84-6,1.66a28.14,28.14,0,0,1-5.67-1.29c-2.07-.66-4-1.63-6-2.32-1.64-.55-3.4-.88-5.7-1.45-.24,4.37-.43,7.85-.62,11.34l11.9,5.66c5.08,2.43,10,5.08,15.28,7.25,7,2.89,14.15,5.38,21.19,8.15.53.21.63,1.23,1.28,2.6-7.2,1.68-12.77-.06-18.51-.74-5.58-.66-10.61-3-16.21-3.59-6-.66-8.86-6.76-15.43-7.27-1.67,5.14-2.08,9.38.89,11.8,3.31,2.68,7.18,4.65,10.89,6.79,2.08,1.2,4.63,1.73,6.47,3.22,4.86,3.94,11,5.69,16.74,7.95,9.07,3.54,18.67,6.05,28,9.05,3.63,1.17,7.25,2.38,10.73,3.84a2.75,2.75,0,0,1,1.32,2.7,4.72,4.72,0,0,1-2.8,2.36c-4.74.46-9.58,1.07-14.11.74a186,186,0,0,1-33.26-5.18,109.49,109.49,0,0,1-12.28-4.32c-4.44-1.74-8.78-3.71-13.15-5.58-.42.78-1,1.43-1,2-.69,15.61,1.36,30.23,2.59,45.14.48,5.87,1.9,11.37,2.5,17.21a222.17,222.17,0,0,0,8,41.71c1.08,3.55,2.82,7,1.76,11.61,1.73,4.87,3.42,9.77,5.2,14.62q11.76,32,23.58,64c.69,1.87,1.65,3.56,2.49,5.33,4.71-9.32,7.43-19,10.2-28.55,7.74-26.6,14.83-53.25,22.17-79.88.64-2.33,1.33-4.67,1.84-7,3.25-14.95,6.58-29.9,9.64-44.84,3.68-17.93,7.48-35.88,10.58-53.75,8.39-48.36,14.74-96.45,20.36-144.44,1.89-16.09,4.11-32.24,6.16-48.36,2.89-22.69,5.87-45.38,9.66-68.23,4.63-27.92,12.48-55.84,18.83-83.76,2.11-9.29,5.52-18.6,8-27.91,4.7-17.64,9.8-35.24,15.64-52.82,6.71-20.18,13.08-40.4,19.48-60.62,5.24-16.57,10.55-33.14,15.38-49.74,4.27-14.64,8-29.32,11.77-44,2.12-8.31,4.09-16.65,5.62-24.93,3.29-17.9,6.25-35.77,9.36-53.65.52-3,.82-6,3-8.76Z"/><path fill="#2e6857" d="M1642.28,1805.64c-2.18,2.77-2.48,5.78-3,8.76-3.11,17.88-6.07,35.75-9.36,53.65-1.53,8.28-3.5,16.62-5.62,24.93-3.76,14.66-7.5,29.34-11.77,44-4.83,16.6-10.14,33.17-15.38,49.74-6.4,20.22-12.77,40.44-19.48,60.62-5.84,17.58-10.94,35.18-15.64,52.82-2.48,9.31-5.89,18.62-8,27.91-6.35,27.92-14.2,55.84-18.83,83.76-3.79,22.85-6.77,45.54-9.66,68.23-2,16.12-4.27,32.27-6.16,48.36-5.62,48-12,96.08-20.36,144.44-3.1,17.87-6.9,35.82-10.58,53.75-3.06,14.94-6.39,29.89-9.64,44.84-.51,2.33-1.2,4.67-1.84,7-7.34,26.63-14.43,53.28-22.17,79.88-2.77,9.54-5.49,19.23-10.2,28.55,1.05,3.79,1.89,7.73,3.22,11.34.78,2.14,2.52,3.37,5.33,2.05,3.86-4.54,6.12-9.76,7.85-15.08,4.43-13.58,8.51-27.2,12.73-40.79,6.3-20.31,9.89-40.59,15.92-60.87,2.16-7.25,3.31-14.58,5-22.43,7.29-1.37,14-1.64,20.93-4.2,6.71-2.48,13.26-5.23,19.56-9.54,6.46-4.42,13.22-8.32,19.74-15.86a30.23,30.23,0,0,0-8.54,3.67c-10.28,6.06-20.73,10.85-31.4,13.57-5.71,1.45-11.4,2.56-17.6,3.93.16-7.68,3.17-15.31,4.4-22.76s3.4-15.18,5.29-23.37c5.86-1.47,11.21-2.58,16.57-4.23,5.07-1.56,10.36-2.38,15-7.11-2.77-.7-2.78-.61-7,.46-2.4.6-4.78.71-7.18,1.26-2.72.61-5.47,1.66-8.17,2.14a62.13,62.13,0,0,1-7.3.46c-.42-6.79,1.46-13.46,4-20.33a15.56,15.56,0,0,1,3.1-.09c12.28,2.82,24.9.86,38.69-5.62a161.14,161.14,0,0,0,39.23-25.81,10,10,0,0,0,2.91-4.89c-6.76,4-13.52,8-20.25,12.14s-13.78,6.07-20.73,8.33c-7.26,2.36-14.51,5.1-21.73,5.64-6.78.5-13.64,1.42-20.44.12.42-3.34.76-6.55,1.25-9.79,2-13.55,4.35-27.13,6.18-40.65,2.35-17.44,4.27-34.81,6.53-52.24.5-3.87.49-7.8,2.63-12.36,1.39-.32,3-1.12,4.21-.92,12.4,2,25.4-2.4,38.46-7,11.6-4.09,29.07-15.17,39.37-25.11.07-2.32-1.47-2.19-3-1.41-2.06,1.07-4,2.56-6.06,3.84a150.77,150.77,0,0,1-27.55,13.65,117.28,117.28,0,0,1-39.52,7.4c-4.48.12-5.71-.85-5.29-5.62.61-6.85,1.43-13.74,2.14-20.62,1.73-16.69,3.41-33.37,5.2-50.07,1.05-9.83,2.23-19.68,3.48-29.54a47.34,47.34,0,0,1,1.89-6.5c14.71,3.65,30,2,45.87-4.62a138.58,138.58,0,0,0,40.48-25.23c3.81-3.46,3.86-3.39,7.14-8.78-30.53,20.51-60.51,30.52-91.32,29.5-2-5.55.13-12.3,2.35-19.28,6.78-.08,13.07,0,19.45-.27,6.85-.31,13.89-2.71,20.8-5.49,6.55-2.64,13-6.21,19.41-9.33.1-2.74-1.5-1.71-2.49-1.43-2.73.76-5.47,1.62-8.19,2.62-15,5.5-29.47,6.38-44,7.79a14.1,14.1,0,0,1-2.88-.39c-2.36-7.51,3.16-16,3.41-24.4,10.55-2.24,20.39-.17,30.47-7,.14-2.21-.92-2.51-2.17-2.21-8.75,2.11-17.19,2.38-26.33,3.4,2.7-10.81,3.44-20.91,7.51-30.88,1-.43,1.8-1,2.2-.87a45.73,45.73,0,0,0,21,2.09c12.59-1.58,25.18-4.06,37.83-10.35,8-4,16-8.32,23.87-12.72,2.21-1.23,4.86-2.29,6.06-5.46-1-2.28-3.07-.44-4.6.22-6.89,2.94-13.72,6.54-20.62,9a128.41,128.41,0,0,1-45.61,7.34c-5.47-.06-11.12.38-16.61-1.07.26-3,.11-5.91.82-8.78,2.21-9,4.65-18,7.17-27,1.67-6,3.66-11.94,5.43-17.91,2.87-9.63,5.65-19.27,8.55-28.9,1.24-4.13,2.51-5.12,6.1-6,5.73-1.44,11.47-2.9,17.2-4.71a15.36,15.36,0,0,0,9.88-8c-9.91,1.63-19.25,6.66-28.92,8,.62-9.21,5.24-17.69,7.18-26.23s5-17.26,7.61-25.89,5.29-17.24,7.91-25.78c4.88-1.67,9.65-3,14.37-5,8-3.26,15.23-9.22,22-15.34,6.93-6.32,14.66-12.2,19.51-21.16-1.18-1.76-2.69,0-3.67.9-14.76,13-30.72,22.54-47.11,30.9a5.39,5.39,0,0,1-1.74.3c.36-6.6,6.37-30.25,11-42.86,14.55-6.57,27.32-16.83,37.36-33.76-12.18,9.43-22.65,20.07-36,25.17.83-4.55,1.58-8.69,2.34-12.81,3.65-3.44,8.7-3.74,11.58-9.22-3.44-1.12-6,3.25-9.28,3.52-.69-3.5.5-7.51,1.34-11.29,3.64-16.33,5-32.35,6.94-48.44C1644.59,1810.88,1645,1807.31,1642.28,1805.64Z"/><path fill="#6fc183" d="M1450.71,2156.51c3.93-12.59,7.81-25.19,11.81-37.78,1.1-3.45,3.29-4.63,5.65-3.06,4.26,2.82,8.38,5.84,12.56,8.78,3.73,2.63,7.31,5.51,11.25,7.83a70.24,70.24,0,0,0,11.66,5.5c6.64,2.39,13.45,4.45,20.3,6.41,1.75.5,3.9.08,6.88.09-.64-1.89-.68-3.27-1.35-3.75-4.36-3.07-8.11-7.06-13.84-8.12-2.12-.39-3.8-2-5.56-3.22-8.59-6-17.3-11.87-25.64-18.22-4.45-3.39-8.33-7.56-12.25-11.63a4.81,4.81,0,0,1-.83-4.18,111,111,0,0,1,6.49-16.11c4.4,3.41,8.27,6.51,12.26,9.46s7.82,6.38,13.84,5.33c1.39-2.74,0-3.39-1-4.14-6.62-5-11.5-12.17-18.86-16.3-2.63-1.48-2.57-3.55-.69-7.49,6.29-13.12,11.64-26.58,19.5-39.14,2.24-7.55,8.66-13,11.61-21.22a21.26,21.26,0,0,1,3,2.17c3.64,4,7.2,8,10.8,12a1.8,1.8,0,0,0,.64.49c11.71,4.8,21.59,13,35.21,14.26,2.06.18,4,.63,5.56-3.36-1.69-1.39-3.44-3-5.35-4.36-9.63-6.87-19.45-13.48-28.89-20.61-4.25-3.2-7.84-7.31-11.55-11.21-1.46-1.55-1.09-4,.47-6.33,3-4.44,6.18-8.78,9.22-13.07,4-.57,5.73,1.34,7,4,1.45,2.89,3.88,3.26,7.84,1.59-1.77-5.47-5.6-8.44-8.7-12.62,2.42-7.42,5.88-14.55,12.38-20.84,6.83,2.09,11.52,8.6,20.89,7.16-1.09-3.24-3.52-3.93-5.24-5.34s-3.54-2.44-5.24-3.77-3.6-3-5.69-4.82c1.32-2.31,2.23-4.2,3.41-5.9,4.33-6.24,8.77-12.4,13.13-18.61,2.89-4.12,6.08-8.06,7.68-12.91a17.21,17.21,0,0,1,2.8-4.58c6.6-8.69,11.29-18.26,16.09-27.83,4.14-8.26,8.62-16.4,12.87-24.62a8.89,8.89,0,0,0,.43-2.9c-10.73,15-21.19,30.2-32.25,44.94-10.82,14.42-22.23,28.39-33.41,42.54-6,7.64-12.23,15.15-18.19,22.85-9.71,12.56-19.54,25.05-28.89,37.9a412,412,0,0,0-55.35,103.85c-4.14,11.56-7.58,23.23-11.45,34.83-1.1,3.29-.78,5.87.61,8.1C1438.81,2145.63,1443.75,2152.18,1450.71,2156.51Z"/><path fill="#40947e" d="M1413.32,2602.93c1.06-4.62-.68-8.06-1.76-11.61a222.17,222.17,0,0,1-8-41.71c-.6-5.84-2-11.34-2.5-17.21-1.23-14.91-3.28-29.53-2.59-45.14,0-.52.6-1.17,1-2,4.37,1.87,8.71,3.84,13.15,5.58a109.49,109.49,0,0,0,12.28,4.32,186,186,0,0,0,33.26,5.18c4.53.33,9.37-.28,14.11-.74a4.72,4.72,0,0,0,2.8-2.36,2.75,2.75,0,0,0-1.32-2.7c-3.48-1.46-7.1-2.67-10.73-3.84-9.35-3-19-5.51-28-9.05-5.76-2.26-11.88-4-16.74-7.95-1.84-1.49-4.39-2-6.47-3.22-3.71-2.14-7.58-4.11-10.89-6.79-3-2.42-2.56-6.66-.89-11.8,6.57.51,9.4,6.61,15.43,7.27,5.6.61,10.63,2.93,16.21,3.59,5.74.68,11.31,2.42,18.51.74-.65-1.37-.75-2.39-1.28-2.6-7-2.77-14.22-5.26-21.19-8.15-5.23-2.17-10.2-4.82-15.28-7.25l-11.9-5.66c.19-3.49.38-7,.62-11.34,2.3.57,4.06.9,5.7,1.45,2.06.69,4,1.66,6,2.32a28.14,28.14,0,0,0,5.67,1.29c1.83.18,3.74,1.35,6-1.66-3.14-1.9-6.28-3.72-9.33-5.67s-5.56-4.13-9.34-4.68c-3.1-.45-4.21-2.82-3.58-6.8,1.52-9.57,2.69-19.1,4.07-28.66a18.46,18.46,0,0,1,1.29-3.27c17.67,16.64,39.63,24.71,64.61,27,3.1.28,6.36,1.47,10.83-1.65l-8.61-3.77c-5.92-2.58-11.87-5.1-17.73-7.78a36.41,36.41,0,0,1-5.49-3.37q-11.23-7.86-22.39-15.82c-3-2.17-6.08-4.26-8.24-7.65-1.6-2.49-4.4-3.93-6.83-5.6a6.42,6.42,0,0,1-2.89-6.81q3.85-24.29,8-48.59a18.7,18.7,0,0,1,1.67-3.88l-20.78-2.19a26.65,26.65,0,0,0-1.4,4.29c-6.19,39.1-12.72,78.24-16.09,117-3.25,37.35-1.26,72.7,6.51,106,5.73,24.58,13.84,47.64,22.71,70.23A14.19,14.19,0,0,0,1413.32,2602.93Z"/><path fill="#6fc183" d="M1423,2296.46a5.33,5.33,0,0,1-1.22-5c1.13-6.59,2-13.16,3.18-20.57,1.73.2,3.17,0,4.19.54,12,6.14,25.19,9.82,39.15,11.79a107.31,107.31,0,0,0,27.77.23,7.57,7.57,0,0,0,2.66-.93A3.15,3.15,0,0,0,1500,2281a1.85,1.85,0,0,0-.28-1.63,4.69,4.69,0,0,0-2.12-1.07,181.44,181.44,0,0,1-33.3-11c-7.44-3.17-14.93-6.17-21.87-10.21-4.1-2.39-8.87-3.73-12.8-5.32-1.26-4.14.33-7.87,1.16-11.48l-18.62-9.15a40.08,40.08,0,0,0-1.75,5.2c-2.43,13.87-4.68,27.73-7.2,41.62-.73,4-.27,6.94,2.5,8.76,4.25,2.8,8.33,5.84,12.64,8.54C1419.63,2296.07,1421.45,2296.08,1423,2296.46Z"/><path fill="#6fc183" d="M1437.68,2208.37c2-9.52,4-19,6.23-28.57.6-2.52,2.26-5.05,3.43-7.58-3.63-1.72-7.38-3.26-10.88-5.2-3.22-1.78-6.19-4-9.36-6-2.6,5.77-6.07,17.88-6.06,21.17a7.52,7.52,0,0,0,.64,3.51C1426.39,2193.81,1430.72,2202.35,1437.68,2208.37Z"/><path fill="#40947e" d="M1441.75,2685.75c-4,.84-7.59-2.06-11.06-4.42-15.85-10.8-32-21.22-47.38-32.71a878.25,878.25,0,0,1-95.4-82.6c-85.31-85.06-148.48-179.71-186.42-284.78-11.56-32-21.51-64.11-32-96.17-12.08-36.76-25.44-73.34-44.37-109.28-15.39-29.22-33.49-57.42-52.1-85.47-11-16.57-21.56-33.32-32.28-50-1.23-1.91-2.18-3.93-3.06-5.55,1.6-3.45,5.06-2.26,7.77-2.15,17.74.7,31.63-5.52,44.84-13,1.47-.83,3-2.11,1.07-5.73-6-1.84-10.25,1.78-15.72,1.88s-10.62.45-16.06.17a176.63,176.63,0,0,1-17.79-1.86c-5.51-.85-11.1-2.25-17.31-3.54A291,291,0,0,1,902,1856.25c5.22-.68,10,1.63,14.53,2.84q40.32,10.68,75.48,2.22c5.27-1.28,10.31-3,15.4-4.62,2.15-.68,4.83-1.45,3.15-4.69-1.34-2.59-3.9-2.1-5.78-1.75-10.21,1.89-21.2.63-32.37-1.06-23.44-3.54-46.48-12.4-69.41-23.39-1.68-.81-3.34-1.75-5-2.72-3.55-2.1-5.89-4.84-6.37-8.66-.72-5.82-1.73-11.69-2.33-17.49-3.74-36.32-.92-70.55,4.92-103.78a772.52,772.52,0,0,1,21.57-91.26,159.53,159.53,0,0,1,8.52-23c2.52-5.22,6.34-9.66,10.15-13.93,3.28-3.66,8.15-4.83,14.36-2.58l-.16,1c-3.11,2.94-1.6,7.5-.23,11.56,6.92,20.59,13.12,41.24,22.36,61.68,2.14,4.73,4.79,9.66,4.85,14.45-4.43.55-8.93-4.49-13.14-2.09,5.28,6.41,12,5.43,17.72,8.94,2.12,5.2,4.24,10.43,6.58,16.18-19-3-35.61-14.16-54.17-23.2,17.81,19.48,37.37,29.45,58.27,34.1,9.48,15.3,23.85,44.69,26.12,53.25a7.26,7.26,0,0,1-2.37.08c-23.79-6.49-47.35-14.63-70.28-27.69-1.52-.87-4-2.81-5.06-.18,8.81,10.44,20.57,16,31.4,22.45,10.49,6.19,21.61,12,33,14.14,6.72,1.24,13.36,1.75,20.22,2.61,5.78,10.48,11.65,21.06,17.44,31.66s12.13,21.14,17.07,31.91,13.27,20.53,16.61,32.46c-13.08.83-26.71-3.22-40.16-2.65,5,5.94,10.16,7.24,15.15,7.74,8,.81,16,1.17,23.86,1.48,4.95.2,6.89,1.16,9.65,6.23,6.45,11.85,12.72,23.74,19.12,35.6,4,7.35,8.21,14.63,12,22,5.76,11.11,11.44,22.25,16.8,33.45,1.71,3.58,2.3,7.39,3.48,11.31-6.81,3.4-14.35,4.37-21.5,5.94-19.49,4.25-39.94,6-61.88,2.82-9.73-1.39-19.69-4.25-29.52-6.24-2.19-.44-5.36-2.3-6.1,1,2.43,3.83,6.21,4.5,9.45,5.51,11.59,3.61,23.21,7.14,34.81,10.18,18.31,4.8,35.51,4.61,52.47,3.25a61.41,61.41,0,0,0,27-8.49c.49-.29,1.63.27,3.12.55,8.08,12,11.81,25,18.3,38.46-12.27,1.16-23.41,3.12-35.47,2.74-1.73-.06-3,.63-2.24,3.49,15.1,6.22,27.44.81,41.9.88,2.63,10.92,12.19,20.58,11.15,31.08a17.9,17.9,0,0,1-3.68,1.3c-19.46,2.13-38.71,4.93-59.88,1.8-3.85-.57-7.67-.95-11.46-1.21-1.37-.09-3.76-1-2.88,2.57,9.26,2.34,18.71,5.26,28,6.93,9.82,1.77,19.72,3,28.79,1.54,8.46-1.35,16.69-3.22,25.61-5,4.81,8.56,9.52,16.82,8.36,24.67-40.15,9.75-82.25,4.8-127.91-13.78,5.77,6.17,5.81,6.07,11.76,9.57,19.59,11.54,39.83,18.15,60,22.06,22.58,4.36,43.15,2.35,61.46-6.46,1.74,3.21,3.42,5.59,4.26,8q6.51,18.9,12.65,37.82c6.93,21.42,13.69,42.85,20.53,64.28,2.82,8.83,5.78,17.65,8.45,26.48,1.86,6.14.52,7.75-5.4,8.82-17.12,3.09-34.8,4.15-53.88,1.08a202.77,202.77,0,0,1-39.9-10.39c-3-1.14-6-2.54-9-3.38-2.2-.62-4.26-.36-3.53,2.65,16.23,10.24,42.19,20,58.54,22.21,18.39,2.49,36.66,4.72,52.38-1.31,1.56-.59,3.87,0,5.78.07,4.06,5.39,5.12,10.55,6.84,15.49,7.74,22.25,15,44.53,22.87,66.78,6.09,17.24,12.83,34.43,19.23,51.65,1.53,4.12,2.85,8.25,4.32,12.5-8.57,3.57-17.82,4.24-26.86,5.43-9.62,1.27-19.88-.35-30-1.46-9.75-1.07-19.43-1.68-29.49-5.27s-19.93-6.95-29.89-10.41a13.34,13.34,0,0,0,5.15,5.63,216.23,216.23,0,0,0,58.54,23.15c19.88,4.74,37,3.86,52.32-3.18,1-.45,2.24-.42,4.09-.74,5.28,8.31,9.57,16.56,10.88,25.58-3.5.53-6.5,1.29-9.71,1.38-3.67.11-7.57-.51-11.3-.58-3.3,0-6.45.45-9.77.31-5.87-.24-5.9-.36-9.35,1.32,7.37,4.94,14.54,4.58,21.62,5.24,7.48.7,14.81.69,22.91,1,4.72,10.22,9.64,19.66,13.33,29.22s9.7,18.63,12,28.67c-8.51-.11-16.28,0-24.17-.36-14.75-.65-29.77-4.08-44.92-9.23a40.41,40.41,0,0,0-12.21-2.48c10.62,8.11,20.56,11.39,30.24,15.42,9.45,3.93,18.81,5.76,28.29,7.17,9.82,1.47,18.66,0,28.62-.2,4.42,9.84,7.93,19.13,12.75,28.06,13.48,25,23.73,50.6,37.56,75.53,9.25,16.69,18.34,33.44,27.87,50C1431.05,2674.62,1435.44,2680.85,1441.75,2685.75Z"/><path fill="#40947e" d="M948.83,1562.36c5.94.79,10.81,4.62,15.42,8.88,11.61,10.72,23.28,21.4,32.82,34,.44,1.24.54,2.69,1.35,3.69,7.83,9.63,15.94,19.09,23.63,28.79,8.91,11.25,17.69,22.53,28.74,32.12a23.34,23.34,0,0,1,4.92,5.25c3.43,5.93,8.7,10.23,13.62,14.85,7.42,7,14.93,13.83,22.32,20.83,2,1.91,3.72,4.14,6.09,6.82-2.26,2.91-4.12,5.47-6.15,7.88-1.86,2.2-4,4.14-5.84,6.38s-4.88,3.88-5.42,8.44c12.69-.67,17.07-10.5,25.46-15.1,10.24,6.47,16.74,14.88,21.94,24-2.91,6.33-7.13,11.27-8,18.94,5.66,1.11,8.74,0,9.85-4.23,1-3.77,2.81-6.77,8.15-7.11,5.16,4.8,10.51,9.63,15.68,14.63,2.68,2.6,3.85,5.76,2.35,8.18-3.8,6.14-7.39,12.51-12.08,17.87-10.44,11.94-21.53,23.29-32.28,34.94-2.14,2.31-4,4.89-5.83,7.18,3.14,4.81,5.56,3.69,8.21,2.89,17.55-5.3,28.26-18.83,42.31-28.33a2.41,2.41,0,0,0,.71-.81c3.62-6.25,7.19-12.53,10.87-18.73.67-1.13,1.76-2,3.37-3.68,6.12,9.94,16,15.38,21,24.67,13.77,14.34,24.47,30.54,36.31,46,3.55,4.64,4.19,7.35,1.14,10-8.51,7.43-13,18.17-20.28,26.54-1.09,1.26-2.77,2.5-.19,5.7,8.18-.26,12.25-5.79,16.7-10.77s8.66-10.09,13.5-15.75a147.74,147.74,0,0,1,12.92,19.36,6.43,6.43,0,0,1,.06,5.72c-4,6.4-8,12.94-12.89,18.6-9.21,10.61-19,20.68-28.67,30.92-2,2.09-3.74,4.65-6.41,5.74-7.23,2.95-11,9.21-15.93,14.44-.76.81-.42,2.63-.75,5.29,3.91-.83,6.85-.87,9-2,8.45-4.45,16.82-9,24.88-14a93,93,0,0,0,13.8-10.4c4.53-4.12,8.44-8.87,12.63-13.35,4.68-5,9.25-10.09,14.07-15,2.68-2.7,5.87-1.74,8.25,2.49,8.7,15.42,17.25,30.89,25.85,46.35-.71,4.42-3.65,7-6.71,9.62q-7.85,6.61-15.47,13.47c-1,.9-1.53,2.29-2.82,4.31,2.7,1,5,2.66,6.34,2.35a120.89,120.89,0,0,0,15.26-4.61c4.2-1.55,8.09-3.62,12.11-5.45,2.23,3,5.11,5.87,6.58,9,5.58,11.89,10.7,23.86,16,35.79-.63,1.75-.92,3.75-1.92,5.19-14,20.19-29.19,39.18-53.7,48.67a14.23,14.23,0,0,0-2.58,1.64c0,3.74,2.35,4.91,5.17,4.86,16.05-.31,31.1-2.83,44.61-8.54,8.88-3.75,17.5-7.87,26.24-11.82,2.07,4.52,5.18,9,4.66,14.75-4.72,3.16-10.61,6.22-15.34,10.47-8,7.21-17,13.19-25.9,19.38-12.78,8.89-26.08,17-40.7,23.48a6.22,6.22,0,0,0-2.49,2,2.49,2.49,0,0,0,.07,2.22,4.3,4.3,0,0,0,2,1.75,10.13,10.13,0,0,0,3.75.49,143.42,143.42,0,0,0,36.38-7.89c17.77-6.38,34-14.82,48.14-26.16,1.2-1,3.14-1.12,5.35-1.85,3.51,9.41,6.52,17.78,9.8,26.12,1.1,2.8,1,4.93-.23,6.88a42.31,42.31,0,0,0-3.75,3.83c-1.7,2.2-.39,4.63,3,5.5,2.12.56,4.24.75,6.36,1.1,1.11,1.54,2.63,3,3.25,4.63q12,30.78,23.77,61.59a8.6,8.6,0,0,1-1.94,9.73c-2.73,2.86-6,5.52-7.42,9.21-1.92,5-5.33,8.61-8.73,12.3q-12.45,13.5-25,26.87a48.16,48.16,0,0,1-6.28,5.92c-7,5.12-14.08,10-21.13,15.06l-10.28,7.29c6.72,2.87,10.68.42,14.66-.79,32.17-9.82,58.77-26.4,77.41-53.07,1.17,1.74,2.18,2.82,2.59,4,4.42,12.16,8.57,24.35,13.19,36.5,1.92,5,1.1,8.45-2.84,9.89-4.81,1.76-7.64,5.44-11,8.7s-7.09,6.64-10.69,10c3.8,3.32,6,1.27,8.34.53a36.78,36.78,0,0,0,7.09-3.24c2.53-1.43,4.79-3.23,7.3-4.7,2-1.17,4.22-2.08,7.09-3.46,1.51,5.68,2.71,10.19,3.92,14.72-4.93,3.74-9.51,7.2-14.07,10.67-6,4.58-11.81,9.42-18.07,13.69-8.36,5.7-17.1,10.93-25.58,16.48-.64.42-.49,1.79-1,3.77,9.91.24,16.74-3.56,24.09-6,7.15-2.4,13.12-6.81,20.3-9.14,7.73-2.51,9.76-11.29,18.26-13.75,3.6,6.29,5.29,11.74,2,15.72-3.61,4.43-8.14,8.07-12.43,11.89-2.4,2.14-5.6,3.53-7.6,6-5.3,6.5-12.86,10.47-19.8,15-10.93,7.13-22.85,13-34.3,19.54-4.44,2.52-8.85,5.1-13,8a3.68,3.68,0,0,0-1,3.9,6.32,6.32,0,0,0,4.33,2.34c6.35-.69,12.85-1.21,18.71-2.88a247.7,247.7,0,0,0,42.23-15.89,145.67,145.67,0,0,0,14.93-9c5.36-3.51,10.51-7.27,15.74-10.92.76.91,1.69,1.61,1.86,2.29,5.19,20.29,6.49,40,9,59.94,1,7.83.61,15.44,1.42,23.26a297.21,297.21,0,0,1,.87,56.94c-.44,5-1.79,9.94.87,15.71-.94,6.87-1.81,13.76-2.82,20.6q-6.66,45.22-13.43,90.41c-.4,2.64-1.2,5.12-1.82,7.67-8.73-10.94-14.94-22.92-21.19-34.67-17.44-32.81-34-65.84-51-98.78-1.48-2.88-3-5.76-4.33-8.68-8.36-18.73-16.82-37.45-24.93-56.22-9.73-22.52-19.63-45-28.59-67.64-24.25-61.17-45.75-122.55-66.26-184-6.88-20.6-14.22-41.17-21.32-61.76-10-29-20.13-58-31.35-86.91-13.72-35.37-31.66-69.88-47.64-104.78-5.31-11.61-12.34-22.9-18.14-34.44-11-21.87-22.51-43.57-35-65-14.33-24.66-28.23-49.45-42.16-74.24-11.41-20.31-22.92-40.6-33.8-61.07-9.6-18-18.54-36.28-27.48-54.5-5.06-10.32-9.93-20.73-14.19-31.18-9.23-22.59-18-45.24-27-67.86-1.49-3.75-2.72-7.63-6.33-10.67Z"/><path fill="#2e6857" d="M948.67,1563.4c3.61,3,4.84,6.92,6.33,10.67,9,22.62,17.75,45.27,27,67.86,4.26,10.45,9.13,20.86,14.19,31.18,8.94,18.22,17.88,36.45,27.48,54.5,10.88,20.47,22.39,40.76,33.8,61.07,13.93,24.79,27.83,49.58,42.16,74.24,12.47,21.47,24,43.17,35,65,5.8,11.54,12.83,22.83,18.14,34.44,16,34.9,33.92,69.41,47.64,104.78,11.22,28.94,21.34,57.91,31.35,86.91,7.1,20.59,14.44,41.16,21.32,61.76,20.51,61.45,42,122.83,66.26,184,9,22.61,18.86,45.12,28.59,67.64,8.11,18.77,16.57,37.49,24.93,56.22,1.3,2.92,2.85,5.8,4.33,8.68,16.92,32.94,33.52,66,51,98.78,6.25,11.75,12.46,23.73,21.19,34.67-.33,5.27-.36,10.66-1.11,15.76-.44,3-2.39,5.11-6.44,4.15-6.31-4.9-10.7-11.13-14.43-17.65-9.53-16.61-18.62-33.36-27.87-50-13.83-24.93-24.08-50.57-37.56-75.53-4.82-8.93-8.33-18.22-12.75-28.06-10,.2-18.8,1.67-28.62.2-9.48-1.41-18.84-3.24-28.29-7.17-9.68-4-19.62-7.31-30.24-15.42a40.41,40.41,0,0,1,12.21,2.48c15.15,5.15,30.17,8.58,44.92,9.23,7.89.35,15.66.25,24.17.36-2.3-10-8.35-19.22-12-28.67s-8.61-19-13.33-29.22c-8.1-.34-15.43-.33-22.91-1-7.08-.66-14.25-.3-21.62-5.24,3.45-1.68,3.48-1.56,9.35-1.32,3.32.14,6.47-.36,9.77-.31,3.73.07,7.63.69,11.3.58,3.21-.09,6.21-.85,9.71-1.38-1.31-9-5.6-17.27-10.88-25.58-1.85.32-3.13.29-4.09.74-15.35,7-32.44,7.92-52.32,3.18a216.23,216.23,0,0,1-58.54-23.15,13.34,13.34,0,0,1-5.15-5.63c10,3.46,19.94,6.85,29.89,10.41s19.74,4.2,29.49,5.27c10.17,1.11,20.43,2.73,30,1.46,9-1.19,18.29-1.86,26.86-5.43-1.47-4.25-2.79-8.38-4.32-12.5-6.4-17.22-13.14-34.41-19.23-51.65-7.86-22.25-15.13-44.53-22.87-66.78-1.72-4.94-2.78-10.1-6.84-15.49-1.91-.05-4.22-.66-5.78-.07-15.72,6-34,3.8-52.38,1.31-16.35-2.21-42.31-12-58.54-22.21-.73-3,1.33-3.27,3.53-2.65,3,.84,6,2.24,9,3.38a202.77,202.77,0,0,0,39.9,10.39c19.08,3.07,36.76,2,53.88-1.08,5.92-1.07,7.26-2.68,5.4-8.82-2.67-8.83-5.63-17.65-8.45-26.48-6.84-21.43-13.6-42.86-20.53-64.28q-6.11-18.91-12.65-37.82c-.84-2.42-2.52-4.8-4.26-8-18.31,8.81-38.88,10.82-61.46,6.46-20.2-3.91-40.44-10.52-60-22.06-6-3.5-6-3.4-11.76-9.57,45.66,18.58,87.76,23.53,127.91,13.78,1.16-7.85-3.55-16.11-8.36-24.67-8.92,1.75-17.15,3.62-25.61,5-9.07,1.45-19,.23-28.79-1.54-9.32-1.67-18.77-4.59-28-6.93-.88-3.58,1.51-2.66,2.88-2.57,3.79.26,7.61.64,11.46,1.21,21.17,3.13,40.42.33,59.88-1.8a17.9,17.9,0,0,0,3.68-1.3c1-10.5-8.52-20.16-11.15-31.08-14.46-.07-26.8,5.34-41.9-.88-.8-2.86.51-3.55,2.24-3.49,12.06.38,23.2-1.58,35.47-2.74-6.49-13.44-10.22-26.5-18.3-38.46-1.49-.28-2.63-.84-3.12-.55a61.41,61.41,0,0,1-27,8.49c-17,1.36-34.16,1.55-52.47-3.25-11.6-3-23.22-6.57-34.81-10.18-3.24-1-7-1.68-9.45-5.51.74-3.28,3.91-1.42,6.1-1,9.83,2,19.79,4.85,29.52,6.24,21.94,3.13,42.39,1.43,61.88-2.82,7.15-1.57,14.69-2.54,21.5-5.94-1.18-3.92-1.77-7.73-3.48-11.31-5.36-11.2-11-22.34-16.8-33.45-3.83-7.39-8.07-14.67-12-22-6.4-11.86-12.67-23.75-19.12-35.6-2.76-5.07-4.7-6-9.65-6.23-7.91-.31-15.85-.67-23.86-1.48-5-.5-10.16-1.8-15.15-7.74,13.45-.57,27.08,3.48,40.16,2.65-3.34-11.93-11.72-21.79-16.61-32.46s-11.27-21.3-17.07-31.91-11.66-21.18-17.44-31.66c-6.86-.86-13.5-1.37-20.22-2.61-11.39-2.1-22.51-8-33-14.14-10.83-6.4-22.59-12-31.4-22.45,1.06-2.63,3.54-.69,5.06.18,22.93,13.06,46.49,21.2,70.28,27.69a7.26,7.26,0,0,0,2.37-.08c-2.27-8.56-16.64-38-26.12-53.25-20.9-4.65-40.46-14.62-58.27-34.1,18.56,9,35.21,20.16,54.17,23.2-2.34-5.75-4.46-11-6.58-16.18-5.73-3.51-12.44-2.53-17.72-8.94,4.21-2.4,8.71,2.64,13.14,2.09-.06-4.79-2.71-9.72-4.85-14.45-9.24-20.44-15.44-41.09-22.36-61.68C947.07,1570.9,945.56,1566.34,948.67,1563.4Z"/><path fill="#2e6857" d="M1296.11,1971.54c-8.6-15.46-17.15-30.93-25.85-46.35-2.38-4.23-5.57-5.19-8.25-2.49-4.82,4.87-9.39,10-14.07,15-4.19,4.48-8.1,9.23-12.63,13.35a93,93,0,0,1-13.8,10.4c-8.06,4.95-16.43,9.51-24.88,14-2.15,1.13-5.09,1.17-9,2,.33-2.66,0-4.48.75-5.29,4.88-5.23,8.7-11.49,15.93-14.44,2.67-1.09,4.45-3.65,6.41-5.74,9.63-10.24,19.46-20.31,28.67-30.92,4.9-5.66,8.85-12.2,12.89-18.6a6.43,6.43,0,0,0-.06-5.72,147.74,147.74,0,0,0-12.92-19.36c-4.84,5.66-9.07,10.8-13.5,15.75s-8.52,10.51-16.7,10.77c-2.58-3.2-.9-4.44.19-5.7,7.32-8.37,11.77-19.11,20.28-26.54,3-2.66,2.41-5.37-1.14-10-11.84-15.51-22.54-31.71-36.31-46-5-9.29-14.92-14.73-21-24.67-1.61,1.72-2.7,2.55-3.37,3.68-3.68,6.2-7.25,12.48-10.87,18.73a2.41,2.41,0,0,1-.71.81c-14.05,9.5-24.76,23-42.31,28.33-2.65.8-5.07,1.92-8.21-2.89,1.84-2.29,3.69-4.87,5.83-7.18,10.75-11.65,21.84-23,32.28-34.94,4.69-5.36,8.28-11.73,12.08-17.87,1.5-2.42.33-5.58-2.35-8.18-5.17-5-10.52-9.83-15.68-14.63-5.34.34-7.15,3.34-8.15,7.11-1.11,4.19-4.19,5.34-9.85,4.23.83-7.67,5-12.61,8-18.94-5.2-9.08-11.7-17.49-21.94-24-8.39,4.6-12.77,14.43-25.46,15.1.54-4.56,3.54-6.13,5.42-8.44s4-4.18,5.84-6.38c2-2.41,3.89-5,6.15-7.88-2.37-2.68-4.08-4.91-6.09-6.82-7.39-7-14.9-13.87-22.32-20.83-4.92-4.62-10.19-8.92-13.62-14.85a23.34,23.34,0,0,0-4.92-5.25c-11-9.59-19.83-20.87-28.74-32.12-7.69-9.7-15.8-19.16-23.63-28.79-.81-1-.91-2.45-1.35-3.69,18.18,16.75,36.07,33.84,54.61,50.16,18.15,16,37,31.2,55.49,46.7,10,8.38,20.2,16.55,30.13,25,16.19,13.83,32.51,27.54,48.29,41.84,39.87,36.16,73.74,76.53,101.07,121.18,8.59,14,16.29,28.4,24.55,42.57,2.34,4,2.63,7.49,1.41,10.79C1308.74,1954,1304.06,1964,1296.11,1971.54Z"/><path fill="#2e6857" d="M1467.37,2547.16c-2.66-5.77-1.31-10.76-.87-15.71a297.21,297.21,0,0,0-.87-56.94c-.81-7.82-.45-15.43-1.42-23.26-2.48-19.91-3.78-39.65-9-59.94-.17-.68-1.1-1.38-1.86-2.29-5.23,3.65-10.38,7.41-15.74,10.92a145.67,145.67,0,0,1-14.93,9,247.7,247.7,0,0,1-42.23,15.89c-5.86,1.67-12.36,2.19-18.71,2.88a6.32,6.32,0,0,1-4.33-2.34,3.68,3.68,0,0,1,1-3.9c4.17-2.86,8.58-5.44,13-8,11.45-6.5,23.37-12.41,34.3-19.54,6.94-4.53,14.5-8.5,19.8-15,2-2.46,5.2-3.85,7.6-6,4.29-3.82,8.82-7.46,12.43-11.89,3.24-4,1.55-9.43-2-15.72-8.5,2.46-10.53,11.24-18.26,13.75-7.18,2.33-13.15,6.74-20.3,9.14-7.35,2.47-14.18,6.27-24.09,6,.48-2,.33-3.35,1-3.77,8.48-5.55,17.22-10.78,25.58-16.48,6.26-4.27,12.06-9.11,18.07-13.69,4.56-3.47,9.14-6.93,14.07-10.67-1.21-4.53-2.41-9-3.92-14.72-2.87,1.38-5.08,2.29-7.09,3.46-2.51,1.47-4.77,3.27-7.3,4.7a36.78,36.78,0,0,1-7.09,3.24c-2.35.74-4.54,2.79-8.34-.53,3.6-3.35,7.22-6.6,10.69-10s6.17-6.94,11-8.7c3.94-1.44,4.76-4.84,2.84-9.89-4.62-12.15-8.77-24.34-13.19-36.5-.41-1.13-1.42-2.21-2.59-4-18.64,26.67-45.24,43.25-77.41,53.07-4,1.21-7.94,3.66-14.66.79l10.28-7.29c7-5,14.17-9.94,21.13-15.06a48.16,48.16,0,0,0,6.28-5.92q12.58-13.38,25-26.87c3.4-3.69,6.81-7.26,8.73-12.3,1.41-3.69,4.69-6.35,7.42-9.21a8.6,8.6,0,0,0,1.94-9.73q-11.71-30.81-23.77-61.59c-.62-1.59-2.14-3.09-3.25-4.63l26.67-8.55a36.73,36.73,0,0,1,3,5.25c18.82,49.62,38.1,99.2,53.12,149.09,14.5,48.13,21.55,95.06,20.48,140.87-.8,33.82-5.13,66.3-10.59,98.36A19.16,19.16,0,0,1,1467.37,2547.16Z"/><path fill="#2e6857" d="M1370.74,2147.64c1.19-1.95,1.33-4.08.23-6.88-3.28-8.34-6.29-16.71-9.8-26.12-2.21.73-4.15.89-5.35,1.85-14.11,11.34-30.37,19.78-48.14,26.16a143.42,143.42,0,0,1-36.38,7.89,10.13,10.13,0,0,1-3.75-.49,4.3,4.3,0,0,1-2-1.75,2.49,2.49,0,0,1-.07-2.22,6.22,6.22,0,0,1,2.49-2c14.62-6.46,27.92-14.59,40.7-23.48,8.89-6.19,17.89-12.17,25.9-19.38,4.73-4.25,10.62-7.31,15.34-10.47.52-5.77-2.59-10.23-4.66-14.75,7.06-5.51,14.13-11,21.93-17.08,1.59,2.66,3,4.46,3.72,6.33,7,17.55,13.73,35.12,20.84,52.65,2.06,5.08,2.26,9-.89,12.19-4.81,4.83-9.33,9.93-14.24,14.65C1375.1,2146.19,1372.71,2146.71,1370.74,2147.64Z"/><path fill="#2e6857" d="M1327.4,2036c-5.3-11.93-10.42-23.9-16-35.79-1.47-3.14-4.35-6-6.58-9,4.31-3.25,8.79-6.3,12.86-9.79,3.75-3.21,7-6.91,10.64-10.49,5,6.86,12.85,21.81,13.74,26.13a10.13,10.13,0,0,1,.13,4.78C1338.22,2013.85,1334.89,2026.23,1327.4,2036Z"/><path fill="#40947e" d="M1207.61,2630.43l-3.54-6.27c-5.21-3-10.39-6-15.64-9-11.61-6.48-23.13-13.14-34.91-19.3q-33.42-17.48-68.4-31.67c-17-6.93-34.19-13.34-51.36-19.81-9.72-3.65-19.59-6.94-29.47-10.13q-16.24-5.25-32.63-10-19.59-5.61-39.31-10.7c-12.19-3.13-24.45-6-36.71-8.82-5.65-1.32-11.36-2.39-17.06-3.46-7.12-1.34-14.26-2.54-21.39-3.86-5.46-1-10.89-2.24-16.37-3.15-8.34-1.39-16.71-2.54-25.05-3.88-10.74-1.72-21.43-3.68-32.19-5.25-15.3-2.23-30.63-4.16-46-6.28-11.49-1.58-22.93-3.5-34.45-4.81-12.26-1.41-24.38-3.52-36.47-5.89-5.46-1.07-10.87-2.38-16.35-3.28-12.66-2.08-25.06-5.35-37.52-8.31a216.26,216.26,0,0,1-25.72-7.7c-7.48-2.79-15-5.34-22.18-8.89l-4.75-2.42c-4.55,4.09-4.28,9.19-1.88,13.87A220,220,0,0,0,570.43,2472c3.29,5,7.25,9.61,10.93,14.37,6.77,8.76,13.23,17.74,21,25.73,3.49,3.59,6,8.11,9.21,12,5.36,6.49,10.76,13,17.23,18.45a6.34,6.34,0,0,0,1.13-.91c8.94-11.38,18.27-22.47,25.9-34.83.48-.77.74-2.39,2.41-1.48-4.79,16-14.36,28.79-26,40.28,5.27,6.65,11.37,12.3,19.11,16,3.48-3.62,6.85-7.36,10.48-10.83s5.12-8.6,10.75-10.71c0,1.43.36,2.46,0,3.17a62.34,62.34,0,0,1-4.43,8.21,117.68,117.68,0,0,1-7.49,9.63A3.31,3.31,0,0,0,660,2565a18.65,18.65,0,0,0,15.32-4.82c5.58-4.81,10-10.45,14.34-16.28,2.88-3.88,5.42-8,8.17-12,.93-1.34,2-2.54,3.19-4,1.78,1.58.61,2.91.19,4a232.18,232.18,0,0,1-11.8,26.5,74.7,74.7,0,0,0-4.47,10.69c-1.88,5.58-1.09,10.53,4.35,13.92.39-.28.91-.48,1.15-.86,3.26-5.06,6.42-10.18,9.72-15.22,10.1-15.41,17.55-32.06,23.49-49.44.26-.74.13-2.07,1.62-1.76,1.27,2.87.47,5.65-.28,8.42-1.75,6.53-3.36,13.1-5.33,19.56-3.81,12.52-9,24.37-17.52,34.55-2.09,2.5-4.72,5-4.48,8.81a22.53,22.53,0,0,0,9.89,1.94,15.46,15.46,0,0,0,12.09-5.68,58.3,58.3,0,0,0,5.68-8.36c2.69-4.82,5.07-9.81,7.58-14.74,2,.73,1.45,2.2,1.29,3.14-.62,3.57-1.52,7.1-2.24,10.65-.68,3.32-1.46,6.63-1.85,10-.54,4.68,1.69,7.93,6.09,9.44a11.34,11.34,0,0,0,2.1.59c8.15,1.08,16.31,1.87,24.53.79a41.07,41.07,0,0,1,2.36-4.39c1.5-2.18,3.28-4.17,4.78-6.35,8.36-12.21,15-25.36,20.86-38.9,1.82-4.2,3.59-8.42,5.42-12.61.32-.72.46-2,2.07-1a17.48,17.48,0,0,1-.37,2.7c-2.45,8.33-4.38,16.78-7.56,25-4.3,11.06-8.85,21.91-15.48,31.81-.89,1.32-1.11,3.08-1.64,4.64l31.44,2.43c2-3,4.29-5.8,6-8.93,4.69-8.41,8-17.46,11.49-26.4.41-1,.54-2.47,2.37-1.93a18.24,18.24,0,0,1-.09,9.28c-2.36,7.82-3.56,16-7.22,23.43-.92,1.87-1,4.17-1.41,6.27l9.25,1.51a10.62,10.62,0,0,0,1.89-2.16,168.38,168.38,0,0,0,10.35-25.43c2.43-8.11,4.46-16.34,6.76-24.49.35-1.23.27-3.12,3-2.82.2,1,.5,2.06.62,3.17,1,9.76-1.24,19.22-3.1,28.66a76,76,0,0,1-7.36,21.14c-.86,1.61-1.18,3.16-.13,4.78,6,1.54,12,3.1,18.08,4.61,2.31.58,4.65,1.07,7,1.6,3.43-6.47,5.94-13.41,9.93-19.72a4,4,0,0,1,.44,2.66c-1.12,4.68-2.29,9.33-4.64,13.62-.88,1.59-2.25,3.3-1,5.37,6.58,2.3,13.14,4.66,19.75,6.88,16,5.38,31.42,12.08,46.89,18.74,2.86,1.23,5.77,2.35,8.66,3.52a11.14,11.14,0,0,0,1.93-2.09c3.25-6.14,6.39-12.34,9.63-18.49a33.24,33.24,0,0,1,2.27-3.33c.56.48.85.6.87.76a6.69,6.69,0,0,1,.06,2.09c-1.53,6.56-3.31,13-7,18.78-1.06,1.64-2.13,3.27-1.13,5.34l14.2,6.74c1.18-1.14,2.75-2.09,3.48-3.47,3.69-7,7.43-14.08,10.66-21.34a290,290,0,0,0,12.84-33,23.16,23.16,0,0,1,1.05-2.47c.5.22.89.31.9.43a31.21,31.21,0,0,1,.34,5,129,129,0,0,1-11.92,45.23c-1.74,3.71-3.68,7.33-5.68,10.91a4.42,4.42,0,0,0-.37,4.12q16.1,8.17,32.19,16.33a10.17,10.17,0,0,0,2.79.56,42.76,42.76,0,0,1,1.49-4q5.78-11.67,11.64-23.29c.37-.74.51-2,2.37-1.13a47.29,47.29,0,0,1-.69,6.91c-1.53,6.33-3.17,12.65-6.53,18.37a56,56,0,0,0-2.88,6.58l24.36,12.66c1.06-.92,2.4-1.66,3.12-2.8a35.46,35.46,0,0,0,2.33-5.3c4.92-11.81,10.75-23.28,13.49-35.91a38.19,38.19,0,0,1,1.7-4.45c.75,2.21,1.45,3.27,1.4,4.3a67.74,67.74,0,0,1-1,11.5c-2.53,11.37-5.93,22.47-12.18,32.46a4.23,4.23,0,0,0-.38,4.12,434.42,434.42,0,0,0,47.61,21.06c.9-1.71,1.81-3.4,2.7-5.11,6.34-12.22,11.29-25.05,15.83-38,4.63-13.22,6.95-27.09,9.89-40.77a5.69,5.69,0,0,0,0-.72c.09-1.42-.11-3,1.6-3.67,1.16-.46,2.53,1.13,2.87,3.47.21,1.43.25,2.88.33,4.33.64,12.14-1.12,24.1-3.63,35.86-3.39,15.85-8.59,31.16-16.68,45.33a4.29,4.29,0,0,0-.38,4.11c9.38,3.39,18.68,7,28.56,8.86.93-1.35,2-2.65,2.78-4,1.94-3.27,3.75-6.62,5.71-9.87.42-.7,1.25-1.14,2.5-2.25.21,1.72.6,2.66.37,3.41-1,3.41-2.12,6.8-3.4,10.11a5.68,5.68,0,0,0,0,4.8c10,2.93,20.27,4.31,30.51,5.93,11.73,1.86,23.57,2.29,35.42,2.41a176.49,176.49,0,0,0,45.16-5.81c3.38-.85,4.48-2.55,3.58-5.8a29.36,29.36,0,0,0-2.52-6c-2.86-5.32-5.9-10.55-8.78-15.86q-13.59-25.17-27.13-50.37c-4.09-7.08-8.22-14.14-12.22-21.26C1207.68,2632.9,1207.79,2631.58,1207.61,2630.43Z"/><path fill="#40947e" d="M560.19,2437.59l4.75,2.42c.48-2,1.85-1.06,2.88-.8,22,5.7,43.77,12.65,66.19,16.88,8.3,1.57,16.59,3.2,24.89,4.77,4.27.8,8.55,1.52,12.84,2.27,5,.86,10,1.93,15,2.53,17,2.05,34.08,3.75,51.08,5.93,21.78,2.79,43.54,5.87,65.29,8.94,11.7,1.66,23.37,3.56,35,5.34,5.49.84,11,1.54,16.46,2.49s10.9,2.15,16.35,3.22c1.19.24,2.38.43,3.57.63,5.71,1,11.44,1.82,17.13,2.9,6.17,1.18,12.26,2.78,18.45,3.82,13.13,2.2,26.09,5.2,38.92,8.64,20.35,5.45,40.51,11.59,60.76,17.45a19,19,0,0,1,2.77.88c8.15,3.74,17,5.56,25.31,8.79,6.07,2.35,12.41,4,18.52,6.32,7.9,3,15.67,6.27,23.52,9.36,9.66,3.81,19.46,7.26,29,11.4,12.17,5.3,24.2,10.94,36.13,16.78,14.54,7.13,28.85,14.73,42.82,22.93a23.38,23.38,0,0,0,3.35,1.17,28.32,28.32,0,0,0-3.43-7.06q-17.1-30-34.24-60l-8.07-13.68a6.25,6.25,0,0,1-1.38-.38c-10.22-5.48-20.29-11.24-30.66-16.42-16-8-32.15-15.58-48.25-23.34-1.1-.52-2.22-1-3.73.24.06,1.35,0,3,.23,4.6,1,7.44,1.69,14.92.92,22.4-.63,6.14-2,12.12-6.54,18.1-.29-3.38-.54-5.71-.67-8.06-.76-13-1.44-26.1-2.27-39.14-.26-4.17-1.15-4.68-6.09-4.4-1.58,3.7,1.22,7.91-1.24,12.17-3-5.07-2-10.37-3.15-15.26l-16-6.73c-.29,8.45,1.45,16.25-.85,23.73s-2.91,15.47-8.33,23c-1.71-18.08-3.32-35.07-4.95-52.29-5.14-1.9-10.3-3.86-15.51-5.72-5.46-1.94-11.15-3.36-16.38-5.77-4.69-2.17-9.59-3.3-14.47-4.67-1-.28-2.19.07-3.53.15.07,2.15,0,3.84.19,5.5,1.09,8.75-.15,17.37-1.61,25.93a44.12,44.12,0,0,1-5.63,15.61c-.68,1.13-1.79,2-3.62,4a95.41,95.41,0,0,1-2.47-15c-.53-5.05-.92-10.11-1.6-15.13-.65-4.78-1.65-9.51-2.4-14.28-.77-5-1.41-9.94-2.12-14.94-4-1.25-7.49-2.78-11.9-2.64.05,2.81.09,5.17.13,7.54,0,1.93.13,3.86,0,5.78,0,.56-.88,1.56-1.2,1.51a3.26,3.26,0,0,1-2.2-1.26,15.63,15.63,0,0,1-1-4.16c-.59-3.79-1.11-7.6-1.64-11.31-7-4-14.5-5.93-22.19-7.09.39,7.21,1,14.42,1.11,21.63a109.22,109.22,0,0,1-1.73,20.69,25.73,25.73,0,0,1-1.78-4c-2.4-11.57-4.73-23.15-7.12-34.72-.39-1.87-1-3.69-1.55-5.54a7.86,7.86,0,0,0-4.88-4c-5.88-1.47-11.71-3.18-17.59-4.67a10.37,10.37,0,0,0-3.24.24,69.43,69.43,0,0,1,1.31,8.3c.08,2.63,1.35,5.52-.84,8.33-.68-.94-1.3-1.45-1.48-2.08q-2-6.93-3.91-13.9c-1-3.67-1.36-3.95-6.58-3.67.09,2.61.1,5.23.29,7.84a115.19,115.19,0,0,1-.11,21c-.66,6-1.27,12-3.17,17.8-.75,2.3-1.6,4.46-4,6.13a42.39,42.39,0,0,1-3.09-10.5c-2.5-12.55-4.9-25.12-7.57-37.63-.84-4-2.39-7.77-3.6-11.57-9-2.83-17.71-5.2-27.19-5.71a199.21,199.21,0,0,1,0,31.57c-.79,9.5-3.15,18.56-5.74,27.63a6.49,6.49,0,0,1-4.29,4.63c-2.81-23.42-5.83-46.1-12.29-68.48-4.55.35-8.87-2.5-13.56-.19.82,5.19,1.64,10.18,2.34,15.19.1.68-.42,1.45-1.11,3.6-2-6.43-3.67-11.41-5.2-16.41-1.27-4.15-1.21-4.38-5.22-4.51-10.88-.38-21.78-1.1-32.63-.67s-21.67,2.06-32.49,3.24c-.61.06-1.15.76-1.84,1.25.21,1.42.42,2.8.69,4.68l-4-4.48c-4.14.36-8,.35-11.49,3.08.15,1.15.24,2.33.45,3.49a23,23,0,0,0,.88,3.5c5,13.72,5.3,27.89,3.92,42.19-.17,1.75-.27,3.92-2.78,5.12-5.18-17.09-10.34-34.07-15.76-51.93-8.35,2.3-16.31,4.74-24.68,7.22.35,2.34.31,4.58,1.08,6.5,1.21,3,1.23,6.14,1.37,9.27,0,.79.24,2-1.24,1.89-2.9-4.87-2.06-11.48-7.22-15.42-2.22.51-4.36.92-6.44,1.5-6,1.7-12,3.54-18.11,5.15-2.28.6-4.58,1.71-7.06.85a5.42,5.42,0,0,0-1.21.59c-1.37.9-2.7,1.92-4.49,1.18-8,3.06-16.12,5.92-24,9.27-4.59,1.95-8.85,4.66-13.21,7.12C560.69,2436.07,560.52,2437,560.19,2437.59Z"/><path fill="#6fc183" d="M903.31,2424.17c7.69,1.16,15.15,3.06,22.19,7.09.53,3.71,1,7.52,1.64,11.31a15.63,15.63,0,0,0,1,4.16,3.26,3.26,0,0,0,2.2,1.26c.32.05,1.16-.95,1.2-1.51.14-1.92,0-3.85,0-5.78,0-2.37-.08-4.73-.13-7.54,4.41-.14,7.92,1.39,11.9,2.64.71,5,1.35,10,2.12,14.94.75,4.77,1.75,9.5,2.4,14.28.68,5,1.07,10.08,1.6,15.13a95.41,95.41,0,0,0,2.47,15c1.83-2,2.94-2.88,3.62-4a44.12,44.12,0,0,0,5.63-15.61c1.46-8.56,2.7-17.18,1.61-25.93-.2-1.66-.12-3.35-.19-5.5,1.34-.08,2.53-.43,3.53-.15,4.88,1.37,9.78,2.5,14.47,4.67,5.23,2.41,10.92,3.83,16.38,5.77,5.21,1.86,10.37,3.82,15.51,5.72,1.63,17.22,3.24,34.21,4.95,52.29,5.42-7.5,6-15.55,8.33-23s.56-15.28.85-23.73l16,6.73c1.18,4.89.1,10.19,3.15,15.26,2.46-4.26-.34-8.47,1.24-12.17,4.94-.28,5.83.23,6.09,4.4.83,13,1.51,26.1,2.27,39.14.13,2.35.38,4.68.67,8.06,4.5-6,5.91-12,6.54-18.1.77-7.48.1-15-.92-22.4-.22-1.61-.17-3.25-.23-4.6,1.51-1.27,2.63-.76,3.73-.24,16.1,7.76,32.27,15.35,48.25,23.34,10.37,5.18,20.44,10.94,30.66,16.42a6.25,6.25,0,0,0,1.38.38c-3-5.26-5.53-10.88-9.15-15.68-5-6.61-9-13.74-13.42-20.67a16.9,16.9,0,0,0-4.64-4.47,358,358,0,0,0-36.67-22.14c-9.64-5.08-19.17-10.37-28.91-15.22-18-8.95-36.26-17.25-55-24.5q-21.36-8.23-43.19-15c-9.26-2.87-18.46-5.93-27.87-8.21a145.79,145.79,0,0,0-15.76-2.41,8.25,8.25,0,0,0-4.26.32c-5,2.26-7.93,3.38-6.87,11C900.59,2411.41,902.08,2417.77,903.31,2424.17Z"/><path fill="#6fc183" d="M604.13,2417.61c2.48.86,4.78-.25,7.06-.85,6.06-1.61,12.06-3.45,18.11-5.15,2.08-.58,4.22-1,6.44-1.5,5.16,3.94,4.32,10.55,7.22,15.42,1.48.09,1.27-1.1,1.24-1.89-.14-3.13-.16-6.24-1.37-9.27-.77-1.92-.73-4.16-1.08-6.5,8.37-2.48,16.33-4.92,24.68-7.22,5.42,17.86,10.58,34.84,15.76,51.93,2.51-1.2,2.61-3.37,2.78-5.12,1.38-14.3,1.09-28.47-3.92-42.19a23,23,0,0,1-.88-3.5c-.21-1.16-.3-2.34-.45-3.49,3.47-2.73,7.35-2.72,11.49-3.08l4,4.48c-.27-1.88-.48-3.26-.69-4.68.69-.49,1.23-1.19,1.84-1.25,10.82-1.18,21.63-2.81,32.49-3.24s21.75.29,32.63.67c4,.13,3.95.36,5.22,4.51,1.53,5,3.16,10,5.2,16.41.69-2.15,1.21-2.92,1.11-3.6-.7-5-1.52-10-2.34-15.19,4.69-2.31,9,.54,13.56.19,6.46,22.38,9.48,45.06,12.29,68.48a6.49,6.49,0,0,0,4.29-4.63c2.59-9.07,5-18.13,5.74-27.63a199.21,199.21,0,0,0,0-31.57c9.48.51,18.21,2.88,27.19,5.71,1.21,3.8,2.76,7.61,3.6,11.57,2.67,12.51,5.07,25.08,7.57,37.63a42.39,42.39,0,0,0,3.09,10.5c2.43-1.67,3.28-3.83,4-6.13,1.9-5.79,2.51-11.79,3.17-17.8a115.19,115.19,0,0,0,.11-21c-.19-2.61-.2-5.23-.29-7.84,5.22-.28,5.61,0,6.58,3.67q1.86,7,3.91,13.9c.18.63.8,1.14,1.48,2.08,2.19-2.81.92-5.7.84-8.33a69.43,69.43,0,0,0-1.31-8.3,10.37,10.37,0,0,1,3.24-.24c5.88,1.49,11.71,3.2,17.59,4.67a7.86,7.86,0,0,1,4.88,4c.42-3.49-.91-6.64-2-9.8-1.58-4.54-2.59-9.51-5.15-13.44-5.14-7.87-11-15.37-19.47-20.08a27.58,27.58,0,0,0-7.47-2.64c-3.59-.75-6.63,1.37-7.79,4.91a17.4,17.4,0,0,0-.33,8.6c1,5.9,2,11.82,3.11,18.86a13.84,13.84,0,0,1-4.1-6.51c-1.27-4.83-4.16-8.49-7.06-12.43-6.45-8.77-15.17-14.15-24.89-18.09-6.73-2.73-14-3.81-21.24-4.59-18.41-2-36.68-.65-54.91,2.24-17.49,2.78-34.4,7.81-51.18,13.23-10.07,3.26-19.82,7.55-29.69,11.43-9,3.53-18.11,6.71-26.81,10.81-8.31,3.92-17,6.92-25.32,10.71C606.61,2416.07,605.39,2416.89,604.13,2417.61Z"/><path fill="#2e6857" d="M1153.51,2535.6q17.13,30,34.24,60a28.32,28.32,0,0,1,3.43,7.06,23.38,23.38,0,0,1-3.35-1.17c-14-8.2-28.28-15.8-42.82-22.93-11.93-5.84-24-11.48-36.13-16.78-9.51-4.14-19.31-7.59-29-11.4-7.85-3.09-15.62-6.4-23.52-9.36-6.11-2.29-12.45-4-18.52-6.32-8.34-3.23-17.16-5.05-25.31-8.79a19,19,0,0,0-2.77-.88c-20.25-5.86-40.41-12-60.76-17.45-12.83-3.44-25.79-6.44-38.92-8.64-6.19-1-12.28-2.64-18.45-3.82-5.69-1.08-11.42-1.94-17.13-2.9-1.19-.2-2.38-.39-3.57-.63-5.45-1.07-10.88-2.26-16.35-3.22s-11-1.65-16.46-2.49c-11.68-1.78-23.35-3.68-35-5.34-21.75-3.07-43.51-6.15-65.29-8.94-17-2.18-34.06-3.88-51.08-5.93-5-.6-10-1.67-15-2.53-4.29-.75-8.57-1.47-12.84-2.27-8.3-1.57-16.59-3.2-24.89-4.77-22.42-4.23-44.15-11.18-66.19-16.88-1-.26-2.4-1.16-2.88.8,7.16,3.55,14.7,6.1,22.18,8.89a216.26,216.26,0,0,0,25.72,7.7c12.46,3,24.86,6.23,37.52,8.31,5.48.9,10.89,2.21,16.35,3.28,12.09,2.37,24.21,4.48,36.47,5.89,11.52,1.31,23,3.23,34.45,4.81,15.32,2.12,30.65,4.05,46,6.28,10.76,1.57,21.45,3.53,32.19,5.25,8.34,1.34,16.71,2.49,25.05,3.88,5.48.91,10.91,2.14,16.37,3.15,7.13,1.32,14.27,2.52,21.39,3.86,5.7,1.07,11.41,2.14,17.06,3.46,12.26,2.84,24.52,5.69,36.71,8.82q19.73,5.07,39.31,10.7,16.4,4.7,32.63,10c9.88,3.19,19.75,6.48,29.47,10.13,17.17,6.47,34.35,12.88,51.36,19.81q35,14.25,68.4,31.67c11.78,6.16,23.3,12.82,34.91,19.3,5.25,2.93,10.43,6,15.64,9-2.36-4.22-4.82-8.4-7-12.7-1.55-3-2.74-6.14-4.16-9.19-.81-1.76-1.68-3.49-2.64-5.17q-16.07-28.07-32.17-56.09C1156.87,2539,1156.15,2536.45,1153.51,2535.6Z"/><path fill="#6fc183" d="M1107.71,2719.57a4.29,4.29,0,0,1,.38-4.11c8.09-14.17,13.29-29.48,16.68-45.33,2.51-11.76,4.27-23.72,3.63-35.86-.08-1.45-.12-2.9-.33-4.33-.34-2.34-1.71-3.93-2.87-3.47-1.71.68-1.51,2.25-1.6,3.67a5.69,5.69,0,0,1,0,.72c-2.94,13.68-5.26,27.55-9.89,40.77-4.54,12.95-9.49,25.78-15.83,38-.89,1.71-1.8,3.4-2.7,5.11Z"/><path fill="#6fc183" d="M974.34,2656.78a4.42,4.42,0,0,1,.37-4.12c2-3.58,3.94-7.2,5.68-10.91a129,129,0,0,0,11.92-45.23,31.21,31.21,0,0,0-.34-5c0-.12-.4-.21-.9-.43a23.16,23.16,0,0,0-1.05,2.47,290,290,0,0,1-12.84,33c-3.23,7.26-7,14.3-10.66,21.34-.73,1.38-2.3,2.33-3.48,3.47Z"/><path fill="#6fc183" d="M697.68,2587.16c-.24-3.8,2.39-6.31,4.48-8.81,8.55-10.18,13.71-22,17.52-34.55,2-6.46,3.58-13,5.33-19.56.75-2.77,1.55-5.55.28-8.42-1.49-.31-1.36,1-1.62,1.76-5.94,17.38-13.39,34-23.49,49.44-3.3,5-6.46,10.16-9.72,15.22-.24.38-.76.58-1.15.86A20.55,20.55,0,0,0,697.68,2587.16Z"/><path fill="#6fc183" d="M837.13,2604.27c-1-1.62-.73-3.17.13-4.78a76,76,0,0,0,7.36-21.14c1.86-9.44,4.08-18.9,3.1-28.66-.12-1.11-.42-2.2-.62-3.17-2.69-.3-2.61,1.59-3,2.82-2.3,8.15-4.33,16.38-6.76,24.49A168.38,168.38,0,0,1,827,2599.26a10.62,10.62,0,0,1-1.89,2.16Z"/><path fill="#6fc183" d="M773.28,2595.76c.53-1.56.75-3.32,1.64-4.64,6.63-9.9,11.18-20.75,15.48-31.81,3.18-8.18,5.11-16.63,7.56-25a17.48,17.48,0,0,0,.37-2.7c-1.61-1-1.75.3-2.07,1-1.83,4.19-3.6,8.41-5.42,12.61-5.88,13.54-12.5,26.69-20.86,38.9-1.5,2.18-3.28,4.17-4.78,6.35a41.07,41.07,0,0,0-2.36,4.39Z"/><path fill="#6fc183" d="M1047.53,2693.68a4.23,4.23,0,0,1,.38-4.12c6.25-10,9.65-21.09,12.18-32.46a67.74,67.74,0,0,0,1-11.5c.05-1-.65-2.09-1.4-4.3a38.19,38.19,0,0,0-1.7,4.45c-2.74,12.63-8.57,24.1-13.49,35.91a35.46,35.46,0,0,1-2.33,5.3c-.72,1.14-2.06,1.88-3.12,2.8Z"/><path fill="#6fc183" d="M815.89,2599.91c.45-2.1.49-4.4,1.41-6.27,3.66-7.45,4.86-15.61,7.22-23.43a18.24,18.24,0,0,0,.09-9.28c-1.83-.54-2,.91-2.37,1.93-3.52,8.94-6.8,18-11.49,26.4-1.74,3.13-4,6-6,8.93Z"/><path fill="#6fc183" d="M632.24,2545.64c11.63-11.49,21.2-24.31,26-40.28-1.67-.91-1.93.71-2.41,1.48-7.63,12.36-17,23.45-25.9,34.83a6.34,6.34,0,0,1-1.13.91C629.63,2544,630.29,2545.53,632.24,2545.64Z"/><path fill="#6fc183" d="M1014.72,2677.1a56,56,0,0,1,2.88-6.58c3.36-5.72,5-12,6.53-18.37a47.29,47.29,0,0,0,.69-6.91c-1.86-.84-2,.39-2.37,1.13q-5.85,11.63-11.64,23.29a42.76,42.76,0,0,0-1.49,4A8.23,8.23,0,0,0,1014.72,2677.1Z"/><path fill="#6fc183" d="M660,2565a3.31,3.31,0,0,1,.67-3.91,117.68,117.68,0,0,0,7.49-9.63,62.34,62.34,0,0,0,4.43-8.21c.33-.71,0-1.74,0-3.17-5.63,2.11-7.25,7.37-10.75,10.71s-7,7.21-10.48,10.83C654,2563.29,656.61,2565.22,660,2565Z"/><path fill="#6fc183" d="M948.84,2644.61c-1-2.07.07-3.7,1.13-5.34,3.71-5.75,5.49-12.22,7-18.78a6.69,6.69,0,0,0-.06-2.09c0-.16-.31-.28-.87-.76a33.24,33.24,0,0,0-2.27,3.33c-3.24,6.15-6.38,12.35-9.63,18.49a11.14,11.14,0,0,1-1.93,2.09Z"/><path fill="#c9c9c9" d="M1144.19,2730.58a5.68,5.68,0,0,1,0-4.8c1.28-3.31,2.38-6.7,3.4-10.11.23-.75-.16-1.69-.37-3.41-1.25,1.11-2.08,1.55-2.5,2.25-2,3.25-3.77,6.6-5.71,9.87-.83,1.4-1.85,2.7-2.78,4Z"/><path fill="#6fc183" d="M866.93,2612.41c-1.27-2.07.1-3.78,1-5.37,2.35-4.29,3.52-8.94,4.64-13.62a4,4,0,0,0-.44-2.66c-4,6.31-6.5,13.25-9.93,19.72Z"/><path fill="#cbcbcb" d="M1207.61,2630.43c.18,1.15.07,2.47.6,3.43,4,7.12,8.13,14.18,12.22,21.26a11.36,11.36,0,0,0-.68-3.43C1215.77,2644.56,1211.67,2637.51,1207.61,2630.43Z"/><path fill="#cbcbcb" d="M598.43,2419.38c1.79.74,3.12-.28,4.49-1.18C601.14,2417.52,599.77,2418.4,598.43,2419.38Z"/><path fill="#6fc183" d="M1319.53,2719.59c2.91-2.18,2.69-5.47,2.82-8.5.59-13.82,1.62-27.66,1.43-41.48a468.3,468.3,0,0,0-10.06-89.72c-17.66-84.36-55.22-158.55-115.09-220.94-18.23-19-37.45-37-56.31-55.44-21.62-21.09-42.38-42.9-59.49-67.93-13.92-20.36-25.52-42-36.71-63.92-6.62-12.95-13.61-25.7-20.47-38.52a47.13,47.13,0,0,0-2.57-4c-3.57-.28-4.61,2.31-6.05,4-9.46,11.26-22.12,17.58-35.35,23-1.47.61-3.34,1.11-5-1.45,2-4.4,7.16-5.69,10.33-9.05s6.33-6.43,9.19-9.9a137.19,137.19,0,0,0,8.59-11.73c2.46-3.73,4.53-7.71,7-12a188.12,188.12,0,0,0-29.32-34c-3.47,3-4.38,6.8-6,10.06a126.84,126.84,0,0,1-40.87,47.63c-4,2.79-8.14,5.28-12.26,7.84-1.74,1.08-3.85,2.46-5.41.22-1.24-1.79.58-3.2,1.91-4.23,7.23-5.63,12.45-12.91,17.45-20.47,10.48-15.85,16.63-33.42,21.07-51.7a37.15,37.15,0,0,0,.7-4.09c.37-3-.42-5.44-3.11-7.15-4.09-2.6-8.06-5.4-12.21-7.91-26-15.76-54-26.67-83-35.34a845.19,845.19,0,0,0-82.76-20.37,185.9,185.9,0,0,0-22.61-3.23c-5.46-.37-11.05.36-16.5,1.15a12,12,0,0,0-10.1,7.94l.9.29c4-.84,6.7,1.79,9.07,4.13,12,11.91,24.5,23.39,35.09,36.68,2.45,3.08,4.77,6.55,8.44,8.36,2.92-2.54,1.56-7.2,5.8-8.92,2,5.64-2.57,9.44-3.09,14.29l8.8,10.07c8.35-12.89,9.15-27.33,12.62-42.18,5,18.25,1.7,34.07-6.49,48.75,6.48,11.54,21.1,31.32,26.45,35.89.47-.47,1.12-.87,1.39-1.44,8.4-17.15,15.4-34.77,18.24-53.82.19-1.27.08-3.52,2.72-3.21,3.1,9.33.8,18.69-.36,27.77-1.12,8.8-2.88,17.86-7.68,25.7-2.83,4.63-6.18,8.94-9.39,13.51,4.85,7.46,9.72,15,14.65,22.53s9.5,15.34,15,22.38,8.4,15.83,15.73,22.31c8-7.8,12.59-17.76,20.61-25.89,1.78,5.29-.13,9-2.55,12.26-3.9,5.27-8.1,10.32-12.32,15.35-2.64,3.14-3,4.7-.63,8.29,5.53,8.38,11.19,16.67,16.74,25,3.45,5.18,6.69,10.5,10.24,15.61,5.35,7.69,10.77,15.33,16.41,22.79,1.8,2.39,4.4,4.16,6.78,6.34,6.47-3,11.47-7.28,16.72-11.14,14.29-10.51,27.14-22.57,37.09-37.33,4.42-6.55,7.82-13.78,11.84-20.62.89-1.52,1.24-4.17,4.2-3.42,1.58,2.93,0,5.52-1.07,7.9-3.75,8.53-7.58,17-11.77,25.35-6.62,13.14-16.47,23.74-27.09,33.75a66.6,66.6,0,0,1-21.8,13.61c-.5.19-.72,1.11-1.34,2.13,4.7,9.44,12.69,16.58,19.43,25.58,7.82-7.18,15.62-13.37,22.13-21,.93-1.09,2.2-1.65,4-.1-3.71,11.67-14.85,17.32-23,26.31,7,5.68,9.05,15.18,17.75,18.42a20,20,0,0,0,3.08-1.8c12.63-11.29,25.65-22.19,35.18-36.48,1.73-2.59,3.59-5.11,5.53-7.55.71-.88,1.34-2.71,3.61-.84-3.41,6.61-6.49,13.55-10.45,19.95-4.18,6.75-8.81,13.34-15.06,18.43-5.81,4.74-11.9,9.16-18.28,14,3.89,6.15,7.63,12.12,14.36,14.31,30.19-21.3,50.11-49.24,61.51-84.43,1.52,5.87,1.41,5.85.76,10.83-2.12,16.43-8.43,31.42-16.81,45.4a90,90,0,0,1-39.67,35.72c1.51,2.27,2.39,4.19,3.79,5.61q10.95,11,22.12,21.83c12.66,12.22,25.42,24.34,38.14,36.51,5.24,5,10.39,10.11,15.71,15,3.7,3.43,5.7,3.19,9.87-.08,12-9.48,22.84-20.06,31.24-33a138.37,138.37,0,0,0,14.47-28.59,72,72,0,0,1,2.46-6.83c.76-1.59,2.12-2.77,4-1.2-1.24,13.85-8.33,33.56-15.85,44.51-8.45,12.33-17,24.49-30.56,32-1.34.74-2.17,2.4-3.21,3.61,1.88,4.51,5.27,7.08,8.12,10,12.85,13,26,25.78,38.75,38.88,9.89,10.15,19.39,20.69,29.1,31,2.32,2.47,4.77,4.82,7.23,7.3,7.59-4,13.33-9.48,19.35-14.65,6.41-5.49,11-12.46,15.83-19.18,4.67-6.44,9.67-12.67,12.56-20.23s5.87-14.93,8.81-22.39a7.28,7.28,0,0,1,1.45,5.28,133.76,133.76,0,0,1-15.12,44.87c-7.55,14.08-17.87,24.35-32,31.26a20.42,20.42,0,0,0-2.88,2.27c3.45,6.34,7.41,12.06,13.65,16.2a79.28,79.28,0,0,0,6.55-5.5c2.15-2.24,3.87-4.89,5.93-7.23,1.82-2.06,4-3.84,5.74-5.94,3.13-3.73,3.06-3.79,6.3-5.31-.34,6.39-4.66,10.71-8.15,15.35-3.68,4.89-7.82,9.44-12.13,14.58,5.25,6.71,9.77,13.25,15.09,19.08s8.94,12.9,15.4,18.05c4.71-5.33,9.18-10.11,13.36-15.13a116,116,0,0,0,18.2-31.27,28.82,28.82,0,0,1,5-8.49c.28,9.58-2.79,17-5.14,24.46-2.29,7.31-6.16,13.79-10.41,20.19-4.41,6.64-10.54,11.58-16.31,17.68,5.11,6.38,10.32,12,14.51,18.29,11.71,17.58,25.75,33.43,37.23,51.22,7.69,11.91,15.52,23.75,23,35.8C1317,2708.84,1319.3,2713.86,1319.53,2719.59Z"/><path fill="#6fc183" d="M728.72,1998.39c-2.73,4-2.53,8.42-1.83,12.86,1.74,11.16,3.42,22.35,7.75,32.91.71.73,1.77,1.33,2.09,2.2,3,8.42,5.77,16.94,8.94,25.31,3.67,9.68,7.44,19.3,8.63,29.7a12.52,12.52,0,0,0,1.28,5c2.65,4.32,3,9.18,3.8,13.94,1.2,7.18,2.28,14.38,3.52,21.55a61,61,0,0,0,1.84,6.29c3.52-.32,6.56-.52,9.57-.89,2.75-.34,5.47-1,8.23-1.27s5.75-1.59,9.58-.24c-7.68,7.63-17.75,6.71-26,10.21-.78,8.75,2.06,15.88,6.15,22.47,6.54.53,12.74-.25,19.14,2.06-2.33,3.93-5,5.42-8.83,4.55-3.48-.77-6.82-.76-10.09,2.43.8,5,1.51,10.08,2.47,15.13.49,2.62,2.28,4.52,5,4.48,6.89-.08,13.84,0,20.64-.88,15.12-2.06,30.15-4.74,45.23-7.1,3-.47,6-.66,8.84-1,2,3.73-.28,4.82-2.39,6.17-14,8.92-30.51,10.56-45.79,15.76a3,3,0,0,1-1,.13c-6.87-.06-13.75-.17-20.62-.18a36.79,36.79,0,0,0-4.75.73c4.24,7.47,2.85,15.64,7.22,22.18,3.32,13.84,9.81,26.47,15.13,39.54,1.59,3.92,3.32,5.33,7.1,4.42,10.55-2.54,21.36-1.33,32-2.77,1.59-.21,3.5-.79,4.52,2-4.82,5-11.4,5.46-17.76,6.38s-12.68,1.64-19.8,2.54a84.2,84.2,0,0,0,7.69,15.18,5.82,5.82,0,0,0,4.39,2.15,190.67,190.67,0,0,0,21.66-1.12c13.41-1.78,26.73-4.15,40.08-6.34,2.73-.45,5.72-.6,8.06-1.85,6.37-3.4,13.36-3.45,20.16-4.55,1.06-.16,2.28.72,4.52,1.5-2.85,2.12-4.54,3.92-6.63,4.84-8.2,3.6-16.46,7.1-24.84,10.27a117.78,117.78,0,0,1-15.82,4.71c-5.75,1.29-11.63,2-17.45,2.9-6.51,1.05-13,2-19.51,3.19-3.6.66-4.66,3-2.74,6,7,11.1,14.17,22.12,21.27,33.17,3.82,1.2,7.51.35,11.23-.6q9.54-2.43,19.14-4.61a30.16,30.16,0,0,1,4.93-.16c-.7,2.06-.76,4.08-1.75,4.8a130,130,0,0,1-12.18,7.76c-3.58,2-7.36,3.68-11,5.5,1.06,2.49,1.66,5.34,3.26,7.41,6,7.86,12.41,15.46,18.66,23.16a25.61,25.61,0,0,0,5.09.73c23.51-1.22,46.78-3.61,67.94-15.3a18.06,18.06,0,0,1,2.72-1c2.9,1.38,2.48,3.28.85,5a120,120,0,0,1-31.78,24.52c-7.9,4.11-16,7.94-24,11.89,2.33,3,4,6.54,8.78,8.35,5.11-1.76,10.8-4.28,16.76-5.64,10.09-2.3,19.8-5.67,29.6-8.9a296.21,296.21,0,0,0,41.13-16.56,7.86,7.86,0,0,1,2.93-.81,2.17,2.17,0,0,1,1.67.87,2.28,2.28,0,0,1,.21,1.9,7.65,7.65,0,0,1-1.74,2.51,146.26,146.26,0,0,1-26.62,19.64,198.71,198.71,0,0,1-47.4,20.18c-1.42.39-2.64,1.54-4.45,2.64,5.3,5.65,10.08,10.62,14.68,15.74a6.73,6.73,0,0,0,5.44,2.4c1.7-.32,3.38-.76,5.09-.91,2.66-.24,3.8,1.47,2.58,3.87-.77,1.52-1.82,2.91-2.74,4.35.57,1.26.86,2.76,1.74,3.73q17,18.84,34.24,37.52c2.26,2.45,5.28,3,8.62,2.4,3.75-.64,7.66-1.69,11.31-1.2,5,.68,9.66-.12,14.43-.86q17.48-2.73,34.92-5.6a62.11,62.11,0,0,0,8.13-1.71c7.88-2.42,15.71-5,23.56-7.54l11.44-3.67c-1.57,5.23-5.69,6.77-8.88,8.8-25.74,16.32-53.58,26.68-84.72,28.38a14,14,0,0,0,1.59,3.06c6.91,7.25,14,14.32,20.79,21.68,2.83,3.06,5.92,3.81,9.25,1.9,4.08-2.34,8.52-2.73,12.92-3.59,4.58-.9,9.14-1.94,13.77-2.94.42,3.59-2.4,4.19-4.3,5.37a43.08,43.08,0,0,1-6.5,3.2c-2.54,1-5.21,1.78-7.76,2.79-2,.82-4,1.85-6.67,3.12l9.16,7.87,16.2-4.77c6.93-2,13.94-3.85,20.79-6.15,9.12-3.07,18.1-6.56,27.18-9.77.68-.24,1.66.36,3.45.8-5.41,6.23-12.2,9.06-18.25,12.7-5.89,3.55-12.67,5.62-18.52,9.21-6.3,3.87-14.25,1.88-20.94,6.24,2.84,4.56,6.1,7.63,11,7.09,5.46-.6,10.84-2.07,16.21-3.31,3-.7,5.89-2.17,8.92-2.5,8-.89,15.36-4.1,22.78-6.73,11.68-4.14,23-9.35,34.46-14.05,4.46-1.82,8.94-3.61,13.5-5.13,1.06-.35,3,.05,3.59.82s.12,2.87-.64,3.55c-4.11,3.68-8.18,7.53-12.78,10.54a278.25,278.25,0,0,1-36.11,20.31c-5,2.3-10.22,4.1-15.4,5.93-5.74,2-11.55,3.83-17.33,5.73.28.8.29,1.64.72,2,12.77,10.72,27.31,18.83,41.3,27.72,5.52,3.51,11.61,6.1,17.2,9.49a267.84,267.84,0,0,0,43.55,21.6c4.08,1.56,8.69,2.56,11.66,6.35,5.84,2,11.66,4,17.52,5.87q38.74,12.59,77.51,25.11c2.27.73,4.64,1.15,7,1.71-3.54-9.46-9.3-17.75-14.86-26-15.54-23-31.72-45.46-47.65-68.14-1.4-2-2.75-4-4.27-5.89-9.78-12.11-19.48-24.29-29.42-36.26-11.93-14.36-23.76-28.83-36.19-42.75-33.64-37.66-69-73.69-104.93-109.14-12-11.89-23.83-24.05-35.75-36.07-16.79-16.93-33.48-33.92-49.53-51.58-19.63-21.59-36.19-45.49-54.17-68.3-6-7.59-10.75-16.12-16.4-24-10.71-14.91-21-30.07-30.57-45.75-11-18-22.33-35.8-33.64-53.6-9.27-14.59-18.47-29.24-28.16-43.55-8.55-12.63-17.61-24.92-26.66-37.2-5.13-7-10.43-13.83-16.1-20.34-12.27-14.07-24.84-27.89-37.27-41.83-2.06-2.31-4.37-4.51-4.68-7.87Z"/><path fill="#40947e" d="M729.62,1998.68c.31,3.36,2.62,5.56,4.68,7.87,12.43,13.94,25,27.76,37.27,41.83,5.67,6.51,11,13.38,16.1,20.34,9.05,12.28,18.11,24.57,26.66,37.2,9.69,14.31,18.89,29,28.16,43.55,11.31,17.8,22.65,35.6,33.64,53.6,9.57,15.68,19.86,30.84,30.57,45.75,5.65,7.87,10.42,16.4,16.4,24,18,22.81,34.54,46.71,54.17,68.3,16.05,17.66,32.74,34.65,49.53,51.58,11.92,12,23.7,24.18,35.75,36.07,36,35.45,71.29,71.48,104.93,109.14,12.43,13.92,24.26,28.39,36.19,42.75,9.94,12,19.64,24.15,29.42,36.26,1.52,1.88,2.87,3.91,4.27,5.89,15.93,22.68,32.11,45.19,47.65,68.14,5.56,8.22,11.32,16.51,14.86,26,4.26,1.74,8.45,3.71,12.82,5.14,2.58.84,5.3.4,6.84-2.46-.23-5.73-2.58-10.75-5.51-15.48-7.47-12.05-15.3-23.89-23-35.8-11.48-17.79-25.52-33.64-37.23-51.22-4.19-6.3-9.4-11.91-14.51-18.29,5.77-6.1,11.9-11,16.31-17.68,4.25-6.4,8.12-12.88,10.41-20.19,2.35-7.5,5.42-14.88,5.14-24.46a28.82,28.82,0,0,0-5,8.49,116,116,0,0,1-18.2,31.27c-4.18,5-8.65,9.8-13.36,15.13-6.46-5.15-10.16-12.3-15.4-18.05s-9.84-12.37-15.09-19.08c4.31-5.14,8.45-9.69,12.13-14.58,3.49-4.64,7.81-9,8.15-15.35-3.24,1.52-3.17,1.58-6.3,5.31-1.76,2.1-3.92,3.88-5.74,5.94-2.06,2.34-3.78,5-5.93,7.23a79.28,79.28,0,0,1-6.55,5.5c-6.24-4.14-10.2-9.86-13.65-16.2a20.42,20.42,0,0,1,2.88-2.27c14.11-6.91,24.43-17.18,32-31.26a133.76,133.76,0,0,0,15.12-44.87,7.28,7.28,0,0,0-1.45-5.28c-2.94,7.46-6,14.9-8.81,22.39s-7.89,13.79-12.56,20.23c-4.88,6.72-9.42,13.69-15.83,19.18-6,5.17-11.76,10.66-19.35,14.65-2.46-2.48-4.91-4.83-7.23-7.3-9.71-10.34-19.21-20.88-29.1-31-12.77-13.1-25.9-25.85-38.75-38.88-2.85-2.89-6.24-5.46-8.12-10,1-1.21,1.87-2.87,3.21-3.61,13.52-7.52,22.11-19.68,30.56-32,7.52-11,14.61-30.66,15.85-44.51-1.92-1.57-3.28-.39-4,1.2a72,72,0,0,0-2.46,6.83,138.37,138.37,0,0,1-14.47,28.59c-8.4,13-19.2,23.54-31.24,33-4.17,3.27-6.17,3.51-9.87.08-5.32-4.92-10.47-10-15.71-15-12.72-12.17-25.48-24.29-38.14-36.51q-11.19-10.78-22.12-21.83c-1.4-1.42-2.28-3.34-3.79-5.61a90,90,0,0,0,39.67-35.72c8.38-14,14.69-29,16.81-45.4.65-5,.76-5-.76-10.83-11.4,35.19-31.32,63.13-61.51,84.43-6.73-2.19-10.47-8.16-14.36-14.31,6.38-4.88,12.47-9.3,18.28-14,6.25-5.09,10.88-11.68,15.06-18.43,4-6.4,7-13.34,10.45-19.95-2.27-1.87-2.9,0-3.61.84-1.94,2.44-3.8,5-5.53,7.55-9.53,14.29-22.55,25.19-35.18,36.48a20,20,0,0,1-3.08,1.8c-8.7-3.24-10.78-12.74-17.75-18.42,8.11-9,19.25-14.64,23-26.31-1.76-1.55-3-1-4,.1-6.51,7.62-14.31,13.81-22.13,21-6.74-9-14.73-16.14-19.43-25.58.62-1,.84-1.94,1.34-2.13a66.6,66.6,0,0,0,21.8-13.61c10.62-10,20.47-20.61,27.09-33.75,4.19-8.31,8-16.82,11.77-25.35,1-2.38,2.65-5,1.07-7.9-3-.75-3.31,1.9-4.2,3.42-4,6.84-7.42,14.07-11.84,20.62-10,14.76-22.8,26.82-37.09,37.33-5.25,3.86-10.25,8.18-16.72,11.14-2.38-2.18-5-3.95-6.78-6.34-5.64-7.46-11.06-15.1-16.41-22.79-3.55-5.11-6.79-10.43-10.24-15.61-5.55-8.35-11.21-16.64-16.74-25-2.36-3.59-2-5.15.63-8.29,4.22-5,8.42-10.08,12.32-15.35,2.42-3.28,4.33-7,2.55-12.26-8,8.13-12.58,18.09-20.61,25.89-7.33-6.48-10.23-15.33-15.73-22.31s-10.11-14.87-15-22.38-9.8-15.07-14.65-22.53c3.21-4.57,6.56-8.88,9.39-13.51,4.8-7.84,6.56-16.9,7.68-25.7,1.16-9.08,3.46-18.44.36-27.77-2.64-.31-2.53,1.94-2.72,3.21-2.84,19.05-9.84,36.67-18.24,53.82-.27.57-.92,1-1.39,1.44-5.35-4.57-20-24.35-26.45-35.89,8.19-14.68,11.51-30.5,6.49-48.75-3.47,14.85-4.27,29.29-12.62,42.18l-8.8-10.07c.52-4.85,5.06-8.65,3.09-14.29-4.24,1.72-2.88,6.38-5.8,8.92-3.67-1.81-6-5.28-8.44-8.36-10.59-13.29-23.07-24.77-35.09-36.68C736.32,2000.47,733.64,1997.84,729.62,1998.68Z"/><path fill="#2e7f70" d="M849.27,2365.11c-7.1-11.05-14.24-22.07-21.27-33.17-1.92-3-.86-5.38,2.74-6,6.48-1.19,13-2.14,19.51-3.19,5.82-.94,11.7-1.61,17.45-2.9a117.78,117.78,0,0,0,15.82-4.71c8.38-3.17,16.64-6.67,24.84-10.27,2.09-.92,3.78-2.72,6.63-4.84-2.24-.78-3.46-1.66-4.52-1.5-6.8,1.1-13.79,1.15-20.16,4.55-2.34,1.25-5.33,1.4-8.06,1.85-13.35,2.19-26.67,4.56-40.08,6.34a190.67,190.67,0,0,1-21.66,1.12,5.82,5.82,0,0,1-4.39-2.15,84.2,84.2,0,0,1-7.69-15.18c7.12-.9,13.47-1.63,19.8-2.54s12.94-1.4,17.76-6.38c-1-2.78-2.93-2.2-4.52-2-10.61,1.44-21.42.23-32,2.77-3.78.91-5.51-.5-7.1-4.42-5.32-13.07-11.81-25.7-15.13-39.54-4.37-6.54-3-14.71-7.22-22.18a36.79,36.79,0,0,1,4.75-.73c6.87,0,13.75.12,20.62.18a3,3,0,0,0,1-.13c15.28-5.2,31.78-6.84,45.79-15.76,2.11-1.35,4.34-2.44,2.39-6.17-2.81.3-5.84.49-8.84,1-15.08,2.36-30.11,5-45.23,7.1-6.8.93-13.75.8-20.64.88-2.72,0-4.51-1.86-5-4.48-1-5.05-1.67-10.16-2.47-15.13,3.27-3.19,6.61-3.2,10.09-2.43,3.87.87,6.5-.62,8.83-4.55-6.4-2.31-12.6-1.53-19.14-2.06-4.09-6.59-6.93-13.72-6.15-22.47,8.29-3.5,18.36-2.58,26-10.21-3.83-1.35-6.74-.07-9.58.24s-5.48.93-8.23,1.27c-3,.37-6,.57-9.57.89a61,61,0,0,1-1.84-6.29c-1.24-7.17-2.32-14.37-3.52-21.55-.8-4.76-1.15-9.62-3.8-13.94a12.52,12.52,0,0,1-1.28-5c-1.19-10.4-5-20-8.63-29.7-3.17-8.37-5.91-16.89-8.94-25.31-.32-.87-1.38-1.47-2.09-2.2,2.7,17.47,5.82,34.89,8,52.42,2.12,17.17,3.29,34.45,4.82,51.69.83,9.31,1.4,18.64,2.36,27.94,1.56,15.16,3,30.35,5.12,45.42a300.77,300.77,0,0,0,36.7,107.5c6,10.52,12.77,20.62,19.08,31a9.88,9.88,0,0,0,7.55,4.86C828.58,2366.46,838.92,2367.24,849.27,2365.11Z"/><path fill="#2e7f70" d="M1197.88,2684.22c-3-3.79-7.58-4.79-11.66-6.35a267.84,267.84,0,0,1-43.55-21.6c-5.59-3.39-11.68-6-17.2-9.49-14-8.89-28.53-17-41.3-27.72-.43-.36-.44-1.2-.72-2,5.78-1.9,11.59-3.7,17.33-5.73,5.18-1.83,10.41-3.63,15.4-5.93a278.25,278.25,0,0,0,36.11-20.31c4.6-3,8.67-6.86,12.78-10.54.76-.68,1.15-2.84.64-3.55s-2.53-1.17-3.59-.82c-4.56,1.52-9,3.31-13.5,5.13-11.48,4.7-22.78,9.91-34.46,14.05-7.42,2.63-14.76,5.84-22.78,6.73-3,.33-5.91,1.8-8.92,2.5-5.37,1.24-10.75,2.71-16.21,3.31-4.9.54-8.16-2.53-11-7.09,6.69-4.36,14.64-2.37,20.94-6.24,5.85-3.59,12.63-5.66,18.52-9.21,6-3.64,12.84-6.47,18.25-12.7-1.79-.44-2.77-1-3.45-.8-9.08,3.21-18.06,6.7-27.18,9.77-6.85,2.3-13.86,4.11-20.79,6.15l-16.2,4.77-9.16-7.87c2.68-1.27,4.63-2.3,6.67-3.12,2.55-1,5.22-1.75,7.76-2.79a43.08,43.08,0,0,0,6.5-3.2c1.9-1.18,4.72-1.78,4.3-5.37-4.63,1-9.19,2-13.77,2.94-4.4.86-8.84,1.25-12.92,3.59-3.33,1.91-6.42,1.16-9.25-1.9-6.78-7.36-13.88-14.43-20.79-21.68a14,14,0,0,1-1.59-3.06c31.14-1.7,59-12.06,84.72-28.38,3.19-2,7.31-3.57,8.88-8.8l-11.44,3.67c-7.85,2.53-15.68,5.12-23.56,7.54a62.11,62.11,0,0,1-8.13,1.71q-17.44,2.85-34.92,5.6c-4.77.74-9.45,1.54-14.43.86-3.65-.49-7.56.56-11.31,1.2-3.34.56-6.36.05-8.62-2.4Q967,2506.43,950,2487.57c-.88-1-1.17-2.47-1.74-3.73l-21.66,13.38A21.36,21.36,0,0,0,929,2501c27.76,30,55.23,60.32,85.34,88.09a363.6,363.6,0,0,0,97.41,64.8c26.6,12,54.17,21.34,82,29.81A22.87,22.87,0,0,0,1197.88,2684.22Z"/><path fill="#2e7f70" d="M943.37,2476.53a6.73,6.73,0,0,1-5.44-2.4c-4.6-5.12-9.38-10.09-14.68-15.74,1.81-1.1,3-2.25,4.45-2.64a198.71,198.71,0,0,0,47.4-20.18,146.26,146.26,0,0,0,26.62-19.64,7.65,7.65,0,0,0,1.74-2.51,2.28,2.28,0,0,0-.21-1.9,2.17,2.17,0,0,0-1.67-.87,7.86,7.86,0,0,0-2.93.81A296.21,296.21,0,0,1,957.52,2428c-9.8,3.23-19.51,6.6-29.6,8.9-6,1.36-11.65,3.88-16.76,5.64-4.76-1.81-6.45-5.39-8.78-8.35l-25.58,7.29a31.22,31.22,0,0,0,2.8,4.65c9.63,10.82,19.41,21.51,29,32.4,2.76,3.15,5.71,4.74,9.92,3.95,6.45-1.19,13-2.11,19.37-3.41C939.79,2478.69,941.54,2477.41,943.37,2476.53Z"/><path fill="#2e7f70" d="M881.51,2408.37c-6.25-7.7-12.62-15.3-18.66-23.16-1.6-2.07-2.2-4.92-3.26-7.41-4.94,1.47-9.83,3.12-14.83,4.35-4.6,1.14-9.31,1.81-14.12,2.72,2.5,5.63,9.63,16,12.47,18.18a8.86,8.86,0,0,0,3.62,1.85C858.23,2406.88,869.7,2409.39,881.51,2408.37Z"/><rect width="808.77" height="1086.87" x="2253.99" y="721.18" fill="#3a63aa" rx="120.39" transform="rotate(-27.54 2658.223 1264.595)"/><rect width="808.77" height="1086.87" x="2766.94" y="721.18" fill="#5681bf" rx="120.39" transform="rotate(-152.46 3171.351 1264.58)"/><rect width="808.77" height="1086.87" x="2477.38" y="567.6" fill="#9cbbef" rx="120.39"/><path fill="#fff" d="M2591,642.61l14.12,41.82,14.17-42.11c.74-2.22,1.29-3.75,1.66-4.62a6.25,6.25,0,0,1,1.83-2.34,5.38,5.38,0,0,1,3.49-1,5.87,5.87,0,0,1,3,.81,5.94,5.94,0,0,1,2.17,2.14,5.36,5.36,0,0,1,.78,2.71,8.91,8.91,0,0,1-.25,2,19.19,19.19,0,0,1-.64,2.12c-.26.7-.51,1.41-.77,2.15L2615.41,687q-.81,2.34-1.62,4.44a18.53,18.53,0,0,1-1.87,3.7,8.3,8.3,0,0,1-2.83,2.62,8.47,8.47,0,0,1-4.32,1,8.56,8.56,0,0,1-4.31-1,8,8,0,0,1-2.85-2.64,19.07,19.07,0,0,1-1.9-3.72c-.54-1.39-1.07-2.86-1.61-4.42l-14.85-40.42c-.26-.73-.52-1.46-.79-2.17a17.62,17.62,0,0,1-.68-2.29,10.12,10.12,0,0,1-.27-2.09,5.57,5.57,0,0,1,1.74-4,5.86,5.86,0,0,1,4.38-1.78q3.24,0,4.57,2A26,26,0,0,1,2591,642.61Z"/><path fill="#fff" d="M2668,634.32a33.35,33.35,0,0,1,16.66,3.93,25.58,25.58,0,0,1,10.52,11.19,38.06,38.06,0,0,1,3.58,17,41.59,41.59,0,0,1-2,13.15,28.43,28.43,0,0,1-5.87,10.25,25.64,25.64,0,0,1-9.61,6.63,37.91,37.91,0,0,1-26.17-.06,25.91,25.91,0,0,1-9.65-6.66,28.17,28.17,0,0,1-5.85-10.33,41.77,41.77,0,0,1-2-13.07,40.17,40.17,0,0,1,2.06-13.18,28.28,28.28,0,0,1,6-10.21,25.8,25.8,0,0,1,9.53-6.45A34.28,34.28,0,0,1,2668,634.32Zm18,32.07a29.13,29.13,0,0,0-2.21-11.86,16.49,16.49,0,0,0-6.32-7.6,17.37,17.37,0,0,0-9.42-2.57,17.08,17.08,0,0,0-7,1.42,15.49,15.49,0,0,0-5.53,4.15,20,20,0,0,0-3.66,7,31.51,31.51,0,0,0-1.34,9.5,32.37,32.37,0,0,0,1.34,9.62,19.92,19.92,0,0,0,3.79,7.13,16,16,0,0,0,5.61,4.23,17.78,17.78,0,0,0,15.87-1,16.74,16.74,0,0,0,6.47-7.49A29,29,0,0,0,2685.9,666.39Z"/><path fill="#fff" d="M2762.65,678.05a16.6,16.6,0,0,1-1.47,6.45,23.66,23.66,0,0,1-12.65,12.23,29,29,0,0,1-11.41,2.08,40,40,0,0,1-9-.93,25.33,25.33,0,0,1-7.34-2.92,24.57,24.57,0,0,1-6.06-5.21,30.84,30.84,0,0,1-4.21-6.57,34,34,0,0,1-2.62-7.77,42.38,42.38,0,0,1-.87-8.76,38.91,38.91,0,0,1,2.19-13.49,28.87,28.87,0,0,1,6.27-10.19,27.46,27.46,0,0,1,9.57-6.44,31.1,31.1,0,0,1,11.7-2.21,29.16,29.16,0,0,1,13.49,3,24.42,24.42,0,0,1,9.06,7.46q3.15,4.46,3.15,8.41A5.5,5.5,0,0,1,2761,657a4.87,4.87,0,0,1-3.7,1.65,5.14,5.14,0,0,1-3.64-1.14,16,16,0,0,1-2.7-4,19,19,0,0,0-5.81-6.93,14.12,14.12,0,0,0-8.23-2.3,14.92,14.92,0,0,0-12.4,5.91q-4.62,5.91-4.62,16.81a31.22,31.22,0,0,0,2,12.1,15.31,15.31,0,0,0,5.79,7.21,16,16,0,0,0,8.76,2.38,15.39,15.39,0,0,0,9.21-2.7,16.3,16.3,0,0,0,5.68-7.93,13.46,13.46,0,0,1,2-4,4.52,4.52,0,0,1,3.83-1.56,5.35,5.35,0,0,1,3.87,1.58A5.23,5.23,0,0,1,2762.65,678.05Z"/><path fill="#fff" d="M2813.91,690.69l-3-7.83h-25.36l-3,8a27.38,27.38,0,0,1-3,6.31,4.71,4.71,0,0,1-4,1.64,5.93,5.93,0,0,1-4.21-1.74,5.33,5.33,0,0,1-1.83-4,8.67,8.67,0,0,1,.43-2.64c.28-.9.75-2.17,1.4-3.78l16-40.5L2789,642a21.67,21.67,0,0,1,2-4.07,8.42,8.42,0,0,1,2.85-2.61,8.72,8.72,0,0,1,4.37-1,8.81,8.81,0,0,1,4.4,1,8.32,8.32,0,0,1,2.85,2.57,18.64,18.64,0,0,1,1.83,3.38c.49,1.21,1.13,2.82,1.89,4.83l16.3,40.25q1.91,4.59,1.91,6.68a5.5,5.5,0,0,1-1.81,4,5.92,5.92,0,0,1-4.36,1.81,5.71,5.71,0,0,1-2.55-.53,5.28,5.28,0,0,1-1.79-1.45,13.25,13.25,0,0,1-1.55-2.8C2814.79,692.76,2814.31,691.65,2813.91,690.69Zm-25-17.32h18.63l-9.4-25.74Z"/><path fill="#fff" d="M2863.31,697.75h-19.06q-4.12,0-5.9-1.85t-1.76-5.89V643.12q0-4.12,1.81-5.93t5.85-1.81h20.2a48.3,48.3,0,0,1,7.75.55,16.54,16.54,0,0,1,5.87,2.13,15.35,15.35,0,0,1,3.91,3.34,14.78,14.78,0,0,1,2.6,4.47,15.06,15.06,0,0,1,.89,5.17q0,9.36-9.36,13.7,12.3,3.91,12.3,15.23a17.17,17.17,0,0,1-2.68,9.42,16.1,16.1,0,0,1-7.24,6.19,26,26,0,0,1-6.55,1.68A66,66,0,0,1,2863.31,697.75Zm-14.09-52.88V661h11.58a23.39,23.39,0,0,0,7.29-.89,7,7,0,0,0,3.94-3.41,7.73,7.73,0,0,0,1.06-4q0-4.73-3.36-6.28t-10.25-1.55Zm13.15,25.18h-13.15v18.21h13.57q12.81,0,12.81-9.23,0-4.72-3.32-6.85T2862.37,670.05Z"/><path fill="#fff" d="M2896.11,672V642c0-2.56.57-4.47,1.72-5.75a5.82,5.82,0,0,1,4.53-1.91,6,6,0,0,1,4.66,1.91c1.15,1.28,1.72,3.19,1.72,5.75v30.67a28,28,0,0,0,1.17,8.74,10.08,10.08,0,0,0,4.15,5.45q3,1.93,8.34,1.93,7.39,0,10.46-3.93c2-2.63,3.07-6.6,3.07-11.94V642c0-2.59.56-4.51,1.7-5.77a5.81,5.81,0,0,1,4.55-1.89,6,6,0,0,1,4.61,1.89q1.77,1.89,1.77,5.77v30a44.38,44.38,0,0,1-1.42,12.21,18.94,18.94,0,0,1-5.39,8.59,20.94,20.94,0,0,1-7.91,4.6,34.77,34.77,0,0,1-10.55,1.44,43.71,43.71,0,0,1-12.38-1.55,19.91,19.91,0,0,1-8.47-4.81,19.4,19.4,0,0,1-4.8-8.34A42.4,42.4,0,0,1,2896.11,672Z"/><path fill="#fff" d="M2974.6,642v45.39h25.61a6.71,6.71,0,0,1,4.7,1.49,4.85,4.85,0,0,1,1.64,3.74,4.72,4.72,0,0,1-1.62,3.72,6.94,6.94,0,0,1-4.72,1.43H2969.7q-4.12,0-5.93-1.83T2962,690V642c0-2.56.58-4.47,1.72-5.75a5.82,5.82,0,0,1,4.53-1.91,6,6,0,0,1,4.62,1.89Q2974.6,638.1,2974.6,642Z"/><path fill="#fff" d="M3053.6,690.69l-3-7.83h-25.36l-3,8a28.26,28.26,0,0,1-3,6.31,4.71,4.71,0,0,1-4,1.64,5.91,5.91,0,0,1-4.21-1.74,5.33,5.33,0,0,1-1.83-4,9,9,0,0,1,.42-2.64c.28-.9.75-2.17,1.41-3.78l16-40.5c.45-1.17,1-2.56,1.64-4.19a21.08,21.08,0,0,1,2-4.07,8.23,8.23,0,0,1,2.85-2.61,10.09,10.09,0,0,1,8.76,0,8.32,8.32,0,0,1,2.85,2.57,17.49,17.49,0,0,1,1.83,3.38q.75,1.82,1.9,4.83l16.29,40.25c1.28,3.06,1.91,5.29,1.91,6.68a5.53,5.53,0,0,1-1.8,4,5.94,5.94,0,0,1-4.37,1.81,5.71,5.71,0,0,1-2.55-.53,5.24,5.24,0,0,1-1.78-1.45A13.2,13.2,0,0,1,3055,694C3054.47,692.76,3054,691.65,3053.6,690.69Zm-25-17.32h18.64l-9.41-25.74Z"/><path fill="#fff" d="M3093.33,671.07h-4.42v20q0,4-1.75,5.83a5.92,5.92,0,0,1-4.55,1.87,5.82,5.82,0,0,1-4.68-1.95,8.72,8.72,0,0,1-1.66-5.75v-48q0-4.08,1.83-5.91t5.92-1.83h20.54a62.82,62.82,0,0,1,7.28.36,18.12,18.12,0,0,1,5.44,1.47,15.69,15.69,0,0,1,5.19,3.53,15.35,15.35,0,0,1,3.43,5.34,17.83,17.83,0,0,1,1.17,6.45q0,7-3.94,11.14t-11.93,5.92a23.12,23.12,0,0,1,6.42,5.27,53.11,53.11,0,0,1,5.47,7.42,55.46,55.46,0,0,1,3.74,7.11,13.85,13.85,0,0,1,1.34,4.36,4.51,4.51,0,0,1-.78,2.45,5.62,5.62,0,0,1-2.15,1.91,6.77,6.77,0,0,1-3.15.7,6.08,6.08,0,0,1-3.57-1,9.37,9.37,0,0,1-2.49-2.53q-1.05-1.53-2.83-4.51l-5.06-8.42a46.57,46.57,0,0,0-4.87-7.06,12,12,0,0,0-4.36-3.32A15,15,0,0,0,3093.33,671.07Zm7.23-26.2h-11.65V662h11.31a32,32,0,0,0,7.66-.78,9.08,9.08,0,0,0,4.75-2.68,7.73,7.73,0,0,0,1.63-5.22,7.89,7.89,0,0,0-5-7.53Q3107.07,644.87,3100.56,644.87Z"/><path fill="#fff" d="M3149.62,691.11V671.33l-15.23-23.61a48,48,0,0,1-2.83-5,7.5,7.5,0,0,1-.83-3.1,5,5,0,0,1,1.68-3.75,5.83,5.83,0,0,1,4.15-1.57,5.06,5.06,0,0,1,3.93,1.47,43.38,43.38,0,0,1,4,5.85l11.66,18.93L3168,641.64l1.79-2.94a18,18,0,0,1,1.59-2.23,6.31,6.31,0,0,1,1.94-1.6,6.06,6.06,0,0,1,6.57,1,4.86,4.86,0,0,1,1.6,3.6,7.47,7.47,0,0,1-.81,3.31,42.43,42.43,0,0,1-2.77,4.6l-15.61,24v19.78c0,2.58-.59,4.51-1.79,5.79a6.4,6.4,0,0,1-9.1,0Q3149.62,695,3149.62,691.11Z"/><path d="M3134.66,1294c-1.91,15.18-170.53,37.65-186.27,35.32-83.26-12.33-266.48-62.33-264.57-77.5s114.26-12.56,229.4,1.88S3136.57,1278.82,3134.66,1294Z" opacity=".08"/><path fill="#f2b761" d="M2663.43,1205.49c-53.38-20.78,9-93,20.28-142.19,24.34,4.16,90.16,13.31,109.86,14.06.43,25.49-17.11,139.19-20,158.45C2753.35,1234.71,2676.24,1212.07,2663.43,1205.49Z"/><path fill="#ef7c59" d="M2831.94,959.07c-9.09,2.67-48.36,3.62-64.16,1.65-1.1-12.68-10.4-104.35,18.58-150.73,9.12-14.61,65.65-9,72-6.77C2840.08,809.23,2830.76,922.69,2831.94,959.07Z"/><path fill="#6b2709" d="M2903.89,910.59c-4.92,5.66-59.1,5.17-72.95,6.25,1-20.48-4.73-77.25,6.22-100.43,9-19.08,30.11-17.3,41.24,1.6C2896.87,849.4,2901,890.59,2903.89,910.59Z"/><path fill="#93380a" d="M2887.43,904.72c-3.91,4.88-38.09,2.5-49.15,3.37.7-17.74-4.18-67,4.45-87,7.11-16.49,19.57-15.86,28.55.58C2886.2,849,2887.22,890.05,2887.43,904.72Z"/><path fill="#ef7c59" d="M2997,974.58c-10.09,1-51.77-5.07-68.11-9.83,1.08-12.68,7.52-104.6,46.39-145.09,12.24-12.76,71,2.9,77.31,6.18C3032.19,828.49,3002.2,938.55,2997,974.58Z"/><path fill="#6b2709" d="M3081.66,939.68c-6.22,4.69-63.39-5.46-78.23-6.87,4.71-20,8.71-76.9,24.41-97.77,12.92-17.18,34.9-11.66,43.3,8.93C3085.09,878.18,3082.14,919.47,3081.66,939.68Z"/><path fill="#93380a" d="M3065.29,931c-5,4.1-40.71-4.34-52.55-5.46,3.89-17.34,7.47-66.68,20.15-84.86,10.45-15,23.5-12.12,30.08,5.66C3073.89,875.85,3067.67,916.48,3065.29,931Z"/><path fill="#f3ce90" d="M3084.39,1288.11c-12.6,2.88-96.43,15.89-125.12,18.75-109.34-5.94-260.43-68.06-287.75-92.36,13.36-99.83,57.55-319.7,83.95-364.62,24-40.77,304.65-6.19,325.57,27.25C3098.21,936.76,3089.73,1242.44,3084.39,1288.11Z"/><path d="M3083.52,911.23c-14-36.15-51.64-50.57-77.43-23-27.62,29.55-41.09,80.05-43.82,107.68-96.08,103.16-232.85,41.88-261,18.68,7-80.53,20.83-150.38,62.27-164.39,36.2-12.24,240.24-16.47,312.05,27.93C3077.93,891.58,3085.57,916.54,3083.52,911.23Z" opacity=".2"/><path fill="#d1573b" d="M3088,902.85c-14-36.15-78.52-39.47-101.93-9.82-21.27,26.93-31.44,69.28-39.76,96.2-55,68.33-264.86,62.61-265.49-28.76,5.32-60.6,32.26-107.18,73.7-121.19,36.2-12.24,261.56-7.55,333.37,36.84C3090.23,889.53,3090,908.15,3088,902.85Z"/><path fill="#f2b761" d="M3105,1283.86c-11.65,6.1-117.2,25.73-145.69,23,6.59-83.38,32-382.72,47.34-416,13.62-29.58,78.35-19,82.93,11C3095.92,943.63,3111.48,1243.14,3105,1283.86Z"/><path fill="#ef7c59" d="M2681.73,1143.05c-10.35,42.54-23.34,83.11-3.68,106.47,27.32,24.3,171.88,51.4,281.22,57.34,28.69-2.86,112.52-15.87,125.12-18.75,1.58-13.47,3.42-49.63,4.8-95.35C3043,1191.73,2942.29,1189.26,2681.73,1143.05Z"/><path fill="#d1573b" d="M3105.45,1285.56c41.13-42.29,14.29-174.11-4.22-219.28-9.76,5.27-111.43,4.87-119.72,2.81-5.38,51.55-20.24,212.53-22.24,237.77C2987.76,1309.59,3093.8,1291.67,3105.45,1285.56Z"/><path fill="#f2b761" d="M2886.34,1269.25c2.06-12.81,10.15-78,10.8-126.59-41.83-.94-145.75-26.44-180.64-31.11-13.71,57.7-52.35,98.41-13.74,136.71C2732.31,1258.08,2834.39,1299.77,2886.34,1269.25Z"/><path fill="#141414" d="M2861.72,1191.52c5.58-19.39,20.39-37.86,34.74-48.7-41.73-2-141.26-19.13-176.19-23.38-12.1,13.93-19.6,30.9-19.06,42.58C2731.25,1174.68,2843.56,1202.64,2861.72,1191.52Z" opacity=".2"/><path fill="#d1573b" d="M2857.27,1184.43c4.82-11.81,16.53-34.25,40-42.2-41.73-2-147.31-26.74-182.25-31-7,6.06-15.9,24-17,38.84C2699.8,1162,2844.69,1193.83,2857.27,1184.43Z"/><path fill="#f2b761" d="M2871.06,833c-7.71,1.14-15.82,9.48-17.68,11.9-58.7,76.06-67.82,237.08-67.9,239.59a10,10,0,0,0,9.05,10.33l.64,0a10,10,0,0,0,10.4-9.67c2.59-74.05,36.65-247.35,102-249C2910.37,836.15,2874.52,832.46,2871.06,833Z"/><path fill="#93380a" d="M2804.43,1024.46c-6.75-.84-11.08-2.08-13.57-3.36a3.78,3.78,0,0,1-2-3.12c-.41-7.28,4-30.12,5.72-34.8a3.75,3.75,0,0,1,3.91-2.43c1,.08,22.49,3.1,23.92,3.35a4.4,4.4,0,0,1,3.05,1.6,3.75,3.75,0,0,1,.52,3.37c-2.86,8.38-5,27.06-5.37,32.54a3.8,3.8,0,0,1-2.47,3.26C2816.35,1025.51,2810.55,1025.21,2804.43,1024.46Zm-10.85-9.48a131.58,131.58,0,0,0,19.77,2.73c.62-6.1,2.07-18.07,4.18-26.61-3.06-.42-18.05-2.72-19.6-3C2796.33,994.65,2794,1008.32,2793.58,1015Z"/><path fill="#f2b761" d="M3096.59,1270.74c20.33-12.49,6.8-106.12,7.48-158-21.44-.21-79.11-.93-96-3.83,7.63,70.52-5.13,135.7-11.21,153.37C3022.52,1296,3084.48,1275.23,3096.59,1270.74Z"/><path fill="#141414" d="M3105.35,1161.12c-.32-15.24-.45-25.27-4.89-42.27-20.34.09-73.39-8-90.29-10.47,13,13.07,12,50.6,18.84,53.41C3043.28,1167.62,3099.58,1165.34,3105.35,1161.12Z" opacity=".2"/><path fill="#ef7c59" d="M3038.05,1152.17c-10.3-2.33-5.74-37.14-30.92-43.89,26.7,3.19,78.45,2.13,95.53,2.44,8.48,5,14.16,22.37,13.5,38.62C3101.16,1152.91,3058,1152.66,3038.05,1152.17Z"/><path fill="#fff" d="M2738.29,1552.77h-44.84q-9.72,0-13.87-4.35t-4.15-13.86v-110.3q0-9.71,4.25-14t13.77-4.26H2741a111.77,111.77,0,0,1,18.21,1.3,38.87,38.87,0,0,1,13.82,5,36.42,36.42,0,0,1,9.2,7.86,34.61,34.61,0,0,1,6.11,10.51,35.17,35.17,0,0,1,2.1,12.16q0,22-22,32.22,28.92,9.21,28.93,35.84a40.26,40.26,0,0,1-6.31,22.17,37.84,37.84,0,0,1-17,14.56,60.12,60.12,0,0,1-15.42,3.95A156.43,156.43,0,0,1,2738.29,1552.77Zm-33.13-124.41v37.94h27.22q11.11,0,17.17-2.1a16.4,16.4,0,0,0,9.25-8,18,18,0,0,0,2.51-9.41q0-11.12-7.91-14.76t-24.12-3.66Zm30.92,59.26h-30.92v42.83h31.92q30.14,0,30.13-21.72,0-11.1-7.81-16.11T2736.08,1487.62Z"/><path fill="#fff" d="M2909.14,1536.16l-7-18.42h-59.65l-7,18.82q-4.11,11-7,14.86t-9.5,3.86a13.93,13.93,0,0,1-9.91-4.11,12.56,12.56,0,0,1-4.31-9.31,20.94,20.94,0,0,1,1-6.2q1-3.21,3.31-8.91l37.53-95.28,3.85-9.86a50.49,50.49,0,0,1,4.81-9.56,19.47,19.47,0,0,1,6.7-6.16,20.65,20.65,0,0,1,10.26-2.35,20.86,20.86,0,0,1,10.36,2.35,19.93,19.93,0,0,1,6.71,6.06,42.61,42.61,0,0,1,4.3,8q1.75,4.24,4.46,11.36l38.33,94.68q4.5,10.82,4.5,15.71a13,13,0,0,1-4.25,9.36,14,14,0,0,1-10.26,4.26,13.19,13.19,0,0,1-6-1.26,12.24,12.24,0,0,1-4.21-3.4,31.26,31.26,0,0,1-3.65-6.6Q2910.54,1539.57,2909.14,1536.16Zm-58.86-40.74h43.84L2872,1434.87Z"/><path fill="#fff" d="M3091.6,1493.12v28.12a29.66,29.66,0,0,1-1.1,9,14.22,14.22,0,0,1-4.06,6.06,38.16,38.16,0,0,1-7.55,5.2,118.57,118.57,0,0,1-25.63,10.51,103.32,103.32,0,0,1-26.82,3.31,87.4,87.4,0,0,1-30.83-5.21,65,65,0,0,1-23.72-15.11,66.76,66.76,0,0,1-15.06-24,89.89,89.89,0,0,1-5.26-31.53,92.21,92.21,0,0,1,5.11-31.33,64.4,64.4,0,0,1,15-24.12,65.86,65.86,0,0,1,24.12-15.16q14.22-5.27,32.23-5.26a80,80,0,0,1,26.22,4q11.41,4,18.52,10a44.55,44.55,0,0,1,10.71,12.71q3.6,6.72,3.6,11.91a12.7,12.7,0,0,1-4.15,9.56,13.93,13.93,0,0,1-10,4,13.36,13.36,0,0,1-6.15-1.5,14.07,14.07,0,0,1-5-4.21,117.94,117.94,0,0,0-9.31-13,30.11,30.11,0,0,0-10.26-7.41q-6.45-3-16.46-3a45.64,45.64,0,0,0-18.42,3.55,38.17,38.17,0,0,0-13.86,10.31,46.59,46.59,0,0,0-8.81,16.57,73,73,0,0,0-3.05,21.72q0,25.82,11.86,39.73t33.08,13.91a67.52,67.52,0,0,0,19.37-2.7,98.12,98.12,0,0,0,18.36-7.7V1498h-23q-8.31,0-12.56-2.51t-4.25-8.5a10.43,10.43,0,0,1,3.55-8.11q3.55-3.21,9.66-3.21h33.73a42.69,42.69,0,0,1,10.51,1.11,11.87,11.87,0,0,1,7,4.9Q3091.59,1485.52,3091.6,1493.12Z"/><path fill="#5681bf" d="M2696,1984.92l-55.17-36.84-214.65,164.69a34.13,34.13,0,0,0,1.82,55.46h0a34.13,34.13,0,0,0,40-1.48l50.16-39.18,57.89,38.66-16.57,61.94a34.14,34.14,0,0,0,14,37.2l1,.7a34.12,34.12,0,0,0,51.94-19.61Zm-128.1,101.88,39.41-30.31-12.83,48.06Z"/><path fill="#adc5f2" d="M3802.85,1703.88c4.46-11.44,2.91-52.46,59.9-91.89,23.42-16,42.64-29.68,47.83-48.4,9-32.29-25-47.8-58.88-47.64a32.39,32.39,0,0,1-32.38-31.46h0a32.56,32.56,0,0,1,31-33.55,211.39,211.39,0,0,1,66.29,7.59c72.67,20.17,94.55,69.54,81.87,115.24-11.62,41.84-45.14,62.18-72.48,79.5-46,29.23-46,61.81-49.93,70.94Zm-35.4,72c8.1-29.18,34.28-44.44,62.9-36.5,29.74,8.26,43.2,34.53,35.65,63.86-7.95,28.63-33.73,44.61-63.46,36.35C3773.36,1831.49,3759.5,1804.51,3767.45,1775.88Z"/><path fill="#f3ce90" d="M3792.5,657.2c-104.59-50.66-219.16,52.71-180,162.66,7,19.75,6.24,41.44-1.37,61l-26.16,67.22a38.13,38.13,0,0,0,18.91,48.14l39.62,19.19a38.12,38.12,0,0,0,49.49-15c36.73-62.54,45.74-88.26,83.52-101.07C3887,861.84,3897.1,707.87,3792.5,657.2Z"/><path fill="#fff" d="M3625.76,944.7l-.11-.06a10.57,10.57,0,0,1-4.75-14.18l68.95-138.4-12.2-45.62a10.57,10.57,0,0,1,20.43-5.47l14.27,53.36-72.52,145.56A10.57,10.57,0,0,1,3625.76,944.7Z"/><path fill="#fff" d="M3670.56,973.58l.11,0a10.58,10.58,0,0,0,14.07-5.07l65.85-139.89L3794,810a10.58,10.58,0,0,0-8.38-19.42l-50.71,21.88L3665.6,959.56A10.58,10.58,0,0,0,3670.56,973.58Z"/><path fill="#ef7c59" d="M3611.67,879.13c-.2.56-.36,1.14-.58,1.7l-26.16,67.22a38.13,38.13,0,0,0,18.91,48.14l39.62,19.19a38.12,38.12,0,0,0,49.49-15c16.34-27.82,27.19-48.34,37.54-63.69Z"/><polygon fill="#f3ce90" points="4079.54 577.53 3914.9 687.02 4123.39 647.29 4079.54 577.53"/><polygon fill="#f3ce90" points="3731.12 360 3747.31 562.17 3819.16 373.76 3731.12 360"/><polygon fill="#f3ce90" points="3461.25 507.5 3580.26 636.54 3425.83 572.84 3461.25 507.5"/><polygon fill="#f3ce90" points="3814.49 934.39 3837.27 1037.63 3905.25 1007.47 3814.49 934.39"/><polygon fill="#f3ce90" points="3940.08 825.39 4100.36 835.09 4075.73 895.95 3940.08 825.39"/><polygon fill="#f3ce90" points="3517.93 805.3 3363.6 803.34 3380.06 869.54 3517.93 805.3"/><path fill="#5681bf" d="M1158.94,1126c18.46,1.5,54.56,9,87.74,18.47,40.59,11.6,64.34,22.64,82.11,41.41,17.4,16.77,26.5,41.09,18.89,67.72-7.48,26.18-29.75,46.26-66.41,49l-.25.87c31,18.78,48.63,51.2,37.78,89.17-7.61,26.63-25.82,44.09-48.39,53.69-26.25,10.91-64.79,10.28-123.28-6.44-32.73-9.35-56.55-18.52-70.77-24.94Zm33.73,131.45,21.82,6.24c34.92,10,57.8.94,64-20.89,6.36-22.26-7.29-38.91-37.41-47.51-14.4-4.12-22.94-5.62-28.87-6.37Zm-37.3,130.5c6.3,2.75,14.15,5,25.5,8.24,30.12,8.6,60,4.87,68.84-26.12,8.48-29.68-14.77-49.08-47.94-58.56l-22.7-6.49Z"/><path fill="#adc5f2" d="M2031.29,876.07c12.55,13.93,10.77,35.78-4.21,48.93a365.32,365.32,0,0,1-55.59,39.52c-119.11,69.8-221.13,36.35-275-55.56-64.51-110.09-16.58-220.49,87.71-281.6a325.53,325.53,0,0,1,56.32-26.46c19.62-6.87,40.24,3.3,45.33,22.23l.32,1.18c4.78,17.75-5.85,37-24.28,43.33a215.39,215.39,0,0,0-38.78,17.94c-61.85,36.24-89.43,99.34-47.35,171.14,37.87,64.62,102.61,81.34,172.13,40.6a254.38,254.38,0,0,0,33.21-23.51c15.28-12.73,37.64-11.64,50.18,2.26Z"/><rect width="761.5" height="114.99" x="3029.46" y="2526.24" fill="#719dd1" transform="rotate(180 3410.205 2583.735)"/><rect width="693.05" height="121.38" x="3109.8" y="2404.87" fill="#3a63aa" transform="rotate(180 3456.325 2465.555)"/><rect width="697.81" height="95.82" x="3014.88" y="2309.04" fill="#719dd1" transform="rotate(180 3363.79 2356.955)"/><rect width="720.86" height="59.62" x="3031.05" y="2249.42" fill="#3a63aa" transform="rotate(180 3391.48 2279.23)"/><rect width="669.52" height="55.36" x="2969.56" y="2194.06" fill="#719dd1" transform="rotate(180 3304.325 2221.74)"/><path fill="#305a96" d="M2848.74,2504.49s23.87-37.58,62.26-30.6,26.88,116.73-62.26,121.15v-25.28s34.71,12.37,57.22-22.46c29.36-45.43,3.1-107.71-55.18-15.44Z"/><path fill="#3a63aa" d="M2762.76,2468.43h-96.9l9.48,129.46a49.39,49.39,0,0,0,49.19,45.86H2801a49.41,49.41,0,0,0,49.2-45.86l9.47-129.46Z"/><path fill="#305a96" d="M2859.67,2468.44l-1.4,19.29-.3,4c-7.33,6.52-47.28,11.5-95.46,11.5-47.12,0-86.34-4.78-94.91-11.09l-.36-4.85-1.37-18.89Z"/><path fill="#305a96" d="M2810.75,2468.43l-9.48,129.46a49.39,49.39,0,0,1-49.2,45.86H2801a49.41,49.41,0,0,0,49.2-45.86l9.47-129.46Z"/><path fill="#305a96" d="M2859.17,2468.43c0,7.55-43.27,13.66-96.65,13.66s-96.66-6.11-96.66-13.66,43.27-13.67,96.66-13.67S2859.17,2460.88,2859.17,2468.43Z"/><path fill="#ef7c59" d="M2762.52,2482.09c35,0,65.62-2.62,82.58-6.56-16.42-4.23-48.23-7.1-84.79-7.1-35,0-65.62,2.63-82.59,6.56C2694.15,2479.22,2726,2482.09,2762.52,2482.09Z"/><path fill="#fff" d="M2730.41,2467a64,64,0,0,1-12.6-1.67,76.78,76.78,0,0,1-12.25-3.83,66,66,0,0,1-22.36-14.66,54.45,54.45,0,0,1-8.69-11.43,52.64,52.64,0,0,1-5.21-13.86,57.79,57.79,0,0,1,1.37-28.56c2.13-8.84,6.19-17.13,10.69-24.85a136.71,136.71,0,0,1,16-20.72c11.47-12.45,24.08-22.47,32.84-33.91a52.17,52.17,0,0,0,9.63-18.14l.77-2.41c.25-.82.38-1.76.57-2.63.32-1.77.84-3.57,1-5.33s.44-3.52.59-5.27l.08-5.15c-.24-6.78-2.17-12.86-5.88-17.57s-9.54-8.05-16.23-10c-1.67-.48-3.45-.75-5.18-1.14-1.8-.19-3.58-.48-5.41-.61s-3.79-.28-5.42-.14l-2.48.16a8.22,8.22,0,0,0-2.44.32c-6.36,1.18-12.46,4.7-15.88,10.54l-1.29,2.17-.94,2.36a9.12,9.12,0,0,0-.77,2.44l-.61,2.52c-.3,3.43-.47,7,.61,10.5a33.74,33.74,0,0,0,12.41,18.21,1.68,1.68,0,0,1-1.81,2.81h0a37,37,0,0,1-17-18.89c-1.83-4.12-2.3-8.72-2.4-13.31.36-4.55,1.13-9.27,3.41-13.43,3.95-8.64,12.32-15,21.44-17.63,2.27-.89,4.62-.92,7-1.34s4.39-.24,6.61-.37,4.4.14,6.61.22c2.22.3,4.45.48,6.68.92a50.61,50.61,0,0,1,6.69,1.73l3.34,1.14,3.25,1.54a43.71,43.71,0,0,1,6.28,3.77,42.58,42.58,0,0,1,5.53,5c6.83,7.54,10.27,17.49,11.1,26.75.15,2.31.21,4.61.3,6.93s-.23,4.51-.35,6.77-.57,4.4-.85,6.61c-.18,1.1-.27,2.18-.53,3.3l-.88,3.41a70.13,70.13,0,0,1-4.83,13.12l-3.35,6c-1.14,2-2.5,3.73-3.75,5.6a173.42,173.42,0,0,1-16.72,19.38c-5.66,5.88-11.33,11.39-16.46,17a117.28,117.28,0,0,0-13.3,17.56c-3.46,6.21-6.57,12.56-8.09,19.45-3.88,13.44-2.45,25.58,5.47,36.76s20.75,20.46,34.55,28.5l.08.05a1.72,1.72,0,0,1-.89,3.2Z" opacity=".93"/><path fill="#fff" d="M2769,2437.37a26,26,0,0,0,3.82-10.72,35.66,35.66,0,0,0-.44-11.29,58.12,58.12,0,0,0-3.71-10.87c-.76-1.78-1.81-3.47-2.68-5.2l-3.06-5.61c-8.06-15.12-15.42-31.2-17.46-49.7a47.36,47.36,0,0,1-.27-7.07c.06-1.2.08-2.39.19-3.59l.6-3.65c.25-2.42,1.34-4.83,2-7.21.51-1.17,1.15-2.3,1.74-3.43a15.07,15.07,0,0,1,2-3.26l2.4-3a27.14,27.14,0,0,1,2.79-2.57,32.09,32.09,0,0,1,6.1-4.21c4.35-2.24,9.45-4.27,15.27-3.4a18.14,18.14,0,0,1,13.18,9.46,28.06,28.06,0,0,1,3.14,14.29,44.94,44.94,0,0,1-9.55,24.91,1.66,1.66,0,0,1-2.35.31,1.69,1.69,0,0,1-.46-2.1c3.72-7.35,5.71-15.42,5.22-23a22.42,22.42,0,0,0-3.27-10,9,9,0,0,0-7.06-4.26c-5.49-.35-12.59,4.78-16.12,10-3.85,5.44-4.19,13-3.48,20.48s3.22,15.35,6,23,6.19,15.21,9.58,22.85l2.63,5.74c.83,2.14,1.79,4.19,2.47,6.4a51.7,51.7,0,0,1,2.73,13.64c.46,9.34-2.36,19.32-9.75,25.47a1.66,1.66,0,0,1-2.44-2.19Z" opacity=".93"/><path fill="#fff" d="M2801.9,2439.5a118.41,118.41,0,0,0,18.95-34.63,124.55,124.55,0,0,0,6.46-37l.18-4.71-.2-4.76-.16-4.76c0-1.58-.26-3.09-.38-4.64a106.68,106.68,0,0,0-3.74-18.4c-3.45-12.24-9-24.19-15.19-36.44-3.1-6.12-6.32-12.35-9.42-18.9a122.54,122.54,0,0,1-8.21-21.19c-2.12-7.61-3.17-16.62-1-25.38a43,43,0,0,1,5-12.2,53.25,53.25,0,0,1,7.88-9.8,33.25,33.25,0,0,1,11.42-7.46,23.16,23.16,0,0,1,14.85-.52,26.26,26.26,0,0,1,11.43,7.62,36.57,36.57,0,0,1,6.54,10.52c6.12,14.76,3.4,32.21-6.54,43.19a1.67,1.67,0,0,1-2.36.12,1.7,1.7,0,0,1-.34-2.07,37.06,37.06,0,0,0-.57-36.4c-3-5.13-7.71-9-11.71-9.52a8.68,8.68,0,0,0-5.57,1,18.45,18.45,0,0,0-5.36,4.69,36.82,36.82,0,0,0-4.42,7,25.18,25.18,0,0,0-2.09,15.07,40.11,40.11,0,0,0,2.09,8.21c4,11.29,11.47,23,18.28,35.35s13.61,25.64,18.12,40.19a130.14,130.14,0,0,1,4.76,22.53,95.28,95.28,0,0,1,.68,11.49l.11,5.71c-.11,1.91-.23,3.83-.41,5.74-1.17,15.25-5.63,30.59-13.76,43.64s-19.45,23.94-33.47,29.45a1.7,1.7,0,0,1-1.94-2.64Z" opacity=".93"/><path fill="#f3ce90" d="M3190.74,2163.59c127.49-35.47,202-168.72,166.33-297.61s-167.86-204.63-295.35-169.16-201.95,168.72-166.32,297.61S3063.25,2199.06,3190.74,2163.59Zm-11.64-42.1c-104.48,29.07-212.86-33-242.06-138.64s31.83-214.85,136.32-243.92,212.86,33,242.06,138.64S3283.59,2092.41,3179.1,2121.49Z"/><path fill="#ef7c59" d="M2933.8,2073.74c57.46,78.36,158.59,117.22,256.94,89.85,127.49-35.47,202-168.72,166.33-297.61a244.05,244.05,0,0,0-27.53-63.15,243.28,243.28,0,0,1,38.4,79.31c35.63,128.89-38.84,262.14-166.32,297.61C3096.72,2208.94,2988.66,2162.8,2933.8,2073.74Z"/><path fill="#ef7c59" d="M3084.56,1756.28c-104.48,29.07-165.52,138.27-136.32,243.92a200.44,200.44,0,0,0,19.28,46.31,199.67,199.67,0,0,1-30.48-63.66c-29.2-105.64,31.83-214.85,136.32-243.92,88.09-24.51,178.95,15.76,222.79,92.32C3249.23,1766.13,3165.73,1733.69,3084.56,1756.28Z"/><path fill="#f3ce90" d="M3206.48,2067.12a7.28,7.28,0,0,0-.8-1.87,7.52,7.52,0,0,0-10.33-2.54c-2.88,1.73-71.79,41.94-146.12-5.64s-62.37-141-62.23-142a7.52,7.52,0,0,0-14.9-2c-.59,4.22-13.5,103.85,69,156.65s158.81,7.78,162,5.84A7.54,7.54,0,0,0,3206.48,2067.12Z" opacity=".5"/><path fill="#f3ce90" d="M3356.54,1998.51l335,117.84s25.15,12.18,13.21,38.53-35.24,16.2-35.24,16.2l-331.66-129Z"/><path fill="#ef7c59" d="M3489.31,2101h0l19.71-48.85,182.51,64.21s25.15,12.18,13.21,38.53-35.24,16.2-35.24,16.2Z"/><path fill="#d1573b" d="M3496.52,2082.51l153.07,60s13.9,3.33,15.79,11.92a12.31,12.31,0,0,1-5.08,12.92l-171-66.4Z"/><path fill="#f5b0a6" d="M2340.45,2052.27c15.64-41.44,68.81-144.34,57.57-151.09s-53.56,57.77-53.56,57.77,45.32-118,29.33-125.25-71.58,95-71.58,95,36.46-131.06,13.22-136.64-57.83,123.83-57.83,123.83,13.8-104.6-6.71-105.26-53.44,139.21-53.44,139.21-19-74.61-37-70.21,9.79,157,9.55,187.78-14.72,101.23-14.72,101.23l142.39,25.52S2324.81,2093.72,2340.45,2052.27Z"/><path fill="#ef7c59" d="M2132.93,2116.45q-9.48-31.27-21.43-61.63c-24.24-61.49-56.72-119.77-118.34-145.22-22.21-9.18-49.55-11.86-68.1,4.05-13,11.13-18.9,29-22.54,46.32-17,80.55,2.88,164.7,30.29,241.94,16.75,47.2,36.27,93.59,59.88,137.4,20.83,38.65,46.35,78.94,85.77,98,16.57,8,36.52,11.57,52.71,2.7,20.94-11.48,28.52-39,31.66-63.81C2173.78,2289.75,2157.86,2198.83,2132.93,2116.45Z"/><path fill="#ef7c59" d="M2334.64,2120.24l-184.94-58.68s-165.62,367.1-37.2,400.35S2303.44,2259.66,2334.64,2120.24Z"/><path fill="#93380a" d="M2102.08,2180.29c1.8-4.76,2.09-6.56,3.32-9.6,6.87-19.59,14.29-39,22.88-57.71.83-1.79,3.78-.52,3.08,1.38-6.22,16.88-12.57,33.68-18.69,50.57a1.43,1.43,0,0,1-.28,1.14c-.08.11-.15.22-.24.33-6,16.47-11.67,33-16.82,49.83-10.59,34.56-18.18,70-28.39,104.64-.5,1.69-2.66,1-2.44-.71,4.89-36.2,15.75-71.83,26.63-106.43Q2096.39,2197,2102.08,2180.29Z"/><path fill="#f2b761" d="M1396.36,2677.93c52.33,6.86,405.85,51.66,724.06-19.85-.09-31.08-.88-63.61-2.25-97-1.27-33.79-3.22-68.5-5.67-103.43-2.74-38.35-6-76.91-9.78-114.85-4.21-42.3-9.1-83.77-14.38-123.27-5.48-40.43-11.35-78.89-17.61-114-6.65-37.42-13.69-71.2-20.84-99.68-9.87-39.29-20.15-68.5-30.22-83.88-4.31-6.66-18.49-15-39.32-23.81-67.5-28.58-205.53-62.26-309.61-59.66-119.83,3-205.62,27.55-232.22,57.27a34.66,34.66,0,0,0-7.63,12.37c-2.45,7.49-6.17,49.48-10.28,110.91-1.85,27.85-3.81,59.87-5.67,94.48-2.25,39.08-4.4,81.49-6.45,125.25-1.77,38.25-3.53,77.43-5,116.3-1.77,42.93-3.33,85.44-4.5,125.57-1,33.57-1.76,65.48-2.25,94.79C1396.06,2615.47,1395.87,2650.49,1396.36,2677.93Z"/><path fill="#f3ce90" d="M1396.36,2677.93c52.33,6.86,405.85,51.66,724.06-19.85-.09-31.08-.88-63.61-2.25-97q-194.12,39.6-389,41a1927.71,1927.71,0,0,1-246.9-14.34c-28.46-3.54-56.93-7.59-85.49-12.37C1396.06,2615.47,1395.87,2650.49,1396.36,2677.93Z"/><path fill="#f3ce90" d="M1399,2480.66q56.64,8.73,113.18,14a1937,1937,0,0,0,501-17.57c33.17-5.51,66.23-12.06,99.29-19.44-2.74-38.35-6-76.91-9.78-114.85a2012.75,2012.75,0,0,1-373.58,37.84,1949.59,1949.59,0,0,1-246.9-14.24c-26.21-3.23-52.43-7.07-78.74-11.34C1401.73,2398,1400.17,2440.53,1399,2480.66Z"/><path fill="#f3ce90" d="M1408.49,2238.79c34.52,5.09,69.06,9.35,103.69,12.57a1937,1937,0,0,0,501-17.56q37.57-6.24,75.13-14.24c-5.48-40.43-11.35-78.89-17.61-114a2007.07,2007.07,0,0,1-341.59,31.8,1945.89,1945.89,0,0,1-246.9-14.24q-33.6-4-67.3-9.56C1412.69,2152.62,1410.54,2195,1408.49,2238.79Z"/><path fill="#f3ce90" d="M1420.61,2019.06q45.8,6.54,91.57,10.91c167,15.9,334.35,9.88,501-17.67,12.23-2,24.46-4.16,36.68-6.44-9.87-39.29-20.15-68.5-30.22-83.88-4.31-6.66-18.49-15-39.32-23.81A1961.3,1961.3,0,0,1,1729.14,1916a1925.91,1925.91,0,0,1-246.9-14.35c-14.57-1.76-29.15-3.74-43.72-5.82a34.66,34.66,0,0,0-7.63,12.37C1428.44,1915.64,1424.72,1957.63,1420.61,2019.06Z"/><path fill="#ef7c59" d="M1305.71,2027.15q32.51-42.69,67.61-83.06c36.53-42.07,120-112.21,176.09-72.45,17.83,12.63,19.33,40.81,18.08,61.15-3,49-23.65,96.79-45,139.49a949.39,949.39,0,0,1-122.08,185.31c-45.84,54.62-99.59,114.17-159.18,151.75-3.94,2.49-8.69,4.31-12.89,6.37-26.8,13.15-70.11,22-93.23-3.64-26.33-29.24-13.42-74.93,0-107.24C1176.7,2204.79,1241.25,2111.83,1305.71,2027.15Z"/><path fill="#f5b0a6" d="M1535.46,1961.68c8.79,37.49,4.87,35.24,14.45,28.54s93.83-71,119.49-21.83a127.9,127.9,0,0,1,7.77,19.32,86.56,86.56,0,0,1,.83,25.16c-1.56,12.65-4.22,24-.9,36.63,2.81,10.69,7.36,18,2.88,28.82-3.66,8.82-8,17-8,26.95-.1,12.59,5,22.3,2.23,35.34-.47,2.13-1.17,4.18-1.82,6.25-.4.32-.76.71-1.17,1-2.56,2-5.18,3.82-7.8,5.67-24.36,17.33-54.66,23.5-81.51,35.25-41.28,18.08-79.06,42.87-116.12,69.09l-76.1-152.6C1475,2066.76,1475,1960.79,1535.46,1961.68Z"/><path fill="#f18a8b" d="M1450.73,2052.41c14,16.78,27.94,33.61,41.49,50.8,15.55,19.71,30.38,40.05,45.91,59.77,8.88,11.28,17.92,22.43,26.73,33.77-34.75,17.08-67.21,38.58-99.12,61.15l-76.1-152.6C1417.34,2092.79,1436,2073.17,1450.73,2052.41Z"/><path fill="#ef7c59" d="M1293.89,2156.86c34.35-26.51,113.27-103.54,152.11-121.87,4.71,15.08,98.8,173.49,105.37,186.53-28.13,28-121.24,105.48-152.43,128q-25.61,18.43-52.61,34.52c-54.75,32.57-179.88,91.68-225.66,27.73C1098.9,2381.34,1121.19,2290.16,1293.89,2156.86Z"/><path fill="#93380a" d="M1253.52,2185.84c5.25-4.81,10.64-9.41,16.09-13.91-3.79,1.44-7.59,2.89-11.33,4.47-10.15,4.28-19.76,9.68-29.61,14.65a1.37,1.37,0,0,1-1.31-2.39c8.9-6.72,19-11.79,29-16.29,4.94-2.22,9.92-4.22,15-5.94,2.72-.91,5.5-1.87,8.3-2.7,12.35-9.92,24.76-19.67,36.44-30.31,20.53-17.9,41.14-35.83,62.11-53.32,21.45-16.71,42.66-34.48,67.42-45.83l.67-.31.34.79,6.22,14.55-7.18-13.22c-23,13.41-43.25,31.55-63.62,49.18-20.69,17.67-40.74,36.2-61.4,54.09-10.32,8.85-21.08,17.66-31.89,25.77l-31.93,25.23q-31.64,25.67-61.63,53.67C1213.28,2223.13,1233,2204,1253.52,2185.84Z"/><path fill="#93380a" d="M2120.42,2658.08c.2-47.69.74-95.51-2-143.18-1-23.85-1.83-47.74-3.82-71.52l-5.75-71.37c-1.83-23.8-4.74-47.48-7.69-71.16s-5.6-47.38-8.81-71c-7.27-47.13-15.18-94.17-24.65-140.8,3.7,23.54,6.34,47.26,9.57,70.85s7,47.09,9.49,70.78c2.32,23.71,5.18,47.35,7.77,71s5.39,47.31,7,71.08l6.39,71.17c2.32,23.71,2.93,47.55,4.86,71.3C2116.72,2562.76,2117.59,2610.41,2120.42,2658.08Z"/><path d="M1715.13,1237.24s-3-132.18-122.18-111.28-104.2,128-100.2,142.09,13.27,37.53,17.31,41.94Z"/><path fill="#3a3a3a" d="M1492.75,1268.05c-1.21-4.28-3.43-17.09-2.61-33.45,60.3,54.39,130.23-8.07,167.85-32.16,29.68-19,22.19-47.35,17.59-58.66,38.14,32.59,39.55,93.46,39.55,93.46L1510.06,1310C1506,1305.58,1496.75,1282.17,1492.75,1268.05Z"/><path d="M1505.78,1318.47l2-2c-24.71-24.91-36.16-50.73-34-76.76,3.52-42.86,43.22-71.94,43.62-72.23l-1.63-2.28c-.41.29-41.13,30.1-44.77,74.26C1468.74,1266.37,1480.45,1292.94,1505.78,1318.47Z"/><path fill="#3a3a3a" d="M1593,1759.8s177,42.45,318.43,2.46c0,0,13.94-22.39,14-24.48s12.1-55.45,12.29-61.72,20.69-163.52-3-162.15-265.89,152.61-265.83,150.51-138.37-1.4-138,8.38-4.61,37.54,13.67,54.14S1593,1759.8,1593,1759.8Z"/><path fill="#f5b0a6" d="M1619.92,1647.44l16.58,238.11s40,25.12,101.79,19.78c74.43-6.43,89.27-26.63,89.27-26.63l-15.93-147.16-9.37-78.48Z"/><polygon fill="#f18a8b" points="1644.13 1761.27 1826.7 1868.77 1811.63 1731.57 1644.13 1761.27"/><path fill="#f5b0a6" d="M1924,1611.13s1.18,76.91-12.45,92.37-77.2,79.54-159.17,78.76-156.32-20.78-212.66-88.06l49.36-72.13Z"/><path fill="#f5b0a6" d="M1487.83,1588c-3.87-94.11-9-181.63,70.92-248.07,63.44-52.75,152.74-67.08,231.34-46,97.49,26.12,134.16,155.84,134,246.83-.07,40.2,4,82.8-11,120.09-41,102.08-152,103.6-249.45,92.71-54.91-6.13-90.62-38.72-116.56-88.51Z"/><path d="M1628.08,1376.72s4.35,103,37.77,121.37l75.06-.36L1738,1449.6s14.15,48.34,26.2,49.18,103.08-8.29,103.08-8.29L1846,1396.35s90.32,100,90.58,189.81-32.82,186.56-32.82,186.56,101.39,5.23,108.13-67.46,52.38-502.23-297.77-491.34c-354.38,11-283.07,430.92-283.07,430.92s4.45,116.3,55.93,128,121.63-.79,121.63-.79-77.78-56.41-50.47-229.57c0,0,31.17-37.75,60.38-36.51C1618.49,1506,1621.36,1377.62,1628.08,1376.72Z"/><path fill="#3a3a3a" d="M1540.63,1549c-18.23-77.58,20.66-191.64,21-192.78l4.3,1.34c-.4,1.13-38.9,114.08-20.94,190.5Z"/><path fill="#3a3a3a" d="M1557.45,1523.06c-14.9-26.12,9.45-136.85,10.5-141.55l4.42.89c-.25,1.13-25.06,113.87-10.94,138.61Z"/><path fill="#3a3a3a" d="M1710.07,1497.64c-38.42-43.56-28.82-165.21-29-171.44l4.52-.13c0,1.51-7.42,129.29,30,171.71Z"/><path fill="#3a3a3a" d="M1842.08,1492.05l-6,1.14c3.24-62.33-30.07-147.85-30.42-149L1810,1343C1810.33,1344.12,1845.35,1429,1842.08,1492.05Z"/><path fill="#3a3a3a" d="M1823.32,1494l-5.13.75c3.94-55.76-23.28-113.29-23.55-114.11l4.31-1.29C1799.23,1380.15,1827.31,1437.41,1823.32,1494Z"/><path fill="#3a3a3a" d="M1956.28,1534.28c-9.16-98.56-84.74-182.67-85.5-183.51l3.42-2.81c.77.85,77.3,86,86.58,185.93Z"/><path fill="#3a3a3a" d="M1934.68,1513.91c-7-58.19-58.52-125.62-59-126.3l3.64-2.53c.53.68,52.78,69,59.89,128.34Z"/><path fill="#f5b0a6" d="M1592.29,1614.59c4.82,40.48-25.83,77.79-68.46,83.34s-81.08-22.76-85.9-63.23,25.82-77.79,68.45-83.34S1587.46,1574.12,1592.29,1614.59Z"/><polygon fill="#f18a8b" points="1535.61 1646.41 1540.27 1640.23 1491.22 1603.02 1486.56 1609.21 1535.61 1646.41"/><polygon fill="#f18a8b" points="1498.42 1647.7 1516.32 1627.28 1510.51 1622.16 1492.61 1642.59 1498.42 1647.7"/><path fill="#626262" d="M1429,1586.8c.29-3.44.23-2.76,0,0Zm-2.09,25c0,.36-.05.65-.07.84C1426.87,1612.39,1426.89,1612.13,1426.91,1611.84Zm.58-6.95c-.15,1.86-.29,3.54-.4,4.89C1427.23,1608.05,1427.37,1606.42,1427.49,1604.89Zm.25-3-.06.72Zm.6-7.2c-.09,1.07-.18,2.16-.27,3.26C1428.17,1596.81,1428.26,1595.72,1428.34,1594.72Zm.28-3.33c-.08,1-.17,2-.26,3.07C1428.46,1593.33,1428.54,1592.31,1428.62,1591.39Z"/><path fill="#f18a8b" d="M1770.15,1630.44l.49-.1,39.88-11.25a3.71,3.71,0,0,0,2.6-4.38l-20.37-91.06a3.81,3.81,0,0,0-4.41-2.79,3.69,3.69,0,0,0-2.79,4.42l19.61,87.64-36.52,10.29a3.7,3.7,0,0,0,1.51,7.23Z"/><path fill="#202020" d="M1698.17,1550.66c-.6,13.75,5.76,25.11,14.21,25.39s15.77-10.63,16.36-24.37-5.77-25.1-14.21-25.39S1698.76,1536.92,1698.17,1550.66Z"/><path fill="#202020" d="M1840.32,1555.39c-.6,13.75,5.77,25.11,14.21,25.39s15.77-10.63,16.36-24.37-5.77-25.11-14.21-25.39S1840.91,1541.65,1840.32,1555.39Z"/><path fill="#202020" d="M1711,1691.7a45.18,45.18,0,0,0,5.13,6.16c12.58,12.73,33.49,19.94,53.17,17.63a61.91,61.91,0,0,0,24-8c11.38-6.8,19.91-16.89,22.7-28.19,1.61-6.5.5-14.71-6.73-17.77a18.51,18.51,0,0,0-5.34-1.08,67.92,67.92,0,0,0-10.19,1.08,151.19,151.19,0,0,1-55.21-1.24c-6.43-1.48-12.74-2.19-18-1.58s-9.66,2.53-12.19,6.54C1703.18,1673.4,1705.63,1683.58,1711,1691.7Z"/><path fill="#fff" d="M1720.58,1658.7c.07,4.43,1,8.86,3.94,12,3.24,3.55,8.16,5,13,6a127,127,0,0,0,52.88.31c4.14-.88,8.55-2.14,11.21-5.24s2.86-7.27,2.38-11.31a67.92,67.92,0,0,0-10.19,1.08,151.19,151.19,0,0,1-55.21-1.24C1732.12,1658.8,1725.81,1658.09,1720.58,1658.7Z"/><path fill="#f18a8b" d="M1716.13,1697.86c12.58,12.73,33.49,19.94,53.17,17.63a61.91,61.91,0,0,0,24-8c-6.59-8.51-18.19-13.56-29.56-15.61C1747.73,1688.88,1730.39,1690.55,1716.13,1697.86Z"/><path d="M1673.33,1485.43c6.73,14.08,60.6,2.83,57.22-11.17C1725,1451,1662.67,1463.13,1673.33,1485.43Z"/><path d="M1892.74,1488.54c-7,14-60.65,2.35-57-11.63C1841.85,1453.71,1903.88,1466.33,1892.74,1488.54Z"/><path d="M1618.49,1506s-49.38,45.76-28.19,107.62c0,0-24-51.82-36.84-59.28S1591.86,1485.19,1618.49,1506Z"/><path fill="#f18a8b" d="M1713.25,1618.7a56.43,56.43,0,0,1-59.47,60.46c-28-1.64-50.83-24.36-52.75-52.51a56.42,56.42,0,0,1,59.46-60.45C1688.49,1567.83,1711.33,1590.55,1713.25,1618.7Z"/><path fill="#f18a8b" d="M1895.41,1688.15a53.48,53.48,0,0,0,21.83-1.61c5.58-24.52,7.45-83.62,7.88-100.32a52.68,52.68,0,0,0-15.52-4.58,53.73,53.73,0,0,0-14.19,106.51Z"/><path fill="#7a8db0" d="M3940.88,2702.47a57.53,57.53,0,0,1-57.53,57.53H884.16a57.53,57.53,0,1,1,0-115.06H3883.35A57.53,57.53,0,0,1,3940.88,2702.47Z"/></g></svg>