<svg xmlns="http://www.w3.org/2000/svg" enable-background="new 0 0 2500 2500" viewBox="0 0 2500 2500"><path fill="#161c1c" d="M580.15,486.55h196.03v1324.34H580.15c-79.13,0-143.3-64.17-143.3-143.3V629.85
					C436.85,550.72,501.02,486.55,580.15,486.55z"/><path d="M777.87,1812.57H580.15c-79.95,0-144.99-65.04-144.99-144.99V629.85c0-79.95,65.04-144.99,144.99-144.99h197.72V1812.57
					z M580.15,488.24c-78.09,0-141.61,63.53-141.61,141.61v1037.73c0,78.08,63.53,141.61,141.61,141.61h194.34V488.24H580.15z"/><path fill="#fff" d="M473.39,629.85v1037.73c0,79.13,64.17,143.3,143.3,143.3h543.6c79.17,0,143.3-64.17,143.3-143.3V629.85
				c0-79.13-64.14-143.3-143.3-143.3h-543.6C537.56,486.55,473.39,550.72,473.39,629.85z"/><path d="M1160.29,1812.57h-543.6c-79.95,0-144.99-65.04-144.99-144.99V629.85c0-79.95,65.04-144.99,144.99-144.99h543.6
				c79.95,0,144.99,65.04,144.99,144.99v1037.73C1305.28,1747.53,1240.24,1812.57,1160.29,1812.57z M616.69,488.24
				c-78.09,0-141.61,63.53-141.61,141.61v1037.73c0,78.08,63.53,141.61,141.61,141.61h543.6c78.09,0,141.61-63.53,141.61-141.61
				V629.85c0-78.08-63.53-141.61-141.61-141.61H616.69z"/><path fill="#161c1c" d="M981.36,549.41c0,9.21-7.47,16.68-16.68,16.68H812.26c-4.57,0-8.75-1.86-11.76-4.88
				c-3.02-3.02-4.88-7.2-4.88-11.8c0-9.21,7.47-16.64,16.64-16.64h152.42c4.6,0,8.78,1.86,11.8,4.88
				C979.5,540.63,981.36,544.81,981.36,549.41z"/><path fill="#242b2b" d="M1096.68,1352.04c-34.39-128.82-79.66-285.07-79.66-285.07l-105.16-46.14l-87.64,166.07
																	c0,0,25.33,79.36,52.57,165.14H1096.68z"/><path fill="#242b2b" d="M889.11,1352.04c17.14-144.88,36.46-297.66,36.46-297.66l-167.77,7.74
																	c0,0-36.69,52.58-55.34,136.3c-7.05,31.58-11.8,91.38-14.99,153.62H889.11z"/><path fill="#fff" d="M893.86,1326.36l-3.36-0.4c5.03-42.14,10.44-86.77,16.55-136.44l3.36,0.41
																C904.29,1239.6,898.88,1284.23,893.86,1326.36z"/><path fill="#ff4148" d="M1375.4,853.98c0,0-143.56,143.6-184.25,149.71c-25.65,3.87-56.73-9.54-87.35-29.73
								c-34.56-22.85-68.51-54.36-93.32-79.58c-23.49-23.84-38.82-42.08-38.82-42.08l9.01-145.79c0,0,1.88,0.53,5.21,1.53
								c19.44,5.78,47.94,21.22,77.21,42.83c34.59,25.51,116.13,120.17,116.13,120.17l131.88-101.46
								C1318,720.77,1430.65,841.31,1375.4,853.98z"/><path d="M1103.8,973.95c-34.56-22.85-68.51-54.36-93.32-79.58c18.13-46.83,37.75-97.4,37.75-97.4
								S1079.14,922.32,1103.8,973.95z"/><path fill="#ff4148" d="M1068.48,1143c-24.41,33.17-346.91,36.49-376.96-8.56c-12.49-18.73,18.1-58.99,19.35-62.41
									c0.35-0.98-48.31-281.79-13.83-325.34c13.95-17.62,67.42-33.6,100.06-41.83c47.46-11.97,91.36-15.9,137.81-8.78
									c36.12,5.54,78.07,18.35,96.81,35.53c33.97,31.11,12.9,322.84,15.59,334.77c1.29,5.79,7.81,20.89,15.38,29.5
									c3.24,3.73,5.55,8.55,7.46,13.43C1074.65,1120.82,1075.24,1133.86,1068.48,1143z"/><path d="M766.93,768.32c0,0,22.93,17.93,30.17,56.91s-5.45,174.37-5.45,174.37l166.74,32.15l-211.96,9.96L766.93,768.32z"/><path fill="#ffcfc5" d="M819.14,713.94c22.6,40.08,51.84,42.13,90.8,36.94c10.14-28.74,13.36-8.21,12.35-42.59L819.14,713.94z"/><polygon fill="#ffcfc5" points="922.31 708.29 819.11 713.96 825.82 596.4 826.52 584.37 836.36 598.37 838.5 602.4 839.49 604.23 840.74 604.92 905.54 641.21 905.49 642.15 913.12 691.11"/><path fill="#fc9b88" d="M913.12,691.11c-33.82-4.12-65.7-37.2-77.39-83.08c-0.36-3.51-1.04-6.71-2.09-9.5
									c-2.6-0.33-5.2-1.03-7.81-2.13l0.7-12.04l9.84,14.01l2.14,4.03l0.98,1.83l1.25,0.68l64.8,36.29l-0.04,0.94L913.12,691.11z"/><path fill="#ffcfc5" d="M909.86,676.16c-36.55,0.33-72.41-34.2-85-83.5c-0.36-3.51-1.04-6.71-2.09-9.5
									c-8.55-0.99-17.6-6.64-23.94-15.76c-10.04-14.47-9.51-32.36,1.33-39.78c6.17-4.28,14.18-4.34,21.93-0.76
									c7.68-50.88,37.51-88.92,74.31-90.13c24.56-0.81,47.05,14.89,62.61,40.31c1.88,3.05,3.68,6.26,5.33,9.6
									c9.55,19.03,15.5,42.3,16.25,67.52C982.84,620.37,948.27,675.79,909.86,676.16z"/><path fill="#242b2b" d="M823.99,628.45c-33.72-19.6-58.59-53.82-66.83-91.95c-2.38-11.03-3.37-22.85,0.77-33.35
									c4.64-11.79,15.27-20.41,26.9-25.44s24.33-6.91,36.86-8.75c-9.56-15.73-3.49-37.47,9.96-50.03s32.39-17.5,50.73-19.01
									c27.54-2.26,55.56,2.43,81.01,13.16c24.72,10.42,49.22,24.65,54.89,53.02c2.23,11.16-0.42,24.05-9.41,31.08
									c-8.21,6.36-20.11,6.44-29.56,2.09c3.43,4.84,1.63,12-2.58,16.14c-4.21,4.18-10.21,5.97-16.04,7.07
									c-16.74,3.18-34.3,1.9-50.41-3.72c-9.87,15.07-32.17,20.26-47.7,11.16l-5.08-0.72l-3.65,39.96l-16.19-16.24
									c1.75-16.05-15.57-26.05-15.57-26.05c-7.74-3.59-15.77-3.53-21.93,0.76c-10.83,7.39-11.38,25.3-1.34,39.76
									c6.34,9.12,15.4,14.78,23.95,15.79c1.07,2.76,1.72,5.96,2.09,9.5c1.2,10.35,0.07,23.35-0.88,36.17"/><path fill="#fac8d7" d="M822.77,583.16c1.05,2.79,1.73,5.99,2.09,9.5C824.05,589.56,823.35,586.39,822.77,583.16z"/><polygon fill="#fc9b88" points="956.67 544.44 967.15 593.12 943.15 595.1"/><path fill="#fff" d="M820.75,685.67c20.53,38.92,56.1,57.14,89.19,65.22c-11.31,15.04-35.31,27.07-38.56,51.58
									c-35.81-25.96-64.36-48.6-74.28-97.61L820.75,685.67z"/><path fill="#fff" d="M912.48,686.99l22.43,9.09c15.5,23,34.3,70.96,27.16,94.16c-12.22-18.69-20.64-31.12-52.12-39.36
									C916.11,732.66,918.86,711.27,912.48,686.99z"/><path fill="#ff4148" d="M728.62,726.85c0,0-58.83,15.46-68.2,75.62c-6.5,41.77-20.44,289.95,39.17,311.24
							s253.56,17.03,253.56,17.03c21.69,2.3,38.36-124.07,10.41-98.4l-183.71-21.03c0,0,14.26-198.2-3.62-228.86
							S728.62,726.85,728.62,726.85z"/><path fill="#ffcfc5" d="M984.8,1041.01c0,0,47.58-38.22,67.64-27.93s-34.79,40.3-34.79,40.3"/><path fill="#242b2b" d="M1044,1186.44h162.36c11.7,0,21.57-8.69,23.03-20.32l27.09-214.41c1.76-13.88-9.03-26.13-23.03-26.13
									h-162.32c-11.7,0-21.57,8.7-23.03,20.32l-27.09,214.41C1019.26,1174.19,1030.04,1186.44,1044,1186.44z"/><path fill="#242b2b" d="M1206.37,1188.13H1044c-7.13,0-13.93-3.07-18.65-8.42c-4.73-5.36-6.92-12.51-6.02-19.61l27.09-214.41
									c1.56-12.42,12.19-21.79,24.71-21.79h162.32c7.16,0,13.97,3.07,18.69,8.43c4.72,5.36,6.92,12.5,6.02,19.6l-27.09,214.41
									C1229.51,1178.76,1218.89,1188.13,1206.37,1188.13z M1071.13,927.28c-10.82,0-20,8.1-21.36,18.84l-27.09,214.41
									c-0.78,6.14,1.12,12.32,5.2,16.95c4.08,4.62,9.95,7.27,16.11,7.27h162.36c10.82,0,20-8.1,21.35-18.84l27.09-214.41
									c0.78-6.14-1.12-12.31-5.2-16.94c-4.08-4.63-9.97-7.28-16.16-7.28H1071.13z"/><path fill="#fff" d="M1052.29,1186.44h162.36c11.7,0,21.57-8.69,23.03-20.32l27.09-214.41
										c1.76-13.88-9.03-26.13-23.03-26.13h-162.32c-11.7,0-21.57,8.7-23.03,20.32l-27.09,214.41
										C1027.54,1174.19,1038.33,1186.44,1052.29,1186.44z"/><path fill="#e5e8ff" d="M1052.29,1186.44h162.36c9.36,0,17.6-5.6,21.19-13.8c-1.13,0.17-2.34,0.25-3.51,0.25h-162.36
										c-13.96,0-24.75-12.25-22.99-26.13l27.09-214.41c0.29-2.3,0.92-4.51,1.84-6.52c-10.12,1.55-18.23,9.61-19.52,20.07
										l-27.09,214.41C1027.54,1174.19,1038.33,1186.44,1052.29,1186.44z"/><path fill="#242b2b" d="M1214.65,1188.13h-162.36c-7.13,0-13.93-3.07-18.65-8.42c-4.73-5.36-6.92-12.51-6.02-19.61
										l27.09-214.41c1.56-12.42,12.19-21.79,24.71-21.79h162.32c7.16,0,13.97,3.07,18.69,8.43c4.72,5.36,6.91,12.5,6.02,19.6
										l-27.09,214.41C1237.8,1178.76,1227.18,1188.13,1214.65,1188.13z M1079.42,927.28c-10.82,0-20,8.1-21.36,18.84
										l-27.09,214.41c-0.78,6.14,1.12,12.32,5.21,16.95c4.07,4.62,9.95,7.27,16.11,7.27h162.36c10.82,0,20-8.1,21.36-18.84
										l27.09-214.41c0.78-6.14-1.12-12.31-5.2-16.94c-4.08-4.63-9.97-7.29-16.16-7.29H1079.42z"/><path fill="#e5e8ff" d="M1166.91,1105.25c14.69,0,28.23-11.92,30.29-26.61c2.02-14.69-8.24-26.57-22.93-26.57
									s-28.23,11.88-30.29,26.57C1141.97,1093.33,1152.22,1105.25,1166.91,1105.25z"/><path fill="#c5cde3" d="M1166.9,1105.24c6.77,0,13.38-2.53,18.65-6.81c-2.81,0.91-5.7,1.39-8.67,1.39
									c-14.69,0-24.94-11.92-22.93-26.61c1.11-7.84,5.46-14.89,11.56-19.72c-10.97,3.52-19.92,13.46-21.54,25.14
									C1141.96,1093.32,1152.21,1105.24,1166.9,1105.24z"/><path fill="#ffcfc5" d="M958.04,1041.71l38.41-3.45c0,0,16.6-9.16,38.79-9.89c22.19-0.73,81.18-0.07,82.27,8.51
								c1.84,14.39-45.08,14.38-60.9,10.77c0,0,59.99,19.97,59.56,26.56c-0.43,6.58-66.85-9.2-66.85-9.2s57.8,18.07,54.65,26.06
								s-62.96-9.04-62.96-9.04s50.51,17.97,45.34,27c-5.16,9.03-63.39,3.72-63.39,3.72s-14.8,9.49-26.83,10.12
								c-12.03,0.63-47.42,0.11-47.42,0.11C936.57,1110.43,941.64,1046.69,958.04,1041.71z"/><path fill="#ffb29f" d="M1087.97,1091.82c-15.09-6.01-31.38-11.12-31.54-11.17l1.01-3.23c0.17,0.05,16.57,5.2,31.79,11.25
								L1087.97,1091.82z"/><path fill="#ffb29f" d="M1088.87,1087.62c-16.44-3.17-32.18-6.9-32.33-6.94l0.78-3.29c0.16,0.04,15.83,3.75,32.19,6.9
								L1088.87,1087.62z"/><path fill="#ffb29f" d="M1088.95,1071.11c-13.09-4.91-24.73-8.8-24.85-8.83l1.07-3.21c0.12,0.04,11.82,3.95,24.97,8.88
								L1088.95,1071.11z"/><path fill="#ffb29f" d="M1089.19,1064.49c-9.47,0-18.83-0.78-24.93-2.17l0.75-3.3c6.89,1.58,21.05,2.68,34.76,1.74l0.23,3.38
								C1096.5,1064.37,1092.84,1064.49,1089.19,1064.49z"/><path fill="#ffcfc5" d="M1432.79,723.21c0.77-0.28,12.64-4.46,15.58,3.97c2.73,7.93-3.87,12.24-4.71,12.76
							c1.02-0.4,8.7-3.07,13.07,2.51c4.8,6.1-3.41,14.13-3.41,14.13s9.26,0.93,7.78,10.72c-2.08,13.54-61.43,57.65-70.1,62.36
							c-6.26,3.35-12.73,6.82-15.86,8.52c-12.42,9.28-59.28-57.28-46.86-66.57c0,0,26.85-63.29,41.96-65.83
							c11.68-1.98,9.42,33.05,9.42,33.05s85.4-73.69,94.32-63.19C1482.75,685.91,1434.27,722.09,1432.79,723.21z"/><path fill="#ffb29f" d="M1405.38,768.3c-0.21,0-0.42-0.01-0.62-0.03c-1.42-0.15-2.57-0.8-3.31-1.88
								c-1.59-2.3-2.11-4.95-1.55-7.89c2.12-11.15,19.69-23.08,20.44-23.59l1.89,2.81c-0.17,0.12-17.15,11.65-19.01,21.41
								c-0.39,2.04-0.05,3.78,1.01,5.34c0.13,0.18,0.33,0.38,0.89,0.44c6.26,0.75,26.47-15.89,37.75-26.48l2.32,2.46
								C1442.15,743.74,1415.7,768.29,1405.38,768.3z"/><path fill="#ffb29f" d="M1416.23,783.6c-0.33,0-0.64-0.02-0.95-0.05c-2.33-0.26-4.19-1.48-5.37-3.53
								c-4.69-8.13,6.13-19.12,6.59-19.58l2.39,2.39c-2.64,2.66-8.87,10.61-6.05,15.5c0.65,1.13,1.55,1.72,2.82,1.87
								c8.84,0.9,28.95-18.52,35.96-26.11l2.48,2.29C1451.46,759.22,1428.58,783.59,1416.23,783.6z"/><path fill="#ffb29f" d="M1420.24,798.21c-0.81,0-1.58-0.08-2.27-0.24c-1.73-0.42-3.07-1.39-3.86-2.81
								c-1.35-2.4-1.67-4.9-0.95-7.43c1.67-5.88,8.53-9.73,8.82-9.89l1.64,2.96c-0.06,0.03-5.93,3.34-7.21,7.86
								c-0.47,1.64-0.25,3.23,0.65,4.84c0.21,0.38,0.62,0.91,1.71,1.18c6.39,1.57,22.79-7.98,28.57-11.78l1.86,2.82
								C1447.12,787.08,1429.94,798.21,1420.24,798.21z"/><path fill="#ffb29f" d="M1364.66,777.3l-1.37-3.09c17.49-7.77,14.72-34.92,14.69-35.19l3.36-0.37
						C1381.48,739.86,1384.42,768.51,1364.66,777.3z"/><rect width="641.62" height="3.38" x="584.44" y="1350.35"/><circle cx="668.02" cy="1539.67" r="93.71" fill="#ffd24f"/><circle cx="900.45" cy="1539.67" r="93.71" fill="#007afd"/><circle cx="1132.89" cy="1539.67" r="93.71" fill="#ff4148"/><path fill="#fff" d="M687.16,1508.66c0,1.69,1.39,3.04,3.08,3.04h5.24v6.73h-5.24c-1.69,0-3.08,1.39-3.08,3.08
					s1.39,3.08,3.08,3.08h5.24v6.7h-5.24c-1.69,0-3.08,1.39-3.08,3.08c0,1.69,1.39,3.08,3.08,3.08h5.21
					c-0.64,14.58-12.68,26.21-27.43,26.21c-14.78,0-26.82-11.63-27.43-26.21h5.21c1.69,0,3.04-1.39,3.04-3.08
					c0-1.69-1.35-3.08-3.04-3.08h-5.24v-6.7h5.24c1.69,0,3.04-1.39,3.04-3.08s-1.35-3.08-3.04-3.08h-5.24v-6.73h5.24
					c1.69,0,3.04-1.35,3.04-3.04s-1.35-3.08-3.04-3.08h-5.24v-1.15c0-15.12,12.28-27.43,27.46-27.43c7.58,0,14.41,3.04,19.41,8.02
					c4.97,5.01,8.05,11.87,8.05,19.41v1.15h-5.24C688.55,1505.58,687.16,1506.97,687.16,1508.66z"/><path fill="#fff" d="M668.02,1581.7c-25.09,0-45.5-20.41-45.5-45.5v-4.9h10.15v4.9c0,19.5,15.86,35.36,35.36,35.36
							c19.5,0,35.36-15.86,35.36-35.36v-4.9h10.15v4.9C713.52,1561.29,693.11,1581.7,668.02,1581.7z"/><rect width="10.15" height="25.72" x="662.94" y="1576.63" fill="#fff"/><rect width="30.96" height="10.15" x="652.54" y="1597.27" fill="#fff"/><path fill="#fff" d="M935.63,1550.74l-38.13,26.19c-8.9,6.08-21.01-0.27-21.01-11.07v-52.38c0-10.8,12.12-17.16,21.01-11.07
			l38.13,26.19C943.39,1533.95,943.39,1545.39,935.63,1550.74z"/><path fill="#fff" d="M1189.52,1568.77c-1.28,7.13-2.52,14.3-3.76,21.46c-0.74,4.18-4.8,6.94-8.91,5.97
			c-49.87-11.66-88.84-50.64-100.51-100.47c-0.97-4.15,1.82-8.21,5.97-8.95c7.17-1.24,14.34-2.48,21.5-3.72
			c3.87-0.7,7.52,1.78,8.49,5.62c2.32,9.45,6.04,18.33,10.89,26.46c2.01,3.41,1.16,7.75-2.05,10c-1.43,1.01-2.87,1.98-4.3,2.98
			c-3.53,2.44-4.18,7.4-1.51,10.73c5.42,6.78,11.58,12.94,18.37,18.37c3.33,2.71,8.29,2.01,10.73-1.51
			c1.01-1.43,1.98-2.87,2.98-4.26c2.25-3.25,6.59-4.11,10-2.09c8.14,4.84,17.01,8.56,26.46,10.89
			C1187.7,1561.21,1190.18,1564.89,1189.52,1568.77z"/><path d="M1891.69,859.8c27.03,10.49,51.76,30.9,60.11,58.66c8.78,29.21-1.63,60.27-10.07,89.58
					c-8.45,29.31-14.47,62.78,1.51,88.77c11.34,18.44,32.4,30.32,40.24,50.5c7.03,18.1,1.27,39.51-11.29,54.32
					s-30.92,23.69-49.75,28.45c-57.65,14.57-123.11-9.67-157.37-58.28c-19.06-27.04-28.48-59.51-37.59-91.31
					c-5.07-17.69-10.14-35.38-15.2-53.08c-5.03-17.57-10.1-35.31-11.36-53.54c-3.17-45.84,21.17-91.51,58.6-117.38
					c17.81-12.32,32.27-16.99,53.17-13C1839.08,848.52,1866.4,849.99,1891.69,859.8z"/><path fill="#ffcfc5" d="M1730.04,1246.14c0,0-66.91,144.87-108.13,153.37c-40.93,8.47-209.7-147.73-228.99-165.74
																					c-2.88-1.58-8.86-4.76-14.62-7.85c-8-4.34-62.72-45-64.62-57.49c-1.37-9.04,7.16-9.9,7.16-9.9
																					s-7.58-7.4-3.15-13.02c4.04-5.14,11.12-2.67,12.07-2.32c-0.77-0.48-6.87-4.46-4.34-11.77
																					c2.7-7.76,13.64-3.89,14.36-3.66c-1.37-1.01-46.07-34.39-37.99-43.87c8.23-9.66,86.97,58.29,86.97,58.29
																					s-2.08-32.31,8.68-30.5c13.94,2.35,35.46,57.9,35.46,57.9l158.1,103.94l30.7-43.66L1730.04,1246.14z"/><path fill="#ffb29f" d="M1365.05,1169.5c-9.57,0-34-22.67-36.8-25.31l2.32-2.46
																						c10.39,9.75,29.05,24.96,34.7,24.38c0.52-0.06,0.66-0.25,0.72-0.35c0.96-1.4,1.26-2.98,0.91-4.82
																						c-1.7-8.95-17.31-19.55-17.47-19.66l1.89-2.81c0.69,0.47,16.94,11.5,18.9,21.83c0.52,2.74,0.03,5.22-1.45,7.37
																						c-0.71,1.03-1.8,1.65-3.15,1.79C1365.44,1169.49,1365.25,1169.5,1365.05,1169.5z"/><path fill="#ffb29f" d="M1355.05,1183.6c-11.46,0-32.59-22.51-35.02-25.15l2.48-2.29
																						c6.46,6.99,24.99,24.91,33.05,24.03c1.12-0.13,1.92-0.65,2.5-1.65c2.56-4.44-3.15-11.71-5.56-14.14l2.39-2.39
																						c0.43,0.43,10.47,10.63,6.1,18.21c-1.11,1.93-2.86,3.08-5.05,3.32
																						C1355.65,1183.59,1355.35,1183.6,1355.05,1183.6z"/><path fill="#ffb29f" d="M1351.36,1197.08c-9,0-24.87-10.28-26.79-11.55l1.86-2.82
																						c5.31,3.5,20.35,12.25,26.24,10.85c0.95-0.23,1.31-0.69,1.49-1.02c0.82-1.45,1.01-2.88,0.59-4.36
																						c-1.16-4.12-6.53-7.14-6.59-7.17l1.64-2.96c0.27,0.15,6.64,3.72,8.2,9.2c0.67,2.36,0.37,4.7-0.89,6.95
																						c-0.75,1.34-2.01,2.25-3.64,2.65C1352.83,1197.01,1352.12,1197.08,1351.36,1197.08z"/><path fill="#ffb29f" d="M1402.53,1177.79c-18.31-8.13-15.58-34.65-15.46-35.78l3.36,0.37
																				c-0.03,0.25-2.57,25.19,13.47,32.31L1402.53,1177.79z"/><path fill="#04b5a4" d="M1578.89,1226.21l40.1,31.32l24.38,16.74l8.78,6.02l23.52,16.12l7.2,4.93l62.08-150.67
																		l-0.1-54.18c0,0-44.16-1.81-79.36,28.75C1639.8,1147.52,1578.89,1226.21,1578.89,1226.21z"/><polygon points="1643.37 1274.27 1652.15 1280.29 1675.67 1296.41 1687.61 1201.87"/><path d="M1272.75,2113.19l94.44-48.33l25.69-21.68l101.3,17.59l-1.87,79.7c0.76,4.18-2.47,7.93-6.63,7.84
																			l-217.61-4.9c-3.66-0.08-6.56-3.11-6.47-6.77l0.18-7.9C1261.93,2121.78,1266.23,2115.68,1272.75,2113.19z"/><path fill="#ffcfc5" d="M1392.88,2043.18l1.81-91.83l101.07,42.2l-1.57,67.22
																			C1452.55,2077.23,1415.41,2070.4,1392.88,2043.18z"/><path fill="#fff" d="M1360.92,2095.9c-6.31-12.44-18.2-13.99-18.71-14.05l0.39-3.36
																			c0.57,0.07,14.18,1.77,21.33,15.88L1360.92,2095.9z"/><path fill="#fff" d="M1340.32,2106.79c-6.34-12.51-18.58-14.03-18.7-14.05l0.38-3.36
																			c0.57,0.07,14.18,1.77,21.33,15.88L1340.32,2106.79z"/><path d="M1012.94,1875.63l106.01,4.24l33.02-6.28l79.63,65.04l-40.75,68.53c-1.39,4.01-6.05,5.7-9.62,3.57
																			l-187.2-111.06c-3.15-1.87-4.18-5.93-2.32-9.08l4.03-6.79C999.31,1877.81,1006.05,1874.6,1012.94,1875.63z"/><path fill="#ffcfc5" d="M1151.98,1873.59l46.64-79.12l67.35,86.37l-34.36,57.8
																			C1187.25,1932.53,1158.24,1908.36,1151.98,1873.59z"/><path fill="#fff" d="M1101.64,1903.99l-3.38-0.15c0.61-13.94-9-21.12-9.4-21.42l1.98-2.74
																			C1091.31,1880.03,1102.33,1888.18,1101.64,1903.99z"/><path fill="#fff" d="M1078.35,1903.36l-3.38-0.15c0.61-13.94-8.99-21.12-9.4-21.42l1.98-2.74
																			C1068.02,1879.4,1079.04,1887.56,1078.35,1903.36z"/><path fill="#007afd" d="M1437.63,1626.37l-72.92,368.64c0,21.08,154.07,50.33,154.07,29.25l75.96-322.97l302.69-1.68
																		l-276.67-111.44l-162.05-14.49L1437.63,1626.37z"/><path fill="#007afd" d="M1341.1,1991.4c-1.31,7.14,0.33,14.27,3.87,19.68c3.24,4.94,8.13,8.54,13.82,9.57
																		c49.98,8.99,99.95,17.27,149.93,24.86c10.33,1.57,20.67-5.04,24-16.36c2.31-7.85,0.93-15.75-2.85-21.53
																		c-3.14-4.81-8.01-8.23-13.73-9.1c-50.34-7.64-100.66-15.98-151-25.02
																		C1354.24,1971.53,1343.35,1979.16,1341.1,1991.4z"/><path fill="#007afd" d="M1295.51,1899.39l113.46-128.13l29.21-146.29c0,0,342.68,74.64,459.27,74.64
																			c0.72,0,1.43,0,2.14-0.01c75.63-0.94,126.03-78.56,96.8-148.32l-26.64-63.59l-97.44,4.74l-15.26,24.11l-4.28-2.8
																			c-99.54-5.26-295.48-61.58-345.32-43.72c-31.68,11.36-327.81,336.6-327.81,336.6
																			C1158.99,1829.65,1274.85,1922.45,1295.51,1899.39z"/><path fill="#04b5a4" d="M1704.69,1111.23c26.74-36.73,196.1-2.68,248.38,36.26
																			c63.44,47.26,57.82,398.46,57.82,398.46c-126.62,0.02-210.66,8.96-317.36-52.96
																			C1693.52,1492.99,1647.78,1189.39,1704.69,1111.23z"/><path d="M1868.77,1254.47l16.75,135.51l-134.59,19.82l182.61,31.81c0,0,12.08-23.09,13.44-24.87
																			s-30.61-115.93-30.61-115.93L1868.77,1254.47z"/><path fill="#fff" d="M1764.99,1687.96c-142.44-21.22-325.33-60.95-327.16-61.35l0.72-3.3
																			c1.83,0.4,184.61,40.1,326.94,61.31L1764.99,1687.96z"/><rect width="147.7" height="3.38" x="1349.45" y="1697.13" fill="#fff" transform="rotate(-78.854 1423.373 1698.887)"/><path fill="#007afd" d="M1154.57,1801.34c-4.61,5.61-6.64,12.64-6.16,19.09c0.43,5.89,2.97,11.42,7.44,15.07
																		c39.35,32.1,79.03,63.58,119.05,94.46c8.28,6.38,20.52,5.62,28.93-2.67c5.83-5.75,8.45-13.32,7.95-20.21
																		c-0.41-5.73-3.01-11.08-7.59-14.62c-40.31-31.1-80.28-62.8-119.92-95.12
																		C1175.7,1790.34,1162.48,1791.73,1154.57,1801.34z"/><path fill="#ffcfc5" d="M1750.94,1409.81l-4.15,69.21c0,0,241.99,44.71,276.8,1.51
																		c35.13-43.59-20.17-206.99-20.17-206.99l-106.26,20.86l26.88,115.96L1750.94,1409.81z"/><path fill="#04b5a4" d="M1924.72,1132.37c76.27,15.84,107.47,188.59,107.47,188.59
																		c-42.84,29.79-104.08,35.3-146.67,20.29c0,0-17.96-79.16-23.4-136.94
																		C1857.38,1154,1904.23,1128.11,1924.72,1132.37z"/><polygon points="1203.73 1780.61 1268.07 1863.58 1184.27 1797.34"/><polygon points="1374.68 1944.6 1470.92 1991.45 1368.84 1974.15"/><path fill="#00887d" d="M1745.2,1165.02c15.55,11.99,34.17-14.46,34.17-14.46l13.87-50.69l-4.03-15.87l-10.15-1.64
																	l-27.04,20.05C1752.02,1102.41,1729.65,1153.03,1745.2,1165.02z"/><path fill="#00887d" d="M1779.37,1150.56c0,0,16.25,37.57,33.55,34.03c17.29-3.54,66.81-68.76,66.81-68.76
																	l-18.07-23.4l-45.95-4.18l-14.68,31.71L1779.37,1150.56z"/><path fill="#ffcfc5" d="M1861.69,1092.44c-22.9,22.9-58.85,44.7-82.28,58.12c-3.34-21.29-8.6-35.72-2.81-59.18
																	L1861.69,1092.44z"/><polygon fill="#ffcfc5" points="1776.59 1091.39 1861.69 1092.44 1863.74 993.07 1856.14 1002.19 1853.6 1005.22 1852.45 1006.59 1851.26 1006.97 1789.88 1026.26 1789.75 1027.06 1781.75 1072.31 1781.67 1072.79"/><path fill="#fc9b88" d="M1779.23,1081.78c0,0,55.52-29.96,70.83-63.19c0.98-2.14,1.76-4.11,2.34-5.93
																	c0.2-0.57,0.36-1.11,0.51-1.65l-2.85,3.4l-0.83,1l-60.67,19.09L1779.23,1081.78z"/><g><circle cx="1743.93" cy="950.2" r="13.91" fill="#ffb902"/></g><g><path fill="#ffcfc5" d="M1761.39,1055.23c30.34,11.31,73.67-7.22,97.03-46.86c6.99,1.64,18.2,0.45,25.75-4.88
																	c12-8.49,16.65-22.66,10.25-31.56c-3.59-5.11-9.5-9.32-16.61-8.72c8.45-42.02-9.35-80.33-37.85-91.73
																	c-21.29-8.51-55.66-7.98-76.61,11.89c-12.89,12.21-24.16,28.74-31.93,48.3
																	C1710.87,982.9,1731.4,1044,1761.39,1055.23z"/></g><g><polygon fill="#fc9b88" points="1766.47 944.99 1743.02 982.39 1762.42 991.29"/></g><g><path d="M1858.38,975.8c2.41-7.43,3.56-16.23-1.12-22.49c-3.54-4.73-9.56-6.8-15.3-8.21c-10.21-2.5-17.85-7.22-28.18-8.47
											c-12.2-1.47-24.44-3.84-35.66-9.06c-14.56-6.78-27.35-19.11-30.89-34.78c-2.65-11.73,0.3-24.61,7.84-33.98
											c7.53-9.37,26.28-20.67,38.31-20.49c7.86,0.11,23.71,4.87,31.19,7.29c16.79,5.43,30.19,10.57,46.98,16
											c8.09,2.62,15.74,9.74,20.97,16.44c11.28,14.47-9.94,36.34-1.86,52.82c3.28,6.69,9.66,12.78,8.52,20.13
											c-0.68,4.39-4.1,7.97-8.05,10.01c-5.04,2.6-10.5,2.02-15.52,3.89C1872.83,965.93,1859.22,973.22,1858.38,975.8z"/></g><g><path fill="#ffcfc5" d="M1720.52,1413.55c0,0-34.53-36.57-52.07-30.43c-17.53,6.14,23.85,36.82,23.85,36.82"/><path fill="#242b2b" d="M1676.46,1533.15h-140.92c-10.16,0-18.72-7.55-19.99-17.63l-23.51-186.1
					c-1.52-12.05,7.84-22.68,19.99-22.68h140.89c10.16,0,18.72,7.55,19.99,17.63l23.51,186.1
					C1697.94,1522.51,1688.58,1533.15,1676.46,1533.15z"/><path fill="#242b2b" d="M1676.46,1534.84h-140.93c-10.98,0-20.3-8.22-21.67-19.11l-23.51-186.1c-0.79-6.22,1.14-12.49,5.28-17.19
					c4.14-4.7,10.12-7.39,16.39-7.39h140.89c10.98,0,20.3,8.22,21.67,19.11l23.51,186.1c0.79,6.23-1.14,12.49-5.28,17.2
					C1688.67,1532.15,1682.71,1534.84,1676.46,1534.84z M1512.02,1308.43c-5.31,0-10.36,2.28-13.86,6.25
					c-3.5,3.97-5.12,9.27-4.46,14.53l23.51,186.1c1.16,9.21,9.03,16.15,18.31,16.15h140.93c5.29,0,10.32-2.27,13.82-6.24
					c3.5-3.97,5.13-9.27,4.46-14.54l-23.51-186.1c-1.16-9.21-9.03-16.15-18.32-16.15H1512.02z"/><path fill="#fff" d="M1669.26,1533.15h-140.92c-10.16,0-18.72-7.55-19.99-17.63l-23.51-186.1
						c-1.52-12.05,7.84-22.68,19.99-22.68h140.89c10.16,0,18.72,7.55,19.99,17.63l23.51,186.1
						C1690.74,1522.51,1681.38,1533.15,1669.26,1533.15z"/><path fill="#e5e8ff" d="M1669.26,1533.15h-140.92c-8.13,0-15.28-4.86-18.4-11.97c0.98,0.15,2.03,0.22,3.05,0.22h140.92
						c12.12,0,21.48-10.63,19.96-22.68l-23.51-186.1c-0.25-2-0.8-3.92-1.6-5.66c8.78,1.34,15.82,8.34,16.94,17.42l23.51,186.1
						C1690.74,1522.51,1681.38,1533.15,1669.26,1533.15z"/><path fill="#242b2b" d="M1669.26,1534.84h-140.92c-10.98,0-20.3-8.22-21.67-19.11l-23.51-186.1c-0.79-6.22,1.14-12.49,5.28-17.19
						c4.14-4.7,10.12-7.39,16.39-7.39h140.89c10.98,0,20.3,8.22,21.67,19.11l23.51,186.1c0.79,6.23-1.14,12.49-5.28,17.19
						C1681.48,1532.15,1675.52,1534.84,1669.26,1534.84z M1504.83,1308.43c-5.31,0-10.36,2.28-13.86,6.25
						c-3.5,3.97-5.12,9.27-4.46,14.53l23.51,186.1c1.16,9.21,9.03,16.15,18.31,16.15h140.92c5.29,0,10.32-2.27,13.82-6.24
						c3.5-3.97,5.13-9.27,4.46-14.54l-23.51-186.1c-1.16-9.21-9.03-16.15-18.31-16.15H1504.83z"/><path fill="#ffcfc5" d="M1750.94,1409.81l-39.62,0.19c0,0-12.52-9.35-30.55-12.45c-18.03-3.1-66.26-9.21-68.12-2.34
				c-3.12,11.54,35.18,16.83,48.5,15.66c0,0-51.23,9.54-51.62,14.96c-0.39,5.42,55.61,0.03,55.61,0.03s-49.22,8.23-47.56,15.11
				c1.66,6.88,52.42-0.28,52.42-0.28s-43.26,8.97-40.06,16.93c3.2,7.96,51.33,10.18,51.33,10.18s11.01,9.42,20.76,11.28
				c9.75,1.87,44.77-0.09,44.77-0.09C1758.14,1470.14,1763.76,1415.72,1750.94,1409.81z"/><path fill="#ffb29f" d="M1639.91,1432.78l-0.81-3.28c12.39-3.06,25.61-5.28,25.74-5.3l0.56,3.34
				C1665.28,1427.56,1652.18,1429.76,1639.91,1432.78z"/><path fill="#ffb29f" d="M1639.6,1429.46l-0.18-3.38c12.95-0.69,25.42-1.89,25.55-1.9l0.32,3.37
				C1665.16,1427.56,1652.62,1428.76,1639.6,1429.46z"/><path fill="#ffb29f" d="M1641.35,1416.7l-0.74-3.3c10.68-2.4,20.13-4.17,20.22-4.19l0.62,3.32
				C1661.35,1412.56,1651.96,1414.31,1641.35,1416.7z"/><path fill="#ffb29f" d="M1656.88,1412.73c-6.72,0-15.68-0.96-23.47-2.59l0.69-3.31c10.45,2.18,21.44,2.84,26.89,2.35l0.3,3.37
				C1659.98,1412.67,1658.49,1412.73,1656.88,1412.73z"/><path fill="#e5e8ff" d="M1581.64,1449.24c-12.05,0-23.15-9.77-24.84-21.82c-1.66-12.05,6.75-21.79,18.8-21.79
				s23.15,9.74,24.84,21.79C1602.09,1439.46,1593.68,1449.24,1581.64,1449.24z"/><path fill="#c5cde3" d="M1581.64,1449.23c-5.55,0-10.97-2.08-15.29-5.59c2.31,0.75,4.68,1.14,7.11,1.14
				c12.05,0,20.46-9.77,18.8-21.82c-0.91-6.43-4.48-12.21-9.48-16.17c8.99,2.89,16.33,11.04,17.66,20.62
				C1602.1,1439.45,1593.69,1449.23,1581.64,1449.23z"/></g><g><path fill="#fff" d="M2063.15,1748.17v353.23c0,25.9-20.98,46.91-46.91,46.91h-367.62c-25.9,0-46.91-21.01-46.91-46.91v-353.23
			c0-25.9,21.01-46.91,46.91-46.91h367.62C2042.17,1701.26,2063.15,1722.27,2063.15,1748.17z"/></g><g><path fill="#e5e8ff" d="M2063.17,1748.17v353.23c0,25.9-20.98,46.91-46.95,46.91h-367.6c-18.73,0-34.93-11-42.41-26.88
			c6.4,3.3,13.63,5.13,21.33,5.13h367.6c25.97,0,46.95-21.01,46.95-46.91v-353.23c0-7.17-1.62-13.95-4.46-20.03
			C2052.8,1714.15,2063.17,1729.96,2063.17,1748.17z"/></g><g><path d="M2016.24,2150h-367.62c-26.8,0-48.6-21.8-48.6-48.6v-353.23c0-26.8,21.8-48.6,48.6-48.6h367.62
			c26.8,0,48.6,21.8,48.6,48.6v353.23C2064.84,2128.2,2043.04,2150,2016.24,2150z M1648.62,1702.94
			c-24.94,0-45.22,20.29-45.22,45.22v353.23c0,24.94,20.29,45.22,45.22,45.22h367.62c24.94,0,45.22-20.29,45.22-45.22v-353.23
			c0-24.94-20.29-45.22-45.22-45.22H1648.62z"/></g><g><path fill="#fff" d="M1449.86,588.98l-82.05,90.72c-13.32,14.72-36.05,15.86-50.77,2.55l-75.6-68.37
			c-2.04-1.85-4.74-2.81-7.49-2.67l-21.87,1.11c-5.73,0.29-10.61-4.12-10.9-9.85l-1.1-21.89c-0.14-2.75-1.36-5.34-3.41-7.18
			l-75.62-68.39c-14.72-13.32-15.86-36.05-2.55-50.77l82.03-90.7c13.33-14.74,36.07-15.88,50.79-2.56l195.98,177.25
			C1462.04,551.52,1463.18,574.25,1449.86,588.98z"/><path d="M1341.11,693.22c-9.34,0-18.23-3.42-25.2-9.72l-75.6-68.37c-1.72-1.56-3.98-2.36-6.27-2.24l-21.87,1.11
			c-6.65,0.28-12.34-4.81-12.67-11.46l-1.1-21.89c-0.12-2.32-1.13-4.46-2.85-6.01l-75.62-68.39c-7.46-6.74-11.84-15.99-12.34-26.03
			s2.93-19.68,9.68-27.13l82.03-90.7c13.93-15.4,37.78-16.61,53.17-2.69l195.98,177.25c7.46,6.74,11.84,15.99,12.34,26.03
			c0.5,10.04-2.93,19.68-9.68,27.13l-1.25-1.13l1.25,1.13l-82.05,90.72c-6.74,7.46-15.99,11.84-26.03,12.35
			C1342.4,693.2,1341.75,693.22,1341.11,693.22z M1234.49,609.5c3,0,5.85,1.1,8.09,3.12l75.6,68.37c6.79,6.14,15.55,9.28,24.69,8.81
			c9.14-0.46,17.55-4.45,23.69-11.23l82.05-90.72c6.14-6.79,9.26-15.56,8.81-24.7c-0.46-9.14-4.45-17.55-11.23-23.69L1250.2,362.21
			c-14.01-12.67-35.72-11.57-48.4,2.44l-82.03,90.7c-6.14,6.79-9.26,15.56-8.81,24.7c0.46,9.14,4.45,17.55,11.23,23.69l75.62,68.39
			c2.39,2.17,3.8,5.13,3.96,8.35l1.1,21.89c0.24,4.79,4.28,8.47,9.13,8.25l21.87-1.11C1234.08,609.5,1234.28,609.5,1234.49,609.5z"/></g><g><path fill="#007afd" d="M1299.1,483.5c-0.81,0-1.62-0.29-2.27-0.88l-70.27-63.55c-1.39-1.25-1.49-3.39-0.24-4.78
			c1.25-1.38,3.39-1.5,4.78-0.24l70.27,63.55c1.39,1.25,1.49,3.39,0.24,4.78C1300.94,483.13,1300.02,483.5,1299.1,483.5z"/></g><g><path fill="#007afd" d="M1219.4,468.76c-10.19,0-21.83-1.14-34.88-4.11c-1.82-0.42-2.96-2.23-2.55-4.05
					c0.41-1.82,2.24-2.95,4.05-2.55c52.33,11.91,81.16-7.39,81.44-7.59c1.53-1.06,3.64-0.67,4.7,0.86c1.06,1.53,0.69,3.63-0.85,4.7
					C1270.37,456.7,1252.54,468.76,1219.4,468.76z"/><path fill="#007afd" d="M1198.14,522.87c-0.81,0-1.62-0.29-2.27-0.88c-1.39-1.25-1.49-3.39-0.24-4.78l52.79-58.37
					c1.25-1.38,3.39-1.5,4.78-0.24c1.39,1.25,1.49,3.39,0.24,4.78l-52.79,58.37C1199.99,522.5,1199.07,522.87,1198.14,522.87z"/><path fill="#007afd" d="M1259.93,529.8c-1.75,0-3.24-1.35-3.37-3.13l-4.99-66.54c-0.14-1.86,1.26-3.49,3.12-3.63
					c1.86-0.13,3.49,1.26,3.62,3.12l4.99,66.54c0.14,1.86-1.26,3.49-3.12,3.63C1260.1,529.79,1260.01,529.8,1259.93,529.8z"/><path fill="#007afd" d="M1336.86,636.35c-0.81,0-1.62-0.29-2.27-0.88l-49.26-44.55c-11.7-10.58-15.85-27.02-10.59-41.89l1.18-3.33
				l-6.56,7.26c-6.24,6.9-15.14,10.57-24.44,9.93c-1.86-0.12-3.28-1.73-3.16-3.59c0.12-1.86,1.71-3.22,3.59-3.16
				c7.19,0.45,14.14-2.35,18.99-7.72l17.91-19.8c1.08-1.2,2.86-1.47,4.24-0.63c1.39,0.83,1.99,2.51,1.45,4.03l-6.83,19.27
				c-4.35,12.29-0.92,25.88,8.75,34.62l49.26,44.55c1.39,1.25,1.49,3.39,0.24,4.78C1338.7,635.97,1337.78,636.35,1336.86,636.35z"/><path fill="#007afd" d="M1277.99,577.42c-0.81,0-1.62-0.29-2.27-0.88c-1.39-1.25-1.49-3.39-0.24-4.78l59.73-66.04
				c1.25-1.38,3.39-1.5,4.78-0.24c1.39,1.25,1.49,3.39,0.24,4.78l-59.73,66.04C1279.83,577.04,1278.91,577.42,1277.99,577.42z"/><path fill="#007afd" d="M1342.11,533.97c-0.81,0-1.62-0.29-2.27-0.88l-31.71-28.68c-1.39-1.25-1.49-3.39-0.24-4.78
				c1.25-1.38,3.39-1.5,4.78-0.24l31.71,28.68c1.39,1.25,1.49,3.39,0.24,4.78C1343.95,533.59,1343.03,533.97,1342.11,533.97z"/><path fill="#007afd" d="M1326.92,550.76c-0.81,0-1.62-0.29-2.27-0.88l-31.71-28.68c-1.39-1.25-1.49-3.39-0.24-4.78
				c1.25-1.38,3.39-1.5,4.78-0.24l31.71,28.68c1.39,1.25,1.49,3.39,0.24,4.78C1328.77,550.38,1327.85,550.76,1326.92,550.76z"/><path fill="#007afd" d="M1311.3,568.03c-0.81,0-1.62-0.29-2.27-0.88l-13.65-12.35c-1.39-1.25-1.49-3.39-0.24-4.78
				c1.25-1.38,3.39-1.5,4.78-0.24l13.65,12.35c1.39,1.25,1.49,3.39,0.24,4.78C1313.14,567.66,1312.22,568.03,1311.3,568.03z"/><path fill="#007afd" d="M1357.83,587.33c-0.81,0-1.62-0.29-2.27-0.88c-1.39-1.25-1.49-3.39-0.24-4.78l24.83-27.45l-20.22-18.29
				c-1.39-1.25-1.49-3.39-0.24-4.78c1.25-1.38,3.39-1.5,4.78-0.24l22.73,20.56c0.67,0.6,1.06,1.44,1.11,2.34
				c0.05,0.9-0.27,1.77-0.87,2.44l-27.1,29.96C1359.67,586.95,1358.75,587.33,1357.83,587.33z"/><path fill="#007afd" d="M1341.9,618.19c-0.81,0-1.62-0.29-2.27-0.88l-30.23-27.34c-0.67-0.6-1.06-1.44-1.11-2.34
				c-0.05-0.9,0.27-1.77,0.87-2.44l29.41-32.52c1.25-1.38,3.39-1.5,4.78-0.24l23.64,21.38c1.39,1.25,1.49,3.39,0.24,4.78
				c-1.25,1.38-3.39,1.5-4.78,0.24l-21.13-19.11l-24.87,27.5l25.21,22.8l9.62-10.63c1.25-1.38,3.39-1.5,4.78-0.24
				c1.39,1.25,1.49,3.39,0.24,4.78l-11.89,13.14C1343.74,617.81,1342.82,618.19,1341.9,618.19z"/></g><g><path fill="#fff" d="M1631.96,923.68v116.03c0,23.62-19.15,42.75-42.75,42.75h-147.58c-23.6,0-42.75-19.13-42.75-42.75V923.68
			c0-23.6,19.15-42.75,42.75-42.75h147.58C1612.82,880.94,1631.96,900.08,1631.96,923.68z"/><path d="M1589.22,1084.15h-147.58c-24.5,0-44.44-19.94-44.44-44.44V923.68c0-24.5,19.94-44.44,44.44-44.44h147.58
			c24.5,0,44.44,19.94,44.44,44.44v116.03C1633.65,1064.22,1613.72,1084.15,1589.22,1084.15z M1441.64,882.63
			c-22.64,0-41.06,18.42-41.06,41.06v116.03c0,22.64,18.42,41.06,41.06,41.06h147.58c22.64,0,41.06-18.42,41.06-41.06V923.68
			c0-22.64-18.42-41.06-41.06-41.06H1441.64z"/></g><g><path fill="#fff" d="M1539.73,1069.79l42.58,32.72c8.48,6.52,20.75,0.47,20.75-10.22v-38.69"/><path d="M1590.15,1106.89c-3.14,0-6.25-1.03-8.87-3.04l-42.58-32.72l2.06-2.68l42.58,32.72c3.46,2.66,7.86,3.09,11.78,1.17
			c3.92-1.93,6.25-5.68,6.25-10.05v-38.69h3.38v38.69c0,5.59-3.12,10.61-8.14,13.08
			C1594.55,1106.39,1592.34,1106.89,1590.15,1106.89z"/></g><g><path fill="#ffb902" d="M1471.22,998.14c0,0.67-0.02,1.25-0.06,1.71c-0.04,0.47-0.1,0.88-0.18,1.21c-0.08,0.34-0.19,0.63-0.32,0.87
			c-0.14,0.24-0.35,0.52-0.65,0.83c-0.3,0.31-0.87,0.71-1.71,1.19c-0.85,0.49-1.88,0.95-3.1,1.39c-1.22,0.45-2.62,0.81-4.19,1.11
			c-1.57,0.3-3.27,0.44-5.1,0.44c-3.58,0-6.8-0.55-9.68-1.65c-2.88-1.1-5.32-2.75-7.34-4.94c-2.01-2.19-3.56-4.92-4.64-8.2
			c-1.07-3.28-1.61-7.1-1.61-11.45c0-4.44,0.59-8.37,1.77-11.81s2.84-6.33,4.96-8.67s4.67-4.11,7.64-5.32
			c2.97-1.21,6.24-1.81,9.82-1.81c1.45,0,2.85,0.12,4.19,0.36c1.34,0.24,2.59,0.56,3.73,0.95c1.14,0.39,2.17,0.84,3.08,1.35
			c0.91,0.51,1.55,0.95,1.92,1.31c0.36,0.36,0.61,0.67,0.74,0.91c0.14,0.24,0.24,0.55,0.32,0.93c0.08,0.38,0.14,0.82,0.18,1.33
			c0.04,0.51,0.06,1.14,0.06,1.9c0,0.81-0.03,1.49-0.08,2.06c-0.05,0.56-0.15,1.02-0.28,1.37c-0.13,0.35-0.3,0.6-0.48,0.77
			c-0.19,0.16-0.4,0.24-0.64,0.24c-0.4,0-0.91-0.23-1.53-0.71c-0.62-0.47-1.42-0.99-2.4-1.57s-2.15-1.1-3.51-1.57
			c-1.36-0.47-2.98-0.7-4.86-0.7c-2.07,0-3.92,0.42-5.54,1.27c-1.63,0.85-3.01,2.06-4.15,3.63c-1.14,1.57-2.01,3.47-2.6,5.7
			c-0.59,2.23-0.89,4.75-0.89,7.54c0,3.07,0.32,5.72,0.95,7.96c0.63,2.25,1.53,4.09,2.7,5.55c1.17,1.45,2.58,2.53,4.23,3.24
			c1.65,0.71,3.51,1.07,5.58,1.07c1.88,0,3.51-0.22,4.88-0.66c1.37-0.45,2.55-0.93,3.53-1.47c0.98-0.54,1.79-1.02,2.42-1.45
			c0.63-0.43,1.12-0.64,1.47-0.64c0.27,0,0.48,0.06,0.64,0.16c0.16,0.11,0.3,0.32,0.4,0.64c0.11,0.32,0.19,0.77,0.24,1.35
			C1471.19,996.4,1471.22,997.17,1471.22,998.14z"/><path fill="#ffb902" d="M1489.48,1004.6c0,0.27-0.09,0.51-0.26,0.72c-0.17,0.21-0.46,0.39-0.87,0.53c-0.4,0.14-0.94,0.24-1.61,0.32
			c-0.67,0.08-1.53,0.12-2.58,0.12c-1.02,0-1.88-0.04-2.56-0.12c-0.69-0.08-1.23-0.19-1.63-0.32c-0.4-0.14-0.69-0.31-0.87-0.53
			s-0.26-0.46-0.26-0.72v-49.27c0-0.27,0.09-0.51,0.26-0.72c0.18-0.21,0.47-0.39,0.89-0.53c0.42-0.14,0.96-0.24,1.63-0.32
			c0.67-0.08,1.52-0.12,2.54-0.12c1.05,0,1.91,0.04,2.58,0.12c0.67,0.08,1.21,0.19,1.61,0.32c0.4,0.14,0.69,0.31,0.87,0.53
			c0.17,0.21,0.26,0.46,0.26,0.72V1004.6z"/><path fill="#ffb902" d="M1543.59,1002.09c0.32,0.97,0.53,1.73,0.61,2.3c0.08,0.56-0.03,0.99-0.32,1.27c-0.3,0.28-0.82,0.46-1.57,0.53
			c-0.75,0.07-1.79,0.1-3.1,0.1c-1.37,0-2.44-0.02-3.21-0.06c-0.77-0.04-1.35-0.12-1.75-0.24c-0.4-0.12-0.69-0.29-0.85-0.51
			c-0.16-0.21-0.3-0.5-0.4-0.85l-3.51-10.48h-19.6l-3.31,10.2c-0.11,0.38-0.25,0.69-0.42,0.95c-0.18,0.26-0.46,0.46-0.85,0.6
			c-0.39,0.15-0.94,0.25-1.65,0.3c-0.71,0.05-1.65,0.08-2.8,0.08c-1.24,0-2.2-0.04-2.9-0.12c-0.7-0.08-1.18-0.28-1.45-0.58
			c-0.27-0.31-0.36-0.75-0.28-1.31c0.08-0.56,0.28-1.32,0.6-2.26l16.09-46.28c0.16-0.46,0.35-0.83,0.56-1.11
			c0.21-0.28,0.56-0.5,1.03-0.65c0.47-0.15,1.12-0.24,1.96-0.28c0.83-0.04,1.94-0.06,3.31-0.06c1.59,0,2.85,0.02,3.79,0.06
			c0.94,0.04,1.67,0.14,2.2,0.28c0.53,0.15,0.9,0.37,1.13,0.67s0.42,0.7,0.58,1.21L1543.59,1002.09z M1519.64,963.83h-0.04
			l-7.38,22.18h14.8L1519.64,963.83z"/><path fill="#ffb902" d="M1596.69,979.35c0,4.33-0.54,8.2-1.61,11.61c-1.07,3.42-2.68,6.31-4.8,8.69c-2.12,2.38-4.75,4.19-7.88,5.44
			c-3.13,1.25-6.75,1.88-10.87,1.88c-4.06,0-7.6-0.53-10.62-1.59c-3.03-1.06-5.55-2.68-7.56-4.86c-2.02-2.18-3.53-4.95-4.54-8.31
			c-1.01-3.36-1.51-7.34-1.51-11.94c0-4.22,0.54-8.02,1.61-11.39c1.08-3.37,2.67-6.24,4.8-8.61c2.12-2.36,4.75-4.18,7.88-5.44
			c3.13-1.26,6.77-1.9,10.91-1.9c3.95,0,7.44,0.53,10.46,1.57c3.02,1.05,5.55,2.66,7.58,4.84c2.03,2.18,3.56,4.93,4.6,8.25
			C1596.18,970.92,1596.69,974.84,1596.69,979.35z M1585.56,979.92c0-2.74-0.22-5.23-0.65-7.48c-0.43-2.25-1.16-4.17-2.2-5.77
			c-1.04-1.6-2.41-2.84-4.13-3.71c-1.72-0.88-3.87-1.31-6.45-1.31c-2.61,0-4.78,0.49-6.53,1.47c-1.75,0.98-3.16,2.29-4.23,3.93
			c-1.08,1.64-1.83,3.55-2.28,5.75c-0.44,2.19-0.67,4.51-0.67,6.95c0,2.85,0.21,5.41,0.65,7.68c0.43,2.27,1.15,4.21,2.18,5.83
			s2.39,2.84,4.11,3.69c1.72,0.85,3.88,1.27,6.49,1.27s4.79-0.49,6.53-1.45s3.16-2.28,4.23-3.95c1.07-1.67,1.83-3.61,2.28-5.83
			C1585.34,984.78,1585.56,982.42,1585.56,979.92z"/></g><g><path fill="#04b5a4" d="M678.6,2057.49c0,0-45.78-125.74-13.28-166.67c32.5-40.94,68-2.52,68-2.52s5.48-87.87,49.85-133.92
			c44.38-46.05,98.65-24.36,110.84,11.88c12.19,36.24-39.07,67.72-58.27,77.47c-19.2,9.76-47.97,36.28-37,45.81
			s44.01-7.68,40.76,35.2C836.24,1967.61,678.6,2057.49,678.6,2057.49z"/></g><g><path d="M666.02,2100.32l-3.29-0.8c24.1-99.31,146.86-299.68,148.09-301.69l2.88,1.77
			C812.47,1801.6,689.99,2001.52,666.02,2100.32z"/></g><g><path d="M707.13,1994.37l-2.8-1.9c1.75-2.58,43.24-63.15,81.95-66.71l0.31,3.37C749.48,1932.54,707.55,1993.75,707.13,1994.37z"/></g><g><path d="M697.01,2015.86l-3.17-1.19c0.13-0.34,12.43-34.79-19.06-83.12l2.83-1.85C710.11,1979.57,697.56,2014.4,697.01,2015.86z"/></g><g><path fill="#04b5a4" d="M652.57,2035.57c0,0,91.44-97.69,77.62-148.1s-61.56-28.99-61.56-28.99s29.44-82.97,6.69-142.74
				s-81.19-61.11-106.61-32.56c-25.43,28.55,9.37,77.62,23.2,94.12c13.83,16.5,29.89,52.19,16.06,56.65
				c-13.83,4.46-37.47-24.33-51.3,16.38C542.84,1891.04,652.57,2035.57,652.57,2035.57z"/><path d="M650.67,2080.45l-3.34-0.55c16.71-100.28-17.5-332.22-17.85-334.55l3.35-0.5
				C633.18,1747.18,667.47,1979.65,650.67,2080.45z"/><path d="M651.09,1966.31c-0.14-0.73-14.69-73.48-47.5-91.18l1.61-2.98c34.21,18.46,48.61,90.46,49.21,93.51L651.09,1966.31z"/></g><g><path fill="#fff" d="M602.67,2074.64l13,67.46c0.68,3.6,3.84,6.2,7.51,6.2h78.55c3.66,0,6.82-2.6,7.51-6.2l13-67.46
			c0.91-4.72-2.72-9.1-7.51-9.1H610.17C605.38,2065.54,601.76,2069.92,602.67,2074.64z"/></g><g><path fill="#e5e8ff" d="M602.67,2074.64l13,67.46c0.68,3.6,3.84,6.2,7.51,6.2h78.55c3.66,0,6.82-2.6,7.51-6.2l0.22-1.19
			c-0.27,0.02-0.51,0.04-0.77,0.04h-78.55c-3.66,0-6.82-2.6-7.51-6.2l-13-67.46c-0.11-0.57-0.15-1.15-0.11-1.7
			C605.05,2065.96,601.81,2070.14,602.67,2074.64z"/></g><g><path d="M701.72,2150h-78.55c-4.48,0-8.33-3.19-9.17-7.58l-13-67.46c-0.53-2.75,0.19-5.56,1.98-7.72c1.78-2.15,4.4-3.39,7.19-3.39
			h104.55c2.79,0,5.41,1.24,7.19,3.39c1.78,2.15,2.5,4.97,1.98,7.72l-13,67.47C710.06,2146.81,706.2,2150,701.72,2150z
			 M604.33,2074.32l13,67.46c0.54,2.8,2.99,4.84,5.85,4.84h78.55c2.86,0,5.31-2.03,5.84-4.83l13-67.47
			c0.34-1.75-0.12-3.55-1.26-4.92c-1.13-1.37-2.81-2.16-4.58-2.16H610.17c-1.78,0-3.45,0.79-4.59,2.16
			C604.45,2070.77,603.99,2072.57,604.33,2074.32L604.33,2074.32z"/></g><g><path d="M655.35,1990.2l-3.38-0.15c0.07-1.56,2.18-38.52,51.65-71.64l1.88,2.81C657.57,1953.32,655.37,1989.84,655.35,1990.2z"/></g><g><path fill="#fff" d="M1949.43,585.38l-88.03,167.99c-11.82,22.55-39.68,31.25-62.23,19.43l-77.66-40.7
			c-3.13-1.64-6.79-1.97-10.16-0.91l-26.81,8.38c-7.02,2.2-14.5-1.72-16.69-8.74l-8.38-26.83c-1.05-3.37-3.4-6.19-6.53-7.83
			l-77.69-40.71c-22.55-11.82-31.25-39.68-19.43-62.23l88.02-167.97c11.83-22.57,39.7-31.28,62.25-19.46L1930,523.15
			C1952.55,534.97,1961.25,562.83,1949.43,585.38z"/><path d="M1820.51,779.79c-7.62,0-15.18-1.85-22.12-5.49l-77.66-40.7c-2.72-1.42-5.95-1.71-8.87-0.8l-26.8,8.39
			c-3.83,1.2-7.9,0.83-11.45-1.03c-3.55-1.86-6.17-4.99-7.36-8.82l-8.38-26.83c-0.93-2.97-2.95-5.4-5.71-6.84l-77.69-40.71
			c-23.34-12.24-32.38-41.18-20.15-64.52l88.02-167.97c5.93-11.32,15.91-19.64,28.1-23.46c12.18-3.8,25.12-2.64,36.43,3.29
			l223.92,117.34c11.31,5.93,19.63,15.9,23.44,28.09c3.81,12.18,2.64,25.12-3.29,36.43l-88.04,167.99
			c-5.93,11.31-15.9,19.63-28.09,23.43C1830.11,779.06,1825.29,779.79,1820.51,779.79z M1715.3,728.91c2.42,0,4.83,0.57,6.99,1.7
			l77.66,40.7c10.51,5.5,22.53,6.59,33.85,3.05c11.32-3.54,20.59-11.27,26.1-21.78l88.04-167.99c5.51-10.51,6.59-22.53,3.06-33.85
			c-3.54-11.32-11.27-20.59-21.78-26.1L1705.3,407.31c-10.51-5.51-22.53-6.6-33.85-3.05c-11.33,3.54-20.6,11.28-26.11,21.8
			l-88.02,167.97c-11.37,21.69-2.97,48.58,18.72,59.95l77.69,40.71c3.55,1.87,6.17,5,7.36,8.83l8.38,26.83
			c0.93,2.97,2.95,5.39,5.71,6.84c2.75,1.44,5.9,1.73,8.87,0.8l26.81-8.39C1712.29,729.13,1713.79,728.91,1715.3,728.91z"/></g><g><circle cx="1754.35" cy="586" r="107.91" fill="#e5e8ff"/><path d="M1754.23,695.66c-17.48,0-34.82-4.23-50.74-12.58c-53.53-28.05-74.26-94.42-46.21-147.95
			c13.59-25.93,36.46-45.02,64.41-53.74c27.95-8.73,57.62-6.05,83.55,7.54c53.53,28.05,74.26,94.42,46.2,147.95l0,0
			c-13.59,25.93-36.46,45.02-64.41,53.74C1776.24,693.99,1765.21,695.66,1754.23,695.66z M1754.48,479.73
			c-10.64,0-21.34,1.62-31.79,4.88c-27.08,8.46-49.25,26.96-62.42,52.09c-27.19,51.88-7.1,116.2,44.78,143.38
			c25.13,13.17,53.89,15.77,80.97,7.31c27.08-8.46,49.25-26.96,62.42-52.09l0,0c27.19-51.88,7.1-116.2-44.78-143.39
			C1788.23,483.84,1771.42,479.73,1754.48,479.73z"/></g><g><path d="M1839.47,533.1c-17.64,0-35.05-4.28-50.82-12.54c-18.13-9.5-33.18-23.79-43.51-41.33c-0.47-0.81-0.21-1.84,0.6-2.32
			c0.8-0.48,1.84-0.21,2.32,0.6c10.01,17,24.59,30.85,42.16,40.05c17.56,9.21,37.26,13.33,56.93,11.88c0.96-0.1,1.74,0.63,1.81,1.57
			c0.07,0.93-0.63,1.74-1.56,1.81C1844.76,533.01,1842.11,533.1,1839.47,533.1z"/></g><g><path d="M1763.06,695.26c-0.58,0-1.15-0.3-1.47-0.85c-10.04-17.38-24.78-31.51-42.63-40.86c-17.87-9.36-37.89-13.44-57.86-11.79
			c-0.91,0.05-1.75-0.61-1.82-1.55c-0.08-0.93,0.62-1.75,1.55-1.82c20.62-1.71,41.28,2.51,59.71,12.16
			c18.42,9.65,33.63,24.24,43.99,42.17c0.47,0.81,0.19,1.84-0.62,2.31C1763.64,695.19,1763.35,695.26,1763.06,695.26z"/></g><g><path d="M1719.95,686.99c-5.94,0-11.48-1.29-16.47-3.91c-28.98-15.18-29.73-71.09-1.67-124.62
			c13.51-25.77,31.59-47.21,50.92-60.36c19.64-13.36,38.29-16.63,52.5-9.18c28.97,15.18,29.72,71.09,1.67,124.62l0,0
			c-13.51,25.77-31.59,47.21-50.92,60.36C1743.24,682.58,1730.92,686.99,1719.95,686.99z M1788.74,488.4
			c-10.28,0-21.95,4.22-34.12,12.5c-18.88,12.84-36.57,33.85-49.82,59.14c-27.19,51.88-27.07,105.73,0.25,120.05
			c13.06,6.84,30.47,3.65,49.03-8.98c18.88-12.84,36.57-33.85,49.82-59.14c27.19-51.88,27.07-105.73-0.25-120.05
			C1799.16,489.57,1794.14,488.4,1788.74,488.4z M1805.41,612.76h0.03H1805.41z"/></g><g><line x1="1704.27" x2="1804.44" y1="681.58" y2="490.42" fill="#fff"/><path d="M1704.26,683.28c-0.26,0-0.53-0.06-0.78-0.19c-0.83-0.44-1.15-1.46-0.71-2.29l100.18-191.16
			c0.43-0.83,1.46-1.15,2.28-0.71c0.83,0.43,1.15,1.45,0.71,2.28l-100.18,191.16C1705.46,682.95,1704.87,683.28,1704.26,683.28z"/></g><g><line x1="1849.94" x2="1658.77" y1="636.09" y2="535.92" fill="#fff"/><path d="M1849.93,637.78c-0.26,0-0.53-0.06-0.78-0.19l-191.16-100.18c-0.83-0.43-1.15-1.45-0.71-2.28
			c0.43-0.83,1.46-1.15,2.28-0.71l191.16,100.17c0.83,0.44,1.15,1.46,0.71,2.29C1851.13,637.45,1850.54,637.78,1849.93,637.78z"/></g></svg>